<?xml version="1.0" encoding="utf-8"?>
<!-- Generator: Adobe Illustrator 23.0.0, SVG Export Plug-In . SVG Version: 6.00 Build 0)  -->
<svg version="1.1" id="Layer_1" xmlns="http://www.w3.org/2000/svg" xmlns:xlink="http://www.w3.org/1999/xlink" x="0px" y="0px"
	 viewBox="0 0 59.1 59.6" enable-background="new 0 0 59.1 59.6" xml:space="preserve">
<g>
	
		<ellipse transform="matrix(0.2298 -0.9732 0.9732 0.2298 -6.3675 52.1912)" fill="#8FC73F" cx="29.8" cy="30.1" rx="27.5" ry="27.5"/>
</g>
<g>
	<path fill="#FFFFFF" d="M8.9,24.7c2.4,1.5,4.7,3,7.3,4.6c-2.6,1.6-4.9,3.1-7.3,4.6C8.9,30.9,8.9,27.8,8.9,24.7z"/>
	<path fill="#FFFFFF" d="M26.8,13.8c2,0,3.9,0,5.9,0c0,10.1,0,20.1,0,30.2c-1.9,0-3.9,0-5.9,0C26.8,33.9,26.8,23.9,26.8,13.8z"/>
	<path fill="#FFFFFF" d="M18.4,13.8c2,0,3.9,0,5.8,0c0,10.1,0,20.1,0,30.1c-1.9,0-3.8,0-5.8,0C18.4,33.9,18.4,23.9,18.4,13.8z"/>
	<path fill="#FFFFFF" d="M35.2,44c0-10.1,0-20.1,0-30.1c1.9,0,3.9,0,5.9,0c0,10,0,20.1,0,30.1C39.1,44,37.2,44,35.2,44z"/>
	<path fill="#FFFFFF" d="M43.5,33.9c0-3.1,0-6,0-9.2c2.4,1.6,4.7,3,7.1,4.6C48.2,30.9,46,32.4,43.5,33.9z"/>
</g>
</svg>
