<?xml version="1.0" encoding="UTF-8"?>
<svg width="109px" height="108px" viewBox="0 0 109 108" version="1.1" xmlns="http://www.w3.org/2000/svg" xmlns:xlink="http://www.w3.org/1999/xlink">
    <!-- Generator: Sketch 53 (72520) - https://sketchapp.com -->
    <title>Group 7</title>
    <desc>Created with Sketch.</desc>
    <defs>
        <polygon id="path-1" points="0 0.352 107.9997 0.352 107.9997 107.9997 0 107.9997"></polygon>
        <polygon id="path-3" points="0 108.648 108 108.648 108 1 0 1"></polygon>
    </defs>
    <g id="Page-1" stroke="none" stroke-width="1" fill="none" fill-rule="evenodd">
        <g id="Network-Icons" transform="translate(-653.000000, -886.000000)">
            <g id="Group-7" transform="translate(653.085938, 885.000000)">
                <g id="Group-3" transform="translate(0.000000, 0.648000)">
                    <mask id="mask-2" fill="white">
                        <use xlink:href="#path-1"></use>
                    </mask>
                    <g id="Clip-2"></g>
                    <path d="M107.9997,54.1757 C107.9997,83.9027 83.8227,107.9997 53.9997,107.9997 C24.1767,107.9997 -0.0003,83.9027 -0.0003,54.1757 C-0.0003,24.4497 24.1767,0.3517 53.9997,0.3517 C83.8227,0.3517 107.9997,24.4497 107.9997,54.1757" id="Fill-1" fill="#38B0DE" mask="url(#mask-2)"></path>
                </g>
                <mask id="mask-4" fill="white">
                    <use xlink:href="#path-3"></use>
                </mask>
                <g id="Clip-5"></g>
                <path d="M23.905,36.531 L38.54,36.531 L38.54,21.931 L23.905,21.931 L23.905,36.531 Z M93.266,49.45 C93.066,49.441 92.913,49.429 92.759,49.429 C88.217,49.428 83.674,49.435 79.132,49.418 C78.691,49.417 78.592,49.551 78.593,49.971 C78.608,54.498 78.602,59.024 78.602,63.551 L78.602,64.08 L93.266,64.08 L93.266,49.45 Z M38.544,49.454 C38.368,49.444 38.215,49.429 38.064,49.429 C33.509,49.428 28.954,49.436 24.399,49.417 C23.937,49.415 23.871,49.58 23.872,49.98 C23.883,54.504 23.879,59.028 23.879,63.552 L23.879,64.068 L38.544,64.068 L38.544,49.454 Z M23.91,91.613 L38.534,91.613 L38.534,76.991 L23.91,76.991 L23.91,91.613 Z M41.243,29.924 L41.243,30.424 C41.243,32.828 41.244,35.231 41.242,37.636 C41.241,38.764 40.772,39.239 39.655,39.24 C34.036,39.241 28.417,39.241 22.797,39.24 C21.685,39.24 21.199,38.755 21.199,37.64 C21.196,32.036 21.196,26.432 21.199,20.828 C21.199,19.721 21.694,19.231 22.801,19.23 C28.405,19.229 34.008,19.23 39.613,19.23 C40.767,19.231 41.241,19.698 41.242,20.84 C41.244,23.041 41.243,25.242 41.243,27.443 L41.243,27.942 C41.321,28 41.399,28.057 41.477,28.114 C41.55,27.958 41.587,27.765 41.702,27.649 C43.947,25.393 46.204,23.146 48.453,20.892 C48.882,20.462 49.378,20.313 49.948,20.508 C50.447,20.68 50.734,21.061 50.811,21.582 C50.886,22.089 50.662,22.481 50.309,22.831 C48.947,24.184 47.594,25.545 46.238,26.904 C46.139,27.002 46.046,27.105 45.852,27.308 L46.471,27.308 C51.779,27.308 57.087,27.307 62.393,27.308 C63.624,27.308 64.084,27.77 64.084,29.006 L64.084,54.762 L64.084,55.388 L75.935,55.388 L75.935,54.879 C75.935,52.709 75.934,50.54 75.935,48.37 C75.936,47.247 76.411,46.762 77.519,46.762 C83.138,46.761 88.757,46.761 94.378,46.762 C95.49,46.762 95.975,47.247 95.975,48.36 C95.976,53.964 95.976,59.568 95.975,65.172 C95.975,66.295 95.498,66.78 94.387,66.78 C88.767,66.782 83.148,66.782 77.529,66.78 C76.412,66.78 75.936,66.301 75.936,65.181 C75.934,63.012 75.935,60.842 75.935,58.672 L75.935,58.139 L64.084,58.139 L64.084,58.731 C64.084,67.16 64.083,75.589 64.086,84.019 C64.087,84.465 64.063,84.894 63.733,85.241 C63.408,85.584 63.005,85.676 62.545,85.676 C57.19,85.669 51.837,85.671 46.482,85.671 L45.985,85.671 C45.946,85.727 45.907,85.783 45.867,85.838 C46.061,85.985 46.274,86.112 46.446,86.282 C47.723,87.542 48.994,88.809 50.263,90.077 C50.9,90.713 50.956,91.495 50.415,92.072 C49.874,92.649 49.04,92.633 48.423,92.019 C46.708,90.313 44.996,88.603 43.287,86.89 C42.641,86.243 42.007,85.584 41.367,84.931 C41.325,84.95 41.284,84.969 41.243,84.988 L41.243,85.481 C41.243,87.885 41.244,90.289 41.242,92.692 C41.241,93.844 40.775,94.31 39.622,94.31 C34.017,94.311 28.414,94.311 22.81,94.31 C21.674,94.31 21.199,93.829 21.198,92.677 C21.197,87.104 21.197,81.531 21.198,75.959 C21.198,74.779 21.672,74.301 22.834,74.301 C28.423,74.3 34.01,74.3 39.598,74.301 C40.744,74.301 41.215,74.775 41.215,75.922 C41.215,78.138 41.215,80.355 41.215,82.571 L41.215,83.203 C41.424,83.007 41.545,82.901 41.657,82.788 C43.822,80.626 45.987,78.464 48.151,76.303 C48.272,76.181 48.391,76.057 48.516,75.94 C49.087,75.406 49.888,75.391 50.413,75.901 C50.965,76.438 50.98,77.247 50.409,77.825 C49.126,79.124 47.828,80.408 46.532,81.694 C46.145,82.078 45.745,82.448 45.256,82.916 L61.382,82.916 L61.382,58.152 L45.945,58.152 C46.034,58.266 46.092,58.361 46.169,58.438 C47.548,59.818 48.926,61.197 50.309,62.572 C50.722,62.982 50.894,63.459 50.714,64.02 C50.546,64.54 50.168,64.849 49.625,64.926 C49.139,64.995 48.75,64.805 48.408,64.462 C46.126,62.175 43.837,59.895 41.553,57.609 C41.488,57.545 41.46,57.444 41.415,57.36 L41.265,57.431 C41.257,57.587 41.244,57.744 41.244,57.901 C41.242,60.32 41.244,62.74 41.242,65.16 C41.241,66.312 40.775,66.78 39.624,66.781 C34.02,66.782 28.416,66.782 22.812,66.78 C21.674,66.78 21.199,66.299 21.198,65.147 C21.197,59.575 21.197,54.002 21.198,48.43 C21.199,47.264 21.685,46.781 22.85,46.781 C28.438,46.78 34.026,46.78 39.615,46.781 C40.757,46.781 41.241,47.263 41.242,48.399 C41.244,50.616 41.243,52.833 41.243,55.049 L41.243,55.542 C41.303,55.578 41.364,55.614 41.424,55.651 C41.562,55.462 41.676,55.25 41.84,55.087 C44.043,52.876 46.253,50.671 48.463,48.467 C49.031,47.9 49.765,47.815 50.318,48.236 C50.996,48.752 51.034,49.669 50.386,50.32 C48.845,51.869 47.298,53.412 45.747,54.952 C45.629,55.07 45.465,55.143 45.321,55.237 C45.355,55.284 45.389,55.331 45.424,55.378 L61.407,55.378 L61.407,30.067 L45.35,30.067 C45.491,30.226 45.59,30.35 45.703,30.462 C47.216,31.972 48.732,33.479 50.246,34.989 C50.787,35.528 50.926,36.122 50.649,36.678 C50.226,37.526 49.154,37.674 48.442,36.966 C46.482,35.019 44.53,33.065 42.578,31.111 C42.171,30.704 41.78,30.28 41.382,29.865 C41.335,29.884 41.289,29.904 41.243,29.924 L41.243,29.924 Z" id="Fill-4" fill="#FFFFFF" mask="url(#mask-4)"></path>
                <path d="M93.2663,49.4502 L93.2663,64.0792 L78.6023,64.0792 L78.6023,63.5512 C78.6023,59.0242 78.6083,54.4972 78.5933,49.9712 C78.5923,49.5512 78.6913,49.4162 79.1323,49.4182 C83.6743,49.4342 88.2173,49.4282 92.7593,49.4292 C92.9123,49.4292 93.0663,49.4412 93.2663,49.4502" id="Fill-6" fill="#FFFFFF" mask="url(#mask-4)"></path>
            </g>
        </g>
    </g>
</svg>