<?xml version="1.0" encoding="UTF-8"?>
<svg width="108px" height="108px" viewBox="0 0 108 108" version="1.1" xmlns="http://www.w3.org/2000/svg" xmlns:xlink="http://www.w3.org/1999/xlink">
    <!-- Generator: Sketch 53 (72520) - https://sketchapp.com -->
    <title>Group 10</title>
    <desc>Created with Sketch.</desc>
    <defs>
        <polygon id="path-1" points="0.0002 0.352 108 0.352 108 107.9998 0.0002 107.9998"></polygon>
    </defs>
    <g id="Page-1" stroke="none" stroke-width="1" fill="none" fill-rule="evenodd">
        <g id="Network-Icons" transform="translate(-1339.000000, -661.000000)">
            <g id="Group-10" transform="translate(1339.000000, 660.000000)">
                <g id="Group-3" transform="translate(0.000000, 0.648000)">
                    <mask id="mask-2" fill="white">
                        <use xlink:href="#path-1"></use>
                    </mask>
                    <g id="Clip-2"></g>
                    <path d="M108.0002,54.1758 C108.0002,83.9028 83.8232,107.9998 54.0002,107.9998 C24.1772,107.9998 0.0002,83.9028 0.0002,54.1758 C0.0002,24.4488 24.1772,0.3518 54.0002,0.3518 C83.8232,0.3518 108.0002,24.4488 108.0002,54.1758" id="Fill-1" fill="#38B0DE" mask="url(#mask-2)"></path>
                </g>
                <path d="M88.0724,67.402 C88.0734,66.946 87.9324,66.877 87.5194,66.878 C82.6674,66.892 77.8134,66.874 72.9604,66.903 C72.2834,66.907 71.8144,66.725 71.3354,66.238 C68.4444,63.298 65.5204,60.391 62.5944,57.487 C62.3344,57.228 62.2944,57.058 62.5024,56.753 C62.8044,56.309 63.0134,55.809 63.1974,55.302 C64.7124,51.113 62.8894,46.169 58.8784,43.879 C55.8264,42.136 52.6774,42.008 49.5534,43.757 C49.2144,43.948 49.0494,43.93 48.7814,43.662 C45.7774,40.639 42.7634,37.627 39.7404,34.622 C39.4854,34.369 39.3854,34.119 39.3864,33.76 C39.3984,28.751 39.3894,23.741 39.4044,18.731 C39.4054,18.327 39.3084,18.216 38.8954,18.217 C32.7374,18.231 26.5794,18.231 20.4224,18.218 C20.0364,18.217 19.9284,18.306 19.9314,18.702 C19.9494,21.781 19.9414,24.86 19.9414,27.939 C19.9414,30.983 19.9554,34.027 19.9274,37.071 C19.9234,37.579 20.0514,37.692 20.5514,37.69 C25.5444,37.67 30.5364,37.677 35.5294,37.677 C35.7684,37.677 35.9874,37.667 36.1934,37.873 C39.2854,40.98 42.3844,44.08 45.4924,47.172 C45.7044,47.382 45.6764,47.525 45.5354,47.741 C45.2204,48.221 44.9854,48.744 44.7964,49.285 C43.5204,52.935 44.6004,56.906 47.6034,59.613 C50.5394,62.258 55.0934,62.771 58.4214,60.804 C58.7704,60.597 58.9514,60.612 59.2364,60.9 C62.2384,63.924 65.2544,66.936 68.2754,69.942 C68.5154,70.18 68.6144,70.417 68.6144,70.756 C68.6034,75.766 68.6124,80.776 68.5964,85.786 C68.5954,86.22 68.6684,86.371 69.1524,86.369 C75.2754,86.349 81.3984,86.351 87.5214,86.366 C87.9514,86.367 88.0714,86.258 88.0704,85.824 C88.0554,79.683 88.0544,73.543 88.0724,67.402" id="Fill-4" fill="#F4F4F4"></path>
                <path d="M63.131,74.1705 C56.869,74.1875 50.607,74.1805 44.344,74.1805 C44.188,74.1805 44.031,74.1925 43.876,74.1995 C43.667,74.1935 43.459,74.1815 43.251,74.1815 C39.772,74.1795 36.293,74.1825 32.814,74.1775 C31.999,74.1765 32.095,74.2915 32.092,73.4585 C32.082,69.8415 32.077,66.2235 32.07,62.6055 L32.07,53.9445 C32.07,53.3895 32.07,52.8325 32.071,52.2755 C32.071,51.6845 32.07,51.0935 32.07,50.5015 L32.07,48.4165 L32.069,48.4165 C32.071,47.5475 32.072,46.6785 32.073,45.8095 C32.075,45.1495 32.073,44.4895 32.08,43.8295 C32.083,43.5585 31.985,43.4005 31.69,43.4005 C30.37,43.4035 29.05,43.3995 27.731,43.4065 C27.457,43.4075 27.276,43.5245 27.277,43.8485 C27.279,44.5745 27.226,45.3005 27.195,46.0245 C27.134,47.4815 27.18,48.9415 27.182,50.4005 L27.181,50.4005 C27.178,58.2875 27.175,66.1745 27.176,74.0625 C27.176,74.2805 27.11,74.5165 27.267,74.7165 C27.618,77.2875 29.566,79.0145 32.195,79.0245 C36.699,79.0435 41.202,79.0305 45.706,79.0285 C46.558,79.0285 47.409,79.0165 48.261,79.0085 C53.287,79.0155 58.315,79.0185 63.341,79.0335 C63.696,79.0345 63.727,78.8645 63.725,78.5845 C63.716,77.3155 63.699,76.0445 63.732,74.7745 C63.743,74.3005 63.613,74.1695 63.131,74.1705" id="Fill-6" fill="#F4F4F4"></path>
                <path d="M44.8712,30.3776 C50.7512,30.3606 56.6302,30.3666 62.5092,30.3666 C62.6652,30.3666 62.8212,30.3546 62.9772,30.3476 C63.1852,30.3536 63.3932,30.3656 63.6022,30.3656 C67.5332,30.3666 71.4652,30.3726 75.3952,30.3576 C75.8052,30.3566 75.9242,30.4636 75.9212,30.8786 C75.9012,33.1906 75.9092,35.5046 75.9122,37.8176 C75.9162,40.8266 75.9232,43.8356 75.9282,46.8446 C75.9292,48.6176 75.9302,50.3926 75.9312,52.1656 C75.9312,52.9316 75.9322,53.6966 75.9322,54.4626 L75.9322,56.1316 C75.9312,56.8966 75.9302,57.6596 75.9292,58.4246 C75.9272,59.1706 75.9272,59.9166 75.9232,60.6616 C75.9212,60.8716 75.9462,61.0426 76.2212,61.0416 C77.5742,61.0376 78.9272,61.0426 80.2802,61.0346 C80.5572,61.0336 80.7252,60.9046 80.7252,60.5856 C80.7232,59.8256 80.7762,59.0656 80.8062,58.3066 C80.8672,56.7476 80.8212,55.1856 80.8192,53.6236 C80.8222,45.9456 80.8262,38.2686 80.8262,30.5906 C80.8262,30.4036 80.8742,30.2056 80.7392,30.0376 C80.7062,29.5666 80.6062,29.1126 80.4452,28.6686 C79.8142,26.9216 77.9812,25.4816 75.7462,25.5046 C71.4352,25.5476 67.1242,25.5156 62.8122,25.5186 C61.3692,25.5196 59.9272,25.5306 58.4842,25.5376 C53.8762,25.5306 49.2672,25.5276 44.6572,25.5136 C44.2992,25.5116 44.2742,25.6896 44.2762,25.9656 C44.2842,27.2346 44.3022,28.5056 44.2682,29.7736 C44.2562,30.2536 44.3922,30.3786 44.8712,30.3776" id="Fill-8" fill="#F4F4F4"></path>
            </g>
        </g>
    </g>
</svg>