<svg version="1.1" xmlns="http://www.w3.org/2000/svg" xmlns:xlink="http://www.w3.org/1999/xlink" preserveAspectRatio="xMidYMid meet" viewBox="0 0 640 640" width="640" height="640"><defs><path d="M319.64 632.35C145.57 632.35 4.45 491.86 4.45 318.57C4.45 145.27 145.57 4.78 319.64 4.78C493.7 4.78 634.82 145.27 634.82 318.57C634.82 491.86 493.7 632.35 319.64 632.35Z" id="aJOFkG1"/><path d="M319.64 632.35C145.57 632.35 4.45 491.86 4.45 318.57C4.45 145.27 145.57 4.78 319.64 4.78C493.7 4.78 634.82 145.27 634.82 318.57C634.82 491.86 493.7 632.35 319.64 632.35Z" id="b2J9povPf7"/><path d="M512.53 311.15L512.53 511.36L126.85 511.36L126.85 125.77L327.06 125.77L327.06 311.15L512.53 311.15ZM327.06 496.51L497.68 496.51L497.68 326L327.06 326L327.06 496.51ZM141.7 496.51L311.88 496.51L311.88 326L141.7 326L141.7 496.51ZM141.7 311.15L311.88 311.15L311.88 140.52L141.7 140.52L141.7 311.15Z" id="d5tEeKvqGf"/><path d="M512.53 311.15L512.53 511.36L126.85 511.36L126.85 125.77L327.06 125.77L327.06 311.15L512.53 311.15ZM327.06 496.51L497.68 496.51L497.68 326L327.06 326L327.06 496.51ZM141.7 496.51L311.88 496.51L311.88 326L141.7 326L141.7 496.51ZM141.7 311.15L311.88 311.15L311.88 140.52L141.7 140.52L141.7 311.15Z" id="b1dn9G6N0I"/><path d="M512.53 125.77C512.53 219.23 512.53 271.15 512.53 281.53C512.53 281.53 512.53 281.53 512.53 281.53C419.07 281.53 367.16 281.53 356.77 281.53C356.77 281.53 356.77 281.53 356.77 281.53C356.77 188.08 356.77 136.15 356.77 125.77C356.77 125.77 356.77 125.77 356.77 125.77C450.23 125.77 502.15 125.77 512.53 125.77C512.53 125.77 512.53 125.77 512.53 125.77Z" id="aA39nDi12"/><path d="M512.53 125.77C512.53 219.23 512.53 271.15 512.53 281.53C512.53 281.53 512.53 281.53 512.53 281.53C419.07 281.53 367.16 281.53 356.77 281.53C356.77 281.53 356.77 281.53 356.77 281.53C356.77 188.08 356.77 136.15 356.77 125.77C356.77 125.77 356.77 125.77 356.77 125.77C450.23 125.77 502.15 125.77 512.53 125.77C512.53 125.77 512.53 125.77 512.53 125.77Z" id="jq8M9Myvr"/></defs><g><g><g><use xlink:href="#aJOFkG1" opacity="1" fill="#196970" fill-opacity="1"/><g><use xlink:href="#aJOFkG1" opacity="1" fill-opacity="0" stroke="#000000" stroke-width="1" stroke-opacity="0"/></g></g><g><use xlink:href="#b2J9povPf7" opacity="1" fill="#000000" fill-opacity="0"/><g><use xlink:href="#b2J9povPf7" opacity="1" fill-opacity="0" stroke="#000000" stroke-width="1" stroke-opacity="0"/></g></g><g><use xlink:href="#d5tEeKvqGf" opacity="1" fill="#ffffff" fill-opacity="1"/><g><use xlink:href="#d5tEeKvqGf" opacity="1" fill-opacity="0" stroke="#000000" stroke-width="1" stroke-opacity="0"/></g></g><g><use xlink:href="#b1dn9G6N0I" opacity="1" fill="#000000" fill-opacity="0"/><g><use xlink:href="#b1dn9G6N0I" opacity="1" fill-opacity="0" stroke="#000000" stroke-width="1" stroke-opacity="0"/></g></g><g><use xlink:href="#aA39nDi12" opacity="1" fill="#ffffff" fill-opacity="1"/><g><use xlink:href="#aA39nDi12" opacity="1" fill-opacity="0" stroke="#000000" stroke-width="1" stroke-opacity="0"/></g></g><g><use xlink:href="#jq8M9Myvr" opacity="1" fill="#000000" fill-opacity="0"/><g><use xlink:href="#jq8M9Myvr" opacity="1" fill-opacity="0" stroke="#000000" stroke-width="1" stroke-opacity="0"/></g></g></g></g></svg>