<svg version="1.1" xmlns="http://www.w3.org/2000/svg" xmlns:xlink="http://www.w3.org/1999/xlink" preserveAspectRatio="xMidYMid meet" viewBox="0 0 640 640" width="640" height="640"><defs><path d="M319.3 630.69C145.65 630.69 4.88 490.58 4.88 317.76C4.88 144.94 145.65 4.83 319.3 4.83C492.95 4.83 633.71 144.94 633.71 317.76C633.71 490.58 492.95 630.69 319.3 630.69Z" id="f8y7XVXM4"/><path d="M319.3 630.69C145.65 630.69 4.88 490.58 4.88 317.76C4.88 144.94 145.65 4.83 319.3 4.83C492.95 4.83 633.71 144.94 633.71 317.76C633.71 490.58 492.95 630.69 319.3 630.69Z" id="anlkTme8A"/><path d="M174.7 537.89C174.7 539.15 174.7 545.36 174.7 556.55C185.83 556.55 274.9 556.55 286.03 556.55C286.03 545.49 286.03 539.34 286.03 538.11C286.03 527.89 277.81 519.58 267.6 519.46C267.6 519.46 200.86 519.46 193.45 519.46C183.19 519.41 174.81 527.64 174.7 537.89Z" id="b3fYWyR9i6"/><path d="M174.7 537.89C174.7 539.15 174.7 545.36 174.7 556.55C185.83 556.55 274.9 556.55 286.03 556.55C286.03 545.49 286.03 539.34 286.03 538.11C286.03 527.89 277.81 519.58 267.6 519.46C267.6 519.46 200.86 519.46 193.45 519.46C183.19 519.41 174.81 527.64 174.7 537.89Z" id="a1AGK8H5UV"/><path d="M234.61 405.55L236.66 405.79L238.69 406.11L240.69 406.51L242.66 407L244.59 407.56L246.49 408.21L248.35 408.92L250.18 409.73L251.96 410.59L253.71 411.55L255.39 412.55L257.05 413.63L258.65 414.77L260.19 415.99L261.69 417.27L263.13 418.58L264.51 419.98L265.85 421.43L267.12 422.92L268.33 424.48L269.46 426.08L270.54 427.72L271.55 429.42L272.49 431.17L273.35 432.95L274.14 434.78L274.86 436.64L275.51 438.54L276.07 440.48L276.54 442.45L276.94 444.45L277.26 446.47L277.48 448.54L277.62 450.62L277.67 452.72L277.61 454.83L277.48 456.93L277.24 458.98L276.92 461.01L276.53 463.01L276.03 464.98L275.46 466.94L274.83 468.83L274.1 470.71L273.3 472.53L272.43 474.31L271.49 476.06L270.47 477.76L269.39 479.41L268.23 481.02L267.02 482.56L265.75 484.07L264.42 485.52L263.02 486.9L261.57 488.23L260.08 489.5L258.52 490.71L256.92 491.86L255.27 492.94L253.55 493.94L251.82 494.89L250.02 495.75L248.19 496.54L246.32 497.27L244.41 497.91L242.47 498.48L240.5 498.96L238.5 499.36L236.47 499.67L234.4 499.9L232.32 500.02L230.21 500.07L228.09 500.02L226.01 499.88L223.95 499.66L221.93 499.34L219.93 498.93L217.95 498.45L216.02 497.88L214.11 497.23L212.25 496.51L210.42 495.7L208.63 494.83L206.89 493.89L205.19 492.87L203.54 491.79L201.94 490.65L200.4 489.42L198.9 488.15L197.46 486.82L196.07 485.44L194.74 483.97L193.47 482.48L192.26 480.92L191.13 479.32L190.05 477.67L189.05 475.97L188.11 474.22L187.24 472.42L186.44 470.59L185.73 468.73L185.09 466.83L184.54 464.89L184.06 462.92L183.66 460.9L183.36 458.87L183.14 456.82L183 454.72L182.96 452.62L183.01 450.51L183.15 448.43L183.38 446.36L183.69 444.33L184.11 442.32L184.58 440.35L185.16 438.42L185.81 436.52L186.52 434.65L187.33 432.82L188.21 431.04L189.15 429.29L190.16 427.61L191.24 425.96L192.39 424.35L193.61 422.81L194.88 421.3L196.22 419.87L197.61 418.47L199.06 417.15L200.55 415.88L202.11 414.68L203.72 413.53L205.37 412.47L207.07 411.45L208.82 410.51L210.61 409.65L212.44 408.86L214.3 408.14L216.21 407.51L218.15 406.95L220.13 406.48L222.13 406.08L224.17 405.76L226.22 405.54L228.32 405.41L230.41 405.36L232.53 405.43L234.61 405.55ZM225.98 411.51L223.9 411.77L221.86 412.13L219.86 412.59L217.89 413.15L215.97 413.8L214.09 414.53L212.27 415.36L210.47 416.28L208.74 417.28L207.07 418.36L205.45 419.51L203.88 420.75L202.38 422.05L200.95 423.42L199.59 424.86L198.28 426.36L197.06 427.93L195.9 429.55L194.83 431.23L193.83 432.97L192.93 434.76L192.1 436.59L191.37 438.48L190.72 440.4L190.16 442.37L189.72 444.37L189.35 446.41L189.1 448.49L188.94 450.59L188.89 452.72L188.95 454.86L189.11 456.96L189.38 459.03L189.75 461.08L190.23 463.08L190.78 465.03L191.43 466.96L192.18 468.83L193.02 470.67L193.94 472.45L194.95 474.19L196.03 475.87L197.19 477.49L198.43 479.05L199.73 480.54L201.09 481.99L202.54 483.35L204.05 484.64L205.61 485.88L207.24 487.02L208.93 488.09L210.66 489.09L212.46 490L214.28 490.82L216.17 491.55L218.1 492.21L220.07 492.76L222.07 493.22L224.1 493.57L226.19 493.84L228.28 493.98L230.41 494.03L232.54 493.98L234.64 493.81L236.72 493.54L238.76 493.17L240.74 492.71L242.71 492.16L244.63 491.49L246.51 490.76L248.34 489.92L250.12 489.01L251.85 488.01L253.53 486.93L255.14 485.77L256.71 484.55L258.21 483.24L259.64 481.88L261 480.43L262.3 478.94L263.53 477.36L264.69 475.74L265.75 474.06L266.75 472.33L267.66 470.55L268.49 468.72L269.23 466.84L269.88 464.92L270.44 462.95L270.9 460.95L271.25 458.91L271.52 456.85L271.68 454.75L271.73 452.62L271.66 450.49L271.51 448.4L271.22 446.31L270.85 444.28L270.38 442.28L269.82 440.32L269.15 438.4L268.41 436.52L267.58 434.7L266.66 432.9L265.66 431.19L264.56 429.5L263.42 427.88L262.18 426.32L260.87 424.83L259.49 423.38L258.06 422.02L256.55 420.73L254.98 419.51L253.36 418.35L251.67 417.28L249.94 416.28L248.16 415.37L246.32 414.55L244.44 413.8L242.52 413.15L240.55 412.59L238.55 412.13L236.51 411.78L234.43 411.51L232.34 411.35L230.21 411.31L228.08 411.35L225.98 411.51Z" id="auf2NDADw"/><path d="M234.61 405.55L236.66 405.79L238.69 406.11L240.69 406.51L242.66 407L244.59 407.56L246.49 408.21L248.35 408.92L250.18 409.73L251.96 410.59L253.71 411.55L255.39 412.55L257.05 413.63L258.65 414.77L260.19 415.99L261.69 417.27L263.13 418.58L264.51 419.98L265.85 421.43L267.12 422.92L268.33 424.48L269.46 426.08L270.54 427.72L271.55 429.42L272.49 431.17L273.35 432.95L274.14 434.78L274.86 436.64L275.51 438.54L276.07 440.48L276.54 442.45L276.94 444.45L277.26 446.47L277.48 448.54L277.62 450.62L277.67 452.72L277.61 454.83L277.48 456.93L277.24 458.98L276.92 461.01L276.53 463.01L276.03 464.98L275.46 466.94L274.83 468.83L274.1 470.71L273.3 472.53L272.43 474.31L271.49 476.06L270.47 477.76L269.39 479.41L268.23 481.02L267.02 482.56L265.75 484.07L264.42 485.52L263.02 486.9L261.57 488.23L260.08 489.5L258.52 490.71L256.92 491.86L255.27 492.94L253.55 493.94L251.82 494.89L250.02 495.75L248.19 496.54L246.32 497.27L244.41 497.91L242.47 498.48L240.5 498.96L238.5 499.36L236.47 499.67L234.4 499.9L232.32 500.02L230.21 500.07L228.09 500.02L226.01 499.88L223.95 499.66L221.93 499.34L219.93 498.93L217.95 498.45L216.02 497.88L214.11 497.23L212.25 496.51L210.42 495.7L208.63 494.83L206.89 493.89L205.19 492.87L203.54 491.79L201.94 490.65L200.4 489.42L198.9 488.15L197.46 486.82L196.07 485.44L194.74 483.97L193.47 482.48L192.26 480.92L191.13 479.32L190.05 477.67L189.05 475.97L188.11 474.22L187.24 472.42L186.44 470.59L185.73 468.73L185.09 466.83L184.54 464.89L184.06 462.92L183.66 460.9L183.36 458.87L183.14 456.82L183 454.72L182.96 452.62L183.01 450.51L183.15 448.43L183.38 446.36L183.69 444.33L184.11 442.32L184.58 440.35L185.16 438.42L185.81 436.52L186.52 434.65L187.33 432.82L188.21 431.04L189.15 429.29L190.16 427.61L191.24 425.96L192.39 424.35L193.61 422.81L194.88 421.3L196.22 419.87L197.61 418.47L199.06 417.15L200.55 415.88L202.11 414.68L203.72 413.53L205.37 412.47L207.07 411.45L208.82 410.51L210.61 409.65L212.44 408.86L214.3 408.14L216.21 407.51L218.15 406.95L220.13 406.48L222.13 406.08L224.17 405.76L226.22 405.54L228.32 405.41L230.41 405.36L232.53 405.43L234.61 405.55ZM225.98 411.51L223.9 411.77L221.86 412.13L219.86 412.59L217.89 413.15L215.97 413.8L214.09 414.53L212.27 415.36L210.47 416.28L208.74 417.28L207.07 418.36L205.45 419.51L203.88 420.75L202.38 422.05L200.95 423.42L199.59 424.86L198.28 426.36L197.06 427.93L195.9 429.55L194.83 431.23L193.83 432.97L192.93 434.76L192.1 436.59L191.37 438.48L190.72 440.4L190.16 442.37L189.72 444.37L189.35 446.41L189.1 448.49L188.94 450.59L188.89 452.72L188.95 454.86L189.11 456.96L189.38 459.03L189.75 461.08L190.23 463.08L190.78 465.03L191.43 466.96L192.18 468.83L193.02 470.67L193.94 472.45L194.95 474.19L196.03 475.87L197.19 477.49L198.43 479.05L199.73 480.54L201.09 481.99L202.54 483.35L204.05 484.64L205.61 485.88L207.24 487.02L208.93 488.09L210.66 489.09L212.46 490L214.28 490.82L216.17 491.55L218.1 492.21L220.07 492.76L222.07 493.22L224.1 493.57L226.19 493.84L228.28 493.98L230.41 494.03L232.54 493.98L234.64 493.81L236.72 493.54L238.76 493.17L240.74 492.71L242.71 492.16L244.63 491.49L246.51 490.76L248.34 489.92L250.12 489.01L251.85 488.01L253.53 486.93L255.14 485.77L256.71 484.55L258.21 483.24L259.64 481.88L261 480.43L262.3 478.94L263.53 477.36L264.69 475.74L265.75 474.06L266.75 472.33L267.66 470.55L268.49 468.72L269.23 466.84L269.88 464.92L270.44 462.95L270.9 460.95L271.25 458.91L271.52 456.85L271.68 454.75L271.73 452.62L271.66 450.49L271.51 448.4L271.22 446.31L270.85 444.28L270.38 442.28L269.82 440.32L269.15 438.4L268.41 436.52L267.58 434.7L266.66 432.9L265.66 431.19L264.56 429.5L263.42 427.88L262.18 426.32L260.87 424.83L259.49 423.38L258.06 422.02L256.55 420.73L254.98 419.51L253.36 418.35L251.67 417.28L249.94 416.28L248.16 415.37L246.32 414.55L244.44 413.8L242.52 413.15L240.55 412.59L238.55 412.13L236.51 411.78L234.43 411.51L232.34 411.35L230.21 411.31L228.08 411.35L225.98 411.51Z" id="bqDkpSXLs"/><path d="M319.19 537.37C319.19 538.61 319.19 544.82 319.19 556.01C330.37 556.06 419.77 556.49 430.95 556.55C430.95 545.49 430.95 539.34 430.95 538.11C430.95 527.93 422.8 519.63 412.63 519.46C412.63 519.46 345.89 519.46 338.47 519.46C328.22 519.11 319.59 527.12 319.19 537.37Z" id="a9YNohKbR"/><path d="M319.19 537.37C319.19 538.61 319.19 544.82 319.19 556.01C330.37 556.06 419.77 556.49 430.95 556.55C430.95 545.49 430.95 539.34 430.95 538.11C430.95 527.93 422.8 519.63 412.63 519.46C412.63 519.46 345.89 519.46 338.47 519.46C328.22 519.11 319.59 527.12 319.19 537.37Z" id="h1VBz6Bfr6"/><path d="M379.64 405.55L381.69 405.79L383.72 406.11L385.73 406.51L387.68 407L389.62 407.56L391.53 408.21L393.38 408.92L395.21 409.73L396.99 410.59L398.72 411.55L400.42 412.55L402.08 413.63L403.67 414.77L405.22 415.99L406.72 417.27L408.16 418.58L409.55 419.98L410.88 421.43L412.14 422.92L413.34 424.48L414.49 426.08L415.57 427.72L416.57 429.42L417.51 431.17L418.38 432.95L419.17 434.78L419.89 436.64L420.53 438.54L421.1 440.48L421.57 442.45L421.97 444.45L422.29 446.47L422.51 448.54L422.64 450.62L422.69 452.72L422.64 454.83L422.5 456.93L422.27 458.98L421.96 461.01L421.54 463.01L421.07 464.98L420.49 466.94L419.84 468.83L419.13 470.71L418.33 472.53L417.46 474.31L416.51 476.06L415.49 477.76L414.41 479.41L413.26 481.02L412.06 482.56L410.78 484.07L409.45 485.52L408.05 486.9L406.61 488.23L405.1 489.5L403.54 490.71L401.93 491.86L400.28 492.94L398.58 493.94L396.83 494.89L395.05 495.75L393.23 496.54L391.35 497.27L389.44 497.91L387.51 498.48L385.53 498.96L383.53 499.36L381.5 499.67L379.43 499.9L377.35 500.02L375.24 500.07L373.12 500.02L371.04 499.88L368.98 499.66L366.94 499.34L364.94 498.93L362.97 498.45L361.03 497.88L359.14 497.23L357.27 496.51L355.44 495.7L353.66 494.83L351.91 493.89L350.23 492.87L348.57 491.79L346.97 490.65L345.43 489.42L343.92 488.15L342.49 486.82L341.09 485.44L339.77 483.97L338.5 482.48L337.29 480.92L336.15 479.32L335.08 477.67L334.07 475.97L333.13 474.22L332.27 472.42L331.48 470.59L330.76 468.73L330.13 466.83L329.57 464.89L329.08 462.92L328.69 460.9L328.38 458.87L328.15 456.82L328.03 454.72L327.98 452.62L328.04 450.51L328.17 448.43L328.41 446.36L328.73 444.33L329.12 442.32L329.62 440.35L330.19 438.42L330.82 436.52L331.56 434.65L332.35 432.82L333.22 431.04L334.18 429.29L335.19 427.61L336.27 425.96L337.42 424.35L338.63 422.81L339.91 421.3L341.25 419.87L342.63 418.47L344.08 417.15L345.59 415.88L347.14 414.68L348.75 413.53L350.4 412.47L352.1 411.45L353.85 410.51L355.63 409.65L357.47 408.86L359.33 408.14L361.24 407.51L363.18 406.95L365.15 406.48L367.15 406.08L369.18 405.76L371.25 405.54L373.33 405.41L375.44 405.36L377.56 405.43L379.64 405.55ZM371 411.51L368.93 411.77L366.88 412.13L364.88 412.59L362.92 413.15L361 413.8L359.13 414.53L357.28 415.36L355.5 416.28L353.77 417.28L352.09 418.36L350.46 419.51L348.91 420.75L347.41 422.05L345.97 423.42L344.6 424.86L343.31 426.36L342.09 427.93L340.93 429.55L339.87 431.23L338.86 432.97L337.96 434.76L337.13 436.59L336.4 438.48L335.75 440.4L335.19 442.37L334.73 444.37L334.38 446.41L334.11 448.49L333.97 450.59L333.92 452.72L333.97 454.86L334.15 456.96L334.42 459.03L334.78 461.08L335.24 463.08L335.81 465.03L336.47 466.96L337.21 468.83L338.05 470.67L338.96 472.45L339.98 474.19L341.06 475.87L342.22 477.49L343.44 479.05L344.74 480.54L346.13 481.99L347.57 483.35L349.07 484.64L350.64 485.88L352.26 487.02L353.94 488.09L355.69 489.09L357.47 490L359.32 490.82L361.19 491.55L363.13 492.21L365.08 492.76L367.1 493.22L369.14 493.57L371.2 493.84L373.32 493.98L375.44 494.03L377.57 493.98L379.67 493.81L381.74 493.54L383.77 493.17L385.77 492.71L387.74 492.16L389.65 491.49L391.54 490.76L393.37 489.92L395.15 489.01L396.88 488.01L398.55 486.93L400.17 485.77L401.73 484.55L403.24 483.24L404.67 481.88L406.03 480.43L407.34 478.94L408.56 477.36L409.7 475.74L410.78 474.06L411.77 472.33L412.69 470.55L413.52 468.72L414.25 466.84L414.9 464.92L415.46 462.95L415.92 460.95L416.28 458.91L416.55 456.85L416.71 454.75L416.76 452.62L416.7 450.49L416.52 448.4L416.25 446.31L415.89 444.28L415.41 442.28L414.84 440.32L414.19 438.4L413.44 436.52L412.6 434.7L411.67 432.9L410.67 431.19L409.59 429.5L408.43 427.88L407.21 426.32L405.89 424.83L404.52 423.38L403.08 422.02L401.57 420.73L400.01 419.51L398.39 418.35L396.71 417.28L394.97 416.28L393.18 415.37L391.35 414.55L389.46 413.8L387.54 413.15L385.58 412.59L383.58 412.13L381.53 411.78L379.46 411.51L377.37 411.35L375.24 411.31L373.11 411.35L371 411.51Z" id="a7ZtnRz8zR"/><path d="M379.64 405.55L381.69 405.79L383.72 406.11L385.73 406.51L387.68 407L389.62 407.56L391.53 408.21L393.38 408.92L395.21 409.73L396.99 410.59L398.72 411.55L400.42 412.55L402.08 413.63L403.67 414.77L405.22 415.99L406.72 417.27L408.16 418.58L409.55 419.98L410.88 421.43L412.14 422.92L413.34 424.48L414.49 426.08L415.57 427.72L416.57 429.42L417.51 431.17L418.38 432.95L419.17 434.78L419.89 436.64L420.53 438.54L421.1 440.48L421.57 442.45L421.97 444.45L422.29 446.47L422.51 448.54L422.64 450.62L422.69 452.72L422.64 454.83L422.5 456.93L422.27 458.98L421.96 461.01L421.54 463.01L421.07 464.98L420.49 466.94L419.84 468.83L419.13 470.71L418.33 472.53L417.46 474.31L416.51 476.06L415.49 477.76L414.41 479.41L413.26 481.02L412.06 482.56L410.78 484.07L409.45 485.52L408.05 486.9L406.61 488.23L405.1 489.5L403.54 490.71L401.93 491.86L400.28 492.94L398.58 493.94L396.83 494.89L395.05 495.75L393.23 496.54L391.35 497.27L389.44 497.91L387.51 498.48L385.53 498.96L383.53 499.36L381.5 499.67L379.43 499.9L377.35 500.02L375.24 500.07L373.12 500.02L371.04 499.88L368.98 499.66L366.94 499.34L364.94 498.93L362.97 498.45L361.03 497.88L359.14 497.23L357.27 496.51L355.44 495.7L353.66 494.83L351.91 493.89L350.23 492.87L348.57 491.79L346.97 490.65L345.43 489.42L343.92 488.15L342.49 486.82L341.09 485.44L339.77 483.97L338.5 482.48L337.29 480.92L336.15 479.32L335.08 477.67L334.07 475.97L333.13 474.22L332.27 472.42L331.48 470.59L330.76 468.73L330.13 466.83L329.57 464.89L329.08 462.92L328.69 460.9L328.38 458.87L328.15 456.82L328.03 454.72L327.98 452.62L328.04 450.51L328.17 448.43L328.41 446.36L328.73 444.33L329.12 442.32L329.62 440.35L330.19 438.42L330.82 436.52L331.56 434.65L332.35 432.82L333.22 431.04L334.18 429.29L335.19 427.61L336.27 425.96L337.42 424.35L338.63 422.81L339.91 421.3L341.25 419.87L342.63 418.47L344.08 417.15L345.59 415.88L347.14 414.68L348.75 413.53L350.4 412.47L352.1 411.45L353.85 410.51L355.63 409.65L357.47 408.86L359.33 408.14L361.24 407.51L363.18 406.95L365.15 406.48L367.15 406.08L369.18 405.76L371.25 405.54L373.33 405.41L375.44 405.36L377.56 405.43L379.64 405.55ZM371 411.51L368.93 411.77L366.88 412.13L364.88 412.59L362.92 413.15L361 413.8L359.13 414.53L357.28 415.36L355.5 416.28L353.77 417.28L352.09 418.36L350.46 419.51L348.91 420.75L347.41 422.05L345.97 423.42L344.6 424.86L343.31 426.36L342.09 427.93L340.93 429.55L339.87 431.23L338.86 432.97L337.96 434.76L337.13 436.59L336.4 438.48L335.75 440.4L335.19 442.37L334.73 444.37L334.38 446.41L334.11 448.49L333.97 450.59L333.92 452.72L333.97 454.86L334.15 456.96L334.42 459.03L334.78 461.08L335.24 463.08L335.81 465.03L336.47 466.96L337.21 468.83L338.05 470.67L338.96 472.45L339.98 474.19L341.06 475.87L342.22 477.49L343.44 479.05L344.74 480.54L346.13 481.99L347.57 483.35L349.07 484.64L350.64 485.88L352.26 487.02L353.94 488.09L355.69 489.09L357.47 490L359.32 490.82L361.19 491.55L363.13 492.21L365.08 492.76L367.1 493.22L369.14 493.57L371.2 493.84L373.32 493.98L375.44 494.03L377.57 493.98L379.67 493.81L381.74 493.54L383.77 493.17L385.77 492.71L387.74 492.16L389.65 491.49L391.54 490.76L393.37 489.92L395.15 489.01L396.88 488.01L398.55 486.93L400.17 485.77L401.73 484.55L403.24 483.24L404.67 481.88L406.03 480.43L407.34 478.94L408.56 477.36L409.7 475.74L410.78 474.06L411.77 472.33L412.69 470.55L413.52 468.72L414.25 466.84L414.9 464.92L415.46 462.95L415.92 460.95L416.28 458.91L416.55 456.85L416.71 454.75L416.76 452.62L416.7 450.49L416.52 448.4L416.25 446.31L415.89 444.28L415.41 442.28L414.84 440.32L414.19 438.4L413.44 436.52L412.6 434.7L411.67 432.9L410.67 431.19L409.59 429.5L408.43 427.88L407.21 426.32L405.89 424.83L404.52 423.38L403.08 422.02L401.57 420.73L400.01 419.51L398.39 418.35L396.71 417.28L394.97 416.28L393.18 415.37L391.35 414.55L389.46 413.8L387.54 413.15L385.58 412.59L383.58 412.13L381.53 411.78L379.46 411.51L377.37 411.35L375.24 411.31L373.11 411.35L371 411.51Z" id="b5xvn3i4UG"/><path d="M357.77 100L362.26 100.44L366.74 101.05L371.19 101.83L375.6 102.78L379.99 103.91L384.34 105.21L388.65 106.67L392.92 108.31L397.12 110.14L401.27 112.11L405.37 114.27L409.37 116.6L413.31 119.1L417.17 121.77L420.94 124.61L424.63 127.63L428.22 130.81L431.7 134.18L433.35 135.85L434.95 137.55L436.53 139.26L438.07 141.03L439.56 142.81L441.02 144.6L442.44 146.45L443.82 148.3L445.17 150.2L446.47 152.1L447.73 154.04L448.95 156L450.15 157.97L451.29 159.97L452.4 161.99L453.47 164.04L454.48 166.1L455.47 168.17L456.41 170.28L457.31 172.39L458.17 174.52L458.98 176.68L459.74 178.85L460.47 181.04L461.17 183.23L461.81 185.44L462.41 187.67L462.97 189.91L463.48 192.16L463.94 194.42L464.37 196.69L464.75 198.98L465.08 201.27L465.37 203.57L465.61 205.89L465.81 208.21L465.96 210.53L466.05 212.87L466.12 215.2L466.13 217.54L466.1 219.97L466.02 222.39L465.91 224.79L465.75 227.2L465.53 229.58L465.29 231.98L464.99 234.35L464.64 236.73L464.26 239.09L463.83 241.44L463.35 243.79L462.84 246.13L462.27 248.45L461.67 250.75L461.03 253.04L460.33 255.33L459.6 257.58L458.84 259.84L458.03 262.08L457.17 264.3L456.26 266.5L455.33 268.69L454.36 270.87L453.34 273.01L452.27 275.16L451.18 277.27L450.03 279.35L448.86 281.43L447.63 283.48L446.38 285.52L445.08 287.54L443.74 289.52L442.37 291.48L440.96 293.42L439.51 295.34L438.02 297.23L436.5 299.09L434.94 300.93L433.33 302.73L431.7 304.52L348.64 392.76L348.64 334.08L347.06 334.08L345.48 334.06L343.9 334.03L342.33 333.97L340.76 333.89L337.61 333.67L336.04 333.51L334.48 333.35L332.92 333.16L331.36 332.95L329.81 332.73L328.25 332.47L326.71 332.2L325.17 331.92L323.63 331.6L322.1 331.27L320.56 330.92L319.05 330.55L317.52 330.15L316.01 329.74L314.5 329.31L313 328.85L311.5 328.37L310.02 327.88L308.53 327.37L307.07 326.83L305.59 326.28L304.13 325.71L302.68 325.1L301.22 324.5L299.79 323.86L298.36 323.21L296.93 322.53L295.52 321.84L294.12 321.13L292.72 320.4L291.32 319.64L289.95 318.87L288.57 318.08L288.09 320.08L287.54 322.05L286.93 323.97L286.25 325.88L285.52 327.76L284.73 329.58L283.87 331.39L282.95 333.16L281.98 334.87L280.96 336.56L279.88 338.21L278.75 339.82L277.56 341.39L276.34 342.91L275.05 344.39L273.73 345.82L272.35 347.2L270.93 348.54L269.49 349.84L267.98 351.08L266.44 352.27L264.86 353.42L263.24 354.5L261.59 355.53L259.89 356.52L258.17 357.44L256.43 358.31L254.63 359.12L252.82 359.87L250.97 360.57L249.1 361.19L247.21 361.76L245.29 362.27L243.35 362.71L241.38 363.08L239.39 363.4L237.39 363.64L235.35 363.81L233.32 363.92L231.27 363.95L231.27 393.4L189.73 349.33L188.91 348.43L188.1 347.52L186.54 345.65L185.79 344.69L185.06 343.72L184.35 342.74L183.66 341.75L182.98 340.75L182.33 339.74L181.09 337.67L180.5 336.62L179.93 335.56L179.37 334.49L178.85 333.41L178.34 332.32L177.85 331.22L177.37 330.12L176.93 328.99L176.5 327.88L176.1 326.74L175.72 325.61L175.35 324.47L175 323.31L174.69 322.15L174.4 320.99L174.11 319.81L173.86 318.63L173.64 317.44L173.43 316.25L173.24 315.06L173.08 313.87L172.94 312.66L172.83 311.45L172.73 310.24L172.65 309.02L172.6 307.81L172.57 306.59L172.57 305.37L172.62 302.95L172.78 300.55L173.02 298.18L173.35 295.85L173.76 293.54L174.29 291.27L174.88 289.01L175.57 286.82L176.34 284.64L177.2 282.52L178.12 280.43L179.13 278.4L180.21 276.4L181.37 274.46L182.6 272.55L183.9 270.71L185.27 268.91L186.7 267.16L188.21 265.5L189.77 263.86L191.39 262.3L193.07 260.81L194.82 259.36L196.6 258L198.46 256.69L200.35 255.47L202.3 254.31L204.29 253.23L206.34 252.23L208.42 251.29L210.55 250.43L212.71 249.67L214.92 248.99L217.16 248.38L219.43 247.87L221.75 247.44L224.09 247.11L226.46 246.87L228.84 246.73L231.27 246.68L234.97 246.68L234.23 243.65L233.56 240.6L232.97 237.55L232.48 234.49L232.05 231.44L231.72 228.38L231.46 225.33L231.27 222.26L231.18 219.21L231.16 216.16L231.22 213.11L231.37 210.07L231.59 207.04L231.89 204.02L232.26 201L232.72 197.99L233.24 195.02L233.85 192.05L234.53 189.1L235.29 186.17L236.12 183.26L237.02 180.37L238.01 177.51L239.07 174.67L240.2 171.85L241.41 169.07L242.68 166.31L244.03 163.59L245.45 160.89L246.94 158.24L248.5 155.61L250.13 153.02L251.83 150.48L253.61 147.97L255.46 145.51L257.36 143.09L259.35 140.71L261.4 138.37L263.51 136.08L265.71 133.86L269.2 130.51L272.79 127.35L276.49 124.34L280.28 121.51L284.14 118.84L288.09 116.36L292.12 114.06L296.21 111.92L300.36 109.95L304.57 108.15L308.85 106.53L313.17 105.07L317.52 103.8L321.91 102.68L326.34 101.75L330.79 100.98L335.27 100.38L339.75 99.97L344.25 99.71L348.76 99.63L353.28 99.73L357.77 100ZM340.45 109.99L336.34 110.39L332.22 110.93L328.15 111.65L324.09 112.5L320.07 113.54L316.06 114.71L312.11 116.05L308.2 117.54L304.33 119.19L300.52 121L296.77 122.98L293.08 125.1L289.48 127.38L285.93 129.82L282.47 132.43L279.09 135.18L275.78 138.09L272.59 141.17L270.5 143.3L268.5 145.48L266.58 147.68L264.7 149.96L262.91 152.26L261.18 154.61L259.51 157.01L257.92 159.44L256.39 161.91L254.93 164.4L253.55 166.94L252.23 169.52L250.99 172.11L249.81 174.75L248.72 177.4L247.69 180.09L246.73 182.79L245.84 185.52L245.03 188.27L244.29 191.05L243.63 193.83L243.03 196.64L242.52 199.47L242.08 202.3L241.71 205.16L241.42 208.02L241.22 210.88L241.08 213.77L241.03 216.65L241.04 219.54L241.14 222.43L241.31 225.33L241.57 228.22L241.9 231.13L242.31 234.02L242.79 236.89L243.36 239.79L244.01 242.65L244.75 245.52L245.57 248.37L247.51 248.89L249.42 249.48L251.29 250.13L253.15 250.83L254.96 251.59L256.74 252.42L258.49 253.29L260.19 254.23L261.88 255.22L263.5 256.25L265.1 257.33L266.66 258.47L268.17 259.65L269.65 260.89L271.08 262.16L272.46 263.48L273.79 264.84L275.1 266.26L276.34 267.71L277.54 269.18L278.69 270.71L279.78 272.28L280.83 273.87L281.83 275.51L282.79 277.18L283.68 278.86L284.5 280.59L285.28 282.36L286.01 284.14L286.68 285.95L287.28 287.79L287.84 289.65L288.32 291.52L288.75 293.43L289.11 295.37L289.41 297.31L289.65 299.28L289.81 301.25L289.92 303.25L289.95 305.25L289.95 307.38L291.27 308.23L292.59 309.05L293.93 309.86L295.28 310.66L296.64 311.42L298.01 312.17L299.38 312.9L300.78 313.6L302.17 314.28L303.57 314.95L304.99 315.6L306.42 316.22L307.85 316.82L309.28 317.39L310.72 317.95L312.18 318.49L313.65 319.02L315.11 319.51L316.59 319.98L318.06 320.43L319.56 320.86L321.05 321.27L322.56 321.65L324.05 322.02L325.58 322.37L327.09 322.69L328.62 322.99L330.14 323.27L331.67 323.53L334.75 323.97L336.29 324.16L337.83 324.32L339.39 324.47L340.95 324.59L342.5 324.69L344.06 324.77L345.62 324.82L347.19 324.85L348.75 324.86L358.49 324.86L358.49 368.61L418.65 304.7L420.46 302.76L423.12 299.96L423.94 299.07L424.43 298.55L424.59 298.37L426.12 296.72L427.6 295.04L429.06 293.34L430.47 291.6L431.86 289.84L433.19 288.06L434.51 286.27L435.78 284.44L437.02 282.59L438.21 280.72L439.37 278.83L440.5 276.92L441.6 275L442.65 273.04L443.66 271.07L444.65 269.1L445.58 267.1L446.49 265.08L447.35 263.05L448.17 261L448.97 258.93L449.72 256.85L450.42 254.75L451.08 252.64L451.72 250.53L452.31 248.4L452.86 246.25L453.37 244.09L453.85 241.93L454.28 239.75L454.66 237.56L455.01 235.37L455.31 233.16L455.58 230.95L455.8 228.73L455.98 226.5L456.12 224.28L456.22 222.04L456.26 219.8L456.28 217.54L456.26 215.41L456.2 213.26L456.1 211.14L455.96 209.01L455.77 206.89L455.55 204.78L455.28 202.67L454.96 200.57L454.61 198.49L454.23 196.4L453.8 194.34L453.32 192.27L452.81 190.22L452.26 188.19L451.67 186.17L451.04 184.17L450.37 182.17L449.67 180.18L448.92 178.21L448.14 176.26L447.32 174.33L446.46 172.41L445.55 170.5L444.63 168.61L443.65 166.74L442.65 164.89L441.6 163.07L440.52 161.26L439.4 159.46L438.24 157.7L437.07 155.95L435.84 154.22L434.57 152.52L433.29 150.83L431.95 149.16L430.58 147.54L429.19 145.92L427.76 144.35L426.29 142.79L424.8 141.25L421.59 138.18L418.3 135.26L414.92 132.49L411.45 129.9L407.92 127.46L404.3 125.17L400.61 123.04L396.86 121.07L393.07 119.24L389.21 117.59L385.3 116.09L381.34 114.74L377.35 113.57L373.32 112.54L369.26 111.66L365.18 110.96L361.08 110.41L356.96 110.01L352.83 109.77L348.7 109.69L344.57 109.75L340.45 109.99Z" id="b1XLk1gU23"/><path d="M357.77 100L362.26 100.44L366.74 101.05L371.19 101.83L375.6 102.78L379.99 103.91L384.34 105.21L388.65 106.67L392.92 108.31L397.12 110.14L401.27 112.11L405.37 114.27L409.37 116.6L413.31 119.1L417.17 121.77L420.94 124.61L424.63 127.63L428.22 130.81L431.7 134.18L433.35 135.85L434.95 137.55L436.53 139.26L438.07 141.03L439.56 142.81L441.02 144.6L442.44 146.45L443.82 148.3L445.17 150.2L446.47 152.1L447.73 154.04L448.95 156L450.15 157.97L451.29 159.97L452.4 161.99L453.47 164.04L454.48 166.1L455.47 168.17L456.41 170.28L457.31 172.39L458.17 174.52L458.98 176.68L459.74 178.85L460.47 181.04L461.17 183.23L461.81 185.44L462.41 187.67L462.97 189.91L463.48 192.16L463.94 194.42L464.37 196.69L464.75 198.98L465.08 201.27L465.37 203.57L465.61 205.89L465.81 208.21L465.96 210.53L466.05 212.87L466.12 215.2L466.13 217.54L466.1 219.97L466.02 222.39L465.91 224.79L465.75 227.2L465.53 229.58L465.29 231.98L464.99 234.35L464.64 236.73L464.26 239.09L463.83 241.44L463.35 243.79L462.84 246.13L462.27 248.45L461.67 250.75L461.03 253.04L460.33 255.33L459.6 257.58L458.84 259.84L458.03 262.08L457.17 264.3L456.26 266.5L455.33 268.69L454.36 270.87L453.34 273.01L452.27 275.16L451.18 277.27L450.03 279.35L448.86 281.43L447.63 283.48L446.38 285.52L445.08 287.54L443.74 289.52L442.37 291.48L440.96 293.42L439.51 295.34L438.02 297.23L436.5 299.09L434.94 300.93L433.33 302.73L431.7 304.52L348.64 392.76L348.64 334.08L347.06 334.08L345.48 334.06L343.9 334.03L342.33 333.97L340.76 333.89L337.61 333.67L336.04 333.51L334.48 333.35L332.92 333.16L331.36 332.95L329.81 332.73L328.25 332.47L326.71 332.2L325.17 331.92L323.63 331.6L322.1 331.27L320.56 330.92L319.05 330.55L317.52 330.15L316.01 329.74L314.5 329.31L313 328.85L311.5 328.37L310.02 327.88L308.53 327.37L307.07 326.83L305.59 326.28L304.13 325.71L302.68 325.1L301.22 324.5L299.79 323.86L298.36 323.21L296.93 322.53L295.52 321.84L294.12 321.13L292.72 320.4L291.32 319.64L289.95 318.87L288.57 318.08L288.09 320.08L287.54 322.05L286.93 323.97L286.25 325.88L285.52 327.76L284.73 329.58L283.87 331.39L282.95 333.16L281.98 334.87L280.96 336.56L279.88 338.21L278.75 339.82L277.56 341.39L276.34 342.91L275.05 344.39L273.73 345.82L272.35 347.2L270.93 348.54L269.49 349.84L267.98 351.08L266.44 352.27L264.86 353.42L263.24 354.5L261.59 355.53L259.89 356.52L258.17 357.44L256.43 358.31L254.63 359.12L252.82 359.87L250.97 360.57L249.1 361.19L247.21 361.76L245.29 362.27L243.35 362.71L241.38 363.08L239.39 363.4L237.39 363.64L235.35 363.81L233.32 363.92L231.27 363.95L231.27 393.4L189.73 349.33L188.91 348.43L188.1 347.52L186.54 345.65L185.79 344.69L185.06 343.72L184.35 342.74L183.66 341.75L182.98 340.75L182.33 339.74L181.09 337.67L180.5 336.62L179.93 335.56L179.37 334.49L178.85 333.41L178.34 332.32L177.85 331.22L177.37 330.12L176.93 328.99L176.5 327.88L176.1 326.74L175.72 325.61L175.35 324.47L175 323.31L174.69 322.15L174.4 320.99L174.11 319.81L173.86 318.63L173.64 317.44L173.43 316.25L173.24 315.06L173.08 313.87L172.94 312.66L172.83 311.45L172.73 310.24L172.65 309.02L172.6 307.81L172.57 306.59L172.57 305.37L172.62 302.95L172.78 300.55L173.02 298.18L173.35 295.85L173.76 293.54L174.29 291.27L174.88 289.01L175.57 286.82L176.34 284.64L177.2 282.52L178.12 280.43L179.13 278.4L180.21 276.4L181.37 274.46L182.6 272.55L183.9 270.71L185.27 268.91L186.7 267.16L188.21 265.5L189.77 263.86L191.39 262.3L193.07 260.81L194.82 259.36L196.6 258L198.46 256.69L200.35 255.47L202.3 254.31L204.29 253.23L206.34 252.23L208.42 251.29L210.55 250.43L212.71 249.67L214.92 248.99L217.16 248.38L219.43 247.87L221.75 247.44L224.09 247.11L226.46 246.87L228.84 246.73L231.27 246.68L234.97 246.68L234.23 243.65L233.56 240.6L232.97 237.55L232.48 234.49L232.05 231.44L231.72 228.38L231.46 225.33L231.27 222.26L231.18 219.21L231.16 216.16L231.22 213.11L231.37 210.07L231.59 207.04L231.89 204.02L232.26 201L232.72 197.99L233.24 195.02L233.85 192.05L234.53 189.1L235.29 186.17L236.12 183.26L237.02 180.37L238.01 177.51L239.07 174.67L240.2 171.85L241.41 169.07L242.68 166.31L244.03 163.59L245.45 160.89L246.94 158.24L248.5 155.61L250.13 153.02L251.83 150.48L253.61 147.97L255.46 145.51L257.36 143.09L259.35 140.71L261.4 138.37L263.51 136.08L265.71 133.86L269.2 130.51L272.79 127.35L276.49 124.34L280.28 121.51L284.14 118.84L288.09 116.36L292.12 114.06L296.21 111.92L300.36 109.95L304.57 108.15L308.85 106.53L313.17 105.07L317.52 103.8L321.91 102.68L326.34 101.75L330.79 100.98L335.27 100.38L339.75 99.97L344.25 99.71L348.76 99.63L353.28 99.73L357.77 100ZM340.45 109.99L336.34 110.39L332.22 110.93L328.15 111.65L324.09 112.5L320.07 113.54L316.06 114.71L312.11 116.05L308.2 117.54L304.33 119.19L300.52 121L296.77 122.98L293.08 125.1L289.48 127.38L285.93 129.82L282.47 132.43L279.09 135.18L275.78 138.09L272.59 141.17L270.5 143.3L268.5 145.48L266.58 147.68L264.7 149.96L262.91 152.26L261.18 154.61L259.51 157.01L257.92 159.44L256.39 161.91L254.93 164.4L253.55 166.94L252.23 169.52L250.99 172.11L249.81 174.75L248.72 177.4L247.69 180.09L246.73 182.79L245.84 185.52L245.03 188.27L244.29 191.05L243.63 193.83L243.03 196.64L242.52 199.47L242.08 202.3L241.71 205.16L241.42 208.02L241.22 210.88L241.08 213.77L241.03 216.65L241.04 219.54L241.14 222.43L241.31 225.33L241.57 228.22L241.9 231.13L242.31 234.02L242.79 236.89L243.36 239.79L244.01 242.65L244.75 245.52L245.57 248.37L247.51 248.89L249.42 249.48L251.29 250.13L253.15 250.83L254.96 251.59L256.74 252.42L258.49 253.29L260.19 254.23L261.88 255.22L263.5 256.25L265.1 257.33L266.66 258.47L268.17 259.65L269.65 260.89L271.08 262.16L272.46 263.48L273.79 264.84L275.1 266.26L276.34 267.71L277.54 269.18L278.69 270.71L279.78 272.28L280.83 273.87L281.83 275.51L282.79 277.18L283.68 278.86L284.5 280.59L285.28 282.36L286.01 284.14L286.68 285.95L287.28 287.79L287.84 289.65L288.32 291.52L288.75 293.43L289.11 295.37L289.41 297.31L289.65 299.28L289.81 301.25L289.92 303.25L289.95 305.25L289.95 307.38L291.27 308.23L292.59 309.05L293.93 309.86L295.28 310.66L296.64 311.42L298.01 312.17L299.38 312.9L300.78 313.6L302.17 314.28L303.57 314.95L304.99 315.6L306.42 316.22L307.85 316.82L309.28 317.39L310.72 317.95L312.18 318.49L313.65 319.02L315.11 319.51L316.59 319.98L318.06 320.43L319.56 320.86L321.05 321.27L322.56 321.65L324.05 322.02L325.58 322.37L327.09 322.69L328.62 322.99L330.14 323.27L331.67 323.53L334.75 323.97L336.29 324.16L337.83 324.32L339.39 324.47L340.95 324.59L342.5 324.69L344.06 324.77L345.62 324.82L347.19 324.85L348.75 324.86L358.49 324.86L358.49 368.61L418.65 304.7L420.46 302.76L423.12 299.96L423.94 299.07L424.43 298.55L424.59 298.37L426.12 296.72L427.6 295.04L429.06 293.34L430.47 291.6L431.86 289.84L433.19 288.06L434.51 286.27L435.78 284.44L437.02 282.59L438.21 280.72L439.37 278.83L440.5 276.92L441.6 275L442.65 273.04L443.66 271.07L444.65 269.1L445.58 267.1L446.49 265.08L447.35 263.05L448.17 261L448.97 258.93L449.72 256.85L450.42 254.75L451.08 252.64L451.72 250.53L452.31 248.4L452.86 246.25L453.37 244.09L453.85 241.93L454.28 239.75L454.66 237.56L455.01 235.37L455.31 233.16L455.58 230.95L455.8 228.73L455.98 226.5L456.12 224.28L456.22 222.04L456.26 219.8L456.28 217.54L456.26 215.41L456.2 213.26L456.1 211.14L455.96 209.01L455.77 206.89L455.55 204.78L455.28 202.67L454.96 200.57L454.61 198.49L454.23 196.4L453.8 194.34L453.32 192.27L452.81 190.22L452.26 188.19L451.67 186.17L451.04 184.17L450.37 182.17L449.67 180.18L448.92 178.21L448.14 176.26L447.32 174.33L446.46 172.41L445.55 170.5L444.63 168.61L443.65 166.74L442.65 164.89L441.6 163.07L440.52 161.26L439.4 159.46L438.24 157.7L437.07 155.95L435.84 154.22L434.57 152.52L433.29 150.83L431.95 149.16L430.58 147.54L429.19 145.92L427.76 144.35L426.29 142.79L424.8 141.25L421.59 138.18L418.3 135.26L414.92 132.49L411.45 129.9L407.92 127.46L404.3 125.17L400.61 123.04L396.86 121.07L393.07 119.24L389.21 117.59L385.3 116.09L381.34 114.74L377.35 113.57L373.32 112.54L369.26 111.66L365.18 110.96L361.08 110.41L356.96 110.01L352.83 109.77L348.7 109.69L344.57 109.75L340.45 109.99Z" id="b1gNnyvQup"/><path d="M333.92 217.22C333.92 225.36 340.52 231.95 348.64 231.95C356.77 231.95 363.37 225.36 363.37 217.22C363.37 209.1 356.77 202.51 348.64 202.51C340.52 202.51 333.92 209.1 333.92 217.22Z" id="fPtCsLRFS"/><path d="M333.92 217.22C333.92 225.36 340.52 231.95 348.64 231.95C356.77 231.95 363.37 225.36 363.37 217.22C363.37 209.1 356.77 202.51 348.64 202.51C340.52 202.51 333.92 209.1 333.92 217.22Z" id="cl19z7MW8"/><path d="M382.87 217.22C382.87 225.36 389.46 231.95 397.58 231.95C405.72 231.95 412.31 225.36 412.31 217.22C412.31 209.1 405.72 202.51 397.58 202.51C389.46 202.51 382.87 209.1 382.87 217.22Z" id="a66ZXqUkPi"/><path d="M382.87 217.22C382.87 225.36 389.46 231.95 397.58 231.95C405.72 231.95 412.31 225.36 412.31 217.22C412.31 209.1 405.72 202.51 397.58 202.51C389.46 202.51 382.87 209.1 382.87 217.22Z" id="a50ia4zEOw"/><path d="M285.08 217.22C285.08 225.36 291.67 231.95 299.81 231.95C307.94 231.95 314.54 225.36 314.54 217.22C314.54 209.1 307.94 202.51 299.81 202.51C291.67 202.51 285.08 209.1 285.08 217.22Z" id="a6WIE9lMe4"/><path d="M285.08 217.22C285.08 225.36 291.67 231.95 299.81 231.95C307.94 231.95 314.54 225.36 314.54 217.22C314.54 209.1 307.94 202.51 299.81 202.51C291.67 202.51 285.08 209.1 285.08 217.22Z" id="aomaHPNuI"/></defs><g><g><g><use xlink:href="#f8y7XVXM4" opacity="1" fill="#196970" fill-opacity="1"/><g><use xlink:href="#f8y7XVXM4" opacity="1" fill-opacity="0" stroke="#000000" stroke-width="1" stroke-opacity="0"/></g></g><g><use xlink:href="#anlkTme8A" opacity="1" fill="#000000" fill-opacity="0"/><g><use xlink:href="#anlkTme8A" opacity="1" fill-opacity="0" stroke="#000000" stroke-width="1" stroke-opacity="0"/></g></g><g><use xlink:href="#b3fYWyR9i6" opacity="1" fill="#ffffff" fill-opacity="1"/><g><use xlink:href="#b3fYWyR9i6" opacity="1" fill-opacity="0" stroke="#000000" stroke-width="1" stroke-opacity="0"/></g></g><g><use xlink:href="#a1AGK8H5UV" opacity="1" fill="#000000" fill-opacity="0"/><g><use xlink:href="#a1AGK8H5UV" opacity="1" fill-opacity="0" stroke="#000000" stroke-width="1" stroke-opacity="0"/></g></g><g><use xlink:href="#auf2NDADw" opacity="1" fill="#ffffff" fill-opacity="1"/><g><use xlink:href="#auf2NDADw" opacity="1" fill-opacity="0" stroke="#000000" stroke-width="1" stroke-opacity="0"/></g></g><g><use xlink:href="#bqDkpSXLs" opacity="1" fill="#000000" fill-opacity="0"/><g><use xlink:href="#bqDkpSXLs" opacity="1" fill-opacity="0" stroke="#000000" stroke-width="1" stroke-opacity="0"/></g></g><g><use xlink:href="#a9YNohKbR" opacity="1" fill="#ffffff" fill-opacity="1"/><g><use xlink:href="#a9YNohKbR" opacity="1" fill-opacity="0" stroke="#000000" stroke-width="1" stroke-opacity="0"/></g></g><g><use xlink:href="#h1VBz6Bfr6" opacity="1" fill="#000000" fill-opacity="0"/><g><use xlink:href="#h1VBz6Bfr6" opacity="1" fill-opacity="0" stroke="#000000" stroke-width="1" stroke-opacity="0"/></g></g><g><use xlink:href="#a7ZtnRz8zR" opacity="1" fill="#ffffff" fill-opacity="1"/><g><use xlink:href="#a7ZtnRz8zR" opacity="1" fill-opacity="0" stroke="#000000" stroke-width="1" stroke-opacity="0"/></g></g><g><use xlink:href="#b5xvn3i4UG" opacity="1" fill="#000000" fill-opacity="0"/><g><use xlink:href="#b5xvn3i4UG" opacity="1" fill-opacity="0" stroke="#000000" stroke-width="1" stroke-opacity="0"/></g></g><g><use xlink:href="#b1XLk1gU23" opacity="1" fill="#ffffff" fill-opacity="1"/><g><use xlink:href="#b1XLk1gU23" opacity="1" fill-opacity="0" stroke="#000000" stroke-width="1" stroke-opacity="0"/></g></g><g><use xlink:href="#b1gNnyvQup" opacity="1" fill="#000000" fill-opacity="0"/><g><use xlink:href="#b1gNnyvQup" opacity="1" fill-opacity="0" stroke="#000000" stroke-width="1" stroke-opacity="0"/></g></g><g><use xlink:href="#fPtCsLRFS" opacity="1" fill="#ffffff" fill-opacity="1"/><g><use xlink:href="#fPtCsLRFS" opacity="1" fill-opacity="0" stroke="#000000" stroke-width="1" stroke-opacity="0"/></g></g><g><use xlink:href="#cl19z7MW8" opacity="1" fill="#000000" fill-opacity="0"/><g><use xlink:href="#cl19z7MW8" opacity="1" fill-opacity="0" stroke="#000000" stroke-width="1" stroke-opacity="0"/></g></g><g><use xlink:href="#a66ZXqUkPi" opacity="1" fill="#ffffff" fill-opacity="1"/><g><use xlink:href="#a66ZXqUkPi" opacity="1" fill-opacity="0" stroke="#000000" stroke-width="1" stroke-opacity="0"/></g></g><g><use xlink:href="#a50ia4zEOw" opacity="1" fill="#000000" fill-opacity="0"/><g><use xlink:href="#a50ia4zEOw" opacity="1" fill-opacity="0" stroke="#000000" stroke-width="1" stroke-opacity="0"/></g></g><g><use xlink:href="#a6WIE9lMe4" opacity="1" fill="#ffffff" fill-opacity="1"/><g><use xlink:href="#a6WIE9lMe4" opacity="1" fill-opacity="0" stroke="#000000" stroke-width="1" stroke-opacity="0"/></g></g><g><use xlink:href="#aomaHPNuI" opacity="1" fill="#000000" fill-opacity="0"/><g><use xlink:href="#aomaHPNuI" opacity="1" fill-opacity="0" stroke="#000000" stroke-width="1" stroke-opacity="0"/></g></g></g></g></svg>