<?xml version="1.0" encoding="UTF-8"?>
<svg width="109px" height="108px" viewBox="0 0 109 108" version="1.1" xmlns="http://www.w3.org/2000/svg" xmlns:xlink="http://www.w3.org/1999/xlink">
    <!-- Generator: Sketch 53 (72520) - https://sketchapp.com -->
    <title>Public Gateway</title>
    <desc>Created with Sketch.</desc>
    <g id="Page-1" stroke="none" stroke-width="1" fill="none" fill-rule="evenodd">
        <g id="Network-Icons" transform="translate(-791.000000, -660.000000)">
            <g id="Public-Gateway" transform="translate(791.800781, 660.000000)">
                <ellipse id="Oval" fill="#38B0DE" fill-rule="nonzero" cx="54" cy="53.8" rx="54" ry="53.8"></ellipse>
                <g id="Group" transform="translate(22.700000, 24.800000)">
                    <path d="M15.3,5.6 L43.5,5.6" id="Path" stroke="#FFFFFF" stroke-width="5.833"></path>
                    <path d="M15.3,53.8 L43.5,53.8" id="Path" stroke="#FFFFFF" stroke-width="5.833"></path>
                    <path d="M15.3,30.5 L56.3,30.5" id="Path" stroke="#FFFFFF" stroke-width="5.833"></path>
                    <path d="M40.6,3.4 L40.6,55.8" id="Path" stroke="#FFFFFF" stroke-width="5.833"></path>
                    <polygon id="Path" fill="#FFFFFF" fill-rule="nonzero" points="0 10.8 0 5.6 0 0.4 4.6 3 9.1 5.6 4.6 8.2"></polygon>
                    <polygon id="Path" fill="#FFFFFF" fill-rule="nonzero" points="0 35.7 0 30.5 0 25.2 4.6 27.9 9.1 30.5 4.6 33.1"></polygon>
                    <polygon id="Path" fill="#FFFFFF" fill-rule="nonzero" points="0 59 0 53.8 0 48.5 4.6 51.2 9.1 53.8 4.6 56.4"></polygon>
                    <polygon id="Path" fill="#FFFFFF" fill-rule="nonzero" points="62.1 37 62.1 30.5 62.1 23.9 67.8 27.2 73.5 30.5 67.8 33.8"></polygon>
                </g>
            </g>
        </g>
    </g>
</svg>