<svg id="Layer_1" data-name="Layer 1" xmlns="http://www.w3.org/2000/svg" viewBox="0 0 70.32 70.35"><defs><style>.cls-1{fill:#325c80;}.cls-2{fill:#fff;}</style></defs><title>Digital Business Automation [Recovered]</title><circle class="cls-1" cx="36.57" cy="34.08" r="32.25"/><rect class="cls-2" x="14.77" y="15.63" width="43.6" height="36.91"/><rect class="cls-1" x="15.99" y="16.84" width="12.61" height="9.94"/><rect class="cls-2" x="19.41" y="21.26" width="5.77" height="1.09"/><rect class="cls-1" x="29.59" y="16.84" width="13.62" height="9.94"/><rect class="cls-2" x="33.29" y="21.26" width="6.23" height="1.09"/><rect class="cls-1" x="44.78" y="16.84" width="12.61" height="9.94"/><rect class="cls-2" x="48.2" y="21.26" width="5.77" height="1.09"/><rect class="cls-1" x="44.78" y="27.87" width="11.99" height="12.06"/><rect class="cls-2" x="48.03" y="33.24" width="5.48" height="1.32"/><rect class="cls-1" x="15.76" y="27.87" width="12.61" height="12.06"/><rect class="cls-2" x="19.18" y="33.24" width="5.77" height="1.32"/><rect class="cls-1" x="29.59" y="27.87" width="13.72" height="12.36"/><rect class="cls-2" x="33.31" y="33.37" width="6.28" height="1.35"/><rect class="cls-1" x="15.99" y="41.38" width="12.61" height="9.94"/><rect class="cls-2" x="19.41" y="45.81" width="5.77" height="1.09"/><rect class="cls-1" x="29.59" y="41.38" width="13.72" height="9.94"/><rect class="cls-2" x="33.31" y="45.81" width="6.28" height="1.09"/><rect class="cls-1" x="44.78" y="41.38" width="11.99" height="9.94"/><rect class="cls-2" x="48.03" y="45.81" width="5.48" height="1.09"/></svg>