<?xml version="1.0" encoding="UTF-8"?>
<svg width="112px" height="112px" viewBox="0 0 112 112" version="1.1" xmlns="http://www.w3.org/2000/svg" xmlns:xlink="http://www.w3.org/1999/xlink">
    <!-- Generator: Sketch 53 (72520) - https://sketchapp.com -->
    <title>Group 28</title>
    <desc>Created with Sketch.</desc>
    <g id="Page-1" stroke="none" stroke-width="1" fill="none" fill-rule="evenodd">
        <g id="Network-Icons" transform="translate(-1480.000000, -658.000000)">
            <g id="Group-28" transform="translate(1482.754235, 660.934087)">
                <path d="M106.862745,53.346951 C106.862745,82.8100784 82.940451,106.693902 53.4313725,106.693902 C23.9222941,106.693902 6.39488462e-14,82.8100784 6.39488462e-14,53.346951 C6.39488462e-14,23.8838235 23.9222941,2.84217094e-14 53.4313725,2.84217094e-14 C82.940451,2.84217094e-14 106.862745,23.8838235 106.862745,53.346951" id="Fill-1-Copy" fill="#FFFFFF"></path>
                <path d="M106.862745,53.346951 C106.862745,82.8100784 82.940451,106.693902 53.4313725,106.693902 C23.9222941,106.693902 6.39488462e-14,82.8100784 6.39488462e-14,53.346951 C6.39488462e-14,23.8838235 23.9222941,2.84217094e-14 53.4313725,2.84217094e-14 C82.940451,2.84217094e-14 106.862745,23.8838235 106.862745,53.346951 Z" id="Stroke-3-Copy" stroke="#325C80" stroke-width="4.747"></path>
                <polygon id="Fill-5-Copy" fill="#231F20" points="29.9243471 35.4473343 38.3932196 35.4473343 38.3932196 26.9784618 29.9243471 26.9784618"></polygon>
                <polygon id="Fill-7-Copy" fill="#231F20" points="44.3208961 35.4473343 52.7897686 35.4473343 52.7897686 26.9784618 44.3208961 26.9784618"></polygon>
                <polygon id="Fill-8-Copy" fill="#231F20" points="58.2942686 35.4473343 66.7631412 35.4473343 66.7631412 26.9784618 58.2942686 26.9784618"></polygon>
                <polygon id="Fill-9-Copy" fill="#4278BB" points="72.6918863 77.393099 81.1607588 77.393099 81.1607588 26.9784618 72.6918863 26.9784618"></polygon>
                <polygon id="Fill-10-Copy" fill="#4278BB" points="58.2942686 77.393099 66.7631412 77.393099 66.7631412 41.0928931 58.2942686 41.0928931"></polygon>
                <polygon id="Fill-11-Copy" fill="#231F20" points="44.3208961 49.4207069 52.7897686 49.4207069 52.7897686 41.0928931 44.3208961 41.0928931"></polygon>
                <polygon id="Fill-12-Copy" fill="#231F20" points="29.9243471 49.4207069 38.3932196 49.4207069 38.3932196 41.0928931 29.9243471 41.0928931"></polygon>
                <polygon id="Fill-13-Copy" fill="#4278BB" points="44.3208961 77.393099 52.7897686 77.393099 52.7897686 55.349452 44.3208961 55.349452"></polygon>
                <polygon id="Fill-14-Copy" fill="#4278BB" points="29.9243471 77.393099 38.3932196 77.393099 38.3932196 69.3228245 29.9243471 69.3228245"></polygon>
                <polygon id="Fill-15-Copy" fill="#231F20" points="29.9243471 63.8183245 38.3932196 63.8183245 38.3932196 55.349452 29.9243471 55.349452"></polygon>
            </g>
        </g>
    </g>
</svg>