<?xml version="1.0" encoding="UTF-8"?>
<svg width="109px" height="108px" viewBox="0 0 109 108" version="1.1" xmlns="http://www.w3.org/2000/svg" xmlns:xlink="http://www.w3.org/1999/xlink">
    <!-- Generator: Sketch 53 (72520) - https://sketchapp.com -->
    <title>Group 5</title>
    <desc>Created with Sketch.</desc>
    <g id="Page-1" stroke="none" stroke-width="1" fill="none" fill-rule="evenodd">
        <g id="Network-Icons" transform="translate(-388.000000, -474.000000)">
            <g id="Group-5" transform="translate(388.726562, 474.000000)">
                <ellipse id="Oval" fill="#E02533" fill-rule="nonzero" cx="54" cy="53.8" rx="54" ry="53.8"></ellipse>
                <g id="Group-4" transform="translate(5.000000, 20.057580)">
                    <path d="M25.2,30.8424199 C26.7,30.8424199 28.1,30.8424199 29.6,30.8424199 C29.9,30.8424199 30,30.7424199 30,30.4424199 C30,26.8424199 30,23.2424199 30,19.6424199 C29.9,14.1424199 31.9,9.44241993 35.7,5.54241993 C38.6,2.64241993 42.1,0.842419927 46.2,0.242419927 C52.3,-0.657580073 57.7,0.942419927 62.2,5.14241993 C65.4,8.14241993 67.4,11.7424199 68.1,16.1424199 C68.3,17.3424199 68.4,18.4424199 68.4,19.6424199 C68.4,23.2424199 68.4,26.7424199 68.4,30.3424199 C68.4,30.4424199 68.4,30.6424199 68.4,30.8424199 C70,30.8424199 71.6,30.8424199 73.2,30.8424199 C73.2,31.0424199 73.2,31.2424199 73.2,31.4424199 C73.2,43.7424199 73.2,56.0424199 73.2,68.2424199 C73.2,68.4424199 73.2,68.5424199 73.2,68.7424199 C57.2,68.7424199 41.2,68.7424199 25.2,68.7424199 C25.2,56.1424199 25.2,43.5424199 25.2,30.8424199 Z M62.1,30.8424199 C62.1,30.6424199 62.1,30.5424199 62.1,30.4424199 C62.1,26.8424199 62.1,23.2424199 62.1,19.6424199 C62.1,18.7424199 62,17.8424199 61.9,16.9424199 C60.8,11.0424199 55.9,7.04241993 50.6,6.54241993 C48,6.34241993 45.6,6.64241993 43.4,7.94241993 C38.7,10.4424199 36.5,14.5424199 36.4,19.7424199 C36.4,23.2424199 36.4,26.8424199 36.4,30.3424199 C36.4,30.8424199 36.4,30.8424199 36.9,30.8424199 C45.2,30.8424199 53.4,30.8424199 61.7,30.8424199 C61.8,30.8424199 61.9,30.8424199 62.1,30.8424199 Z" id="Shape" fill="#FFFFFF" fill-rule="nonzero"></path>
                    <polyline id="Path" stroke="#E02533" stroke-width="2.7155" stroke-linecap="round" points="36 46.7424199 47.5 58.4424199 66 39.0424199"></polyline>
                    <g id="Group" transform="translate(0.000000, 1.742420)">
                        <path d="M5.2,17.3 L29.2,17.3" id="Path" stroke="#FFFFFF" stroke-width="6"></path>
                        <polygon id="Path" fill="#FFFFFF" fill-rule="nonzero" points="19.1 34.5 21.9 31.4 6.8 17.3 21.9 3.2 19.1 0.2 0.6 17.3"></polygon>
                    </g>
                    <path d="M39.9,19.0424199 L58.7,19.0424199" id="Path" stroke="#FFFFFF" stroke-width="6"></path>
                    <g id="Group" transform="translate(69.000000, 1.742420)">
                        <path d="M24.4,17.3 L0.2,17.3" id="Path" stroke="#FFFFFF" stroke-width="6"></path>
                        <polygon id="Path" fill="#FFFFFF" fill-rule="nonzero" points="10.5 0.2 7.6 3.2 22.8 17.3 7.6 31.4 10.5 34.5 28.9 17.3"></polygon>
                    </g>
                </g>
            </g>
        </g>
    </g>
</svg>