<svg version="1.1" xmlns="http://www.w3.org/2000/svg" xmlns:xlink="http://www.w3.org/1999/xlink" preserveAspectRatio="xMidYMid meet" viewBox="0 0 640 640" width="640" height="640"><defs><path d="M323.19 635.44C148.22 635.44 6.38 494.21 6.38 319.99C6.38 145.79 148.22 4.56 323.19 4.56C498.16 4.56 640 145.79 640 319.99C640 494.21 498.16 635.44 323.19 635.44Z" id="b2XFEgZXA"/><path d="M323.19 635.44C148.22 635.44 6.38 494.21 6.38 319.99C6.38 145.79 148.22 4.56 323.19 4.56C498.16 4.56 640 145.79 640 319.99C640 494.21 498.16 635.44 323.19 635.44Z" id="c474SQXUmH"/><path d="M333.45 160.32L338.19 160.81L342.88 161.48L347.48 162.34L352.05 163.37L356.53 164.59L360.94 165.96L365.28 167.51L369.53 169.23L373.7 171.09L377.78 173.12L381.76 175.29L385.67 177.62L389.46 180.09L393.15 182.69L396.74 185.44L400.21 188.32L403.57 191.33L406.82 194.46L409.95 197.72L412.93 201.08L415.81 204.58L418.54 208.18L421.13 211.88L423.59 215.68L425.9 219.58L428.05 223.58L430.07 227.67L431.93 231.85L433.62 236.11L435.15 240.44L436.52 244.86L437.71 249.34L438.72 253.91L439.57 258.53L440.22 263.22L440.69 267.95L440.99 272.75L441.07 277.59L440.96 282.42L440.66 287.21L440.18 291.95L439.51 296.62L438.65 301.24L437.62 305.79L436.4 310.27L435.02 314.68L433.48 319.01L431.77 323.26L429.9 327.43L427.88 331.51L425.71 335.51L423.38 339.4L420.91 343.19L418.3 346.88L415.57 350.46L412.7 353.94L409.68 357.3L406.56 360.53L403.31 363.66L399.93 366.66L396.45 369.52L392.87 372.25L389.17 374.86L385.37 377.31L381.47 379.63L377.47 381.78L373.39 383.8L369.22 385.66L364.95 387.34L360.62 388.89L356.2 390.25L351.72 391.45L347.17 392.47L342.55 393.31L337.88 393.98L333.14 394.45L328.35 394.73L323.5 394.83L318.66 394.73L313.88 394.44L309.13 393.95L304.46 393.28L299.83 392.42L295.29 391.39L290.8 390.19L286.38 388.81L282.05 387.27L277.79 385.56L273.62 383.69L269.54 381.67L265.54 379.5L261.65 377.17L257.85 374.72L254.15 372.11L250.57 369.36L247.09 366.49L243.73 363.49L240.48 360.36L237.36 357.1L234.36 353.74L231.48 350.25L228.75 346.66L226.15 342.96L223.7 339.16L221.37 335.26L219.22 331.26L217.2 327.18L215.34 322.99L213.64 318.74L212.11 314.4L210.73 309.98L209.55 305.49L208.51 300.95L207.67 296.32L207.01 291.64L206.53 286.9L206.25 282.11L206.16 277.26L206.25 272.42L206.55 267.64L207.03 262.89L207.7 258.22L208.56 253.59L209.59 249.05L210.8 244.56L212.17 240.14L213.72 235.81L215.42 231.55L217.3 227.38L219.31 223.3L221.48 219.3L223.81 215.41L226.26 211.61L228.87 207.91L231.62 204.33L234.5 200.85L237.5 197.49L240.62 194.24L243.89 191.12L247.24 188.12L250.73 185.24L254.32 182.51L258.03 179.91L261.82 177.46L265.73 175.13L269.73 172.98L273.8 170.96L277.99 169.1L282.24 167.4L286.58 165.87L291.01 164.49L295.49 163.31L300.04 162.27L304.66 161.43L309.35 160.77L314.08 160.29L318.88 160.01L323.72 159.92L323.81 159.92L328.66 160.02L333.45 160.32ZM314.96 171.01L310.66 171.45L306.41 172.04L302.21 172.82L298.07 173.74L293.99 174.84L289.99 176.09L286.04 177.49L282.18 179.04L278.38 180.73L274.66 182.55L271.04 184.54L267.49 186.63L264.04 188.88L260.68 191.24L257.43 193.72L254.26 196.33L251.2 199.07L248.24 201.91L245.42 204.86L242.68 207.91L240.07 211.08L237.59 214.35L235.21 217.71L232.98 221.16L230.87 224.69L228.9 228.33L227.08 232.03L225.37 235.83L223.83 239.7L222.44 243.64L221.19 247.66L220.09 251.72L219.15 255.86L218.39 260.06L217.78 264.31L217.34 268.62L217.08 272.97L217 277.37L217.08 281.78L217.34 286.12L217.78 290.43L218.39 294.68L219.15 298.89L220.09 303.03L221.19 307.1L222.44 311.1L223.83 315.04L225.37 318.91L227.08 322.71L228.9 326.41L230.87 330.05L232.98 333.58L235.21 337.04L237.59 340.4L240.07 343.66L242.68 346.83L245.42 349.88L248.24 352.83L251.2 355.68L254.26 358.41L257.42 361.02L260.68 363.5L264.04 365.88L267.49 368.11L271.04 370.22L274.66 372.19L278.38 374.02L282.18 375.71L286.04 377.25L289.99 378.66L293.99 379.91L298.07 381L302.21 381.92L306.41 382.7L310.66 383.31L314.96 383.75L319.32 384.02L323.72 384.09L328.11 384L332.45 383.74L336.75 383.3L341 382.69L345.19 381.92L349.31 380.99L353.39 379.89L357.39 378.64L361.33 377.25L365.19 375.71L368.98 374.02L372.68 372.19L376.31 370.22L379.84 368.11L383.29 365.88L386.65 363.52L389.92 361.03L393.07 358.44L396.14 355.72L399.07 352.88L401.92 349.94L404.65 346.88L407.26 343.74L409.74 340.47L412.12 337.13L414.35 333.68L416.46 330.15L418.43 326.52L420.27 322.82L421.96 319.04L423.52 315.18L424.93 311.24L426.18 307.24L427.27 303.18L428.23 299.06L429.01 294.85L429.62 290.62L430.07 286.32L430.33 281.98L430.44 277.59L430.44 277.37L430.35 272.97L430.08 268.62L429.65 264.31L429.04 260.06L428.27 255.86L427.34 251.72L426.24 247.66L425.01 243.64L423.6 239.7L422.05 235.83L420.37 232.03L418.52 228.33L416.56 224.69L414.45 221.16L412.21 217.71L409.85 214.35L407.37 211.08L404.76 207.91L402.03 204.86L399.18 201.91L396.23 199.07L393.17 196.33L390.01 193.72L386.75 191.24L383.39 188.88L379.93 186.63L376.39 184.54L372.76 182.55L369.04 180.73L365.26 179.04L361.39 177.49L357.45 176.09L353.44 174.84L349.36 173.74L345.22 172.82L341.03 172.04L336.78 171.45L332.47 171.01L328.11 170.74L323.72 170.65L319.32 170.74L314.96 171.01Z" id="b18W8GhAtA"/><path d="M333.45 160.32L338.19 160.81L342.88 161.48L347.48 162.34L352.05 163.37L356.53 164.59L360.94 165.96L365.28 167.51L369.53 169.23L373.7 171.09L377.78 173.12L381.76 175.29L385.67 177.62L389.46 180.09L393.15 182.69L396.74 185.44L400.21 188.32L403.57 191.33L406.82 194.46L409.95 197.72L412.93 201.08L415.81 204.58L418.54 208.18L421.13 211.88L423.59 215.68L425.9 219.58L428.05 223.58L430.07 227.67L431.93 231.85L433.62 236.11L435.15 240.44L436.52 244.86L437.71 249.34L438.72 253.91L439.57 258.53L440.22 263.22L440.69 267.95L440.99 272.75L441.07 277.59L440.96 282.42L440.66 287.21L440.18 291.95L439.51 296.62L438.65 301.24L437.62 305.79L436.4 310.27L435.02 314.68L433.48 319.01L431.77 323.26L429.9 327.43L427.88 331.51L425.71 335.51L423.38 339.4L420.91 343.19L418.3 346.88L415.57 350.46L412.7 353.94L409.68 357.3L406.56 360.53L403.31 363.66L399.93 366.66L396.45 369.52L392.87 372.25L389.17 374.86L385.37 377.31L381.47 379.63L377.47 381.78L373.39 383.8L369.22 385.66L364.95 387.34L360.62 388.89L356.2 390.25L351.72 391.45L347.17 392.47L342.55 393.31L337.88 393.98L333.14 394.45L328.35 394.73L323.5 394.83L318.66 394.73L313.88 394.44L309.13 393.95L304.46 393.28L299.83 392.42L295.29 391.39L290.8 390.19L286.38 388.81L282.05 387.27L277.79 385.56L273.62 383.69L269.54 381.67L265.54 379.5L261.65 377.17L257.85 374.72L254.15 372.11L250.57 369.36L247.09 366.49L243.73 363.49L240.48 360.36L237.36 357.1L234.36 353.74L231.48 350.25L228.75 346.66L226.15 342.96L223.7 339.16L221.37 335.26L219.22 331.26L217.2 327.18L215.34 322.99L213.64 318.74L212.11 314.4L210.73 309.98L209.55 305.49L208.51 300.95L207.67 296.32L207.01 291.64L206.53 286.9L206.25 282.11L206.16 277.26L206.25 272.42L206.55 267.64L207.03 262.89L207.7 258.22L208.56 253.59L209.59 249.05L210.8 244.56L212.17 240.14L213.72 235.81L215.42 231.55L217.3 227.38L219.31 223.3L221.48 219.3L223.81 215.41L226.26 211.61L228.87 207.91L231.62 204.33L234.5 200.85L237.5 197.49L240.62 194.24L243.89 191.12L247.24 188.12L250.73 185.24L254.32 182.51L258.03 179.91L261.82 177.46L265.73 175.13L269.73 172.98L273.8 170.96L277.99 169.1L282.24 167.4L286.58 165.87L291.01 164.49L295.49 163.31L300.04 162.27L304.66 161.43L309.35 160.77L314.08 160.29L318.88 160.01L323.72 159.92L323.81 159.92L328.66 160.02L333.45 160.32ZM314.96 171.01L310.66 171.45L306.41 172.04L302.21 172.82L298.07 173.74L293.99 174.84L289.99 176.09L286.04 177.49L282.18 179.04L278.38 180.73L274.66 182.55L271.04 184.54L267.49 186.63L264.04 188.88L260.68 191.24L257.43 193.72L254.26 196.33L251.2 199.07L248.24 201.91L245.42 204.86L242.68 207.91L240.07 211.08L237.59 214.35L235.21 217.71L232.98 221.16L230.87 224.69L228.9 228.33L227.08 232.03L225.37 235.83L223.83 239.7L222.44 243.64L221.19 247.66L220.09 251.72L219.15 255.86L218.39 260.06L217.78 264.31L217.34 268.62L217.08 272.97L217 277.37L217.08 281.78L217.34 286.12L217.78 290.43L218.39 294.68L219.15 298.89L220.09 303.03L221.19 307.1L222.44 311.1L223.83 315.04L225.37 318.91L227.08 322.71L228.9 326.41L230.87 330.05L232.98 333.58L235.21 337.04L237.59 340.4L240.07 343.66L242.68 346.83L245.42 349.88L248.24 352.83L251.2 355.68L254.26 358.41L257.42 361.02L260.68 363.5L264.04 365.88L267.49 368.11L271.04 370.22L274.66 372.19L278.38 374.02L282.18 375.71L286.04 377.25L289.99 378.66L293.99 379.91L298.07 381L302.21 381.92L306.41 382.7L310.66 383.31L314.96 383.75L319.32 384.02L323.72 384.09L328.11 384L332.45 383.74L336.75 383.3L341 382.69L345.19 381.92L349.31 380.99L353.39 379.89L357.39 378.64L361.33 377.25L365.19 375.71L368.98 374.02L372.68 372.19L376.31 370.22L379.84 368.11L383.29 365.88L386.65 363.52L389.92 361.03L393.07 358.44L396.14 355.72L399.07 352.88L401.92 349.94L404.65 346.88L407.26 343.74L409.74 340.47L412.12 337.13L414.35 333.68L416.46 330.15L418.43 326.52L420.27 322.82L421.96 319.04L423.52 315.18L424.93 311.24L426.18 307.24L427.27 303.18L428.23 299.06L429.01 294.85L429.62 290.62L430.07 286.32L430.33 281.98L430.44 277.59L430.44 277.37L430.35 272.97L430.08 268.62L429.65 264.31L429.04 260.06L428.27 255.86L427.34 251.72L426.24 247.66L425.01 243.64L423.6 239.7L422.05 235.83L420.37 232.03L418.52 228.33L416.56 224.69L414.45 221.16L412.21 217.71L409.85 214.35L407.37 211.08L404.76 207.91L402.03 204.86L399.18 201.91L396.23 199.07L393.17 196.33L390.01 193.72L386.75 191.24L383.39 188.88L379.93 186.63L376.39 184.54L372.76 182.55L369.04 180.73L365.26 179.04L361.39 177.49L357.45 176.09L353.44 174.84L349.36 173.74L345.22 172.82L341.03 172.04L336.78 171.45L332.47 171.01L328.11 170.74L323.72 170.65L319.32 170.74L314.96 171.01Z" id="ehWOTgEM"/><path d="M451.72 373.41C496.56 418.25 521.47 443.15 526.45 448.13C526.45 448.13 526.45 448.13 526.45 448.13C507.25 467.34 496.58 478.01 494.44 480.13C494.44 480.13 494.44 480.13 494.44 480.13C449.61 435.29 424.71 410.39 419.73 405.4C419.73 405.4 419.73 405.4 419.73 405.4C438.93 386.2 449.6 375.55 451.72 373.41C451.72 373.41 451.72 373.41 451.72 373.41Z" id="b5m5iQ4igx"/><path d="M451.72 373.41C496.56 418.25 521.47 443.15 526.45 448.13C526.45 448.13 526.45 448.13 526.45 448.13C507.25 467.34 496.58 478.01 494.44 480.13C494.44 480.13 494.44 480.13 494.44 480.13C449.61 435.29 424.71 410.39 419.73 405.4C419.73 405.4 419.73 405.4 419.73 405.4C438.93 386.2 449.6 375.55 451.72 373.41C451.72 373.41 451.72 373.41 451.72 373.41Z" id="b2byzlQp14"/><path d="M409.07 373.36C409.07 379.24 413.84 383.99 419.71 383.99C425.57 383.99 430.33 379.24 430.33 373.36C430.33 367.49 425.57 362.74 419.71 362.74C413.84 362.74 409.07 367.49 409.07 373.36Z" id="d18aAe2tJQ"/><path d="M409.07 373.36C409.07 379.24 413.84 383.99 419.71 383.99C425.57 383.99 430.33 379.24 430.33 373.36C430.33 367.49 425.57 362.74 419.71 362.74C413.84 362.74 409.07 367.49 409.07 373.36Z" id="b50tIMyZOx"/><path d="M119.84 262.11C119.84 266.94 123.76 270.84 128.59 270.84C133.4 270.84 137.32 266.94 137.32 262.11C137.32 257.28 133.4 253.37 128.59 253.37C123.76 253.37 119.84 257.28 119.84 262.11Z" id="e1nEjN9iMd"/><path d="M119.84 262.11C119.84 266.94 123.76 270.84 128.59 270.84C133.4 270.84 137.32 266.94 137.32 262.11C137.32 257.28 133.4 253.37 128.59 253.37C123.76 253.37 119.84 257.28 119.84 262.11Z" id="f7LGrbU9JL"/><path d="M210.16 197.8C210.16 202.63 214.06 206.54 218.89 206.54C223.72 206.54 227.62 202.63 227.62 197.8C227.62 192.97 223.72 189.07 218.89 189.07C214.06 189.07 210.16 192.97 210.16 197.8Z" id="q26oUFhGwb"/><path d="M210.16 197.8C210.16 202.63 214.06 206.54 218.89 206.54C223.72 206.54 227.62 202.63 227.62 197.8C227.62 192.97 223.72 189.07 218.89 189.07C214.06 189.07 210.16 192.97 210.16 197.8Z" id="c55mzEC2Iq"/><path d="M240.25 257.8C240.25 262.62 244.17 266.53 248.99 266.53C253.81 266.53 257.73 262.62 257.73 257.8C257.73 252.97 253.81 249.06 248.99 249.06C244.17 249.06 240.25 252.97 240.25 257.8Z" id="bPFxnf7Ie"/><path d="M240.25 257.8C240.25 262.62 244.17 266.53 248.99 266.53C253.81 266.53 257.73 262.62 257.73 257.8C257.73 252.97 253.81 249.06 248.99 249.06C244.17 249.06 240.25 252.97 240.25 257.8Z" id="ba0HpFjye"/><path d="M283.19 270.64C283.19 275.47 287.1 279.37 291.93 279.37C296.76 279.37 300.66 275.47 300.66 270.64C300.66 265.81 296.76 261.9 291.93 261.9C287.1 261.9 283.19 265.81 283.19 270.64Z" id="ebER3pwRr"/><path d="M283.19 270.64C283.19 275.47 287.1 279.37 291.93 279.37C296.76 279.37 300.66 275.47 300.66 270.64C300.66 265.81 296.76 261.9 291.93 261.9C287.1 261.9 283.19 265.81 283.19 270.64Z" id="d6ZthhM2U"/><path d="M304.77 330.63C304.77 335.46 308.68 339.37 313.5 339.37C318.33 339.37 322.24 335.46 322.24 330.63C322.24 325.8 318.33 321.9 313.5 321.9C308.68 321.9 304.77 325.8 304.77 330.63Z" id="a6iKOzqSi1"/><path d="M304.77 330.63C304.77 335.46 308.68 339.37 313.5 339.37C318.33 339.37 322.24 335.46 322.24 330.63C322.24 325.8 318.33 321.9 313.5 321.9C308.68 321.9 304.77 325.8 304.77 330.63Z" id="a1wM67WUFz"/><path d="M383.81 291.17C383.81 295.98 387.73 299.9 392.56 299.9C397.37 299.9 401.29 295.98 401.29 291.17C401.29 286.34 397.37 282.42 392.56 282.42C387.73 282.42 383.81 286.34 383.81 291.17Z" id="a1bJtdDMIW"/><path d="M383.81 291.17C383.81 295.98 387.73 299.9 392.56 299.9C397.37 299.9 401.29 295.98 401.29 291.17C401.29 286.34 397.37 282.42 392.56 282.42C387.73 282.42 383.81 286.34 383.81 291.17Z" id="g4FxoSc2QU"/><path d="M347.72 236.42C347.72 241.25 351.62 245.17 356.45 245.17C361.28 245.17 365.19 241.25 365.19 236.42C365.19 231.61 361.28 227.69 356.45 227.69C351.62 227.69 347.72 231.61 347.72 236.42Z" id="aNyFDIkkT"/><path d="M347.72 236.42C347.72 241.25 351.62 245.17 356.45 245.17C361.28 245.17 365.19 241.25 365.19 236.42C365.19 231.61 361.28 227.69 356.45 227.69C351.62 227.69 347.72 231.61 347.72 236.42Z" id="f7XsSjj7R"/><path d="M128.59 262L218.89 197.8" id="a30V8xiSJF"/><path d="M128.59 262L218.89 197.8" id="dvFZQu4Ph"/><path d="M218.89 197.8L248.99 257.8" id="c28kBVGUr"/><path d="M218.89 197.8L248.99 257.8" id="aptllQf7c"/><path d="M248.99 257.8L291.93 270.64" id="bfUBBoONI"/><path d="M248.99 257.8L291.93 270.64" id="a2vmLOfWei"/><path d="M291.93 270.64L356.45 236.42" id="bCfxX2k8O"/><path d="M291.93 270.64L356.45 236.42" id="m5RIhKHJ73"/><path d="M356.45 236.42L313.5 330.63" id="dejIPQzTi"/><path d="M356.45 236.42L313.5 330.63" id="b1Od8osVD1"/><path d="M313.5 330.63L392.56 291.17" id="d1F4rCoAm"/><path d="M313.5 330.63L392.56 291.17" id="e3AB9tC7V"/></defs><g><g><g><use xlink:href="#b2XFEgZXA" opacity="1" fill="#196970" fill-opacity="1"/><g><use xlink:href="#b2XFEgZXA" opacity="1" fill-opacity="0" stroke="#000000" stroke-width="1" stroke-opacity="0"/></g></g><g><use xlink:href="#c474SQXUmH" opacity="1" fill="#000000" fill-opacity="0"/><g><use xlink:href="#c474SQXUmH" opacity="1" fill-opacity="0" stroke="#000000" stroke-width="1" stroke-opacity="0"/></g></g><g><use xlink:href="#b18W8GhAtA" opacity="1" fill="#ffffff" fill-opacity="1"/><g><use xlink:href="#b18W8GhAtA" opacity="1" fill-opacity="0" stroke="#000000" stroke-width="1" stroke-opacity="0"/></g></g><g><use xlink:href="#ehWOTgEM" opacity="1" fill="#000000" fill-opacity="0"/><g><use xlink:href="#ehWOTgEM" opacity="1" fill-opacity="0" stroke="#000000" stroke-width="1" stroke-opacity="0"/></g></g><g><use xlink:href="#b5m5iQ4igx" opacity="1" fill="#ffffff" fill-opacity="1"/><g><use xlink:href="#b5m5iQ4igx" opacity="1" fill-opacity="0" stroke="#000000" stroke-width="1" stroke-opacity="0"/></g></g><g><use xlink:href="#b2byzlQp14" opacity="1" fill="#000000" fill-opacity="0"/><g><use xlink:href="#b2byzlQp14" opacity="1" fill-opacity="0" stroke="#000000" stroke-width="1" stroke-opacity="0"/></g></g><g><use xlink:href="#d18aAe2tJQ" opacity="1" fill="#ffffff" fill-opacity="1"/><g><use xlink:href="#d18aAe2tJQ" opacity="1" fill-opacity="0" stroke="#000000" stroke-width="1" stroke-opacity="0"/></g></g><g><use xlink:href="#b50tIMyZOx" opacity="1" fill="#000000" fill-opacity="0"/><g><use xlink:href="#b50tIMyZOx" opacity="1" fill-opacity="0" stroke="#000000" stroke-width="1" stroke-opacity="0"/></g></g><g><use xlink:href="#e1nEjN9iMd" opacity="1" fill="#ffffff" fill-opacity="1"/><g><use xlink:href="#e1nEjN9iMd" opacity="1" fill-opacity="0" stroke="#000000" stroke-width="1" stroke-opacity="0"/></g></g><g><use xlink:href="#f7LGrbU9JL" opacity="1" fill="#000000" fill-opacity="0"/><g><use xlink:href="#f7LGrbU9JL" opacity="1" fill-opacity="0" stroke="#000000" stroke-width="1" stroke-opacity="0"/></g></g><g><use xlink:href="#q26oUFhGwb" opacity="1" fill="#ffffff" fill-opacity="1"/><g><use xlink:href="#q26oUFhGwb" opacity="1" fill-opacity="0" stroke="#000000" stroke-width="1" stroke-opacity="0"/></g></g><g><use xlink:href="#c55mzEC2Iq" opacity="1" fill="#000000" fill-opacity="0"/><g><use xlink:href="#c55mzEC2Iq" opacity="1" fill-opacity="0" stroke="#000000" stroke-width="1" stroke-opacity="0"/></g></g><g><use xlink:href="#bPFxnf7Ie" opacity="1" fill="#ffffff" fill-opacity="1"/><g><use xlink:href="#bPFxnf7Ie" opacity="1" fill-opacity="0" stroke="#000000" stroke-width="1" stroke-opacity="0"/></g></g><g><use xlink:href="#ba0HpFjye" opacity="1" fill="#000000" fill-opacity="0"/><g><use xlink:href="#ba0HpFjye" opacity="1" fill-opacity="0" stroke="#000000" stroke-width="1" stroke-opacity="0"/></g></g><g><use xlink:href="#ebER3pwRr" opacity="1" fill="#ffffff" fill-opacity="1"/><g><use xlink:href="#ebER3pwRr" opacity="1" fill-opacity="0" stroke="#000000" stroke-width="1" stroke-opacity="0"/></g></g><g><use xlink:href="#d6ZthhM2U" opacity="1" fill="#000000" fill-opacity="0"/><g><use xlink:href="#d6ZthhM2U" opacity="1" fill-opacity="0" stroke="#000000" stroke-width="1" stroke-opacity="0"/></g></g><g><use xlink:href="#a6iKOzqSi1" opacity="1" fill="#ffffff" fill-opacity="1"/><g><use xlink:href="#a6iKOzqSi1" opacity="1" fill-opacity="0" stroke="#000000" stroke-width="1" stroke-opacity="0"/></g></g><g><use xlink:href="#a1wM67WUFz" opacity="1" fill="#000000" fill-opacity="0"/><g><use xlink:href="#a1wM67WUFz" opacity="1" fill-opacity="0" stroke="#000000" stroke-width="1" stroke-opacity="0"/></g></g><g><use xlink:href="#a1bJtdDMIW" opacity="1" fill="#ffffff" fill-opacity="1"/><g><use xlink:href="#a1bJtdDMIW" opacity="1" fill-opacity="0" stroke="#000000" stroke-width="1" stroke-opacity="0"/></g></g><g><use xlink:href="#g4FxoSc2QU" opacity="1" fill="#000000" fill-opacity="0"/><g><use xlink:href="#g4FxoSc2QU" opacity="1" fill-opacity="0" stroke="#000000" stroke-width="1" stroke-opacity="0"/></g></g><g><use xlink:href="#aNyFDIkkT" opacity="1" fill="#ffffff" fill-opacity="1"/><g><use xlink:href="#aNyFDIkkT" opacity="1" fill-opacity="0" stroke="#000000" stroke-width="1" stroke-opacity="0"/></g></g><g><use xlink:href="#f7XsSjj7R" opacity="1" fill="#000000" fill-opacity="0"/><g><use xlink:href="#f7XsSjj7R" opacity="1" fill-opacity="0" stroke="#000000" stroke-width="1" stroke-opacity="0"/></g></g><g><use xlink:href="#a30V8xiSJF" opacity="1" fill="#000000" fill-opacity="0"/><g><use xlink:href="#a30V8xiSJF" opacity="1" fill-opacity="0" stroke="#000000" stroke-width="1" stroke-opacity="0"/></g></g><g><use xlink:href="#dvFZQu4Ph" opacity="1" fill="#000000" fill-opacity="0"/><g><use xlink:href="#dvFZQu4Ph" opacity="1" fill-opacity="0" stroke="#ffffff" stroke-width="0.25" stroke-opacity="1"/></g></g><g><use xlink:href="#c28kBVGUr" opacity="1" fill="#000000" fill-opacity="0"/><g><use xlink:href="#c28kBVGUr" opacity="1" fill-opacity="0" stroke="#000000" stroke-width="1" stroke-opacity="0"/></g></g><g><use xlink:href="#aptllQf7c" opacity="1" fill="#000000" fill-opacity="0"/><g><use xlink:href="#aptllQf7c" opacity="1" fill-opacity="0" stroke="#ffffff" stroke-width="0.25" stroke-opacity="1"/></g></g><g><use xlink:href="#bfUBBoONI" opacity="1" fill="#000000" fill-opacity="0"/><g><use xlink:href="#bfUBBoONI" opacity="1" fill-opacity="0" stroke="#000000" stroke-width="1" stroke-opacity="0"/></g></g><g><use xlink:href="#a2vmLOfWei" opacity="1" fill="#000000" fill-opacity="0"/><g><use xlink:href="#a2vmLOfWei" opacity="1" fill-opacity="0" stroke="#ffffff" stroke-width="0.25" stroke-opacity="1"/></g></g><g><use xlink:href="#bCfxX2k8O" opacity="1" fill="#000000" fill-opacity="0"/><g><use xlink:href="#bCfxX2k8O" opacity="1" fill-opacity="0" stroke="#000000" stroke-width="1" stroke-opacity="0"/></g></g><g><use xlink:href="#m5RIhKHJ73" opacity="1" fill="#000000" fill-opacity="0"/><g><use xlink:href="#m5RIhKHJ73" opacity="1" fill-opacity="0" stroke="#ffffff" stroke-width="0.25" stroke-opacity="1"/></g></g><g><use xlink:href="#dejIPQzTi" opacity="1" fill="#000000" fill-opacity="0"/><g><use xlink:href="#dejIPQzTi" opacity="1" fill-opacity="0" stroke="#000000" stroke-width="1" stroke-opacity="0"/></g></g><g><use xlink:href="#b1Od8osVD1" opacity="1" fill="#000000" fill-opacity="0"/><g><use xlink:href="#b1Od8osVD1" opacity="1" fill-opacity="0" stroke="#ffffff" stroke-width="0.25" stroke-opacity="1"/></g></g><g><use xlink:href="#d1F4rCoAm" opacity="1" fill="#000000" fill-opacity="0"/><g><use xlink:href="#d1F4rCoAm" opacity="1" fill-opacity="0" stroke="#000000" stroke-width="1" stroke-opacity="0"/></g></g><g><use xlink:href="#e3AB9tC7V" opacity="1" fill="#000000" fill-opacity="0"/><g><use xlink:href="#e3AB9tC7V" opacity="1" fill-opacity="0" stroke="#ffffff" stroke-width="0.25" stroke-opacity="1"/></g></g></g></g></svg>