<svg xmlns:dc="http://purl.org/dc/elements/1.1/" xmlns:cc="http://creativecommons.org/ns#" xmlns:rdf="http://www.w3.org/1999/02/22-rdf-syntax-ns#" xmlns:svg="http://www.w3.org/2000/svg" xmlns="http://www.w3.org/2000/svg" xmlns:xlink="http://www.w3.org/1999/xlink" xmlns:sodipodi="http://sodipodi.sourceforge.net/DTD/sodipodi-0.dtd" xmlns:inkscape="http://www.inkscape.org/namespaces/inkscape" version="1.1" preserveAspectRatio="xMidYMid meet" viewBox="0 0 640 640" width="640" height="640" id="svg62" sodipodi:docname="Runbooks.svg" inkscape:version="0.92.2 (5c3e80d, 2017-08-06)">
  <metadata id="metadata66">
    <rdf:RDF>
      <cc:Work rdf:about="">
        <dc:format>image/svg+xml</dc:format>
        <dc:type rdf:resource="http://purl.org/dc/dcmitype/StillImage"/>
      </cc:Work>
    </rdf:RDF>
  </metadata>
  <sodipodi:namedview pagecolor="#ffffff" bordercolor="#666666" borderopacity="1" objecttolerance="10" gridtolerance="10" guidetolerance="10" inkscape:pageopacity="0" inkscape:pageshadow="2" inkscape:window-width="1920" inkscape:window-height="1028" id="namedview64" showgrid="false" inkscape:zoom="0.36875" inkscape:cx="320" inkscape:cy="320" inkscape:window-x="-8" inkscape:window-y="112" inkscape:window-maximized="1" inkscape:current-layer="svg62"/>
  <defs id="defs8">
    <path d="M521.9 234.44C521.9 358.36 421 458.82 296.53 458.82C172.06 458.82 71.16 358.36 71.16 234.44C71.16 110.52 172.06 10.06 296.53 10.06C421 10.06 521.9 110.52 521.9 234.44Z" id="aHbCX3XD0"/>
    <path d="M405.94 148.27L405.94 387.28L246.86 387.28L246.86 327.62L187.12 327.62L187.12 88.61L346.29 88.61L346.29 148.27L405.94 148.27ZM256.76 376.99L396.04 376.99L395.96 158.25L256.76 158.25L256.76 376.99ZM197.1 317.33L246.86 317.33L246.86 148.34L336.3 148.34L336.3 98.59L197.1 98.59L197.1 317.33Z" id="a3we1wC1rg"/>
    <path d="M391.62 205.03C391.62 205.03 391.62 205.03 391.62 205.03C391.62 211.57 391.62 215.2 391.62 215.92C391.62 215.92 391.62 215.92 391.62 215.92C339.23 215.92 310.13 215.92 304.3 215.92C304.3 215.92 304.3 215.92 304.3 215.92C304.3 209.39 304.3 205.75 304.3 205.03C304.3 205.03 304.3 205.03 304.3 205.03C356.69 205.03 385.8 205.03 391.62 205.03Z" id="b1uj4mJQV"/>
    <path d="M391.62 226.9C391.62 226.9 391.62 226.9 391.62 226.9C391.62 233.43 391.62 237.06 391.62 237.79C391.62 237.79 391.62 237.79 391.62 237.79C339.23 237.79 310.13 237.79 304.3 237.79C304.3 237.79 304.3 237.79 304.3 237.79C304.3 231.25 304.3 227.62 304.3 226.9C304.3 226.9 304.3 226.9 304.3 226.9C356.69 226.9 385.8 226.9 391.62 226.9Z" id="a2Tczsuovx"/>
    <path d="M391.62 248.69C391.62 248.69 391.62 248.69 391.62 248.69C391.62 255.22 391.62 258.85 391.62 259.58C391.62 259.58 391.62 259.58 391.62 259.58C339.23 259.58 310.13 259.58 304.3 259.58C304.3 259.58 304.3 259.58 304.3 259.58C304.3 253.04 304.3 249.41 304.3 248.69C304.3 248.69 304.3 248.69 304.3 248.69C356.69 248.69 385.8 248.69 391.62 248.69Z" id="b5ft6hztE"/>
    <path d="M347.96 270.55C347.96 270.55 347.96 270.55 347.96 270.55C347.96 277.09 347.96 280.72 347.96 281.45C347.96 281.45 347.96 281.45 347.96 281.45C321.77 281.45 307.22 281.45 304.3 281.45C304.3 281.45 304.3 281.45 304.3 281.45C304.3 274.91 304.3 271.28 304.3 270.55C304.3 270.55 304.3 270.55 304.3 270.55C330.5 270.55 345.05 270.55 347.96 270.55Z" id="eVBM5KASq"/>
  </defs>
  <g id="g60" transform="matrix(1.3906511,0,0,1.4163399,-92.850472,-9.5691335)">
    <g id="g58">
      <g id="g16">
        <use xlink:href="#aHbCX3XD0" id="use10" style="opacity:1;fill:#196970;fill-opacity:1" x="0" y="0" width="100%" height="100%"/>
        <g id="g14">
          <use xlink:href="#aHbCX3XD0" id="use12" style="opacity:1;fill-opacity:0;stroke:#000000;stroke-width:1;stroke-opacity:0" x="0" y="0" width="100%" height="100%"/>
        </g>
      </g>
      <g id="g24">
        <use xlink:href="#a3we1wC1rg" id="use18" style="opacity:1;fill:#ffffff;fill-opacity:1" x="0" y="0" width="100%" height="100%"/>
        <g id="g22">
          <use xlink:href="#a3we1wC1rg" id="use20" style="opacity:1;fill-opacity:0;stroke:#000000;stroke-width:1;stroke-opacity:0" x="0" y="0" width="100%" height="100%"/>
        </g>
      </g>
      <g id="g32">
        <use xlink:href="#b1uj4mJQV" id="use26" style="opacity:1;fill:#ffffff;fill-opacity:1" x="0" y="0" width="100%" height="100%"/>
        <g id="g30">
          <use xlink:href="#b1uj4mJQV" id="use28" style="opacity:1;fill-opacity:0;stroke:#000000;stroke-width:1;stroke-opacity:0" x="0" y="0" width="100%" height="100%"/>
        </g>
      </g>
      <g id="g40">
        <use xlink:href="#a2Tczsuovx" id="use34" style="opacity:1;fill:#ffffff;fill-opacity:1" x="0" y="0" width="100%" height="100%"/>
        <g id="g38">
          <use xlink:href="#a2Tczsuovx" id="use36" style="opacity:1;fill-opacity:0;stroke:#000000;stroke-width:1;stroke-opacity:0" x="0" y="0" width="100%" height="100%"/>
        </g>
      </g>
      <g id="g48">
        <use xlink:href="#b5ft6hztE" id="use42" style="opacity:1;fill:#ffffff;fill-opacity:1" x="0" y="0" width="100%" height="100%"/>
        <g id="g46">
          <use xlink:href="#b5ft6hztE" id="use44" style="opacity:1;fill-opacity:0;stroke:#000000;stroke-width:1;stroke-opacity:0" x="0" y="0" width="100%" height="100%"/>
        </g>
      </g>
      <g id="g56">
        <use xlink:href="#eVBM5KASq" id="use50" style="opacity:1;fill:#ffffff;fill-opacity:1" x="0" y="0" width="100%" height="100%"/>
        <g id="g54">
          <use xlink:href="#eVBM5KASq" id="use52" style="opacity:1;fill-opacity:0;stroke:#000000;stroke-width:1;stroke-opacity:0" x="0" y="0" width="100%" height="100%"/>
        </g>
      </g>
    </g>
  </g>
</svg>