<svg id="Layer_1" data-name="Layer 1" xmlns="http://www.w3.org/2000/svg" viewBox="0 0 64.18 64.08"><defs><style>.cls-1{fill:#d91f2e;}.cls-2{fill:none;stroke:#fff;stroke-miterlimit:10;stroke-width:1.32px;}</style></defs><title>Block Chain SOURCE FILES</title><circle class="cls-1" cx="33.11" cy="33.75" r="27.5"/><path class="cls-2" d="M20.79,28a10.83,10.83,0,0,1,.36-4,11.16,11.16,0,0,1,1.92-3.75,11.75,11.75,0,0,1,3.71-3.36,12.12,12.12,0,0,1,3.92-1.36,13.24,13.24,0,0,1,3.39-.16,12.77,12.77,0,0,1,3.52.8,12.57,12.57,0,0,1,3.59,2.24A12.75,12.75,0,0,1,43.44,21a11.18,11.18,0,0,1,1.32,2.92,11.07,11.07,0,0,1,.32,1.88c.25,2.93.17,7.76.16,8.59"/><path class="cls-2" d="M20.43,30.72a2.93,2.93,0,0,0,2.8-1.36,4.87,4.87,0,0,0,.56-1.79c.2-1.12.12-1.4.28-2.24a8.61,8.61,0,0,1,.63-2.08,8.43,8.43,0,0,1,3.24-3.43,8.72,8.72,0,0,1,7.43-1.32,9.43,9.43,0,0,1,2.76,1.24,10.36,10.36,0,0,1,2.27,2.07,7.17,7.17,0,0,1,1.48,2.32,6.41,6.41,0,0,1,.32,1.36,71.21,71.21,0,0,1,.16,7.83A3.16,3.16,0,0,0,42.52,35a2.81,2.81,0,0,0,1.08,1.11,4.53,4.53,0,0,0,2,.76"/><path class="cls-2" d="M20.35,33.68a5.81,5.81,0,0,0,1.76-.08,6.14,6.14,0,0,0,2.12-.92A5.43,5.43,0,0,0,26,31a9.45,9.45,0,0,0,.72-3.23,9.49,9.49,0,0,1,.48-2.68,6.51,6.51,0,0,1,2.72-3A6,6,0,0,1,34,21.41a6.13,6.13,0,0,1,1.76.52,5.82,5.82,0,0,1,1.52,1.12,6.68,6.68,0,0,1,1.32,1.6,5.74,5.74,0,0,1,.64,1.76,5,5,0,0,1,.07,1.12c-.05,2.49.19,5,.08,7.47a4.17,4.17,0,0,0,.2,1.19A6.15,6.15,0,0,0,41,38a6.72,6.72,0,0,0,1.53,1,7.57,7.57,0,0,0,3.09.67"/><path class="cls-2" d="M20.43,36.72a4.71,4.71,0,0,0,1.59.09A6,6,0,0,0,24.27,36a11.24,11.24,0,0,0,1.61-1,11.84,11.84,0,0,0,2.34-2.37,8.11,8.11,0,0,0,1.11-1.89,7.1,7.1,0,0,0,.33-1.92A8.39,8.39,0,0,1,30,27a3.52,3.52,0,0,1,.45-1.17,3.26,3.26,0,0,1,1-.9,3,3,0,0,1,1.46-.69,2.48,2.48,0,0,1,1.14.15,3.13,3.13,0,0,1,1,.6A3.4,3.4,0,0,1,36,26.15a4.19,4.19,0,0,1,.15,2.48,18.44,18.44,0,0,1-.6,3.42,14,14,0,0,1-2,3.92,15.61,15.61,0,0,1-5.84,5,17.5,17.5,0,0,1-7.16,1.89"/><path class="cls-2" d="M20.91,39.75a11.29,11.29,0,0,0,3-.36,11.55,11.55,0,0,0,4.91-2.76,14.57,14.57,0,0,0,2.4-2.91,12,12,0,0,0,1.27-2.32,9.56,9.56,0,0,0,.6-4.39"/><path class="cls-2" d="M33.62,39.54l1.51,0"/><path class="cls-2" d="M36.6,36.61a7.06,7.06,0,0,0,.61,1.46A7.92,7.92,0,0,0,38.76,40a11,11,0,0,0,2.31,1.74,7.89,7.89,0,0,0,2,.88,7.36,7.36,0,0,0,2.77.2"/><path class="cls-2" d="M43.73,46c-.48-.14-1.13-.36-1.9-.65a15.47,15.47,0,0,1-2-.88c-1-.58-1.25-.7-2.1-1.13a11.06,11.06,0,0,0-2.41-.89,5.4,5.4,0,0,0-2.76,0,9.42,9.42,0,0,0-1.87.74c-1.92.88-2,1.16-3.22,1.65a13.45,13.45,0,0,1-3,.76,17.92,17.92,0,0,1-2.24.21"/><path class="cls-2" d="M24.64,48.61a7.69,7.69,0,0,0,1.85-.25,8.8,8.8,0,0,0,1.74-.7c.63-.32.62-.39,1.47-.83.6-.32,1-.52,1.39-.68a6.36,6.36,0,0,1,1.56-.57,5.46,5.46,0,0,1,1.15,0,6.09,6.09,0,0,1,1.42.21,7.43,7.43,0,0,1,1.47.67c.49.27.58.34,1.1.64.2.11.92.51,1.49.76a8.93,8.93,0,0,0,2.46.68"/><path class="cls-2" d="M27.87,51.16a12.64,12.64,0,0,0,1.69-.57,9.59,9.59,0,0,0,1.85-1c.66-.45.66-.58,1.08-.74a3.31,3.31,0,0,1,1.65-.14,4.69,4.69,0,0,1,1.44.43,8.27,8.27,0,0,1,1.15.68c.63.4.77.54,1.22.79a7.34,7.34,0,0,0,.95.43"/><path class="cls-2" d="M33.08,52.15l1.71,0"/></svg>