<?xml version="1.0" encoding="UTF-8"?>
<svg width="109px" height="108px" viewBox="0 0 109 108" version="1.1" xmlns="http://www.w3.org/2000/svg" xmlns:xlink="http://www.w3.org/1999/xlink">
    <!-- Generator: Sketch 53 (72520) - https://sketchapp.com -->
    <title>Group 6</title>
    <desc>Created with Sketch.</desc>
    <g id="Page-1" stroke="none" stroke-width="1" fill="none" fill-rule="evenodd">
        <g id="Network-Icons" transform="translate(-249.000000, -474.000000)">
            <g id="Group-6" transform="translate(248.968750, 474.000000)">
                <g id="VPN-Gateway">
                    <g id="Group">
                        <ellipse id="Oval" fill="#E02533" fill-rule="nonzero" cx="54.8" cy="54.2" rx="54" ry="53.8"></ellipse>
                        <ellipse id="Oval" stroke="#FFFFFF" stroke-width="3" cx="54.8" cy="53.4" rx="42.1" ry="42"></ellipse>
                    </g>
                    <g id="Group" transform="translate(35.000000, 23.000000)" fill="#FFFFFF" fill-rule="nonzero">
                        <path d="M36.7,27.6 C34.8,27.6 33,27.6 31.2,27.6 C31,27.6 30.8,27.6 30.6,27.5 C30.6,27.1 30.5,26.8 30.5,26.4 C30.5,23 30.5,19.6 30.6,16.2 C30.6,11.5 26.4,6.9 21.5,6.4 C15.7,5.8 10.8,9.4 9.8,15.2 C9.7,15.9 9.7,16.5 9.7,17.2 C9.7,22 9.7,26.9 9.7,31.7 C9.7,32 9.7,32.4 9.7,32.8 C10.2,32.8 10.5,32.9 10.9,32.9 C19.6,32.9 28.2,32.9 36.9,32.9 C37.8,32.9 38.1,33.1 38.1,34.1 C38.1,41.8 38.1,49.6 38.1,57.3 C38.1,57.7 38.1,58 38.1,58.4 C25.9,58.4 13.8,58.4 1.5,58.4 C1.5,58 1.4,57.6 1.4,57.2 C1.4,49.6 1.4,42 1.4,34.3 C1.4,32.7 1.4,32.9 2.8,32.9 C3,32.9 3.1,32.9 3.4,32.8 C3.4,32.5 3.4,32.1 3.4,31.7 C3.4,26.8 3.4,21.9 3.4,17 C3.4,7.3 10.9,-0.1 20.6,0.1 C29,0.2 36.4,7.3 36.7,15.7 C36.8,19.5 36.7,23.2 36.7,27 C36.7,27.2 36.7,27.3 36.7,27.6 Z M26.6,52.2 C26.6,53 26.6,53.7 26.6,54.4 C26.6,55.5 27.4,56.2 28.4,56.2 C29.4,56.2 30.2,55.5 30.2,54.4 C30.2,54 30.2,53.5 30.2,53.1 C30.1,52.3 30.4,52 31.2,52.1 C31.9,52.2 32.2,52 32.2,51.2 C32.1,49.3 32.2,47.3 32.2,45.4 C32.2,44.3 31.6,43.5 30.7,43 C30.3,42.8 29.9,42.4 29.8,42 C29.2,40.6 28.6,39.1 28.1,37.7 C27.5,36.3 26.7,35.8 25.2,35.8 C21.7,35.8 18.2,35.8 14.6,35.8 C13.1,35.8 12.3,36.3 11.7,37.7 C11.1,39.1 10.6,40.6 9.9,42 C9.7,42.4 9.3,42.8 9,43 C8.2,43.4 7.6,44 7.5,44.9 C7.4,47.3 7.5,49.7 7.5,52.1 C8.2,52.1 8.8,52.2 9.4,52.2 C9.4,52.9 9.4,53.6 9.4,54.3 C9.4,55.5 10.1,56.2 11.1,56.2 C12.2,56.2 12.9,55.5 13,54.3 C13,53.6 13,53 13,52.3 C17.6,52.2 22,52.2 26.6,52.2 Z" id="Shape"></path>
                        <path d="M33.1,26.2 L6.4,26.2 C3.4,26.2 0.9,28.6 0.9,31.7 L0.9,56.5 C0.9,59.5 3.3,62 6.4,62 L33.1,62 C36.1,62 38.6,59.6 38.6,56.5 L38.6,31.7 C38.6,28.6 36.2,26.2 33.1,26.2 Z" id="Path"></path>
                    </g>
                </g>
                <polyline id="Path" stroke="#E02533" stroke-width="2.7155" stroke-linecap="round" points="40 65.7 51.5 77.4 70 58"></polyline>
            </g>
        </g>
    </g>
</svg>