<svg version="1.1" xmlns="http://www.w3.org/2000/svg" xmlns:xlink="http://www.w3.org/1999/xlink" preserveAspectRatio="xMidYMid meet" viewBox="0 0 640 640" width="640" height="640"><defs><path d="M322.54 637.03C147.21 637.03 5.07 495.51 5.07 320.93C5.07 146.36 147.21 4.84 322.54 4.84C497.86 4.84 640 146.36 640 320.93C640 495.51 497.86 637.03 322.54 637.03Z" id="cce1j7JvGN"/><path d="M322.54 637.03C147.21 637.03 5.07 495.51 5.07 320.93C5.07 146.36 147.21 4.84 322.54 4.84C497.86 4.84 640 146.36 640 320.93C640 495.51 497.86 637.03 322.54 637.03Z" id="a1CfZGEZUW"/><path d="M269.25 258.14L269.5 258.16L269.73 258.16L269.98 258.17L270.22 258.18L270.47 258.19L270.71 258.21L270.96 258.22L271.2 258.23L271.45 258.26L271.69 258.27L271.94 258.29L272.17 258.31L272.42 258.33L272.9 258.38L273.15 258.41L273.39 258.43L273.64 258.46L273.88 258.49L274.11 258.52L274.36 258.56L274.6 258.58L274.84 258.62L275.09 258.66L275.8 258.77L276.05 258.82L276.53 258.89L277 258.99L277.25 259.04L277.97 259.19L278.19 259.23L278.42 259.28L278.66 259.35L279.11 259.45L280.23 259.76L280.44 259.82L280.9 259.97L281.12 260.03L281.33 260.11L281.56 260.18L281.77 260.27L282 260.35L282.21 260.43L282.43 260.51L283.29 260.86L283.5 260.96L283.71 261.05L284.56 261.45L284.76 261.55L284.97 261.66L285.19 261.76L285.59 261.99L285.8 262.1L286.2 262.32L286.4 262.45L286.6 262.56L286.98 262.79L287.16 262.91L287.35 263.02L287.53 263.15L287.71 263.27L288.24 263.65L288.41 263.79L288.59 263.91L288.77 264.05L288.93 264.19L289.1 264.32L289.27 264.46L289.43 264.61L289.59 264.75L289.75 264.9L289.9 265.05L290.07 265.2L290.22 265.35L290.38 265.5L290.53 265.66L290.68 265.81L290.83 265.98L290.97 266.14L291.12 266.3L291.26 266.46L291.41 266.63L291.54 266.8L291.68 266.96L291.82 267.14L291.94 267.32L292.08 267.49L292.46 268.02L292.58 268.2L292.71 268.38L292.82 268.57L292.94 268.78L293.06 268.98L293.39 269.62L293.8 270.47L293.88 270.69L293.98 270.91L294.06 271.13L294.15 271.36L294.22 271.57L294.45 272.24L294.51 272.47L294.57 272.71L294.7 273.16L294.75 273.4L294.8 273.62L294.85 273.86L294.88 274.08L294.92 274.32L294.96 274.55L295.03 275.02L295.06 275.26L295.08 275.49L295.1 275.72L295.12 275.96L295.15 276.44L295.15 312.18L295.13 312.28L295.13 312.4L295.12 312.5L295.12 313L295.13 313.1L295.13 313.2L295.15 313.3L295.15 313.4L295.18 313.7L295.2 313.78L295.23 314.08L295.26 314.18L295.27 314.28L295.3 314.38L295.32 314.47L295.4 314.77L295.42 314.86L295.47 315.06L295.51 315.15L295.53 315.25L295.57 315.35L295.61 315.44L295.63 315.54L295.67 315.62L295.71 315.72L295.76 315.81L295.8 315.9L295.83 316L295.87 316.09L295.92 316.15L296.03 316.26L296.13 316.39L296.2 316.44L296.25 316.49L296.5 316.69L296.56 316.72L296.62 316.77L296.75 316.85L296.82 316.89L296.89 316.92L296.96 316.96L297.02 316.99L297.1 317.02L297.17 317.05L297.24 317.08L297.54 317.18L297.99 317.25L298.07 317.25L298.15 317.26L298.46 317.26L298.54 317.25L298.61 317.25L299.88 316.61L301.99 316.61L301.99 327.15L299.99 327.79L297.46 328.41L292.61 328.41L292.42 328.42L291.63 328.42L291.44 328.41L291.24 328.4L291.06 328.39L290.85 328.37L290.67 328.36L290.47 328.34L290.28 328.31L290.08 328.29L289.89 328.26L289.7 328.22L289.5 328.2L289.13 328.12L288.94 328.07L288.75 328.04L288 327.84L287.81 327.77L287.63 327.72L287.44 327.66L287.26 327.59L287.08 327.52L286.9 327.46L286.71 327.38L286.54 327.31L286.35 327.23L286.18 327.15L286 327.07L285.3 326.72L285.14 326.62L284.81 326.4L284.66 326.28L284.21 325.91L283.94 325.66L283.66 325.38L283.41 325.11L283.16 324.81L282.82 324.36L282.71 324.19L282.61 324.04L282.31 323.56L282.22 323.38L282.13 323.22L282.05 323.04L281.97 322.87L281.9 322.71L281.82 322.53L281.75 322.34L281.62 321.99L281.56 321.8L281.51 321.62L281.46 321.44L281.41 321.25L281.37 321.07L281.32 320.88L281.3 320.68L281.26 320.49L281.23 320.3L280.56 320.94L280.32 321.14L280.09 321.34L279.38 321.94L279.13 322.13L278.89 322.32L278.64 322.51L278.39 322.68L278.14 322.87L277.89 323.04L277.63 323.22L277.38 323.38L277.12 323.56L276.85 323.72L276.6 323.88L276.33 324.03L276.07 324.19L275.8 324.34L275.53 324.49L275.25 324.63L274.99 324.78L274.71 324.92L274.43 325.06L274.15 325.18L273.88 325.32L273.59 325.45L273.31 325.56L273.03 325.68L272.16 326.02L271.87 326.12L271.57 326.23L271.29 326.33L270.99 326.42L270.7 326.52L270.4 326.61L270.09 326.7L269.18 326.96L268.87 327.03L268.57 327.11L268.26 327.18L267.96 327.26L267.65 327.33L267.34 327.41L266.72 327.53L266.42 327.6L265.79 327.72L265.17 327.82L264.87 327.87L263.93 328.02L262.68 328.17L262.37 328.2L262.05 328.24L261.73 328.26L260.79 328.34L260.16 328.36L259.84 328.37L258.9 328.41L257.6 328.41L257.37 328.4L257.15 328.4L256.93 328.39L256.48 328.36L256.27 328.35L255.82 328.32L255.61 328.3L255.38 328.29L255.16 328.26L254.95 328.24L254.72 328.21L254.51 328.19L254.28 328.16L254.07 328.14L253.84 328.1L253.62 328.07L253.19 328L252.97 327.96L252.76 327.92L252.53 327.89L252.32 327.84L252.09 327.8L251.88 327.75L251.67 327.71L251.45 327.66L251.23 327.61L251.02 327.56L250.8 327.5L250.59 327.45L250.38 327.38L250.15 327.33L249.52 327.15L249.32 327.1L249.12 327.03L248.93 326.97L248.53 326.85L248.34 326.78L248.14 326.72L247.94 326.65L247.75 326.58L247.56 326.51L247.36 326.43L246.99 326.28L246.79 326.21L246.6 326.12L246.41 326.05L245.66 325.7L245.49 325.61L245.3 325.51L245.11 325.42L244.94 325.32L244.75 325.22L244.57 325.12L244.39 325.02L244.04 324.82L243.86 324.71L243.68 324.61L242.98 324.16L242.82 324.04L242.65 323.93L242.48 323.81L242.31 323.69L241.82 323.32L241.52 323.07L241.36 322.94L241.21 322.81L241.06 322.68L240.91 322.54L240.77 322.41L240.62 322.27L240.48 322.13L240.33 321.99L240.19 321.84L240.06 321.7L239.78 321.4L239.66 321.25L239.52 321.1L239.39 320.95L239.26 320.8L239.13 320.65L239.01 320.49L238.89 320.34L238.64 320.02L238.19 319.36L238.08 319.19L237.97 319.03L237.87 318.85L237.75 318.69L237.45 318.16L237.37 317.99L237.27 317.81L237.18 317.64L237.09 317.45L236.89 317.05L236.8 316.85L236.72 316.64L236.63 316.44L236.54 316.22L236.45 316.02L236.3 315.6L236.23 315.4L236.15 315.19L236.09 314.97L236.02 314.76L235.89 314.33L235.83 314.11L235.78 313.9L235.71 313.68L235.66 313.47L235.61 313.25L235.58 313.03L235.53 312.81L235.49 312.6L235.45 312.37L235.41 312.16L235.38 311.93L235.35 311.72L235.28 311.04L235.25 310.83L235.24 310.61L235.21 310.38L235.2 310.16L235.2 309.93L235.19 309.72L235.19 308.82L235.16 308.27L235.16 307.99L235.15 307.72L235.15 307.44L235.16 307.18L235.16 306.9L235.18 306.63L235.2 306.35L235.21 306.08L235.24 305.81L235.26 305.54L235.3 305.26L235.34 305L235.38 304.73L235.41 304.46L235.46 304.19L235.51 303.92L235.56 303.65L235.61 303.39L235.74 302.86L235.81 302.6L235.88 302.34L235.95 302.07L236.04 301.81L236.12 301.55L236.2 301.28L236.29 301.03L236.39 300.77L236.48 300.52L236.58 300.27L236.69 300.01L236.79 299.76L237.02 299.26L237.13 299.02L237.38 298.52L237.5 298.28L237.95 297.53L238.08 297.36L238.19 297.17L238.57 296.64L238.71 296.47L238.83 296.31L238.97 296.13L239.11 295.97L239.24 295.79L239.38 295.63L239.53 295.47L239.67 295.3L239.82 295.15L239.97 294.99L240.12 294.84L240.27 294.68L240.42 294.53L240.58 294.38L240.73 294.24L240.89 294.09L241.06 293.95L241.22 293.8L241.38 293.67L241.56 293.53L241.72 293.4L242.07 293.13L242.6 292.75L242.77 292.64L242.96 292.51L243.15 292.4L243.32 292.28L243.51 292.16L243.71 292.05L243.9 291.95L244.3 291.73L244.49 291.63L244.69 291.53L244.89 291.41L245.29 291.21L245.49 291.13L245.69 291.03L245.9 290.94L246.1 290.84L246.3 290.75L246.51 290.66L246.71 290.57L246.93 290.49L247.13 290.4L247.34 290.32L247.54 290.24L248.39 289.94L248.59 289.87L248.8 289.8L249.01 289.74L249.23 289.66L249.45 289.6L250.09 289.41L250.3 289.36L250.53 289.3L250.95 289.2L251.18 289.15L251.39 289.1L251.62 289.05L251.83 289.01L251.91 289L251.99 288.97L252.09 288.96L252.19 288.94L252.31 288.9L252.43 288.87L252.71 288.8L252.87 288.76L253.02 288.71L253.19 288.67L253.37 288.62L253.56 288.57L253.96 288.47L254.38 288.37L254.61 288.32L254.85 288.27L255.08 288.21L255.58 288.11L256.11 288.01L256.66 287.91L256.95 287.87L257.24 287.82L258.14 287.71L258.45 287.67L258.77 287.65L259.09 287.61L259.41 287.58L259.75 287.57L260.08 287.56L260.43 287.55L260.76 287.53L261.11 287.53L261.68 287.42L261.88 287.4L262.25 287.32L262.44 287.3L262.64 287.26L262.83 287.22L263.02 287.2L263.22 287.16L263.59 287.11L263.79 287.07L264.17 287.02L264.37 286.98L264.74 286.93L264.94 286.91L265.13 286.88L265.33 286.86L265.71 286.81L265.91 286.78L266.09 286.76L266.29 286.73L266.48 286.71L266.67 286.7L266.87 286.67L267.06 286.65L267.26 286.62L267.45 286.61L267.65 286.58L267.83 286.57L268.02 286.55L268.22 286.53L268.41 286.51L268.61 286.5L268.8 286.48L269.28 286.45L269.45 286.42L269.93 286.38L270.1 286.36L270.26 286.35L270.42 286.32L270.59 286.31L270.75 286.28L270.91 286.27L271.4 286.2L271.55 286.17L272.52 286.02L272.67 285.98L273 285.93L273.16 285.9L273.33 285.87L273.48 285.83L273.64 285.8L273.8 285.77L273.96 285.73L274.11 285.7L274.44 285.62L274.59 285.58L274.91 285.51L275.06 285.47L275.23 285.42L275.35 285.39L275.6 285.32L275.72 285.29L275.84 285.26L275.97 285.21L276.09 285.17L276.2 285.13L276.33 285.08L276.44 285.04L276.57 284.99L276.79 284.89L276.92 284.84L277.03 284.79L277.14 284.73L277.25 284.68L277.48 284.56L277.59 284.51L277.82 284.38L277.93 284.31L278.03 284.24L278.14 284.18L278.26 284.11L278.36 284.04L278.47 283.97L278.87 283.67L278.98 283.59L279.08 283.51L279.17 283.43L279.37 283.26L279.47 283.18L279.56 283.09L279.66 283.01L279.73 282.9L279.82 282.79L279.91 282.69L279.98 282.59L280.13 282.37L280.21 282.27L280.27 282.15L280.34 282.04L280.47 281.82L280.53 281.69L280.58 281.58L280.65 281.47L280.7 281.34L280.75 281.23L280.85 280.98L280.88 280.87L280.92 280.74L280.97 280.62L281.01 280.49L281.03 280.37L281.07 280.24L281.1 280.11L281.12 279.98L281.2 279.6L281.21 279.46L281.22 279.34L281.23 279.2L281.25 279.08L281.25 278.81L281.26 278.69L281.26 278.55L281.25 278.43L281.25 278.29L281.23 278.15L281.23 277.54L281.22 277.41L281.22 277.29L281.21 277.17L281.18 276.92L281.16 276.8L281.15 276.69L281.1 276.44L281.07 276.32L281.05 276.2L281.02 276.09L281 275.96L280.96 275.85L280.93 275.72L280.86 275.5L280.82 275.37L280.77 275.26L280.73 275.15L280.63 274.92L280.6 274.81L280.53 274.7L280.43 274.47L280.37 274.36L280.32 274.26L280.19 274.03L280.07 273.83L280.01 273.72L279.86 273.52L279.73 273.35L279.66 273.26L279.59 273.17L279.52 273.1L279.44 273.01L279.37 272.93L279.29 272.85L279.22 272.77L279.14 272.68L278.92 272.46L278.83 272.38L278.68 272.23L278.51 272.08L278.43 272.02L278.34 271.94L278.26 271.88L278.17 271.81L277.64 271.43L277.54 271.37L277.45 271.31L277.35 271.26L277.27 271.19L277.17 271.14L277.08 271.08L276.88 270.98L276.79 270.93L276.49 270.78L276.38 270.73L276.28 270.68L276.17 270.63L276.05 270.59L275.95 270.54L275.84 270.49L275.62 270.42L275.52 270.37L275.18 270.26L275.06 270.21L274.95 270.17L274.84 270.14L274.5 270.03L274.39 270.01L274.28 269.97L274.16 269.94L274.05 269.91L273.94 269.88L273.81 269.84L273.36 269.74L273.24 269.72L273.13 269.69L273.01 269.68L272.9 269.65L272.78 269.63L272.66 269.62L272.55 269.59L272.42 269.58L272.31 269.55L272.2 269.54L272.07 269.53L271.96 269.52L267.32 269.52L266.77 269.49L265.94 269.49L265.12 269.53L264.29 269.6L263.74 269.68L263.48 269.72L263.2 269.75L262.93 269.8L262.67 269.87L262.39 269.92L261.86 270.04L261.59 270.12L261.33 270.18L261.06 270.27L260.8 270.34L260.28 270.52L260.03 270.61L259.76 270.71L259.51 270.81L259.25 270.91L259 271.02L258.75 271.12L258.5 271.24L258.25 271.36L257.75 271.61L257.51 271.73L257.27 271.87L257.02 272.01L256.78 272.14L256.58 272.29L256.4 272.43L255.83 272.88L255.48 273.21L255.32 273.38L255.15 273.55L254.98 273.72L254.83 273.9L254.67 274.08L254.53 274.26L254.38 274.45L254.24 274.63L253.97 275.03L253.84 275.22L253.72 275.42L253.61 275.64L253.49 275.84L253.27 276.26L253.17 276.47L253.08 276.69L252.91 277.14L252.82 277.35L252.74 277.57L252.68 277.8L252.61 278.04L252.56 278.26L252.49 278.5L252.44 278.73L252.29 279.68L252.28 279.91L252.26 280.15L238.03 280.15L238.04 279.88L238.07 279.6L238.08 279.33L238.1 279.04L238.13 278.76L238.32 277.39L238.37 277.11L238.42 276.85L238.48 276.57L238.53 276.3L238.59 276.04L238.66 275.76L238.73 275.49L238.81 275.22L238.87 274.96L238.96 274.68L239.03 274.42L239.29 273.63L239.39 273.37L239.49 273.12L239.69 272.6L239.81 272.34L239.91 272.09L240.03 271.83L240.14 271.58L240.27 271.33L240.38 271.08L240.52 270.84L240.64 270.59L240.78 270.34L240.91 270.11L241.06 269.87L241.19 269.62L241.33 269.42L241.46 269.2L241.6 269L241.73 268.79L241.88 268.59L242.02 268.39L242.17 268.19L242.32 268L242.47 267.8L242.62 267.62L242.77 267.42L243.1 267.04L243.26 266.86L243.58 266.49L243.75 266.31L244.45 265.61L244.62 265.45L244.8 265.28L245.17 264.95L245.35 264.79L245.55 264.64L245.74 264.47L246.11 264.17L246.71 263.72L246.91 263.59L247.11 263.44L247.31 263.3L247.53 263.17L247.73 263.04L247.94 262.9L248.15 262.77L248.36 262.64L249.49 262.01L249.73 261.9L249.95 261.78L250.18 261.66L250.42 261.55L250.65 261.45L250.88 261.33L251.12 261.22L251.59 261.02L251.82 260.92L252.06 260.82L252.31 260.73L252.54 260.63L253.26 260.37L253.51 260.28L253.74 260.21L253.99 260.12L254.23 260.05L254.73 259.9L254.97 259.82L255.22 259.76L255.47 259.68L255.97 259.56L256.22 259.51L256.47 259.45L256.72 259.4L256.97 259.33L257.24 259.28L257.49 259.23L257.74 259.19L258.52 259.04L258.77 258.99L259.04 258.96L259.3 258.91L259.56 258.87L259.83 258.82L261.4 258.59L261.66 258.57L261.93 258.53L262.19 258.51L262.45 258.47L263.77 258.34L264.04 258.32L264.3 258.31L264.57 258.28L264.83 258.27L265.09 258.24L265.88 258.21L266.16 258.19L266.94 258.16L267.21 258.16L267.48 258.14L268.01 258.14L268.27 258.13L268.52 258.14L269.25 258.14ZM279.08 294.69L278.52 294.98L277.37 295.48L276.78 295.69L276.18 295.89L275.58 296.08L274.96 296.23L274.35 296.37L273.74 296.48L273.11 296.58L272.49 296.66L271.85 296.71L271.6 296.73L271.25 296.77L270.82 296.82L270.32 296.87L269.75 296.93L269.1 296.99L268.38 297.08L267.62 297.18L266.78 297.28L265.91 297.41L264.98 297.54L264 297.71L262.99 297.88L261.95 298.07L261.63 298.12L261.29 298.18L260.31 298.37L259.99 298.44L259.66 298.51L259.34 298.59L259.02 298.67L258.37 298.85L258.06 298.93L257.74 299.02L257.42 299.12L256.82 299.32L256.53 299.42L256.25 299.53L255.67 299.78L255.4 299.91L255.12 300.06L254.85 300.2L254.57 300.35L254.04 300.67L253.52 301.02L253.04 301.4L252.82 301.6L252.61 301.81L252.39 302.04L252.19 302.26L252.01 302.49L251.82 302.72L251.47 303.22L251.32 303.47L251.15 303.74L251.02 304.01L250.89 304.29L250.75 304.61L250.62 304.95L250.5 305.28L250.39 305.63L250.22 306.3L250.14 306.65L250.08 307L250.03 307.35L249.99 307.7L249.95 308.07L249.94 308.42L249.93 308.78L249.94 309.13L249.94 309.46L249.97 309.77L250 310.09L250.05 310.41L250.12 310.72L250.2 311.02L250.3 311.32L250.42 311.62L250.55 311.91L250.69 312.18L250.85 312.46L251.03 312.73L251.22 313L251.42 313.25L251.63 313.47L251.84 313.71L252.29 314.13L252.53 314.35L252.77 314.55L253.27 314.92L253.79 315.27L254.06 315.44L254.61 315.74L254.9 315.87L255.5 316.15L255.81 316.27L256.11 316.4L256.73 316.62L257.06 316.72L257.69 316.9L258.01 316.99L258.34 317.06L259.31 317.25L259.63 317.26L259.94 317.29L260.24 317.3L260.86 317.33L262.09 317.33L262.72 317.3L263.02 317.29L263.33 317.26L263.64 317.25L264.42 317.23L264.79 317.21L265.57 317.16L265.96 317.13L266.34 317.08L266.72 317.04L267.5 316.91L267.87 316.85L268.26 316.77L268.63 316.7L269.01 316.61L269.42 316.51L269.82 316.41L270.22 316.29L270.61 316.16L271.01 316.02L271.4 315.89L272.17 315.56L272.55 315.4L273.3 315.02L274.03 314.62L274.39 314.4L274.74 314.17L275.09 313.93L275.43 313.7L276.08 313.17L276.7 312.62L276.99 312.32L277.29 312.02L277.57 311.72L277.84 311.39L278.11 311.07L278.36 310.74L278.59 310.39L278.83 310.02L279.06 309.63L279.26 309.23L279.43 308.83L279.61 308.42L279.88 307.57L279.99 307.14L280.08 306.72L280.17 306.28L280.22 305.83L280.26 305.39L280.28 304.94L280.28 304.5L280.18 294.07L279.63 294.39L279.08 294.69Z" id="b4B2V6TUZY"/><path d="M269.25 258.14L269.5 258.16L269.73 258.16L269.98 258.17L270.22 258.18L270.47 258.19L270.71 258.21L270.96 258.22L271.2 258.23L271.45 258.26L271.69 258.27L271.94 258.29L272.17 258.31L272.42 258.33L272.9 258.38L273.15 258.41L273.39 258.43L273.64 258.46L273.88 258.49L274.11 258.52L274.36 258.56L274.6 258.58L274.84 258.62L275.09 258.66L275.8 258.77L276.05 258.82L276.53 258.89L277 258.99L277.25 259.04L277.97 259.19L278.19 259.23L278.42 259.28L278.66 259.35L279.11 259.45L280.23 259.76L280.44 259.82L280.9 259.97L281.12 260.03L281.33 260.11L281.56 260.18L281.77 260.27L282 260.35L282.21 260.43L282.43 260.51L283.29 260.86L283.5 260.96L283.71 261.05L284.56 261.45L284.76 261.55L284.97 261.66L285.19 261.76L285.59 261.99L285.8 262.1L286.2 262.32L286.4 262.45L286.6 262.56L286.98 262.79L287.16 262.91L287.35 263.02L287.53 263.15L287.71 263.27L288.24 263.65L288.41 263.79L288.59 263.91L288.77 264.05L288.93 264.19L289.1 264.32L289.27 264.46L289.43 264.61L289.59 264.75L289.75 264.9L289.9 265.05L290.07 265.2L290.22 265.35L290.38 265.5L290.53 265.66L290.68 265.81L290.83 265.98L290.97 266.14L291.12 266.3L291.26 266.46L291.41 266.63L291.54 266.8L291.68 266.96L291.82 267.14L291.94 267.32L292.08 267.49L292.46 268.02L292.58 268.2L292.71 268.38L292.82 268.57L292.94 268.78L293.06 268.98L293.39 269.62L293.8 270.47L293.88 270.69L293.98 270.91L294.06 271.13L294.15 271.36L294.22 271.57L294.45 272.24L294.51 272.47L294.57 272.71L294.7 273.16L294.75 273.4L294.8 273.62L294.85 273.86L294.88 274.08L294.92 274.32L294.96 274.55L295.03 275.02L295.06 275.26L295.08 275.49L295.1 275.72L295.12 275.96L295.15 276.44L295.15 312.18L295.13 312.28L295.13 312.4L295.12 312.5L295.12 313L295.13 313.1L295.13 313.2L295.15 313.3L295.15 313.4L295.18 313.7L295.2 313.78L295.23 314.08L295.26 314.18L295.27 314.28L295.3 314.38L295.32 314.47L295.4 314.77L295.42 314.86L295.47 315.06L295.51 315.15L295.53 315.25L295.57 315.35L295.61 315.44L295.63 315.54L295.67 315.62L295.71 315.72L295.76 315.81L295.8 315.9L295.83 316L295.87 316.09L295.92 316.15L296.03 316.26L296.13 316.39L296.2 316.44L296.25 316.49L296.5 316.69L296.56 316.72L296.62 316.77L296.75 316.85L296.82 316.89L296.89 316.92L296.96 316.96L297.02 316.99L297.1 317.02L297.17 317.05L297.24 317.08L297.54 317.18L297.99 317.25L298.07 317.25L298.15 317.26L298.46 317.26L298.54 317.25L298.61 317.25L299.88 316.61L301.99 316.61L301.99 327.15L299.99 327.79L297.46 328.41L292.61 328.41L292.42 328.42L291.63 328.42L291.44 328.41L291.24 328.4L291.06 328.39L290.85 328.37L290.67 328.36L290.47 328.34L290.28 328.31L290.08 328.29L289.89 328.26L289.7 328.22L289.5 328.2L289.13 328.12L288.94 328.07L288.75 328.04L288 327.84L287.81 327.77L287.63 327.72L287.44 327.66L287.26 327.59L287.08 327.52L286.9 327.46L286.71 327.38L286.54 327.31L286.35 327.23L286.18 327.15L286 327.07L285.3 326.72L285.14 326.62L284.81 326.4L284.66 326.28L284.21 325.91L283.94 325.66L283.66 325.38L283.41 325.11L283.16 324.81L282.82 324.36L282.71 324.19L282.61 324.04L282.31 323.56L282.22 323.38L282.13 323.22L282.05 323.04L281.97 322.87L281.9 322.71L281.82 322.53L281.75 322.34L281.62 321.99L281.56 321.8L281.51 321.62L281.46 321.44L281.41 321.25L281.37 321.07L281.32 320.88L281.3 320.68L281.26 320.49L281.23 320.3L280.56 320.94L280.32 321.14L280.09 321.34L279.38 321.94L279.13 322.13L278.89 322.32L278.64 322.51L278.39 322.68L278.14 322.87L277.89 323.04L277.63 323.22L277.38 323.38L277.12 323.56L276.85 323.72L276.6 323.88L276.33 324.03L276.07 324.19L275.8 324.34L275.53 324.49L275.25 324.63L274.99 324.78L274.71 324.92L274.43 325.06L274.15 325.18L273.88 325.32L273.59 325.45L273.31 325.56L273.03 325.68L272.16 326.02L271.87 326.12L271.57 326.23L271.29 326.33L270.99 326.42L270.7 326.52L270.4 326.61L270.09 326.7L269.18 326.96L268.87 327.03L268.57 327.11L268.26 327.18L267.96 327.26L267.65 327.33L267.34 327.41L266.72 327.53L266.42 327.6L265.79 327.72L265.17 327.82L264.87 327.87L263.93 328.02L262.68 328.17L262.37 328.2L262.05 328.24L261.73 328.26L260.79 328.34L260.16 328.36L259.84 328.37L258.9 328.41L257.6 328.41L257.37 328.4L257.15 328.4L256.93 328.39L256.48 328.36L256.27 328.35L255.82 328.32L255.61 328.3L255.38 328.29L255.16 328.26L254.95 328.24L254.72 328.21L254.51 328.19L254.28 328.16L254.07 328.14L253.84 328.1L253.62 328.07L253.19 328L252.97 327.96L252.76 327.92L252.53 327.89L252.32 327.84L252.09 327.8L251.88 327.75L251.67 327.71L251.45 327.66L251.23 327.61L251.02 327.56L250.8 327.5L250.59 327.45L250.38 327.38L250.15 327.33L249.52 327.15L249.32 327.1L249.12 327.03L248.93 326.97L248.53 326.85L248.34 326.78L248.14 326.72L247.94 326.65L247.75 326.58L247.56 326.51L247.36 326.43L246.99 326.28L246.79 326.21L246.6 326.12L246.41 326.05L245.66 325.7L245.49 325.61L245.3 325.51L245.11 325.42L244.94 325.32L244.75 325.22L244.57 325.12L244.39 325.02L244.04 324.82L243.86 324.71L243.68 324.61L242.98 324.16L242.82 324.04L242.65 323.93L242.48 323.81L242.31 323.69L241.82 323.32L241.52 323.07L241.36 322.94L241.21 322.81L241.06 322.68L240.91 322.54L240.77 322.41L240.62 322.27L240.48 322.13L240.33 321.99L240.19 321.84L240.06 321.7L239.78 321.4L239.66 321.25L239.52 321.1L239.39 320.95L239.26 320.8L239.13 320.65L239.01 320.49L238.89 320.34L238.64 320.02L238.19 319.36L238.08 319.19L237.97 319.03L237.87 318.85L237.75 318.69L237.45 318.16L237.37 317.99L237.27 317.81L237.18 317.64L237.09 317.45L236.89 317.05L236.8 316.85L236.72 316.64L236.63 316.44L236.54 316.22L236.45 316.02L236.3 315.6L236.23 315.4L236.15 315.19L236.09 314.97L236.02 314.76L235.89 314.33L235.83 314.11L235.78 313.9L235.71 313.68L235.66 313.47L235.61 313.25L235.58 313.03L235.53 312.81L235.49 312.6L235.45 312.37L235.41 312.16L235.38 311.93L235.35 311.72L235.28 311.04L235.25 310.83L235.24 310.61L235.21 310.38L235.2 310.16L235.2 309.93L235.19 309.72L235.19 308.82L235.16 308.27L235.16 307.99L235.15 307.72L235.15 307.44L235.16 307.18L235.16 306.9L235.18 306.63L235.2 306.35L235.21 306.08L235.24 305.81L235.26 305.54L235.3 305.26L235.34 305L235.38 304.73L235.41 304.46L235.46 304.19L235.51 303.92L235.56 303.65L235.61 303.39L235.74 302.86L235.81 302.6L235.88 302.34L235.95 302.07L236.04 301.81L236.12 301.55L236.2 301.28L236.29 301.03L236.39 300.77L236.48 300.52L236.58 300.27L236.69 300.01L236.79 299.76L237.02 299.26L237.13 299.02L237.38 298.52L237.5 298.28L237.95 297.53L238.08 297.36L238.19 297.17L238.57 296.64L238.71 296.47L238.83 296.31L238.97 296.13L239.11 295.97L239.24 295.79L239.38 295.63L239.53 295.47L239.67 295.3L239.82 295.15L239.97 294.99L240.12 294.84L240.27 294.68L240.42 294.53L240.58 294.38L240.73 294.24L240.89 294.09L241.06 293.95L241.22 293.8L241.38 293.67L241.56 293.53L241.72 293.4L242.07 293.13L242.6 292.75L242.77 292.64L242.96 292.51L243.15 292.4L243.32 292.28L243.51 292.16L243.71 292.05L243.9 291.95L244.3 291.73L244.49 291.63L244.69 291.53L244.89 291.41L245.29 291.21L245.49 291.13L245.69 291.03L245.9 290.94L246.1 290.84L246.3 290.75L246.51 290.66L246.71 290.57L246.93 290.49L247.13 290.4L247.34 290.32L247.54 290.24L248.39 289.94L248.59 289.87L248.8 289.8L249.01 289.74L249.23 289.66L249.45 289.6L250.09 289.41L250.3 289.36L250.53 289.3L250.95 289.2L251.18 289.15L251.39 289.1L251.62 289.05L251.83 289.01L251.91 289L251.99 288.97L252.09 288.96L252.19 288.94L252.31 288.9L252.43 288.87L252.71 288.8L252.87 288.76L253.02 288.71L253.19 288.67L253.37 288.62L253.56 288.57L253.96 288.47L254.38 288.37L254.61 288.32L254.85 288.27L255.08 288.21L255.58 288.11L256.11 288.01L256.66 287.91L256.95 287.87L257.24 287.82L258.14 287.71L258.45 287.67L258.77 287.65L259.09 287.61L259.41 287.58L259.75 287.57L260.08 287.56L260.43 287.55L260.76 287.53L261.11 287.53L261.68 287.42L261.88 287.4L262.25 287.32L262.44 287.3L262.64 287.26L262.83 287.22L263.02 287.2L263.22 287.16L263.59 287.11L263.79 287.07L264.17 287.02L264.37 286.98L264.74 286.93L264.94 286.91L265.13 286.88L265.33 286.86L265.71 286.81L265.91 286.78L266.09 286.76L266.29 286.73L266.48 286.71L266.67 286.7L266.87 286.67L267.06 286.65L267.26 286.62L267.45 286.61L267.65 286.58L267.83 286.57L268.02 286.55L268.22 286.53L268.41 286.51L268.61 286.5L268.8 286.48L269.28 286.45L269.45 286.42L269.93 286.38L270.1 286.36L270.26 286.35L270.42 286.32L270.59 286.31L270.75 286.28L270.91 286.27L271.4 286.2L271.55 286.17L272.52 286.02L272.67 285.98L273 285.93L273.16 285.9L273.33 285.87L273.48 285.83L273.64 285.8L273.8 285.77L273.96 285.73L274.11 285.7L274.44 285.62L274.59 285.58L274.91 285.51L275.06 285.47L275.23 285.42L275.35 285.39L275.6 285.32L275.72 285.29L275.84 285.26L275.97 285.21L276.09 285.17L276.2 285.13L276.33 285.08L276.44 285.04L276.57 284.99L276.79 284.89L276.92 284.84L277.03 284.79L277.14 284.73L277.25 284.68L277.48 284.56L277.59 284.51L277.82 284.38L277.93 284.31L278.03 284.24L278.14 284.18L278.26 284.11L278.36 284.04L278.47 283.97L278.87 283.67L278.98 283.59L279.08 283.51L279.17 283.43L279.37 283.26L279.47 283.18L279.56 283.09L279.66 283.01L279.73 282.9L279.82 282.79L279.91 282.69L279.98 282.59L280.13 282.37L280.21 282.27L280.27 282.15L280.34 282.04L280.47 281.82L280.53 281.69L280.58 281.58L280.65 281.47L280.7 281.34L280.75 281.23L280.85 280.98L280.88 280.87L280.92 280.74L280.97 280.62L281.01 280.49L281.03 280.37L281.07 280.24L281.1 280.11L281.12 279.98L281.2 279.6L281.21 279.46L281.22 279.34L281.23 279.2L281.25 279.08L281.25 278.81L281.26 278.69L281.26 278.55L281.25 278.43L281.25 278.29L281.23 278.15L281.23 277.54L281.22 277.41L281.22 277.29L281.21 277.17L281.18 276.92L281.16 276.8L281.15 276.69L281.1 276.44L281.07 276.32L281.05 276.2L281.02 276.09L281 275.96L280.96 275.85L280.93 275.72L280.86 275.5L280.82 275.37L280.77 275.26L280.73 275.15L280.63 274.92L280.6 274.81L280.53 274.7L280.43 274.47L280.37 274.36L280.32 274.26L280.19 274.03L280.07 273.83L280.01 273.72L279.86 273.52L279.73 273.35L279.66 273.26L279.59 273.17L279.52 273.1L279.44 273.01L279.37 272.93L279.29 272.85L279.22 272.77L279.14 272.68L278.92 272.46L278.83 272.38L278.68 272.23L278.51 272.08L278.43 272.02L278.34 271.94L278.26 271.88L278.17 271.81L277.64 271.43L277.54 271.37L277.45 271.31L277.35 271.26L277.27 271.19L277.17 271.14L277.08 271.08L276.88 270.98L276.79 270.93L276.49 270.78L276.38 270.73L276.28 270.68L276.17 270.63L276.05 270.59L275.95 270.54L275.84 270.49L275.62 270.42L275.52 270.37L275.18 270.26L275.06 270.21L274.95 270.17L274.84 270.14L274.5 270.03L274.39 270.01L274.28 269.97L274.16 269.94L274.05 269.91L273.94 269.88L273.81 269.84L273.36 269.74L273.24 269.72L273.13 269.69L273.01 269.68L272.9 269.65L272.78 269.63L272.66 269.62L272.55 269.59L272.42 269.58L272.31 269.55L272.2 269.54L272.07 269.53L271.96 269.52L267.32 269.52L266.77 269.49L265.94 269.49L265.12 269.53L264.29 269.6L263.74 269.68L263.48 269.72L263.2 269.75L262.93 269.8L262.67 269.87L262.39 269.92L261.86 270.04L261.59 270.12L261.33 270.18L261.06 270.27L260.8 270.34L260.28 270.52L260.03 270.61L259.76 270.71L259.51 270.81L259.25 270.91L259 271.02L258.75 271.12L258.5 271.24L258.25 271.36L257.75 271.61L257.51 271.73L257.27 271.87L257.02 272.01L256.78 272.14L256.58 272.29L256.4 272.43L255.83 272.88L255.48 273.21L255.32 273.38L255.15 273.55L254.98 273.72L254.83 273.9L254.67 274.08L254.53 274.26L254.38 274.45L254.24 274.63L253.97 275.03L253.84 275.22L253.72 275.42L253.61 275.64L253.49 275.84L253.27 276.26L253.17 276.47L253.08 276.69L252.91 277.14L252.82 277.35L252.74 277.57L252.68 277.8L252.61 278.04L252.56 278.26L252.49 278.5L252.44 278.73L252.29 279.68L252.28 279.91L252.26 280.15L238.03 280.15L238.04 279.88L238.07 279.6L238.08 279.33L238.1 279.04L238.13 278.76L238.32 277.39L238.37 277.11L238.42 276.85L238.48 276.57L238.53 276.3L238.59 276.04L238.66 275.76L238.73 275.49L238.81 275.22L238.87 274.96L238.96 274.68L239.03 274.42L239.29 273.63L239.39 273.37L239.49 273.12L239.69 272.6L239.81 272.34L239.91 272.09L240.03 271.83L240.14 271.58L240.27 271.33L240.38 271.08L240.52 270.84L240.64 270.59L240.78 270.34L240.91 270.11L241.06 269.87L241.19 269.62L241.33 269.42L241.46 269.2L241.6 269L241.73 268.79L241.88 268.59L242.02 268.39L242.17 268.19L242.32 268L242.47 267.8L242.62 267.62L242.77 267.42L243.1 267.04L243.26 266.86L243.58 266.49L243.75 266.31L244.45 265.61L244.62 265.45L244.8 265.28L245.17 264.95L245.35 264.79L245.55 264.64L245.74 264.47L246.11 264.17L246.71 263.72L246.91 263.59L247.11 263.44L247.31 263.3L247.53 263.17L247.73 263.04L247.94 262.9L248.15 262.77L248.36 262.64L249.49 262.01L249.73 261.9L249.95 261.78L250.18 261.66L250.42 261.55L250.65 261.45L250.88 261.33L251.12 261.22L251.59 261.02L251.82 260.92L252.06 260.82L252.31 260.73L252.54 260.63L253.26 260.37L253.51 260.28L253.74 260.21L253.99 260.12L254.23 260.05L254.73 259.9L254.97 259.82L255.22 259.76L255.47 259.68L255.97 259.56L256.22 259.51L256.47 259.45L256.72 259.4L256.97 259.33L257.24 259.28L257.49 259.23L257.74 259.19L258.52 259.04L258.77 258.99L259.04 258.96L259.3 258.91L259.56 258.87L259.83 258.82L261.4 258.59L261.66 258.57L261.93 258.53L262.19 258.51L262.45 258.47L263.77 258.34L264.04 258.32L264.3 258.31L264.57 258.28L264.83 258.27L265.09 258.24L265.88 258.21L266.16 258.19L266.94 258.16L267.21 258.16L267.48 258.14L268.01 258.14L268.27 258.13L268.52 258.14L269.25 258.14ZM279.08 294.69L278.52 294.98L277.37 295.48L276.78 295.69L276.18 295.89L275.58 296.08L274.96 296.23L274.35 296.37L273.74 296.48L273.11 296.58L272.49 296.66L271.85 296.71L271.6 296.73L271.25 296.77L270.82 296.82L270.32 296.87L269.75 296.93L269.1 296.99L268.38 297.08L267.62 297.18L266.78 297.28L265.91 297.41L264.98 297.54L264 297.71L262.99 297.88L261.95 298.07L261.63 298.12L261.29 298.18L260.31 298.37L259.99 298.44L259.66 298.51L259.34 298.59L259.02 298.67L258.37 298.85L258.06 298.93L257.74 299.02L257.42 299.12L256.82 299.32L256.53 299.42L256.25 299.53L255.67 299.78L255.4 299.91L255.12 300.06L254.85 300.2L254.57 300.35L254.04 300.67L253.52 301.02L253.04 301.4L252.82 301.6L252.61 301.81L252.39 302.04L252.19 302.26L252.01 302.49L251.82 302.72L251.47 303.22L251.32 303.47L251.15 303.74L251.02 304.01L250.89 304.29L250.75 304.61L250.62 304.95L250.5 305.28L250.39 305.63L250.22 306.3L250.14 306.65L250.08 307L250.03 307.35L249.99 307.7L249.95 308.07L249.94 308.42L249.93 308.78L249.94 309.13L249.94 309.46L249.97 309.77L250 310.09L250.05 310.41L250.12 310.72L250.2 311.02L250.3 311.32L250.42 311.62L250.55 311.91L250.69 312.18L250.85 312.46L251.03 312.73L251.22 313L251.42 313.25L251.63 313.47L251.84 313.71L252.29 314.13L252.53 314.35L252.77 314.55L253.27 314.92L253.79 315.27L254.06 315.44L254.61 315.74L254.9 315.87L255.5 316.15L255.81 316.27L256.11 316.4L256.73 316.62L257.06 316.72L257.69 316.9L258.01 316.99L258.34 317.06L259.31 317.25L259.63 317.26L259.94 317.29L260.24 317.3L260.86 317.33L262.09 317.33L262.72 317.3L263.02 317.29L263.33 317.26L263.64 317.25L264.42 317.23L264.79 317.21L265.57 317.16L265.96 317.13L266.34 317.08L266.72 317.04L267.5 316.91L267.87 316.85L268.26 316.77L268.63 316.7L269.01 316.61L269.42 316.51L269.82 316.41L270.22 316.29L270.61 316.16L271.01 316.02L271.4 315.89L272.17 315.56L272.55 315.4L273.3 315.02L274.03 314.62L274.39 314.4L274.74 314.17L275.09 313.93L275.43 313.7L276.08 313.17L276.7 312.62L276.99 312.32L277.29 312.02L277.57 311.72L277.84 311.39L278.11 311.07L278.36 310.74L278.59 310.39L278.83 310.02L279.06 309.63L279.26 309.23L279.43 308.83L279.61 308.42L279.88 307.57L279.99 307.14L280.08 306.72L280.17 306.28L280.22 305.83L280.26 305.39L280.28 304.94L280.28 304.5L280.18 294.07L279.63 294.39L279.08 294.69Z" id="d2RLfwxZps"/><path d="M348.25 257.72L348.61 257.73L348.96 257.76L349.32 257.77L349.67 257.81L350.04 257.83L350.39 257.87L350.75 257.91L351.1 257.94L351.45 257.99L351.81 258.04L352.51 258.14L352.86 258.21L353.21 258.28L353.56 258.34L354.27 258.49L354.97 258.67L355.3 258.76L355.65 258.84L355.99 258.94L356.34 259.04L356.68 259.14L357.69 259.48L358.71 259.86L359.04 260L359.37 260.13L359.71 260.27L360.03 260.41L360.36 260.56L360.93 260.83L361.21 260.97L361.5 261.12L361.77 261.26L362.05 261.41L362.32 261.57L362.6 261.72L362.86 261.88L363.14 262.05L363.4 262.21L363.66 262.39L363.92 262.55L364.19 262.72L364.45 262.91L364.7 263.09L364.95 263.27L365.21 263.46L365.46 263.65L365.7 263.84L365.95 264.04L366.19 264.22L366.44 264.42L366.68 264.64L366.91 264.84L367.14 265.05L367.38 265.26L367.83 265.69L368.5 266.36L368.93 266.81L369.35 267.29L369.96 268L370.16 268.25L370.36 268.52L370.73 269.07L370.92 269.33L371.09 269.6L371.28 269.89L371.63 270.44L371.81 270.73L371.97 271.01L372.46 271.87L372.61 272.16L372.77 272.46L372.92 272.75L373.07 273.05L373.21 273.33L373.36 273.63L373.63 274.23L373.76 274.53L373.9 274.83L374.02 275.14L374.15 275.45L374.26 275.75L374.38 276.06L374.5 276.36L374.72 276.99L375.12 278.24L375.22 278.56L375.31 278.88L375.4 279.2L375.49 279.51L375.56 279.84L375.64 280.15L375.74 280.5L375.82 280.84L375.92 281.18L376.1 281.85L376.19 282.2L376.26 282.54L376.35 282.89L376.42 283.23L376.5 283.58L376.56 283.92L376.64 284.27L376.7 284.61L376.82 285.31L376.89 285.65L376.94 286L377 286.35L377.1 287.05L377.14 287.4L377.19 287.73L377.34 289.14L377.36 289.49L377.4 289.84L377.45 290.54L377.46 290.9L377.49 291.25L377.52 292.3L377.52 292.65L377.54 293L377.54 294.39L377.52 294.73L377.52 295.05L377.51 295.39L377.5 295.72L377.49 296.05L377.46 296.71L377.44 297.04L377.41 297.37L377.4 297.71L377.36 298.03L377.34 298.36L377.31 298.7L377.2 299.67L377.16 300.01L377.12 300.33L377.07 300.66L377.04 300.98L376.89 301.96L376.82 302.29L376.77 302.61L376.52 303.91L376.45 304.24L376.39 304.56L376.31 304.89L376.24 305.2L376.09 305.85L376 306.18L375.91 306.49L375.84 306.82L375.75 307.13L375.66 307.43L375.57 307.74L375.4 308.34L375.3 308.64L375.21 308.94L375.11 309.24L375.01 309.53L374.9 309.83L374.8 310.13L374.57 310.71L374.46 311.01L374.33 311.29L374.22 311.58L373.97 312.16L373.83 312.45L373.71 312.73L373.57 313.01L373.3 313.58L373.02 314.13L372.57 314.96L372.41 315.24L372.26 315.51L372.09 315.79L371.77 316.31L371.61 316.59L371.43 316.85L371.27 317.11L370.92 317.64L370.73 317.89L370.56 318.15L370.37 318.4L369.98 318.91L369.58 319.43L369.17 319.92L368.75 320.39L368.32 320.87L367.88 321.32L367.42 321.77L366.49 322.62L366 323.03L365.51 323.42L365.01 323.81L363.99 324.53L363.46 324.88L362.92 325.21L362.39 325.52L361.83 325.83L361.28 326.12L360.16 326.67L359.58 326.92L359.01 327.16L358.42 327.37L357.82 327.59L357.23 327.79L356.63 327.96L356.02 328.12L355.4 328.27L354.79 328.41L354.17 328.54L353.55 328.65L352.91 328.74L352.29 328.81L351.65 328.87L351.02 328.91L350.39 328.95L349.74 328.96L349.1 328.96L348.46 328.94L347.8 328.94L347.63 328.92L347.47 328.92L347.31 328.91L347.15 328.91L346.97 328.9L346.81 328.9L345.51 328.8L345.33 328.79L345.01 328.76L344.84 328.74L344.68 328.72L344.52 328.7L344.36 328.69L344.19 328.66L344.03 328.65L342.24 328.37L342.08 328.34L341.92 328.31L341.77 328.27L341.6 328.25L341.44 328.21L341.28 328.19L341.13 328.15L340.97 328.11L340.8 328.09L340.64 328.05L340.49 328.01L340.33 327.97L340.18 327.94L340.01 327.89L339.85 327.85L339.7 327.81L339.54 327.76L339.39 327.72L339.23 327.67L339.08 327.64L338.91 327.59L338.76 327.53L338.6 327.5L338.45 327.45L338.29 327.4L337.99 327.3L337.82 327.23L337.52 327.13L337.37 327.07L337.21 327.02L337.06 326.96L336.91 326.91L336.46 326.72L336.31 326.67L336.01 326.55L335.86 326.47L335.41 326.28L335.27 326.22L335.12 326.15L334.97 326.08L334.83 326.01L334.68 325.95L334.55 325.87L334.4 325.81L334.12 325.66L333.97 325.58L333.56 325.36L333.41 325.28L333.27 325.2L332.99 325.05L332.72 324.87L332.58 324.79L332.44 324.71L332.32 324.62L332.18 324.53L332.04 324.46L331.91 324.37L331.78 324.27L331.64 324.18L331.52 324.09L331.38 324.01L331.26 323.91L331.12 323.82L330.99 323.73L330.87 323.63L330.73 323.53L330.61 323.44L329.73 322.74L329.62 322.64L329.49 322.53L329.37 322.43L329.14 322.2L329.02 322.1L328.34 321.43L328.24 321.32L328.13 321.19L328.02 321.08L327.92 320.95L327.8 320.84L327.7 320.72L327.6 320.6L326.9 319.73L326.81 319.59L326.71 319.46L326.63 319.34L326.54 319.2L326.45 319.08L326.35 318.94L326.26 318.81L326.18 318.68L326.1 318.54L326.01 318.4L326.01 351.38L311.47 351.38L311.47 259.51L325.59 259.51L325.59 268.57L325.89 268.02L326.19 267.49L326.35 267.23L326.53 266.96L326.69 266.7L327.04 266.2L327.23 265.95L327.41 265.71L327.6 265.46L327.79 265.23L327.99 265L328.19 264.76L328.4 264.54L328.6 264.31L329.25 263.66L329.48 263.46L329.7 263.25L329.94 263.05L330.17 262.85L330.4 262.66L330.66 262.47L330.89 262.29L331.14 262.1L331.64 261.75L331.91 261.57L332.16 261.41L332.42 261.25L332.68 261.1L332.96 260.95L333.22 260.8L333.5 260.65L333.77 260.51L334.06 260.37L334.33 260.25L335.2 259.87L335.77 259.65L336.07 259.53L336.36 259.42L336.66 259.32L336.95 259.22L337.25 259.12L337.55 259.03L337.85 258.93L338.14 258.84L338.44 258.76L339.04 258.61L339.35 258.53L339.95 258.38L340.25 258.32L340.56 258.26L340.86 258.21L341.18 258.14L341.48 258.09L341.79 258.04L342.09 258.01L342.4 257.96L343.03 257.88L343.33 257.86L343.64 257.82L343.96 257.79L344.27 257.78L344.58 257.76L345.52 257.72L346.46 257.72L346.81 257.71L347.53 257.71L347.88 257.72L348.25 257.72ZM342.22 269.43L341.44 269.52L340.68 269.63L339.93 269.78L339.18 269.97L338.45 270.19L337.72 270.44L337.02 270.73L336.32 271.06L335.65 271.41L334.98 271.79L334.35 272.21L333.72 272.66L333.11 273.13L332.53 273.63L331.97 274.17L331.43 274.73L330.92 275.32L330.44 275.95L329.97 276.67L329.52 277.42L329.09 278.19L328.69 278.96L328.32 279.74L327.97 280.53L327.64 281.33L327.33 282.14L327.05 282.96L326.8 283.78L326.58 284.62L326.36 285.46L326.19 286.31L326.04 287.16L325.91 288.01L325.81 288.87L325.74 289.74L325.69 290.61L325.66 291.48L325.66 292.35L325.7 293.23L325.7 294.13L325.71 294.58L325.79 295.93L325.83 296.38L325.98 297.73L326.04 298.18L326.1 298.62L326.25 299.52L326.34 299.96L326.43 300.41L326.51 300.85L326.63 301.28L326.73 301.72L326.84 302.16L326.96 302.6L327.06 302.99L327.18 303.37L327.3 303.75L327.43 304.14L327.56 304.51L327.7 304.88L327.85 305.25L328.02 305.61L328.18 305.99L328.34 306.34L328.52 306.7L328.89 307.4L329.29 308.1L329.72 308.78L329.94 309.1L330.17 309.44L330.4 309.76L330.64 310.08L331.12 310.66L331.36 310.93L331.86 311.48L332.38 312.01L332.64 312.26L332.92 312.51L333.2 312.75L333.77 313.22L334.06 313.45L334.96 314.08L335.58 314.49L335.9 314.67L336.22 314.86L336.55 315.04L336.9 315.21L337.62 315.54L337.99 315.67L338.36 315.82L339.11 316.07L339.49 316.19L339.86 316.29L340.25 316.39L340.63 316.47L341.02 316.55L341.79 316.67L342.19 316.72L342.58 316.76L342.98 316.79L343.37 316.81L343.77 316.82L345.41 316.82L345.83 316.81L346.26 316.79L346.67 316.75L347.1 316.7L347.52 316.64L348.35 316.49L348.76 316.4L349.17 316.3L349.57 316.19L349.99 316.06L350.79 315.79L351.17 315.64L351.56 315.47L351.95 315.3L352.34 315.11L352.71 314.92L353.09 314.72L353.74 314.32L354.37 313.9L354.68 313.67L355.28 313.22L355.58 312.97L355.87 312.73L356.14 312.48L356.43 312.22L356.69 311.96L356.97 311.69L357.22 311.42L357.48 311.13L357.73 310.84L358.21 310.27L358.44 309.96L358.67 309.66L358.88 309.34L359.11 309.02L359.32 308.69L359.92 307.68L360.11 307.34L360.63 306.29L360.8 305.94L361.25 304.85L361.38 304.49L361.51 304.13L361.63 303.75L361.86 303L362.06 302.25L362.15 301.86L362.15 302.29L362.41 301.01L362.47 300.57L362.55 300.15L362.61 299.72L362.67 299.28L362.77 298.43L362.82 297.99L362.86 297.56L362.9 297.13L362.92 296.69L362.95 296.27L362.97 295.83L362.99 295.39L363 294.97L363.01 294.53L363.01 294.09L363 293.65L363 292.8L362.99 292.36L362.96 291.51L362.91 290.66L362.84 289.81L362.79 289.4L362.69 288.55L362.62 288.12L362.56 287.71L362.49 287.28L362.41 286.87L362.32 286.45L362.15 285.62L362.05 285.19L361.95 284.78L361.83 284.37L361.73 283.98L361.62 283.61L361.51 283.22L361.38 282.84L360.97 281.72L360.82 281.34L360.67 280.98L360.51 280.6L360.35 280.24L360.17 279.89L360 279.53L359.62 278.83L359.22 278.13L359.02 277.79L358.81 277.45L358.58 277.11L358.36 276.79L358.14 276.47L357.92 276.17L357.68 275.86L357.21 275.29L356.96 275L356.69 274.71L356.44 274.43L355.62 273.65L355.34 273.4L355.05 273.16L354.75 272.91L354.15 272.46L353.84 272.23L353.21 271.81L352.56 271.41L352.21 271.22L351.85 271.04L351.5 270.87L351.14 270.71L350.76 270.56L350.4 270.41L349.27 270.03L348.5 269.83L348.11 269.74L347.72 269.67L346.95 269.54L346.55 269.49L346.14 269.45L345.76 269.43L344.96 269.4L344.56 269.4L343.77 269.38L342.99 269.39L342.22 269.43Z" id="a1jV2rudcx"/><path d="M348.25 257.72L348.61 257.73L348.96 257.76L349.32 257.77L349.67 257.81L350.04 257.83L350.39 257.87L350.75 257.91L351.1 257.94L351.45 257.99L351.81 258.04L352.51 258.14L352.86 258.21L353.21 258.28L353.56 258.34L354.27 258.49L354.97 258.67L355.3 258.76L355.65 258.84L355.99 258.94L356.34 259.04L356.68 259.14L357.69 259.48L358.71 259.86L359.04 260L359.37 260.13L359.71 260.27L360.03 260.41L360.36 260.56L360.93 260.83L361.21 260.97L361.5 261.12L361.77 261.26L362.05 261.41L362.32 261.57L362.6 261.72L362.86 261.88L363.14 262.05L363.4 262.21L363.66 262.39L363.92 262.55L364.19 262.72L364.45 262.91L364.7 263.09L364.95 263.27L365.21 263.46L365.46 263.65L365.7 263.84L365.95 264.04L366.19 264.22L366.44 264.42L366.68 264.64L366.91 264.84L367.14 265.05L367.38 265.26L367.83 265.69L368.5 266.36L368.93 266.81L369.35 267.29L369.96 268L370.16 268.25L370.36 268.52L370.73 269.07L370.92 269.33L371.09 269.6L371.28 269.89L371.63 270.44L371.81 270.73L371.97 271.01L372.46 271.87L372.61 272.16L372.77 272.46L372.92 272.75L373.07 273.05L373.21 273.33L373.36 273.63L373.63 274.23L373.76 274.53L373.9 274.83L374.02 275.14L374.15 275.45L374.26 275.75L374.38 276.06L374.5 276.36L374.72 276.99L375.12 278.24L375.22 278.56L375.31 278.88L375.4 279.2L375.49 279.51L375.56 279.84L375.64 280.15L375.74 280.5L375.82 280.84L375.92 281.18L376.1 281.85L376.19 282.2L376.26 282.54L376.35 282.89L376.42 283.23L376.5 283.58L376.56 283.92L376.64 284.27L376.7 284.61L376.82 285.31L376.89 285.65L376.94 286L377 286.35L377.1 287.05L377.14 287.4L377.19 287.73L377.34 289.14L377.36 289.49L377.4 289.84L377.45 290.54L377.46 290.9L377.49 291.25L377.52 292.3L377.52 292.65L377.54 293L377.54 294.39L377.52 294.73L377.52 295.05L377.51 295.39L377.5 295.72L377.49 296.05L377.46 296.71L377.44 297.04L377.41 297.37L377.4 297.71L377.36 298.03L377.34 298.36L377.31 298.7L377.2 299.67L377.16 300.01L377.12 300.33L377.07 300.66L377.04 300.98L376.89 301.96L376.82 302.29L376.77 302.61L376.52 303.91L376.45 304.24L376.39 304.56L376.31 304.89L376.24 305.2L376.09 305.85L376 306.18L375.91 306.49L375.84 306.82L375.75 307.13L375.66 307.43L375.57 307.74L375.4 308.34L375.3 308.64L375.21 308.94L375.11 309.24L375.01 309.53L374.9 309.83L374.8 310.13L374.57 310.71L374.46 311.01L374.33 311.29L374.22 311.58L373.97 312.16L373.83 312.45L373.71 312.73L373.57 313.01L373.3 313.58L373.02 314.13L372.57 314.96L372.41 315.24L372.26 315.51L372.09 315.79L371.77 316.31L371.61 316.59L371.43 316.85L371.27 317.11L370.92 317.64L370.73 317.89L370.56 318.15L370.37 318.4L369.98 318.91L369.58 319.43L369.17 319.92L368.75 320.39L368.32 320.87L367.88 321.32L367.42 321.77L366.49 322.62L366 323.03L365.51 323.42L365.01 323.81L363.99 324.53L363.46 324.88L362.92 325.21L362.39 325.52L361.83 325.83L361.28 326.12L360.16 326.67L359.58 326.92L359.01 327.16L358.42 327.37L357.82 327.59L357.23 327.79L356.63 327.96L356.02 328.12L355.4 328.27L354.79 328.41L354.17 328.54L353.55 328.65L352.91 328.74L352.29 328.81L351.65 328.87L351.02 328.91L350.39 328.95L349.74 328.96L349.1 328.96L348.46 328.94L347.8 328.94L347.63 328.92L347.47 328.92L347.31 328.91L347.15 328.91L346.97 328.9L346.81 328.9L345.51 328.8L345.33 328.79L345.01 328.76L344.84 328.74L344.68 328.72L344.52 328.7L344.36 328.69L344.19 328.66L344.03 328.65L342.24 328.37L342.08 328.34L341.92 328.31L341.77 328.27L341.6 328.25L341.44 328.21L341.28 328.19L341.13 328.15L340.97 328.11L340.8 328.09L340.64 328.05L340.49 328.01L340.33 327.97L340.18 327.94L340.01 327.89L339.85 327.85L339.7 327.81L339.54 327.76L339.39 327.72L339.23 327.67L339.08 327.64L338.91 327.59L338.76 327.53L338.6 327.5L338.45 327.45L338.29 327.4L337.99 327.3L337.82 327.23L337.52 327.13L337.37 327.07L337.21 327.02L337.06 326.96L336.91 326.91L336.46 326.72L336.31 326.67L336.01 326.55L335.86 326.47L335.41 326.28L335.27 326.22L335.12 326.15L334.97 326.08L334.83 326.01L334.68 325.95L334.55 325.87L334.4 325.81L334.12 325.66L333.97 325.58L333.56 325.36L333.41 325.28L333.27 325.2L332.99 325.05L332.72 324.87L332.58 324.79L332.44 324.71L332.32 324.62L332.18 324.53L332.04 324.46L331.91 324.37L331.78 324.27L331.64 324.18L331.52 324.09L331.38 324.01L331.26 323.91L331.12 323.82L330.99 323.73L330.87 323.63L330.73 323.53L330.61 323.44L329.73 322.74L329.62 322.64L329.49 322.53L329.37 322.43L329.14 322.2L329.02 322.1L328.34 321.43L328.24 321.32L328.13 321.19L328.02 321.08L327.92 320.95L327.8 320.84L327.7 320.72L327.6 320.6L326.9 319.73L326.81 319.59L326.71 319.46L326.63 319.34L326.54 319.2L326.45 319.08L326.35 318.94L326.26 318.81L326.18 318.68L326.1 318.54L326.01 318.4L326.01 351.38L311.47 351.38L311.47 259.51L325.59 259.51L325.59 268.57L325.89 268.02L326.19 267.49L326.35 267.23L326.53 266.96L326.69 266.7L327.04 266.2L327.23 265.95L327.41 265.71L327.6 265.46L327.79 265.23L327.99 265L328.19 264.76L328.4 264.54L328.6 264.31L329.25 263.66L329.48 263.46L329.7 263.25L329.94 263.05L330.17 262.85L330.4 262.66L330.66 262.47L330.89 262.29L331.14 262.1L331.64 261.75L331.91 261.57L332.16 261.41L332.42 261.25L332.68 261.1L332.96 260.95L333.22 260.8L333.5 260.65L333.77 260.51L334.06 260.37L334.33 260.25L335.2 259.87L335.77 259.65L336.07 259.53L336.36 259.42L336.66 259.32L336.95 259.22L337.25 259.12L337.55 259.03L337.85 258.93L338.14 258.84L338.44 258.76L339.04 258.61L339.35 258.53L339.95 258.38L340.25 258.32L340.56 258.26L340.86 258.21L341.18 258.14L341.48 258.09L341.79 258.04L342.09 258.01L342.4 257.96L343.03 257.88L343.33 257.86L343.64 257.82L343.96 257.79L344.27 257.78L344.58 257.76L345.52 257.72L346.46 257.72L346.81 257.71L347.53 257.71L347.88 257.72L348.25 257.72ZM342.22 269.43L341.44 269.52L340.68 269.63L339.93 269.78L339.18 269.97L338.45 270.19L337.72 270.44L337.02 270.73L336.32 271.06L335.65 271.41L334.98 271.79L334.35 272.21L333.72 272.66L333.11 273.13L332.53 273.63L331.97 274.17L331.43 274.73L330.92 275.32L330.44 275.95L329.97 276.67L329.52 277.42L329.09 278.19L328.69 278.96L328.32 279.74L327.97 280.53L327.64 281.33L327.33 282.14L327.05 282.96L326.8 283.78L326.58 284.62L326.36 285.46L326.19 286.31L326.04 287.16L325.91 288.01L325.81 288.87L325.74 289.74L325.69 290.61L325.66 291.48L325.66 292.35L325.7 293.23L325.7 294.13L325.71 294.58L325.79 295.93L325.83 296.38L325.98 297.73L326.04 298.18L326.1 298.62L326.25 299.52L326.34 299.96L326.43 300.41L326.51 300.85L326.63 301.28L326.73 301.72L326.84 302.16L326.96 302.6L327.06 302.99L327.18 303.37L327.3 303.75L327.43 304.14L327.56 304.51L327.7 304.88L327.85 305.25L328.02 305.61L328.18 305.99L328.34 306.34L328.52 306.7L328.89 307.4L329.29 308.1L329.72 308.78L329.94 309.1L330.17 309.44L330.4 309.76L330.64 310.08L331.12 310.66L331.36 310.93L331.86 311.48L332.38 312.01L332.64 312.26L332.92 312.51L333.2 312.75L333.77 313.22L334.06 313.45L334.96 314.08L335.58 314.49L335.9 314.67L336.22 314.86L336.55 315.04L336.9 315.21L337.62 315.54L337.99 315.67L338.36 315.82L339.11 316.07L339.49 316.19L339.86 316.29L340.25 316.39L340.63 316.47L341.02 316.55L341.79 316.67L342.19 316.72L342.58 316.76L342.98 316.79L343.37 316.81L343.77 316.82L345.41 316.82L345.83 316.81L346.26 316.79L346.67 316.75L347.1 316.7L347.52 316.64L348.35 316.49L348.76 316.4L349.17 316.3L349.57 316.19L349.99 316.06L350.79 315.79L351.17 315.64L351.56 315.47L351.95 315.3L352.34 315.11L352.71 314.92L353.09 314.72L353.74 314.32L354.37 313.9L354.68 313.67L355.28 313.22L355.58 312.97L355.87 312.73L356.14 312.48L356.43 312.22L356.69 311.96L356.97 311.69L357.22 311.42L357.48 311.13L357.73 310.84L358.21 310.27L358.44 309.96L358.67 309.66L358.88 309.34L359.11 309.02L359.32 308.69L359.92 307.68L360.11 307.34L360.63 306.29L360.8 305.94L361.25 304.85L361.38 304.49L361.51 304.13L361.63 303.75L361.86 303L362.06 302.25L362.15 301.86L362.15 302.29L362.41 301.01L362.47 300.57L362.55 300.15L362.61 299.72L362.67 299.28L362.77 298.43L362.82 297.99L362.86 297.56L362.9 297.13L362.92 296.69L362.95 296.27L362.97 295.83L362.99 295.39L363 294.97L363.01 294.53L363.01 294.09L363 293.65L363 292.8L362.99 292.36L362.96 291.51L362.91 290.66L362.84 289.81L362.79 289.4L362.69 288.55L362.62 288.12L362.56 287.71L362.49 287.28L362.41 286.87L362.32 286.45L362.15 285.62L362.05 285.19L361.95 284.78L361.83 284.37L361.73 283.98L361.62 283.61L361.51 283.22L361.38 282.84L360.97 281.72L360.82 281.34L360.67 280.98L360.51 280.6L360.35 280.24L360.17 279.89L360 279.53L359.62 278.83L359.22 278.13L359.02 277.79L358.81 277.45L358.58 277.11L358.36 276.79L358.14 276.47L357.92 276.17L357.68 275.86L357.21 275.29L356.96 275L356.69 274.71L356.44 274.43L355.62 273.65L355.34 273.4L355.05 273.16L354.75 272.91L354.15 272.46L353.84 272.23L353.21 271.81L352.56 271.41L352.21 271.22L351.85 271.04L351.5 270.87L351.14 270.71L350.76 270.56L350.4 270.41L349.27 270.03L348.5 269.83L348.11 269.74L347.72 269.67L346.95 269.54L346.55 269.49L346.14 269.45L345.76 269.43L344.96 269.4L344.56 269.4L343.77 269.38L342.99 269.39L342.22 269.43Z" id="d4RMFB6dpX"/><path d="M405.45 234.43C405.45 242.84 405.45 247.51 405.45 248.45C405.45 248.45 405.45 248.45 405.45 248.45C396.61 248.45 391.69 248.45 390.7 248.45C390.7 248.45 390.7 248.45 390.7 248.45C390.7 240.04 390.7 235.36 390.7 234.43C390.7 234.43 390.7 234.43 390.7 234.43C399.56 234.43 404.48 234.43 405.45 234.43C405.45 234.43 405.45 234.43 405.45 234.43Z" id="g6O30n9Q2"/><path d="M405.45 234.43C405.45 242.84 405.45 247.51 405.45 248.45C405.45 248.45 405.45 248.45 405.45 248.45C396.61 248.45 391.69 248.45 390.7 248.45C390.7 248.45 390.7 248.45 390.7 248.45C390.7 240.04 390.7 235.36 390.7 234.43C390.7 234.43 390.7 234.43 390.7 234.43C399.56 234.43 404.48 234.43 405.45 234.43C405.45 234.43 405.45 234.43 405.45 234.43Z" id="dSykJwBEy"/><path d="M405.45 260.03C405.45 300.31 405.45 322.68 405.45 327.15C405.45 327.15 405.45 327.15 405.45 327.15C396.61 327.15 391.69 327.15 390.7 327.15C390.7 327.15 390.7 327.15 390.7 327.15C390.7 286.88 390.7 264.51 390.7 260.03C390.7 260.03 390.7 260.03 390.7 260.03C399.56 260.03 404.48 260.03 405.45 260.03C405.45 260.03 405.45 260.03 405.45 260.03Z" id="bL8rOk7Se"/><path d="M405.45 260.03C405.45 300.31 405.45 322.68 405.45 327.15C405.45 327.15 405.45 327.15 405.45 327.15C396.61 327.15 391.69 327.15 390.7 327.15C390.7 327.15 390.7 327.15 390.7 327.15C390.7 286.88 390.7 264.51 390.7 260.03C390.7 260.03 390.7 260.03 390.7 260.03C399.56 260.03 404.48 260.03 405.45 260.03C405.45 260.03 405.45 260.03 405.45 260.03Z" id="a2HHgVeR3g"/><path d="M153.74 489.51L153.74 152.36L490.91 152.36L490.91 489.51L153.74 489.51ZM166.7 424.72L478.26 424.72L478.26 165.31L166.7 165.31L166.7 424.72Z" id="b3ab9kdak"/><path d="M153.74 489.51L153.74 152.36L490.91 152.36L490.91 489.51L153.74 489.51ZM166.7 424.72L478.26 424.72L478.26 165.31L166.7 165.31L166.7 424.72Z" id="at79hlOVq"/></defs><g><g><g><use xlink:href="#cce1j7JvGN" opacity="1" fill="#196970" fill-opacity="1"/><g><use xlink:href="#cce1j7JvGN" opacity="1" fill-opacity="0" stroke="#000000" stroke-width="1" stroke-opacity="0"/></g></g><g><use xlink:href="#a1CfZGEZUW" opacity="1" fill="#000000" fill-opacity="0"/><g><use xlink:href="#a1CfZGEZUW" opacity="1" fill-opacity="0" stroke="#000000" stroke-width="1" stroke-opacity="0"/></g></g><g><use xlink:href="#b4B2V6TUZY" opacity="1" fill="#ffffff" fill-opacity="1"/><g><use xlink:href="#b4B2V6TUZY" opacity="1" fill-opacity="0" stroke="#000000" stroke-width="1" stroke-opacity="0"/></g></g><g><use xlink:href="#d2RLfwxZps" opacity="1" fill="#000000" fill-opacity="0"/><g><use xlink:href="#d2RLfwxZps" opacity="1" fill-opacity="0" stroke="#000000" stroke-width="1" stroke-opacity="0"/></g></g><g><use xlink:href="#a1jV2rudcx" opacity="1" fill="#ffffff" fill-opacity="1"/><g><use xlink:href="#a1jV2rudcx" opacity="1" fill-opacity="0" stroke="#000000" stroke-width="1" stroke-opacity="0"/></g></g><g><use xlink:href="#d4RMFB6dpX" opacity="1" fill="#000000" fill-opacity="0"/><g><use xlink:href="#d4RMFB6dpX" opacity="1" fill-opacity="0" stroke="#000000" stroke-width="1" stroke-opacity="0"/></g></g><g><use xlink:href="#g6O30n9Q2" opacity="1" fill="#ffffff" fill-opacity="1"/><g><use xlink:href="#g6O30n9Q2" opacity="1" fill-opacity="0" stroke="#000000" stroke-width="1" stroke-opacity="0"/></g></g><g><use xlink:href="#dSykJwBEy" opacity="1" fill="#000000" fill-opacity="0"/><g><use xlink:href="#dSykJwBEy" opacity="1" fill-opacity="0" stroke="#000000" stroke-width="1" stroke-opacity="0"/></g></g><g><use xlink:href="#bL8rOk7Se" opacity="1" fill="#ffffff" fill-opacity="1"/><g><use xlink:href="#bL8rOk7Se" opacity="1" fill-opacity="0" stroke="#000000" stroke-width="1" stroke-opacity="0"/></g></g><g><use xlink:href="#a2HHgVeR3g" opacity="1" fill="#000000" fill-opacity="0"/><g><use xlink:href="#a2HHgVeR3g" opacity="1" fill-opacity="0" stroke="#000000" stroke-width="1" stroke-opacity="0"/></g></g><g><use xlink:href="#b3ab9kdak" opacity="1" fill="#ffffff" fill-opacity="1"/><g><use xlink:href="#b3ab9kdak" opacity="1" fill-opacity="0" stroke="#000000" stroke-width="1" stroke-opacity="0"/></g></g><g><use xlink:href="#at79hlOVq" opacity="1" fill="#000000" fill-opacity="0"/><g><use xlink:href="#at79hlOVq" opacity="1" fill-opacity="0" stroke="#000000" stroke-width="1" stroke-opacity="0"/></g></g></g></g></svg>