<svg xmlns="http://www.w3.org/2000/svg" viewBox="0 0 113.42 112.03"><defs><style>.a{fill:#fff;stroke:#4177bb;stroke-miterlimit:10;stroke-width:2px;}.b{fill:#714696;}</style></defs><title>journey archs</title><circle class="a" cx="60.12" cy="58.41" r="50"/><circle class="b" cx="42.05" cy="56.08" r="1.38"/><circle class="b" cx="56.79" cy="56.08" r="1.38"/><circle class="b" cx="72.37" cy="31.66" r="1.38"/><circle class="b" cx="83.39" cy="31.66" r="1.38"/><path class="b" d="M86.45,22.59H68.66a9.5,9.5,0,0,0-9.49,9.49V44H37.12A12.83,12.83,0,0,0,24.3,56.81V69.23A12.83,12.83,0,0,0,37.12,82.05h5l6.47,11.7a1,1,0,0,0,1.67-.92l-7-12.68H37.12A10.93,10.93,0,0,1,26.2,69.23V56.82A10.94,10.94,0,0,1,37.12,45.89h24.6A10.94,10.94,0,0,1,72.64,56.82V69.23A10.93,10.93,0,0,1,61.72,80.15H51a.95.95,0,0,0,0,1.9H61.72A12.83,12.83,0,0,0,74.53,69.23V56.82a12.72,12.72,0,0,0-1.67-6.31h5.36a1,1,0,0,0,0-1.91H71.54A12.79,12.79,0,0,0,61.71,44h-.65V32.08a7.6,7.6,0,0,1,7.59-7.58H86.44A7.59,7.59,0,0,1,94,32.08V41a7.59,7.59,0,0,1-7.59,7.59H84.82l-5.4,9.34a1,1,0,0,0,.35,1.3.94.94,0,0,0,.48.13,1,1,0,0,0,.83-.48l4.84-8.39h.53A9.51,9.51,0,0,0,96,41V32.07A9.5,9.5,0,0,0,86.45,22.59Z"/><path class="b" d="M72.37,41.89a1,1,0,0,0,.95-1,4.56,4.56,0,0,1,9.12,0,.95.95,0,1,0,1.89,0,6.46,6.46,0,0,0-12.91,0,1,1,0,0,0,1,1Z"/><path class="b" d="M49.42,70.06a8.33,8.33,0,0,0,8.32-8.32,1,1,0,0,0-1.91,0,6.42,6.42,0,1,1-12.83,0,1,1,0,0,0-1.91,0,8.35,8.35,0,0,0,8.33,8.32Z"/></svg>