<svg version="1.1" xmlns="http://www.w3.org/2000/svg" xmlns:xlink="http://www.w3.org/1999/xlink" preserveAspectRatio="xMidYMid meet" viewBox="0 0 640 640" width="640" height="640"><defs><path d="M319.43 632.84C145.8 632.84 5.04 492.68 5.04 319.8C5.04 146.93 145.8 6.77 319.43 6.77C493.06 6.77 633.82 146.93 633.82 319.8C633.82 492.68 493.06 632.84 319.43 632.84Z" id="a1lKgccgbX"/><path d="M319.43 632.84C145.8 632.84 5.04 492.68 5.04 319.8C5.04 146.93 145.8 6.77 319.43 6.77C493.06 6.77 633.82 146.93 633.82 319.8C633.82 492.68 493.06 632.84 319.43 632.84Z" id="gLyygAclM"/><path d="M102.91 492.98L102.91 146.63L535.85 146.63L535.85 492.98L102.91 492.98ZM117.32 478.56L521.44 478.56L521.44 218.8L117.32 218.8L117.32 478.56Z" id="aqh0rarfI"/><path d="M102.91 492.98L102.91 146.63L535.85 146.63L535.85 492.98L102.91 492.98ZM117.32 478.56L521.44 478.56L521.44 218.8L117.32 218.8L117.32 478.56Z" id="d2rlvjC9k"/><path d="M329.03 262.41L333.75 262.72L338.39 263.17L342.98 263.73L347.51 264.41L351.99 265.21L356.4 266.14L360.75 267.18L365.04 268.33L369.28 269.61L373.45 270.98L377.55 272.47L381.59 274.07L385.58 275.77L389.49 277.59L393.35 279.5L397.14 281.52L400.86 283.64L404.53 285.86L408.13 288.18L411.67 290.59L415.14 293.1L418.53 295.7L421.87 298.39L425.14 301.17L428.34 304.05L431.49 307L434.55 310.04L437.55 313.17L440.48 316.39L443.35 319.67L446.15 323.05L448.88 326.49L451.54 330.02L454.13 333.62L456.65 337.3L459.09 341.03L461.47 344.85L463.78 348.74L461.47 352.58L459.09 356.36L456.65 360.08L454.13 363.73L451.54 367.31L448.88 370.8L446.15 374.24L443.35 377.6L440.48 380.88L437.55 384.08L434.55 387.2L431.49 390.24L428.34 393.2L425.14 396.07L421.87 398.86L418.53 401.55L415.14 404.16L411.67 406.68L408.13 409.09L404.53 411.42L400.86 413.65L397.14 415.77L393.35 417.81L389.49 419.73L385.58 421.55L381.59 423.28L377.55 424.89L373.45 426.4L369.28 427.79L365.04 429.06L360.75 430.23L356.4 431.28L351.99 432.22L347.51 433.03L342.98 433.72L338.39 434.3L333.75 434.75L329.03 435.07L324.26 435.27L319.43 435.32L314.6 435.27L309.83 435.07L305.13 434.75L300.47 434.3L295.88 433.72L291.34 433.03L286.87 432.22L282.46 431.28L278.11 430.23L273.81 429.06L269.59 427.79L265.42 426.4L261.31 424.89L257.27 423.28L253.28 421.55L249.37 419.73L245.52 417.81L241.73 415.77L238 413.65L234.33 411.42L230.74 409.09L227.2 406.68L223.74 404.16L220.33 401.55L216.99 398.86L213.72 396.07L210.52 393.2L207.39 390.24L204.31 387.2L201.31 384.08L198.38 380.88L195.51 377.6L192.72 374.24L189.98 370.8L187.33 367.31L184.73 363.73L182.22 360.08L179.76 356.36L177.39 352.58L175.09 348.74L177.39 344.89L179.76 341.1L182.22 337.4L184.73 333.75L187.33 330.17L189.98 326.66L192.72 323.24L195.51 319.88L198.38 316.6L201.31 313.4L204.31 310.27L207.39 307.24L210.52 304.28L213.72 301.4L216.99 298.62L220.33 295.92L223.74 293.31L227.2 290.8L230.74 288.39L234.33 286.06L238 283.83L241.73 281.69L245.52 279.67L249.37 277.73L253.28 275.91L257.27 274.2L261.31 272.58L265.42 271.08L269.59 269.69L273.81 268.4L278.11 267.24L282.46 266.2L286.87 265.26L291.34 264.44L295.88 263.76L300.47 263.18L305.13 262.73L309.83 262.41L314.6 262.21L319.43 262.16L324.26 262.21L329.03 262.41ZM311.64 276.77L307.77 277.02L303.91 277.37L300.07 277.82L296.27 278.38L292.48 279.03L288.72 279.77L284.99 280.6L281.3 281.54L277.62 282.56L273.98 283.69L270.38 284.89L266.81 286.2L263.27 287.59L259.79 289.06L256.34 290.63L252.93 292.29L249.56 294.03L246.25 295.85L242.98 297.76L239.75 299.76L236.59 301.83L233.48 303.98L230.4 306.21L227.4 308.53L224.45 310.93L221.56 313.4L218.74 315.94L215.96 318.56L213.27 321.26L210.63 324.04L208.06 326.87L205.56 329.79L203.13 332.78L200.78 335.84L198.49 338.96L196.28 342.16L194.16 345.41L192.12 348.74L193.06 350.3L194.02 351.85L196.02 354.91L197.04 356.42L198.08 357.92L199.15 359.41L200.23 360.87L201.32 362.32L202.43 363.77L203.55 365.19L204.71 366.61L205.87 368.01L207.05 369.38L208.24 370.76L209.45 372.11L211.92 374.77L213.18 376.08L214.46 377.37L215.75 378.65L217.06 379.91L219.72 382.38L221.07 383.59L222.45 384.78L223.82 385.96L225.22 387.13L226.64 388.28L228.06 389.4L229.51 390.51L230.97 391.6L232.42 392.68L233.91 393.75L235.41 394.79L236.92 395.81L239.98 397.81L241.53 398.77L243.09 399.71L248.41 402.76L253.8 405.57L259.25 408.12L264.75 410.45L270.32 412.53L275.92 414.38L281.58 416L287.25 417.37L292.96 418.52L298.67 419.45L304.41 420.14L310.15 420.61L315.89 420.85L321.63 420.88L327.36 420.68L333.06 420.26L338.73 419.63L344.37 418.77L349.98 417.71L355.54 416.43L361.04 414.94L366.49 413.24L371.87 411.34L377.17 409.23L382.39 406.9L387.54 404.39L392.58 401.67L397.54 398.75L402.38 395.63L407.12 392.32L411.73 388.81L416.22 385.1L420.58 381.22L424.81 377.13L428.88 372.85L432.81 368.4L436.57 363.76L440.17 358.93L443.6 353.92L446.86 348.74L444.81 345.41L442.67 342.14L440.47 338.96L438.18 335.83L435.82 332.77L433.4 329.78L430.9 326.86L428.33 324.02L425.69 321.24L422.98 318.55L420.22 315.92L417.38 313.37L414.49 310.9L411.54 308.51L408.53 306.2L405.47 303.95L402.35 301.8L399.16 299.73L395.95 297.73L392.68 295.83L389.35 294L385.98 292.26L382.57 290.6L379.12 289.03L375.63 287.56L372.09 286.17L368.52 284.86L364.92 283.66L361.28 282.55L357.61 281.51L353.9 280.58L350.17 279.74L346.41 279.01L342.62 278.37L338.8 277.8L334.97 277.36L331.11 277L327.23 276.77L323.35 276.61L319.43 276.57L315.53 276.61L311.64 276.77Z" id="c1w9CPgmkK"/><path d="M329.03 262.41L333.75 262.72L338.39 263.17L342.98 263.73L347.51 264.41L351.99 265.21L356.4 266.14L360.75 267.18L365.04 268.33L369.28 269.61L373.45 270.98L377.55 272.47L381.59 274.07L385.58 275.77L389.49 277.59L393.35 279.5L397.14 281.52L400.86 283.64L404.53 285.86L408.13 288.18L411.67 290.59L415.14 293.1L418.53 295.7L421.87 298.39L425.14 301.17L428.34 304.05L431.49 307L434.55 310.04L437.55 313.17L440.48 316.39L443.35 319.67L446.15 323.05L448.88 326.49L451.54 330.02L454.13 333.62L456.65 337.3L459.09 341.03L461.47 344.85L463.78 348.74L461.47 352.58L459.09 356.36L456.65 360.08L454.13 363.73L451.54 367.31L448.88 370.8L446.15 374.24L443.35 377.6L440.48 380.88L437.55 384.08L434.55 387.2L431.49 390.24L428.34 393.2L425.14 396.07L421.87 398.86L418.53 401.55L415.14 404.16L411.67 406.68L408.13 409.09L404.53 411.42L400.86 413.65L397.14 415.77L393.35 417.81L389.49 419.73L385.58 421.55L381.59 423.28L377.55 424.89L373.45 426.4L369.28 427.79L365.04 429.06L360.75 430.23L356.4 431.28L351.99 432.22L347.51 433.03L342.98 433.72L338.39 434.3L333.75 434.75L329.03 435.07L324.26 435.27L319.43 435.32L314.6 435.27L309.83 435.07L305.13 434.75L300.47 434.3L295.88 433.72L291.34 433.03L286.87 432.22L282.46 431.28L278.11 430.23L273.81 429.06L269.59 427.79L265.42 426.4L261.31 424.89L257.27 423.28L253.28 421.55L249.37 419.73L245.52 417.81L241.73 415.77L238 413.65L234.33 411.42L230.74 409.09L227.2 406.68L223.74 404.16L220.33 401.55L216.99 398.86L213.72 396.07L210.52 393.2L207.39 390.24L204.31 387.2L201.31 384.08L198.38 380.88L195.51 377.6L192.72 374.24L189.98 370.8L187.33 367.31L184.73 363.73L182.22 360.08L179.76 356.36L177.39 352.58L175.09 348.74L177.39 344.89L179.76 341.1L182.22 337.4L184.73 333.75L187.33 330.17L189.98 326.66L192.72 323.24L195.51 319.88L198.38 316.6L201.31 313.4L204.31 310.27L207.39 307.24L210.52 304.28L213.72 301.4L216.99 298.62L220.33 295.92L223.74 293.31L227.2 290.8L230.74 288.39L234.33 286.06L238 283.83L241.73 281.69L245.52 279.67L249.37 277.73L253.28 275.91L257.27 274.2L261.31 272.58L265.42 271.08L269.59 269.69L273.81 268.4L278.11 267.24L282.46 266.2L286.87 265.26L291.34 264.44L295.88 263.76L300.47 263.18L305.13 262.73L309.83 262.41L314.6 262.21L319.43 262.16L324.26 262.21L329.03 262.41ZM311.64 276.77L307.77 277.02L303.91 277.37L300.07 277.82L296.27 278.38L292.48 279.03L288.72 279.77L284.99 280.6L281.3 281.54L277.62 282.56L273.98 283.69L270.38 284.89L266.81 286.2L263.27 287.59L259.79 289.06L256.34 290.63L252.93 292.29L249.56 294.03L246.25 295.85L242.98 297.76L239.75 299.76L236.59 301.83L233.48 303.98L230.4 306.21L227.4 308.53L224.45 310.93L221.56 313.4L218.74 315.94L215.96 318.56L213.27 321.26L210.63 324.04L208.06 326.87L205.56 329.79L203.13 332.78L200.78 335.84L198.49 338.96L196.28 342.16L194.16 345.41L192.12 348.74L193.06 350.3L194.02 351.85L196.02 354.91L197.04 356.42L198.08 357.92L199.15 359.41L200.23 360.87L201.32 362.32L202.43 363.77L203.55 365.19L204.71 366.61L205.87 368.01L207.05 369.38L208.24 370.76L209.45 372.11L211.92 374.77L213.18 376.08L214.46 377.37L215.75 378.65L217.06 379.91L219.72 382.38L221.07 383.59L222.45 384.78L223.82 385.96L225.22 387.13L226.64 388.28L228.06 389.4L229.51 390.51L230.97 391.6L232.42 392.68L233.91 393.75L235.41 394.79L236.92 395.81L239.98 397.81L241.53 398.77L243.09 399.71L248.41 402.76L253.8 405.57L259.25 408.12L264.75 410.45L270.32 412.53L275.92 414.38L281.58 416L287.25 417.37L292.96 418.52L298.67 419.45L304.41 420.14L310.15 420.61L315.89 420.85L321.63 420.88L327.36 420.68L333.06 420.26L338.73 419.63L344.37 418.77L349.98 417.71L355.54 416.43L361.04 414.94L366.49 413.24L371.87 411.34L377.17 409.23L382.39 406.9L387.54 404.39L392.58 401.67L397.54 398.75L402.38 395.63L407.12 392.32L411.73 388.81L416.22 385.1L420.58 381.22L424.81 377.13L428.88 372.85L432.81 368.4L436.57 363.76L440.17 358.93L443.6 353.92L446.86 348.74L444.81 345.41L442.67 342.14L440.47 338.96L438.18 335.83L435.82 332.77L433.4 329.78L430.9 326.86L428.33 324.02L425.69 321.24L422.98 318.55L420.22 315.92L417.38 313.37L414.49 310.9L411.54 308.51L408.53 306.2L405.47 303.95L402.35 301.8L399.16 299.73L395.95 297.73L392.68 295.83L389.35 294L385.98 292.26L382.57 290.6L379.12 289.03L375.63 287.56L372.09 286.17L368.52 284.86L364.92 283.66L361.28 282.55L357.61 281.51L353.9 280.58L350.17 279.74L346.41 279.01L342.62 278.37L338.8 277.8L334.97 277.36L331.11 277L327.23 276.77L323.35 276.61L319.43 276.57L315.53 276.61L311.64 276.77Z" id="c8904Co2m"/><path d="M323.58 298.24L325.62 298.45L327.63 298.75L329.62 299.11L331.58 299.55L333.51 300.06L335.42 300.65L337.28 301.31L339.11 302.06L340.9 302.86L342.66 303.73L344.38 304.65L346.05 305.65L347.7 306.72L349.28 307.84L350.84 309.02L352.33 310.25L353.77 311.55L355.18 312.89L356.52 314.28L357.82 315.73L359.05 317.23L360.23 318.77L361.35 320.37L362.41 322L363.4 323.69L364.34 325.4L365.21 327.15L366.01 328.95L366.74 330.79L367.4 332.65L368.01 334.55L368.51 336.49L368.96 338.45L369.32 340.43L369.61 342.45L369.82 344.49L369.94 346.55L369.98 348.63L369.94 350.72L369.82 352.78L369.61 354.82L369.32 356.84L368.96 358.82L368.51 360.78L368.01 362.72L367.4 364.61L366.74 366.48L366.01 368.3L365.21 370.1L364.34 371.87L363.4 373.58L362.41 375.27L361.35 376.89L360.23 378.49L359.05 380.04L357.82 381.52L356.52 382.98L355.18 384.37L353.77 385.72L352.33 387.01L350.84 388.25L349.28 389.43L347.7 390.55L346.05 391.62L344.38 392.61L342.66 393.54L340.9 394.41L339.11 395.21L337.28 395.94L335.42 396.61L333.51 397.2L331.58 397.72L329.62 398.16L327.63 398.52L325.62 398.82L323.58 399.01L321.52 399.14L319.43 399.18L317.35 399.14L315.29 399.01L313.24 398.82L311.23 398.52L309.24 398.16L307.29 397.72L305.35 397.2L303.46 396.61L301.59 395.94L299.75 395.21L297.96 394.41L296.2 393.54L294.47 392.61L292.8 391.62L291.16 390.55L289.58 389.43L288.03 388.25L286.53 387.01L285.09 385.72L283.68 384.37L282.33 382.98L281.04 381.52L279.81 380.04L278.63 378.49L277.51 376.89L276.45 375.27L275.46 373.58L274.52 371.87L273.65 370.1L272.85 368.3L272.12 366.48L271.46 364.61L270.87 362.72L270.35 360.78L269.91 358.82L269.53 356.84L269.25 354.82L269.04 352.78L268.92 350.72L268.87 348.63L268.92 346.55L269.04 344.49L269.25 342.45L269.53 340.43L269.91 338.45L270.35 336.49L270.87 334.55L271.46 332.65L272.12 330.79L272.85 328.95L273.65 327.15L274.52 325.4L275.46 323.69L276.45 322L277.51 320.37L278.63 318.77L279.81 317.23L281.04 315.73L282.33 314.28L283.68 312.89L285.09 311.55L286.53 310.25L288.03 309.02L289.58 307.84L291.16 306.72L292.8 305.65L294.47 304.65L296.2 303.73L297.96 302.86L299.75 302.06L301.59 301.31L303.46 300.65L305.35 300.06L307.29 299.55L309.24 299.11L311.23 298.75L313.24 298.45L315.29 298.24L317.35 298.13L319.43 298.09L321.52 298.13L323.58 298.24ZM315.82 332.21L314.11 332.67L312.48 333.31L310.94 334.11L309.51 335.05L308.16 336.15L306.95 337.37L305.86 338.7L304.92 340.15L304.12 341.69L303.47 343.32L303.01 345.02L302.71 346.8L302.62 348.63L302.71 350.46L303.01 352.23L303.47 353.95L304.12 355.57L304.92 357.12L305.86 358.56L306.95 359.9L308.16 361.12L309.51 362.2L310.94 363.15L312.48 363.95L314.11 364.58L315.82 365.06L317.6 365.36L319.43 365.45L321.27 365.36L323.04 365.06L324.75 364.58L326.38 363.95L327.92 363.15L329.37 362.2L330.7 361.12L331.92 359.9L333 358.56L333.96 357.12L334.76 355.57L335.39 353.95L335.86 352.23L336.15 350.46L336.24 348.63L336.15 346.8L335.86 345.02L335.39 343.32L334.76 341.69L333.96 340.15L333 338.7L331.92 337.37L330.7 336.15L329.37 335.05L327.92 334.11L326.38 333.31L324.75 332.67L323.04 332.21L321.27 331.91L319.43 331.81L317.6 331.91L315.82 332.21Z" id="f5QVKHWbJr"/><path d="M323.58 298.24L325.62 298.45L327.63 298.75L329.62 299.11L331.58 299.55L333.51 300.06L335.42 300.65L337.28 301.31L339.11 302.06L340.9 302.86L342.66 303.73L344.38 304.65L346.05 305.65L347.7 306.72L349.28 307.84L350.84 309.02L352.33 310.25L353.77 311.55L355.18 312.89L356.52 314.28L357.82 315.73L359.05 317.23L360.23 318.77L361.35 320.37L362.41 322L363.4 323.69L364.34 325.4L365.21 327.15L366.01 328.95L366.74 330.79L367.4 332.65L368.01 334.55L368.51 336.49L368.96 338.45L369.32 340.43L369.61 342.45L369.82 344.49L369.94 346.55L369.98 348.63L369.94 350.72L369.82 352.78L369.61 354.82L369.32 356.84L368.96 358.82L368.51 360.78L368.01 362.72L367.4 364.61L366.74 366.48L366.01 368.3L365.21 370.1L364.34 371.87L363.4 373.58L362.41 375.27L361.35 376.89L360.23 378.49L359.05 380.04L357.82 381.52L356.52 382.98L355.18 384.37L353.77 385.72L352.33 387.01L350.84 388.25L349.28 389.43L347.7 390.55L346.05 391.62L344.38 392.61L342.66 393.54L340.9 394.41L339.11 395.21L337.28 395.94L335.42 396.61L333.51 397.2L331.58 397.72L329.62 398.16L327.63 398.52L325.62 398.82L323.58 399.01L321.52 399.14L319.43 399.18L317.35 399.14L315.29 399.01L313.24 398.82L311.23 398.52L309.24 398.16L307.29 397.72L305.35 397.2L303.46 396.61L301.59 395.94L299.75 395.21L297.96 394.41L296.2 393.54L294.47 392.61L292.8 391.62L291.16 390.55L289.58 389.43L288.03 388.25L286.53 387.01L285.09 385.72L283.68 384.37L282.33 382.98L281.04 381.52L279.81 380.04L278.63 378.49L277.51 376.89L276.45 375.27L275.46 373.58L274.52 371.87L273.65 370.1L272.85 368.3L272.12 366.48L271.46 364.61L270.87 362.72L270.35 360.78L269.91 358.82L269.53 356.84L269.25 354.82L269.04 352.78L268.92 350.72L268.87 348.63L268.92 346.55L269.04 344.49L269.25 342.45L269.53 340.43L269.91 338.45L270.35 336.49L270.87 334.55L271.46 332.65L272.12 330.79L272.85 328.95L273.65 327.15L274.52 325.4L275.46 323.69L276.45 322L277.51 320.37L278.63 318.77L279.81 317.23L281.04 315.73L282.33 314.28L283.68 312.89L285.09 311.55L286.53 310.25L288.03 309.02L289.58 307.84L291.16 306.72L292.8 305.65L294.47 304.65L296.2 303.73L297.96 302.86L299.75 302.06L301.59 301.31L303.46 300.65L305.35 300.06L307.29 299.55L309.24 299.11L311.23 298.75L313.24 298.45L315.29 298.24L317.35 298.13L319.43 298.09L321.52 298.13L323.58 298.24ZM315.82 332.21L314.11 332.67L312.48 333.31L310.94 334.11L309.51 335.05L308.16 336.15L306.95 337.37L305.86 338.7L304.92 340.15L304.12 341.69L303.47 343.32L303.01 345.02L302.71 346.8L302.62 348.63L302.71 350.46L303.01 352.23L303.47 353.95L304.12 355.57L304.92 357.12L305.86 358.56L306.95 359.9L308.16 361.12L309.51 362.2L310.94 363.15L312.48 363.95L314.11 364.58L315.82 365.06L317.6 365.36L319.43 365.45L321.27 365.36L323.04 365.06L324.75 364.58L326.38 363.95L327.92 363.15L329.37 362.2L330.7 361.12L331.92 359.9L333 358.56L333.96 357.12L334.76 355.57L335.39 353.95L335.86 352.23L336.15 350.46L336.24 348.63L336.15 346.8L335.86 345.02L335.39 343.32L334.76 341.69L333.96 340.15L333 338.7L331.92 337.37L330.7 336.15L329.37 335.05L327.92 334.11L326.38 333.31L324.75 332.67L323.04 332.21L321.27 331.91L319.43 331.81L317.6 331.91L315.82 332.21Z" id="a1PgpwUgRb"/></defs><g><g><g><use xlink:href="#a1lKgccgbX" opacity="1" fill="#196970" fill-opacity="1"/><g><use xlink:href="#a1lKgccgbX" opacity="1" fill-opacity="0" stroke="#000000" stroke-width="1" stroke-opacity="0"/></g></g><g><use xlink:href="#gLyygAclM" opacity="1" fill="#000000" fill-opacity="0"/><g><use xlink:href="#gLyygAclM" opacity="1" fill-opacity="0" stroke="#000000" stroke-width="1" stroke-opacity="0"/></g></g><g><use xlink:href="#aqh0rarfI" opacity="1" fill="#ffffff" fill-opacity="1"/><g><use xlink:href="#aqh0rarfI" opacity="1" fill-opacity="0" stroke="#000000" stroke-width="1" stroke-opacity="0"/></g></g><g><use xlink:href="#d2rlvjC9k" opacity="1" fill="#000000" fill-opacity="0"/><g><use xlink:href="#d2rlvjC9k" opacity="1" fill-opacity="0" stroke="#000000" stroke-width="1" stroke-opacity="0"/></g></g><g><use xlink:href="#c1w9CPgmkK" opacity="1" fill="#ffffff" fill-opacity="1"/><g><use xlink:href="#c1w9CPgmkK" opacity="1" fill-opacity="0" stroke="#000000" stroke-width="1" stroke-opacity="0"/></g></g><g><use xlink:href="#c8904Co2m" opacity="1" fill="#000000" fill-opacity="0"/><g><use xlink:href="#c8904Co2m" opacity="1" fill-opacity="0" stroke="#000000" stroke-width="1" stroke-opacity="0"/></g></g><g><use xlink:href="#f5QVKHWbJr" opacity="1" fill="#ffffff" fill-opacity="1"/><g><use xlink:href="#f5QVKHWbJr" opacity="1" fill-opacity="0" stroke="#000000" stroke-width="1" stroke-opacity="0"/></g></g><g><use xlink:href="#a1PgpwUgRb" opacity="1" fill="#000000" fill-opacity="0"/><g><use xlink:href="#a1PgpwUgRb" opacity="1" fill-opacity="0" stroke="#000000" stroke-width="1" stroke-opacity="0"/></g></g></g></g></svg>