<svg version="1.1" xmlns="http://www.w3.org/2000/svg" xmlns:xlink="http://www.w3.org/1999/xlink" preserveAspectRatio="xMidYMid meet" viewBox="0 0 640 640" width="640" height="640"><defs><path d="M319.99 633.88C145.56 633.88 4.16 493.09 4.16 319.42C4.16 145.75 145.56 4.96 319.99 4.96C494.42 4.96 635.82 145.75 635.82 319.42C635.82 493.09 494.42 633.88 319.99 633.88Z" id="j6GW7vgypU"/><path d="M319.99 633.88C145.56 633.88 4.16 493.09 4.16 319.42C4.16 145.75 145.56 4.96 319.99 4.96C494.42 4.96 635.82 145.75 635.82 319.42C635.82 493.09 494.42 633.88 319.99 633.88Z" id="d1XSf10vNn"/><path d="M369.36 126.83L374.25 127.4L379.08 128.16L383.87 129.1L388.58 130.23L393.23 131.54L397.81 133.02L402.31 134.68L406.73 136.51L411.08 138.5L415.32 140.65L419.49 142.96L423.56 145.43L427.52 148.05L431.38 150.82L435.14 153.73L438.76 156.79L442.28 159.97L445.68 163.31L448.95 166.76L452.1 170.34L455.1 174.05L457.95 177.87L460.67 181.82L463.24 185.87L465.65 190.03L467.91 194.3L470.01 198.67L471.94 203.13L473.7 207.7L475.28 212.36L476.69 217.1L477.91 221.92L478.93 226.84L479.78 231.82L480.42 236.88L480.53 236.57L483.54 237.9L486.52 239.31L489.43 240.81L492.27 242.37L495.07 244.03L497.8 245.76L500.47 247.57L503.09 249.44L505.64 251.39L508.12 253.41L510.54 255.49L512.9 257.65L515.19 259.86L517.41 262.15L519.56 264.48L521.63 266.89L523.63 269.34L525.57 271.85L527.43 274.42L529.21 277.05L530.91 279.72L532.54 282.43L534.1 285.2L535.57 288L536.95 290.86L538.25 293.75L539.49 296.69L540.62 299.66L541.68 302.68L542.64 305.73L543.51 308.81L544.31 311.92L545 315.05L545.61 318.23L546.13 321.41L546.54 324.64L546.87 327.88L547.1 331.15L547.23 334.43L547.26 337.72L547.15 342.22L546.86 346.69L546.39 351.08L545.74 355.44L544.93 359.73L543.96 363.96L542.82 368.12L541.53 372.22L540.07 376.25L538.48 380.2L536.73 384.07L534.83 387.87L532.8 391.57L530.62 395.18L528.31 398.7L525.88 402.13L523.31 405.46L520.63 408.67L517.82 411.8L514.9 414.8L511.87 417.69L508.72 420.47L505.47 423.12L502.12 425.66L498.67 428.06L495.12 430.33L491.48 432.47L487.77 434.48L483.95 436.32L480.06 438.04L476.09 439.6L472.06 441.02L467.95 442.27L463.77 443.37L459.53 444.3L455.23 445.07L450.87 445.67L446.47 446.1L442 446.35L437.5 446.42L217.79 446.42L217.38 446.4L216.95 446.4L216.54 446.39L216.12 446.39L215.7 446.38L215.28 446.36L214.87 446.35L214.44 446.32L214.03 446.31L213.61 446.3L213.2 446.27L212.77 446.24L212.36 446.23L211.93 446.2L211.52 446.16L211.1 446.14L210.69 446.11L210.26 446.08L209.44 446L209.01 445.98L208.6 445.94L208.18 445.9L207.76 445.84L207.35 445.8L206.93 445.76L206.52 445.71L206.1 445.67L205.68 445.62L204.86 445.51L204.43 445.46L204.02 445.41L203.61 445.34L203.2 445.29L202.78 445.22L202.36 445.15L197.94 444.38L193.57 443.44L189.29 442.34L185.08 441.06L180.97 439.64L176.93 438.05L172.97 436.32L169.11 434.44L165.35 432.42L161.68 430.25L158.11 427.96L154.65 425.53L151.27 422.98L148.02 420.29L144.88 417.49L141.84 414.58L138.94 411.57L136.15 408.44L133.48 405.21L130.93 401.88L128.52 398.46L126.24 394.94L124.09 391.34L122.08 387.67L120.21 383.89L118.48 380.06L116.9 376.15L115.47 372.18L114.2 368.15L113.07 364.06L112.11 359.9L111.3 355.7L110.66 351.45L110.18 347.16L109.89 342.85L109.76 338.48L109.8 334.08L110.03 329.67L110.44 325.23L111.03 320.76L111.8 316.34L112.75 311.97L113.85 307.7L115.12 303.49L116.55 299.37L118.14 295.33L119.87 291.38L121.75 287.51L123.77 283.75L125.93 280.09L128.23 276.52L130.66 273.05L133.21 269.68L135.89 266.42L138.7 263.29L141.6 260.25L144.62 257.34L147.75 254.55L150.98 251.88L154.31 249.33L157.73 246.93L161.25 244.64L164.84 242.49L168.52 240.49L172.29 238.62L176.13 236.89L180.04 235.31L184.01 233.87L188.04 232.6L192.13 231.47L196.29 230.51L200.49 229.7L204.74 229.07L209.03 228.59L213.34 228.3L217.71 228.16L222.11 228.2L226.51 228.43L230.96 228.84L235.43 229.44L236.18 225.35L237.06 221.33L238.08 217.35L239.22 213.42L240.48 209.56L241.87 205.76L243.37 202.02L244.99 198.34L246.73 194.71L248.56 191.17L250.51 187.69L252.58 184.29L254.75 180.96L257 177.7L259.38 174.51L261.84 171.42L264.4 168.41L267.06 165.48L269.81 162.64L272.63 159.88L275.56 157.22L278.56 154.66L281.64 152.19L284.8 149.81L288.04 147.54L291.36 145.38L294.75 143.31L298.2 141.36L301.73 139.5L305.32 137.76L308.97 136.14L312.69 134.62L316.46 133.23L320.3 131.97L324.17 130.81L328.1 129.79L332.09 128.89L336.12 128.12L340.2 127.48L344.32 126.96L349.39 126.54L354.45 126.3L359.46 126.27L364.44 126.46L369.36 126.83ZM349.38 154.82L345.66 155.22L341.99 155.75L338.36 156.43L334.76 157.25L331.21 158.21L327.72 159.31L324.27 160.53L320.88 161.89L317.56 163.36L314.29 164.97L311.11 166.69L307.99 168.55L304.93 170.5L301.97 172.59L299.07 174.78L296.27 177.08L293.55 179.48L290.93 181.99L288.4 184.61L285.97 187.32L283.64 190.12L281.43 193.03L279.31 196.01L277.31 199.1L275.42 202.27L273.66 205.52L272.02 208.86L270.51 212.27L269.13 215.76L267.87 219.32L266.77 222.96L265.78 226.65L264.96 230.42L264.27 234.26L264.15 235.06L262.61 244.23L259.55 262.59L231.23 258.28L230.92 258.24L230.62 258.19L230.33 258.15L230.02 258.1L229.73 258.06L229.42 258.02L229.13 257.96L228.52 257.88L228.23 257.86L227.62 257.78L227.32 257.74L227.02 257.71L226.71 257.67L226.42 257.65L225.81 257.59L225.51 257.55L225.21 257.53L224.91 257.5L224.6 257.49L224.31 257.46L224 257.43L223.7 257.42L223.39 257.39L223.09 257.38L222.8 257.35L221.57 257.3L221.28 257.29L220.98 257.27L220.67 257.27L220.06 257.25L219.46 257.25L219.16 257.23L215.85 257.3L212.58 257.5L209.36 257.83L206.17 258.28L203.02 258.87L199.92 259.57L196.86 260.38L193.85 261.32L190.9 262.37L187.99 263.53L185.15 264.8L182.36 266.17L179.64 267.66L176.98 269.24L174.39 270.91L171.87 272.69L169.43 274.55L167.06 276.52L164.76 278.56L162.55 280.69L160.42 282.9L158.36 285.2L156.41 287.56L154.54 290.02L152.77 292.53L151.1 295.12L149.52 297.78L148.03 300.5L146.66 303.29L145.39 306.13L144.23 309.04L143.18 311.99L142.24 315L141.42 318.05L140.73 321.16L140.14 324.31L139.69 327.5L139.36 330.74L139.16 333.99L139.09 337.3L139.16 340.59L139.36 343.86L139.69 347.1L140.14 350.28L140.73 353.43L141.42 356.54L142.24 359.59L143.18 362.59L144.23 365.56L145.39 368.46L146.66 371.31L148.03 374.08L149.52 376.8L151.1 379.47L152.77 382.06L154.54 384.57L156.41 387.03L158.36 389.39L160.42 391.69L162.55 393.91L164.76 396.03L167.06 398.08L169.43 400.04L171.87 401.9L174.39 403.68L176.98 405.35L179.64 406.94L182.36 408.42L185.15 409.79L187.99 411.07L190.9 412.22L193.85 413.27L196.86 414.21L199.92 415.02L203.02 415.73L206.17 416.31L209.36 416.76L212.58 417.09L215.85 417.29L219.16 417.36L437.61 417.36L440.01 417.32L442.4 417.21L444.78 417.04L447.14 416.8L449.49 416.48L451.82 416.11L454.13 415.66L456.41 415.14L458.68 414.57L460.93 413.92L463.14 413.22L465.34 412.45L467.5 411.61L469.64 410.72L471.75 409.76L473.83 408.75L475.88 407.68L477.9 406.55L479.88 405.35L481.83 404.11L483.73 402.82L485.6 401.45L487.43 400.04L489.23 398.58L490.98 397.07L492.69 395.5L494.35 393.89L495.97 392.22L497.54 390.51L499.07 388.76L500.54 386.94L501.96 385.09L503.33 383.18L504.64 381.24L505.92 379.25L507.13 377.22L508.28 375.13L509.37 373.02L510.41 370.85L511.38 368.66L512.61 365.6L513.71 362.51L514.67 359.42L515.51 356.3L516.21 353.18L516.78 350.05L517.22 346.91L517.54 343.78L517.74 340.66L517.8 337.52L517.75 334.41L517.58 331.31L517.29 328.23L516.87 325.16L516.34 322.12L515.69 319.1L514.94 316.13L514.06 313.18L513.08 310.26L511.99 307.39L510.78 304.56L509.48 301.79L508.06 299.05L506.54 296.37L504.91 293.75L503.2 291.2L501.36 288.71L499.44 286.28L497.42 283.91L495.29 281.64L493.08 279.44L490.77 277.31L488.38 275.27L485.88 273.32L483.3 271.46L480.62 269.69L477.87 268.02L475.03 266.45L472.1 264.99L469.09 263.63L453.34 256.93L451.56 239.93L451.21 236.72L450.74 233.56L450.17 230.42L449.49 227.31L448.72 224.26L447.86 221.23L446.89 218.26L445.83 215.32L444.67 212.43L443.42 209.59L442.1 206.8L440.66 204.06L439.16 201.37L437.57 198.74L435.88 196.16L434.13 193.64L432.3 191.18L430.38 188.79L428.39 186.45L426.32 184.2L424.2 181.99L421.98 179.87L419.71 177.82L417.37 175.83L414.97 173.93L412.5 172.1L409.96 170.34L407.37 168.67L404.71 167.09L402.01 165.59L399.24 164.17L396.43 162.84L393.57 161.61L390.65 160.46L387.69 159.42L384.69 158.46L381.63 157.6L378.54 156.84L375.39 156.19L372.22 155.63L368.37 155.1L364.52 154.74L360.71 154.53L356.89 154.48L353.12 154.57L349.38 154.82Z" id="bZG5wwNTP"/><path d="M369.36 126.83L374.25 127.4L379.08 128.16L383.87 129.1L388.58 130.23L393.23 131.54L397.81 133.02L402.31 134.68L406.73 136.51L411.08 138.5L415.32 140.65L419.49 142.96L423.56 145.43L427.52 148.05L431.38 150.82L435.14 153.73L438.76 156.79L442.28 159.97L445.68 163.31L448.95 166.76L452.1 170.34L455.1 174.05L457.95 177.87L460.67 181.82L463.24 185.87L465.65 190.03L467.91 194.3L470.01 198.67L471.94 203.13L473.7 207.7L475.28 212.36L476.69 217.1L477.91 221.92L478.93 226.84L479.78 231.82L480.42 236.88L480.53 236.57L483.54 237.9L486.52 239.31L489.43 240.81L492.27 242.37L495.07 244.03L497.8 245.76L500.47 247.57L503.09 249.44L505.64 251.39L508.12 253.41L510.54 255.49L512.9 257.65L515.19 259.86L517.41 262.15L519.56 264.48L521.63 266.89L523.63 269.34L525.57 271.85L527.43 274.42L529.21 277.05L530.91 279.72L532.54 282.43L534.1 285.2L535.57 288L536.95 290.86L538.25 293.75L539.49 296.69L540.62 299.66L541.68 302.68L542.64 305.73L543.51 308.81L544.31 311.92L545 315.05L545.61 318.23L546.13 321.41L546.54 324.64L546.87 327.88L547.1 331.15L547.23 334.43L547.26 337.72L547.15 342.22L546.86 346.69L546.39 351.08L545.74 355.44L544.93 359.73L543.96 363.96L542.82 368.12L541.53 372.22L540.07 376.25L538.48 380.2L536.73 384.07L534.83 387.87L532.8 391.57L530.62 395.18L528.31 398.7L525.88 402.13L523.31 405.46L520.63 408.67L517.82 411.8L514.9 414.8L511.87 417.69L508.72 420.47L505.47 423.12L502.12 425.66L498.67 428.06L495.12 430.33L491.48 432.47L487.77 434.48L483.95 436.32L480.06 438.04L476.09 439.6L472.06 441.02L467.95 442.27L463.77 443.37L459.53 444.3L455.23 445.07L450.87 445.67L446.47 446.1L442 446.35L437.5 446.42L217.79 446.42L217.38 446.4L216.95 446.4L216.54 446.39L216.12 446.39L215.7 446.38L215.28 446.36L214.87 446.35L214.44 446.32L214.03 446.31L213.61 446.3L213.2 446.27L212.77 446.24L212.36 446.23L211.93 446.2L211.52 446.16L211.1 446.14L210.69 446.11L210.26 446.08L209.44 446L209.01 445.98L208.6 445.94L208.18 445.9L207.76 445.84L207.35 445.8L206.93 445.76L206.52 445.71L206.1 445.67L205.68 445.62L204.86 445.51L204.43 445.46L204.02 445.41L203.61 445.34L203.2 445.29L202.78 445.22L202.36 445.15L197.94 444.38L193.57 443.44L189.29 442.34L185.08 441.06L180.97 439.64L176.93 438.05L172.97 436.32L169.11 434.44L165.35 432.42L161.68 430.25L158.11 427.96L154.65 425.53L151.27 422.98L148.02 420.29L144.88 417.49L141.84 414.58L138.94 411.57L136.15 408.44L133.48 405.21L130.93 401.88L128.52 398.46L126.24 394.94L124.09 391.34L122.08 387.67L120.21 383.89L118.48 380.06L116.9 376.15L115.47 372.18L114.2 368.15L113.07 364.06L112.11 359.9L111.3 355.7L110.66 351.45L110.18 347.16L109.89 342.85L109.76 338.48L109.8 334.08L110.03 329.67L110.44 325.23L111.03 320.76L111.8 316.34L112.75 311.97L113.85 307.7L115.12 303.49L116.55 299.37L118.14 295.33L119.87 291.38L121.75 287.51L123.77 283.75L125.93 280.09L128.23 276.52L130.66 273.05L133.21 269.68L135.89 266.42L138.7 263.29L141.6 260.25L144.62 257.34L147.75 254.55L150.98 251.88L154.31 249.33L157.73 246.93L161.25 244.64L164.84 242.49L168.52 240.49L172.29 238.62L176.13 236.89L180.04 235.31L184.01 233.87L188.04 232.6L192.13 231.47L196.29 230.51L200.49 229.7L204.74 229.07L209.03 228.59L213.34 228.3L217.71 228.16L222.11 228.2L226.51 228.43L230.96 228.84L235.43 229.44L236.18 225.35L237.06 221.33L238.08 217.35L239.22 213.42L240.48 209.56L241.87 205.76L243.37 202.02L244.99 198.34L246.73 194.71L248.56 191.17L250.51 187.69L252.58 184.29L254.75 180.96L257 177.7L259.38 174.51L261.84 171.42L264.4 168.41L267.06 165.48L269.81 162.64L272.63 159.88L275.56 157.22L278.56 154.66L281.64 152.19L284.8 149.81L288.04 147.54L291.36 145.38L294.75 143.31L298.2 141.36L301.73 139.5L305.32 137.76L308.97 136.14L312.69 134.62L316.46 133.23L320.3 131.97L324.17 130.81L328.1 129.79L332.09 128.89L336.12 128.12L340.2 127.48L344.32 126.96L349.39 126.54L354.45 126.3L359.46 126.27L364.44 126.46L369.36 126.83ZM349.38 154.82L345.66 155.22L341.99 155.75L338.36 156.43L334.76 157.25L331.21 158.21L327.72 159.31L324.27 160.53L320.88 161.89L317.56 163.36L314.29 164.97L311.11 166.69L307.99 168.55L304.93 170.5L301.97 172.59L299.07 174.78L296.27 177.08L293.55 179.48L290.93 181.99L288.4 184.61L285.97 187.32L283.64 190.12L281.43 193.03L279.31 196.01L277.31 199.1L275.42 202.27L273.66 205.52L272.02 208.86L270.51 212.27L269.13 215.76L267.87 219.32L266.77 222.96L265.78 226.65L264.96 230.42L264.27 234.26L264.15 235.06L262.61 244.23L259.55 262.59L231.23 258.28L230.92 258.24L230.62 258.19L230.33 258.15L230.02 258.1L229.73 258.06L229.42 258.02L229.13 257.96L228.52 257.88L228.23 257.86L227.62 257.78L227.32 257.74L227.02 257.71L226.71 257.67L226.42 257.65L225.81 257.59L225.51 257.55L225.21 257.53L224.91 257.5L224.6 257.49L224.31 257.46L224 257.43L223.7 257.42L223.39 257.39L223.09 257.38L222.8 257.35L221.57 257.3L221.28 257.29L220.98 257.27L220.67 257.27L220.06 257.25L219.46 257.25L219.16 257.23L215.85 257.3L212.58 257.5L209.36 257.83L206.17 258.28L203.02 258.87L199.92 259.57L196.86 260.38L193.85 261.32L190.9 262.37L187.99 263.53L185.15 264.8L182.36 266.17L179.64 267.66L176.98 269.24L174.39 270.91L171.87 272.69L169.43 274.55L167.06 276.52L164.76 278.56L162.55 280.69L160.42 282.9L158.36 285.2L156.41 287.56L154.54 290.02L152.77 292.53L151.1 295.12L149.52 297.78L148.03 300.5L146.66 303.29L145.39 306.13L144.23 309.04L143.18 311.99L142.24 315L141.42 318.05L140.73 321.16L140.14 324.31L139.69 327.5L139.36 330.74L139.16 333.99L139.09 337.3L139.16 340.59L139.36 343.86L139.69 347.1L140.14 350.28L140.73 353.43L141.42 356.54L142.24 359.59L143.18 362.59L144.23 365.56L145.39 368.46L146.66 371.31L148.03 374.08L149.52 376.8L151.1 379.47L152.77 382.06L154.54 384.57L156.41 387.03L158.36 389.39L160.42 391.69L162.55 393.91L164.76 396.03L167.06 398.08L169.43 400.04L171.87 401.9L174.39 403.68L176.98 405.35L179.64 406.94L182.36 408.42L185.15 409.79L187.99 411.07L190.9 412.22L193.85 413.27L196.86 414.21L199.92 415.02L203.02 415.73L206.17 416.31L209.36 416.76L212.58 417.09L215.85 417.29L219.16 417.36L437.61 417.36L440.01 417.32L442.4 417.21L444.78 417.04L447.14 416.8L449.49 416.48L451.82 416.11L454.13 415.66L456.41 415.14L458.68 414.57L460.93 413.92L463.14 413.22L465.34 412.45L467.5 411.61L469.64 410.72L471.75 409.76L473.83 408.75L475.88 407.68L477.9 406.55L479.88 405.35L481.83 404.11L483.73 402.82L485.6 401.45L487.43 400.04L489.23 398.58L490.98 397.07L492.69 395.5L494.35 393.89L495.97 392.22L497.54 390.51L499.07 388.76L500.54 386.94L501.96 385.09L503.33 383.18L504.64 381.24L505.92 379.25L507.13 377.22L508.28 375.13L509.37 373.02L510.41 370.85L511.38 368.66L512.61 365.6L513.71 362.51L514.67 359.42L515.51 356.3L516.21 353.18L516.78 350.05L517.22 346.91L517.54 343.78L517.74 340.66L517.8 337.52L517.75 334.41L517.58 331.31L517.29 328.23L516.87 325.16L516.34 322.12L515.69 319.1L514.94 316.13L514.06 313.18L513.08 310.26L511.99 307.39L510.78 304.56L509.48 301.79L508.06 299.05L506.54 296.37L504.91 293.75L503.2 291.2L501.36 288.71L499.44 286.28L497.42 283.91L495.29 281.64L493.08 279.44L490.77 277.31L488.38 275.27L485.88 273.32L483.3 271.46L480.62 269.69L477.87 268.02L475.03 266.45L472.1 264.99L469.09 263.63L453.34 256.93L451.56 239.93L451.21 236.72L450.74 233.56L450.17 230.42L449.49 227.31L448.72 224.26L447.86 221.23L446.89 218.26L445.83 215.32L444.67 212.43L443.42 209.59L442.1 206.8L440.66 204.06L439.16 201.37L437.57 198.74L435.88 196.16L434.13 193.64L432.3 191.18L430.38 188.79L428.39 186.45L426.32 184.2L424.2 181.99L421.98 179.87L419.71 177.82L417.37 175.83L414.97 173.93L412.5 172.1L409.96 170.34L407.37 168.67L404.71 167.09L402.01 165.59L399.24 164.17L396.43 162.84L393.57 161.61L390.65 160.46L387.69 159.42L384.69 158.46L381.63 157.6L378.54 156.84L375.39 156.19L372.22 155.63L368.37 155.1L364.52 154.74L360.71 154.53L356.89 154.48L353.12 154.57L349.38 154.82Z" id="crznfnVMp"/><path d="M302.26 307.71L337.52 342.86L402.56 277.8L391.97 267.21L337.52 321.77L337.52 321.77L312.86 297.11L302.26 307.71Z" id="fpBuVG1vb"/><path d="M302.26 307.71L337.52 342.86L402.56 277.8L391.97 267.21L337.52 321.77L337.52 321.77L312.86 297.11L302.26 307.71Z" id="a1yZyEMkzo"/><path d="M361.02 198.1L365.25 198.52L369.43 199.12L373.56 199.88L377.62 200.8L381.63 201.87L385.58 203.09L389.46 204.47L393.25 205.99L396.99 207.66L400.64 209.45L404.2 211.39L407.69 213.46L411.08 215.67L414.38 217.99L417.58 220.44L420.7 223L423.7 225.68L426.61 228.48L429.4 231.38L432.08 234.39L434.65 237.5L437.09 240.7L439.41 244.01L441.62 247.41L443.69 250.89L445.63 254.44L447.43 258.1L449.09 261.83L450.61 265.63L451.99 269.5L453.21 273.45L454.29 277.46L455.2 281.52L455.96 285.65L456.56 289.84L457 294.07L457.25 298.35L457.34 302.68L457.25 306.99L457 311.28L456.56 315.5L455.96 319.69L455.2 323.82L454.29 327.88L453.21 331.89L451.99 335.84L450.61 339.71L449.09 343.51L447.43 347.24L445.63 350.89L443.69 354.45L441.62 357.95L439.41 361.33L437.09 364.64L434.65 367.84L432.08 370.96L429.4 373.96L426.61 376.87L423.7 379.66L420.7 382.34L417.58 384.9L414.38 387.35L411.08 389.67L407.69 391.88L404.2 393.95L400.64 395.89L396.99 397.69L393.25 399.35L389.46 400.87L385.58 402.25L381.63 403.47L377.62 404.54L373.56 405.46L369.43 406.22L365.25 406.82L361.02 407.25L356.73 407.51L352.41 407.6L348.09 407.51L343.8 407.25L339.58 406.82L335.39 406.22L331.26 405.46L327.2 404.54L323.19 403.47L319.25 402.25L315.37 400.87L311.57 399.35L307.84 397.69L304.19 395.89L300.63 393.95L297.14 391.88L293.75 389.67L290.44 387.35L287.24 384.9L284.12 382.34L281.12 379.66L278.21 376.87L275.42 373.96L272.74 370.96L270.18 367.84L267.73 364.64L265.41 361.33L263.21 357.95L261.13 354.45L259.2 350.89L257.39 347.24L255.73 343.51L254.22 339.71L252.83 335.84L251.61 331.89L250.54 327.88L249.62 323.82L248.86 319.69L248.27 315.5L247.83 311.28L247.58 306.99L247.48 302.68L247.58 298.35L247.83 294.07L248.27 289.84L248.86 285.65L249.62 281.52L250.54 277.46L251.61 273.45L252.83 269.5L254.22 265.63L255.73 261.83L257.39 258.1L259.2 254.44L261.13 250.89L263.21 247.41L265.41 244.01L267.73 240.7L270.18 237.5L272.74 234.39L275.42 231.38L278.21 228.48L281.12 225.68L284.12 223L287.24 220.44L290.44 217.99L293.75 215.67L297.14 213.46L300.63 211.39L304.19 209.45L307.84 207.66L311.57 205.99L315.37 204.47L319.25 203.09L323.19 201.87L327.2 200.8L331.26 199.88L335.39 199.12L339.58 198.52L343.8 198.1L348.09 197.83L352.41 197.74L356.73 197.83L361.02 198.1ZM344.44 205.52L340.52 205.92L336.66 206.47L332.83 207.17L329.06 208.02L325.35 209.02L321.7 210.14L318.12 211.42L314.6 212.83L311.15 214.37L307.76 216.04L304.45 217.83L301.23 219.76L298.09 221.79L295.02 223.94L292.06 226.21L289.18 228.59L286.39 231.07L283.71 233.65L281.12 236.34L278.64 239.12L276.26 242L274 244.98L271.85 248.03L269.81 251.18L267.89 254.41L266.1 257.7L264.43 261.08L262.89 264.54L261.48 268.06L260.2 271.64L259.06 275.29L258.08 279.01L257.23 282.77L256.53 286.59L255.97 290.47L255.57 294.39L255.33 298.35L255.25 302.36L255.33 306.36L255.57 310.33L255.97 314.24L256.53 318.12L257.23 321.93L258.08 325.7L259.06 329.42L260.2 333.06L261.48 336.66L262.89 340.18L264.43 343.63L266.1 347L267.89 350.31L269.81 353.54L271.85 356.68L274 359.74L276.26 362.71L278.64 365.58L281.12 368.37L283.71 371.05L286.39 373.64L289.18 376.13L292.06 378.5L295.02 380.77L298.09 382.93L301.23 384.96L304.45 386.88L307.76 388.68L311.15 390.34L314.6 391.88L318.12 393.3L321.7 394.56L325.35 395.7L329.06 396.7L332.83 397.55L336.66 398.25L340.52 398.79L344.44 399.19L348.41 399.43L352.41 399.51L356.42 399.43L360.37 399.19L364.29 398.78L368.17 398.24L371.98 397.52L375.75 396.67L379.46 395.67L383.11 394.55L386.69 393.27L390.21 391.85L393.67 390.31L397.04 388.64L400.35 386.84L403.57 384.93L406.71 382.89L409.77 380.73L412.74 378.48L415.62 376.1L418.39 373.62L421.09 371.03L423.66 368.34L426.15 365.56L428.52 362.67L430.8 359.71L432.95 356.66L434.98 353.51L436.9 350.28L438.7 346.99L440.37 343.6L441.91 340.15L443.32 336.63L444.59 333.05L445.74 329.41L446.73 325.69L447.58 321.93L448.28 318.11L448.84 314.24L449.24 310.33L449.49 306.36L449.57 302.36L449.49 298.35L449.25 294.39L448.86 290.47L448.3 286.59L447.59 282.77L446.74 279.01L445.76 275.29L444.62 271.64L443.34 268.06L441.94 264.54L440.4 261.08L438.72 257.7L436.93 254.41L435.02 251.18L432.97 248.03L430.82 244.98L428.56 242L426.19 239.12L423.7 236.34L421.11 233.65L418.43 231.07L415.64 228.59L412.76 226.21L409.8 223.94L406.73 221.79L403.6 219.76L400.37 217.83L397.07 216.04L393.68 214.37L390.23 212.83L386.71 211.42L383.12 210.14L379.47 209.02L375.76 208.02L371.99 207.17L368.17 206.47L364.3 205.92L360.39 205.52L356.42 205.27L352.41 205.19L348.41 205.27L344.44 205.52Z" id="a2V0tetAV"/><path d="M361.02 198.1L365.25 198.52L369.43 199.12L373.56 199.88L377.62 200.8L381.63 201.87L385.58 203.09L389.46 204.47L393.25 205.99L396.99 207.66L400.64 209.45L404.2 211.39L407.69 213.46L411.08 215.67L414.38 217.99L417.58 220.44L420.7 223L423.7 225.68L426.61 228.48L429.4 231.38L432.08 234.39L434.65 237.5L437.09 240.7L439.41 244.01L441.62 247.41L443.69 250.89L445.63 254.44L447.43 258.1L449.09 261.83L450.61 265.63L451.99 269.5L453.21 273.45L454.29 277.46L455.2 281.52L455.96 285.65L456.56 289.84L457 294.07L457.25 298.35L457.34 302.68L457.25 306.99L457 311.28L456.56 315.5L455.96 319.69L455.2 323.82L454.29 327.88L453.21 331.89L451.99 335.84L450.61 339.71L449.09 343.51L447.43 347.24L445.63 350.89L443.69 354.45L441.62 357.95L439.41 361.33L437.09 364.64L434.65 367.84L432.08 370.96L429.4 373.96L426.61 376.87L423.7 379.66L420.7 382.34L417.58 384.9L414.38 387.35L411.08 389.67L407.69 391.88L404.2 393.95L400.64 395.89L396.99 397.69L393.25 399.35L389.46 400.87L385.58 402.25L381.63 403.47L377.62 404.54L373.56 405.46L369.43 406.22L365.25 406.82L361.02 407.25L356.73 407.51L352.41 407.6L348.09 407.51L343.8 407.25L339.58 406.82L335.39 406.22L331.26 405.46L327.2 404.54L323.19 403.47L319.25 402.25L315.37 400.87L311.57 399.35L307.84 397.69L304.19 395.89L300.63 393.95L297.14 391.88L293.75 389.67L290.44 387.35L287.24 384.9L284.12 382.34L281.12 379.66L278.21 376.87L275.42 373.96L272.74 370.96L270.18 367.84L267.73 364.64L265.41 361.33L263.21 357.95L261.13 354.45L259.2 350.89L257.39 347.24L255.73 343.51L254.22 339.71L252.83 335.84L251.61 331.89L250.54 327.88L249.62 323.82L248.86 319.69L248.27 315.5L247.83 311.28L247.58 306.99L247.48 302.68L247.58 298.35L247.83 294.07L248.27 289.84L248.86 285.65L249.62 281.52L250.54 277.46L251.61 273.45L252.83 269.5L254.22 265.63L255.73 261.83L257.39 258.1L259.2 254.44L261.13 250.89L263.21 247.41L265.41 244.01L267.73 240.7L270.18 237.5L272.74 234.39L275.42 231.38L278.21 228.48L281.12 225.68L284.12 223L287.24 220.44L290.44 217.99L293.75 215.67L297.14 213.46L300.63 211.39L304.19 209.45L307.84 207.66L311.57 205.99L315.37 204.47L319.25 203.09L323.19 201.87L327.2 200.8L331.26 199.88L335.39 199.12L339.58 198.52L343.8 198.1L348.09 197.83L352.41 197.74L356.73 197.83L361.02 198.1ZM344.44 205.52L340.52 205.92L336.66 206.47L332.83 207.17L329.06 208.02L325.35 209.02L321.7 210.14L318.12 211.42L314.6 212.83L311.15 214.37L307.76 216.04L304.45 217.83L301.23 219.76L298.09 221.79L295.02 223.94L292.06 226.21L289.18 228.59L286.39 231.07L283.71 233.65L281.12 236.34L278.64 239.12L276.26 242L274 244.98L271.85 248.03L269.81 251.18L267.89 254.41L266.1 257.7L264.43 261.08L262.89 264.54L261.48 268.06L260.2 271.64L259.06 275.29L258.08 279.01L257.23 282.77L256.53 286.59L255.97 290.47L255.57 294.39L255.33 298.35L255.25 302.36L255.33 306.36L255.57 310.33L255.97 314.24L256.53 318.12L257.23 321.93L258.08 325.7L259.06 329.42L260.2 333.06L261.48 336.66L262.89 340.18L264.43 343.63L266.1 347L267.89 350.31L269.81 353.54L271.85 356.68L274 359.74L276.26 362.71L278.64 365.58L281.12 368.37L283.71 371.05L286.39 373.64L289.18 376.13L292.06 378.5L295.02 380.77L298.09 382.93L301.23 384.96L304.45 386.88L307.76 388.68L311.15 390.34L314.6 391.88L318.12 393.3L321.7 394.56L325.35 395.7L329.06 396.7L332.83 397.55L336.66 398.25L340.52 398.79L344.44 399.19L348.41 399.43L352.41 399.51L356.42 399.43L360.37 399.19L364.29 398.78L368.17 398.24L371.98 397.52L375.75 396.67L379.46 395.67L383.11 394.55L386.69 393.27L390.21 391.85L393.67 390.31L397.04 388.64L400.35 386.84L403.57 384.93L406.71 382.89L409.77 380.73L412.74 378.48L415.62 376.1L418.39 373.62L421.09 371.03L423.66 368.34L426.15 365.56L428.52 362.67L430.8 359.71L432.95 356.66L434.98 353.51L436.9 350.28L438.7 346.99L440.37 343.6L441.91 340.15L443.32 336.63L444.59 333.05L445.74 329.41L446.73 325.69L447.58 321.93L448.28 318.11L448.84 314.24L449.24 310.33L449.49 306.36L449.57 302.36L449.49 298.35L449.25 294.39L448.86 290.47L448.3 286.59L447.59 282.77L446.74 279.01L445.76 275.29L444.62 271.64L443.34 268.06L441.94 264.54L440.4 261.08L438.72 257.7L436.93 254.41L435.02 251.18L432.97 248.03L430.82 244.98L428.56 242L426.19 239.12L423.7 236.34L421.11 233.65L418.43 231.07L415.64 228.59L412.76 226.21L409.8 223.94L406.73 221.79L403.6 219.76L400.37 217.83L397.07 216.04L393.68 214.37L390.23 212.83L386.71 211.42L383.12 210.14L379.47 209.02L375.76 208.02L371.99 207.17L368.17 206.47L364.3 205.92L360.39 205.52L356.42 205.27L352.41 205.19L348.41 205.27L344.44 205.52Z" id="b7BFCw3EiJ"/></defs><g><g><g><use xlink:href="#j6GW7vgypU" opacity="1" fill="#196970" fill-opacity="1"/><g><use xlink:href="#j6GW7vgypU" opacity="1" fill-opacity="0" stroke="#000000" stroke-width="1" stroke-opacity="0"/></g></g><g><use xlink:href="#d1XSf10vNn" opacity="1" fill="#000000" fill-opacity="0"/><g><use xlink:href="#d1XSf10vNn" opacity="1" fill-opacity="0" stroke="#000000" stroke-width="1" stroke-opacity="0"/></g></g><g><use xlink:href="#bZG5wwNTP" opacity="1" fill="#ffffff" fill-opacity="1"/><g><use xlink:href="#bZG5wwNTP" opacity="1" fill-opacity="0" stroke="#000000" stroke-width="1" stroke-opacity="0"/></g></g><g><use xlink:href="#crznfnVMp" opacity="1" fill="#000000" fill-opacity="0"/><g><use xlink:href="#crznfnVMp" opacity="1" fill-opacity="0" stroke="#000000" stroke-width="1" stroke-opacity="0"/></g></g><g><use xlink:href="#fpBuVG1vb" opacity="1" fill="#ffffff" fill-opacity="1"/><g><use xlink:href="#fpBuVG1vb" opacity="1" fill-opacity="0" stroke="#000000" stroke-width="1" stroke-opacity="0"/></g></g><g><use xlink:href="#a1yZyEMkzo" opacity="1" fill="#000000" fill-opacity="0"/><g><use xlink:href="#a1yZyEMkzo" opacity="1" fill-opacity="0" stroke="#000000" stroke-width="1" stroke-opacity="0"/></g></g><g><use xlink:href="#a2V0tetAV" opacity="1" fill="#ffffff" fill-opacity="1"/><g><use xlink:href="#a2V0tetAV" opacity="1" fill-opacity="0" stroke="#000000" stroke-width="1" stroke-opacity="0"/></g></g><g><use xlink:href="#b7BFCw3EiJ" opacity="1" fill="#000000" fill-opacity="0"/><g><use xlink:href="#b7BFCw3EiJ" opacity="1" fill-opacity="0" stroke="#000000" stroke-width="1" stroke-opacity="0"/></g></g></g></g></svg>