<?xml version="1.0" encoding="UTF-8"?>
<svg width="109px" height="108px" viewBox="0 0 109 108" version="1.1" xmlns="http://www.w3.org/2000/svg" xmlns:xlink="http://www.w3.org/1999/xlink">
    <!-- Generator: Sketch 53 (72520) - https://sketchapp.com -->
    <title>Group</title>
    <desc>Created with Sketch.</desc>
    <g id="Page-1" stroke="none" stroke-width="1" fill="none" fill-rule="evenodd">
        <g id="Network-Icons" transform="translate(-925.000000, -660.000000)" fill-rule="nonzero">
            <g id="Group" transform="translate(925.507812, 660.000000)">
                <ellipse id="Oval" fill="#38B0DE" cx="54" cy="53.82" rx="54" ry="53.82"></ellipse>
                <path d="M31.53,81.54 C19.6006494,81.54 9.93,71.8693506 9.93,59.94 C9.93,48.0106494 19.6006494,38.34 31.53,38.34 C39.9045259,38.3930748 47.4597892,43.3802543 50.8,51.06 L48.62,52.06 C45.6553633,45.2469868 38.9597964,40.8159241 31.53,40.75 C21.1269623,40.9877721 12.8175786,49.4892454 12.8175786,59.895 C12.8175786,70.3007546 21.1269623,78.8022279 31.53,79.04 L31.88,79.04 L31.88,81.45 L31.75,81.45 C31.691538,81.5080398 31.6123787,81.5404232 31.53,81.54 Z" id="Path" stroke="#FFFFFF" stroke-width="2" fill="#FFFFFF"></path>
                <rect id="Rectangle" stroke="#FFFFFF" stroke-width="2" fill="#FFFFFF" x="31.53" y="79.08" width="30.77" height="2.41"></rect>
                <path d="M71.61,41.46 C70.874643,30.5965956 61.9076459,22.1260714 51.02,22.01 C40.7561918,22.0352385 32.0735665,29.6053626 30.65,39.77 L28.29,39.37 C30.0671437,27.7836825 40.2733959,19.3874153 51.9849798,19.8771072 C63.6965636,20.3667991 73.1662767,29.5857697 73.97,41.28 L71.61,41.46 Z" id="Path" stroke="#FFFFFF" stroke-width="2" fill="#FFFFFF"></path>
                <path d="M71.56,40.3 L71.56,42.71 C81.65,42.94 89.91,51.55 89.91,61.9 C90.0043645,72.4206384 81.5604874,81.0300817 71.04,81.14 C70.0350405,81.1257531 69.0324264,81.0388599 68.04,80.88 C65.9690908,80.5491434 63.9701746,79.8659267 62.13,78.86 C61.13,78.86 60.33,78.95 59.77,79.01 C59.39,79.01 58.93,79.09 58.27,79.11 C57.77,79.11 57.35,79.11 57.07,79.11 C61.19581,81.9488547 66.0629304,83.5167627 71.07,83.62 C82.8949104,83.4553977 92.3691125,73.7757202 92.28,61.95 C92.28,50.25 82.97,40.57 71.56,40.3 Z" id="Path" stroke="#FFFFFF" stroke-width="2" fill="#FFFFFF"></path>
                <path d="M97.62,60.8 C97.62,74.65 85.09,84.8 74.27,85.74 C69.9499944,86.087637 65.6254503,85.1258528 61.86,82.98 C56.1907509,79.6354602 52.4544866,73.7896549 51.8,67.24 C51.27,60.82 54.4,56.31 58.2,50.48 C62.26,44.26 67.02,37.29 74.11,36.02 C83.17,34.38 97.57,45.18 97.62,60.8 Z" id="Path" fill="#38B0DE"></path>
                <path d="M84.51,79.6 L62.04,79.6 L62.04,79.14 C62.04,67.36 62.04,55.5833333 62.04,43.81 C62.0293132,43.1637904 62.276494,42.5399449 62.7268804,42.0764222 C63.1772668,41.6128996 63.7937502,41.3478906 64.44,41.34 C70.34,41.34 76.2366667,41.34 82.13,41.34 C82.78431,41.3475511 83.407674,41.6197486 83.8579634,42.0945307 C84.3082528,42.5693129 84.547083,43.2062071 84.52,43.86 C84.52,55.64 84.52,67.4166667 84.52,79.19 L84.51,79.6 Z M83.19,78.23 L83.19,43.57 C83.19,42.9 82.94,42.66 82.27,42.66 L64.27,42.66 C63.7412761,42.6917798 63.3290458,43.1303227 63.33,43.66 L63.3299983,78.26 L83.19,78.26 L83.19,78.23 Z" id="Shape" stroke="#FFFFFF" fill="#FFFFFF"></path>
                <path d="M81.87,56.34 L64.72,56.34 L64.72,52.24 L81.87,52.24 L81.87,56.34 Z M66.01,54.97 L80.55,54.97 L80.55,53.6 L66.01,53.6 L66.01,54.97 Z" id="Shape" fill="#FFFFFF"></path>
                <path d="M64.72,61.86 L64.72,57.76 L81.87,57.76 L81.87,61.86 L64.72,61.86 Z M66.72,60.5 L80.55,60.5 L80.55,59.08 L66.72,59.08 L66.72,60.5 Z" id="Shape" fill="#FFFFFF"></path>
                <path d="M64.72,67.97 L64.72,63.86 L81.87,63.86 L81.87,67.96 L64.72,67.97 Z M66.72,66.6 L80.55,66.6 L80.55,65.24 L66.72,65.24 L66.72,66.6 Z" id="Shape" fill="#FFFFFF"></path>
                <path d="M81.87,46.08 L81.87,50.18 L64.72,50.18 L64.72,46.08 L81.87,46.08 Z M66.72,48.86 L80.55,48.86 L80.55,47.45 L66.72,47.45 L66.72,48.86 Z" id="Shape" fill="#FFFFFF"></path>
                <circle id="Oval" stroke="#FFFFFF" fill="#FFFFFF" cx="73.28" cy="73.57" r="3.18"></circle>
            </g>
        </g>
    </g>
</svg>