<?xml version="1.0" encoding="UTF-8"?>
<svg width="109px" height="108px" viewBox="0 0 109 108" version="1.1" xmlns="http://www.w3.org/2000/svg" xmlns:xlink="http://www.w3.org/1999/xlink">
    <!-- Generator: Sketch 53 (72520) - https://sketchapp.com -->
    <title>Group 8</title>
    <desc>Created with Sketch.</desc>
    <defs>
        <polygon id="path-1" points="0.000166153846 0 108 0 108 108 0.000166153846 108"></polygon>
    </defs>
    <g id="Page-1" stroke="none" stroke-width="1" fill="none" fill-rule="evenodd">
        <g id="Infrastructure-Icons" transform="translate(-139.000000, -706.000000)">
            <g id="Group-8" transform="translate(139.691406, 706.000000)">
                <g id="Group-3">
                    <mask id="mask-2" fill="white">
                        <use xlink:href="#path-1"></use>
                    </mask>
                    <g id="Clip-2"></g>
                    <path d="M54.0001662,0 C83.82312,0 108.000166,24.1770462 108.000166,54 C108.000166,83.8229538 83.82312,108 54.0001662,108 C24.1772123,108 0.000166153846,83.8229538 0.000166153846,54 C0.000166153846,24.1770462 24.1772123,0 54.0001662,0" id="Fill-1" fill="#E6BB21" mask="url(#mask-2)"></path>
                </g>
                <path d="M56.3261538,53.6676923 C62.64,43.6984615 68.7876923,33.7292308 75.1015385,23.76 C69.4523077,21.4338462 63.8030769,19.1076923 58.1538462,16.7815385 C49.8461538,32.2338462 41.5384615,47.6861538 33.2307692,63.3046154 C38.88,63.4707692 44.5292308,63.6369231 50.1784615,63.8030769 C50.3446154,63.4707692 50.5107692,63.3046154 50.6769231,62.9723077 L50.6769231,63.8030769 L54.1661538,63.8030769 C48.5169231,72.6092308 42.8676923,81.4153846 37.2184615,90.2215385 C38.0492308,90.72 38.88,91.0523077 39.8769231,91.5507692 C48.5169231,81.9138462 57.3230769,72.2769231 65.9630769,62.64 C68.6215385,59.9815385 71.28,57.1569231 73.9384615,54.4984615 C67.7907692,54 61.9753846,53.8338462 56.3261538,53.6676923" id="Fill-4" fill="#FFFFFF"></path>
                <path d="M56.3261538,53.6676923 C62.64,43.6984615 68.7876923,33.7292308 75.1015385,23.76 C69.4523077,21.4338462 63.8030769,19.1076923 58.1538462,16.7815385 C49.8461538,32.2338462 41.5384615,47.6861538 33.2307692,63.3046154 C38.88,63.4707692 44.5292308,63.6369231 50.1784615,63.8030769 C50.3446154,63.4707692 50.5107692,63.3046154 50.6769231,62.9723077 L50.6769231,63.8030769 L54.1661538,63.8030769 C48.5169231,72.6092308 42.8676923,81.4153846 37.2184615,90.2215385 C38.0492308,90.72 38.88,91.0523077 39.8769231,91.5507692 C48.5169231,81.9138462 57.3230769,72.2769231 65.9630769,62.64 C68.6215385,59.9815385 71.28,57.1569231 73.9384615,54.4984615 C67.7907692,54 61.9753846,53.8338462 56.3261538,53.6676923 Z" id="Stroke-6" stroke="#FFFFFF" stroke-width="0.016"></path>
            </g>
        </g>
    </g>
</svg>