<?xml version="1.0" encoding="UTF-8"?>
<svg width="124px" height="122px" viewBox="0 0 124 122" version="1.1" xmlns="http://www.w3.org/2000/svg" xmlns:xlink="http://www.w3.org/1999/xlink">
    <!-- Generator: Sketch 53 (72520) - https://sketchapp.com -->
    <title>Router Group</title>
    <desc>Created with Sketch.</desc>
    <g id="Page-1" stroke="none" stroke-width="1" fill="none" fill-rule="evenodd">
        <g id="Network-Icons" transform="translate(-381.000000, -1075.000000)" stroke="#FFFFFF">
            <g id="Router-Group" transform="translate(382.144531, 1076.000000)">
                <g id="Group">
                    <ellipse id="Oval" stroke-width="2" fill="#919191" fill-rule="nonzero" cx="50.5" cy="50.3146789" rx="50.5" ry="49.8513761"></ellipse>
                    <g transform="translate(8.416667, 14.825688)" id="Path" stroke-width="4">
                        <path d="M42.5509259,1.66788991 L42.5509259,67.8275229"></path>
                        <polyline points="28.4296296 14.0844037 42.6444444 0 56.6722222 13.806422"></polyline>
                        <g transform="translate(54.240741, 21.311927)">
                            <path d="M0,14.2697248 L29.0842593,14.2697248"></path>
                            <polyline points="14.7759259 28.2614679 0.561111111 14.1770642 14.5888889 0.277981651"></polyline>
                        </g>
                        <g transform="translate(0.000000, 21.311927)">
                            <path d="M29.9259259,14.2697248 L0.841666667,14.2697248"></path>
                            <polyline points="15.15 0.277981651 29.4583333 14.3623853 15.4305556 28.2614679"></polyline>
                        </g>
                        <polyline points="56.6722222 56.893578 42.4574074 71.0706422 28.4296296 57.1715596"></polyline>
                    </g>
                </g>
                <g id="Group" transform="translate(6.000000, 7.000000)">
                    <ellipse id="Oval" stroke-width="2" fill="#919191" fill-rule="nonzero" cx="51" cy="50.0925926" rx="50.5321101" ry="49.8148148"></ellipse>
                    <g transform="translate(9.357798, 13.888889)" id="Path" stroke-width="4">
                        <path d="M42.1100917,2.31481481 L42.1100917,68.4259259"></path>
                        <polyline points="27.9798165 14.7222222 42.2036697 0.648148148 56.240367 14.537037"></polyline>
                        <g transform="translate(53.339450, 22.222222)">
                            <path d="M0.467889908,14.0740741 L29.5706422,14.0740741"></path>
                            <polyline points="15.253211 28.0555556 1.0293578 13.9814815 15.066055 0.0925925926"></polyline>
                        </g>
                        <g transform="translate(0.000000, 22.222222)">
                            <path d="M29.4770642,14.0740741 L0.374311927,14.0740741"></path>
                            <polyline points="14.6917431 0.0925925926 29.0091743 14.1666667 14.9724771 28.0555556"></polyline>
                        </g>
                        <polyline points="56.240367 57.5925926 42.0165138 71.6666667 27.9798165 57.7777778"></polyline>
                    </g>
                </g>
                <g id="Group" transform="translate(14.000000, 13.000000)">
                    <ellipse id="Oval" stroke-width="2" fill="#919191" fill-rule="nonzero" cx="50.5" cy="49.8148148" rx="50.5" ry="49.8148148"></ellipse>
                    <g transform="translate(8.416667, 13.888889)" id="Path" stroke-width="4">
                        <path d="M42.5509259,2.12962963 L42.5509259,68.2407407"></path>
                        <polyline points="28.4296296 14.537037 42.6444444 0.462962963 56.6722222 14.3518519"></polyline>
                        <g transform="translate(54.240741, 21.296296)">
                            <path d="M0,14.7222222 L29.0842593,14.7222222"></path>
                            <polyline points="14.7759259 28.7037037 0.561111111 14.6296296 14.5888889 0.740740741"></polyline>
                        </g>
                        <g transform="translate(0.000000, 21.296296)">
                            <path d="M29.9259259,14.7222222 L0.841666667,14.7222222"></path>
                            <polyline points="15.2435185 0.740740741 29.4583333 14.8148148 15.4305556 28.7037037"></polyline>
                        </g>
                        <polyline points="56.6722222 57.4074074 42.4574074 71.4814815 28.4296296 57.5925926"></polyline>
                    </g>
                </g>
                <g id="Group" transform="translate(20.000000, 19.000000)">
                    <ellipse id="Oval" stroke-width="2" fill="#919191" fill-rule="nonzero" cx="51" cy="50.5926606" rx="50.5321101" ry="49.8513761"></ellipse>
                    <g transform="translate(9.357798, 14.825688)" id="Path" stroke-width="4">
                        <path d="M42.1100917,1.85321101 L42.1100917,68.012844"></path>
                        <polyline points="27.9798165 14.2697248 42.2036697 0.185321101 56.240367 14.0844037"></polyline>
                        <g transform="translate(53.339450, 21.311927)">
                            <path d="M0.467889908,14.5477064 L29.5706422,14.5477064"></path>
                            <polyline points="15.253211 28.5394495 1.0293578 14.4550459 15.066055 0.555963303"></polyline>
                        </g>
                        <g transform="translate(0.000000, 21.311927)">
                            <path d="M29.4770642,14.5477064 L0.374311927,14.5477064"></path>
                            <polyline points="14.7853211 0.555963303 29.0091743 14.640367 14.9724771 28.5394495"></polyline>
                        </g>
                        <polyline points="56.240367 57.1715596 42.0165138 71.2559633 27.9798165 57.3568807"></polyline>
                    </g>
                </g>
            </g>
        </g>
    </g>
</svg>