<svg xmlns="http://www.w3.org/2000/svg" viewBox="0 0 113.46 113.21"><defs><style>.a{fill:#fff;stroke:#646364;stroke-miterlimit:10;stroke-width:2px;}.b{fill:#714696;}</style></defs><title>journey archs</title><ellipse class="a" cx="57.21" cy="59" rx="50" ry="49.87"/><path class="b" d="M87.39,28H62.8a.82.82,0,0,0-.82.83V48.59a10.68,10.68,0,0,0-4.28-.89H37A10.82,10.82,0,0,0,26.21,58.51V69A10.81,10.81,0,0,0,37,79.75h4.16l5.43,9.83a.79.79,0,0,0,.71.42.91.91,0,0,0,.4-.1.83.83,0,0,0,.33-1.12L42.13,78.11H37A9.17,9.17,0,0,1,27.86,69V58.52A9.17,9.17,0,0,1,37,49.36H57.71a9.16,9.16,0,0,1,9.15,9.16V69a9.16,9.16,0,0,1-9.15,9.16H48.65a.82.82,0,0,0,0,1.64h9.06A10.82,10.82,0,0,0,68.51,69V59.82H87.39a.82.82,0,0,0,.82-.82V28.83A.82.82,0,0,0,87.39,28Zm-.82,30.17H68.5a10.85,10.85,0,0,0-4.87-8.69V29.65H86.57Z"/><path class="b" d="M84,69.47h0a.81.81,0,0,0-.82.82A10.52,10.52,0,0,1,72.61,80.81H69.82l2.39-2.39a.82.82,0,0,0-1.16-1.17l-3.8,3.8a1.27,1.27,0,0,0-.18.27.69.69,0,0,0,0,.25s0,0,0,.07,0,0,0,.06a.69.69,0,0,0,0,.25,1,1,0,0,0,.19.27L71.06,86a.74.74,0,0,0,.57.24.84.84,0,0,0,.59-.24.82.82,0,0,0,0-1.16l-2.4-2.4h2.8A12.17,12.17,0,0,0,84.78,70.29.83.83,0,0,0,84,69.47Z"/><circle class="b" cx="55.8" cy="63.74" r="2.06"/><circle class="b" cx="47.36" cy="63.74" r="2.06"/><circle class="b" cx="38.92" cy="63.74" r="2.06"/><path class="b" d="M67.68,52.34H83.35a.83.83,0,0,0,0-1.65H67.68a.83.83,0,0,0,0,1.65Z"/><path class="b" d="M67.68,44.73H83.35a.82.82,0,1,0,0-1.64H67.68a.82.82,0,1,0,0,1.64Z"/><path class="b" d="M67.68,37.13H83.35a.82.82,0,0,0,0-1.64H67.68a.82.82,0,1,0,0,1.64Z"/></svg>