<?xml version="1.0" encoding="UTF-8"?>
<svg width="108px" height="108px" viewBox="0 0 108 108" version="1.1" xmlns="http://www.w3.org/2000/svg" xmlns:xlink="http://www.w3.org/1999/xlink">
    <!-- Generator: Sketch 53 (72520) - https://sketchapp.com -->
    <title>Group 24</title>
    <desc>Created with Sketch.</desc>
    <defs>
        <polygon id="path-1" points="0 0.352 107.9997 0.352 107.9997 107.9997 0 107.9997"></polygon>
    </defs>
    <g id="Page-1" stroke="none" stroke-width="1" fill="none" fill-rule="evenodd">
        <g id="Network-Icons" transform="translate(-781.000000, -886.000000)">
            <g id="Group-24" transform="translate(781.046875, 885.000000)">
                <g id="Group-3" transform="translate(0.000000, 0.648000)">
                    <mask id="mask-2" fill="white">
                        <use xlink:href="#path-1"></use>
                    </mask>
                    <g id="Clip-2"></g>
                    <path d="M107.9997,54.1757 C107.9997,83.9027 83.8227,107.9997 53.9997,107.9997 C24.1767,107.9997 -0.0003,83.9027 -0.0003,54.1757 C-0.0003,24.4497 24.1767,0.3517 53.9997,0.3517 C83.8227,0.3517 107.9997,24.4497 107.9997,54.1757" id="Fill-1" fill="#38B0DE" mask="url(#mask-2)"></path>
                </g>
                <path d="M69.0935,57.4273 L82.8315,57.4273 C83.0025,55.9583 83.1675,54.5383 83.3365,53.0803 L69.3405,53.0803 C69.2575,54.5313 69.1775,55.9403 69.0935,57.4273 L69.0935,57.4273 Z M56.5795,83.6493 L56.5795,68.5503 C55.0945,68.4713 53.6885,68.3963 52.2545,68.3203 L52.2545,84.1723 C53.7365,83.9933 55.1585,83.8213 56.5795,83.6493 L56.5795,83.6493 Z M25.3995,72.6313 C29.6135,77.4253 34.5305,80.7093 40.4295,82.5313 C37.4495,78.8233 35.6145,74.5593 34.1225,70.0063 C31.1955,70.8873 28.3815,71.7343 25.3995,72.6313 L25.3995,72.6313 Z M40.5665,19.9393 C35.9165,20.8873 27.5715,26.4383 25.5395,29.9253 C28.4175,30.7863 31.2615,31.6373 34.1395,32.4983 C35.6275,27.8953 37.4615,23.6763 40.5665,19.9393 L40.5665,19.9393 Z M75.3635,29.9143 C72.6625,25.9953 63.4655,19.9813 60.6125,20.0463 C61.7495,21.9433 63.0505,23.8563 64.0825,25.9063 C65.1265,27.9793 65.9055,30.1863 66.8535,32.4663 C69.6265,31.6343 72.4515,30.7873 75.3635,29.9143 L75.3635,29.9143 Z M65.5065,57.5123 C65.5955,55.9283 65.6745,54.5023 65.7545,53.0813 L52.2655,53.0813 L52.2655,64.7483 C53.7505,64.8223 55.1795,64.8923 56.6615,64.9663 C56.6615,64.5213 56.6555,64.1983 56.6625,63.8753 C56.7325,60.5723 59.2035,57.8413 62.4735,57.5273 C63.4385,57.4343 64.4195,57.5123 65.5065,57.5123 L65.5065,57.5123 Z M37.6915,69.2753 C38.6345,72.2973 39.7425,74.9643 41.2665,77.4493 C42.5155,79.4863 43.9715,81.3523 45.9865,82.6853 C46.7695,83.2053 47.6625,83.5583 48.5825,84.0263 L48.5825,68.2013 C44.9475,68.5593 41.3955,68.9103 37.6915,69.2753 L37.6915,69.2753 Z M52.2685,18.6023 L52.2685,34.3083 C55.9205,33.9483 59.4945,33.5943 63.2005,33.2283 C62.8085,32.1343 62.5205,31.2693 62.1905,30.4203 C60.8495,26.9733 59.1755,23.7243 56.4755,21.1143 C55.2955,19.9743 53.9765,19.0443 52.2685,18.6023 L52.2685,18.6023 Z M37.5895,33.2333 C41.4045,33.6023 44.9765,33.9493 48.5995,34.3013 L48.5995,18.4583 C42.0825,21.2793 39.9385,27.1313 37.5895,33.2333 L37.5895,33.2333 Z M52.2505,49.4273 L65.7545,49.4273 C65.5905,45.0873 65.1315,40.8443 64.1235,36.7273 C60.1175,37.1213 56.1895,37.5073 52.2505,37.8943 L52.2505,49.4273 Z M48.5865,64.6143 L48.5865,53.1023 L35.1025,53.1023 C35.2735,57.4593 35.7195,61.7063 36.7405,65.7863 C40.7345,65.3913 44.6185,65.0073 48.5865,64.6143 L48.5865,64.6143 Z M48.5835,49.4373 L48.5835,37.8903 C44.6015,37.4983 40.6955,37.1143 36.7815,36.7283 C35.9545,39.0983 34.9175,47.4483 35.2215,49.4373 L48.5835,49.4373 Z M17.5465,53.0803 C17.9415,59.1953 19.7865,64.7413 23.1415,69.6473 C26.5505,68.5953 29.8225,67.5853 33.1185,66.5693 C32.7695,64.3793 32.3485,62.1463 32.0715,59.8963 C31.7925,57.6423 31.6555,55.3713 31.4545,53.0803 L17.5465,53.0803 Z M83.3055,49.4213 C82.9215,43.3223 81.0665,37.7953 77.7185,32.8593 C74.3265,33.9093 71.0315,34.9303 67.8695,35.9093 C68.4225,40.3993 68.9775,44.9053 69.5335,49.4213 L83.3055,49.4213 Z M31.3105,49.4453 C31.8795,44.8583 32.4375,40.3743 32.9915,35.9093 C29.8225,34.9263 26.5285,33.9043 23.1375,32.8523 C19.7925,37.8053 17.9195,43.3373 17.5555,49.4453 L31.3105,49.4453 Z M75.2595,91.3073 C79.2345,91.3073 83.2085,91.3103 87.1835,91.3063 C89.3355,91.3033 90.4785,90.1633 90.4795,88.0123 C90.4835,80.1223 90.4835,72.2323 90.4795,64.3423 C90.4795,62.1883 89.3395,61.0473 87.1875,61.0473 C79.2965,61.0453 71.4065,61.0473 63.5165,61.0523 C61.3475,61.0523 60.2265,62.1733 60.2255,64.3403 C60.2205,72.2303 60.2195,80.1203 60.2205,88.0103 C60.2205,90.1653 61.3595,91.3033 63.5135,91.3063 C67.4285,91.3103 71.3435,91.3073 75.2595,91.3073 L75.2595,91.3073 Z M86.4495,57.4143 C87.2425,57.4843 88.0475,57.4873 88.8235,57.6353 C91.8375,58.2123 94.0245,60.7933 94.0335,63.8673 C94.0585,72.0833 94.0645,80.3003 94.0255,88.5163 C94.0085,92.0243 91.1685,94.8393 87.6485,94.8543 C79.4615,94.8883 71.2755,94.8873 63.0885,94.8603 C59.5305,94.8483 56.7335,92.0153 56.6625,88.4653 C56.6555,88.0833 56.6615,87.7003 56.6615,87.2823 C43.9935,89.0383 33.0405,85.6253 24.1295,76.4773 C16.9235,69.0803 13.5635,60.0413 13.9815,49.7313 C14.7905,29.7803 31.6295,13.8483 52.1515,14.8083 C74.4725,15.8533 90.2175,36.3963 86.4495,57.4143 L86.4495,57.4143 Z" id="Fill-4" fill="#FFFFFF"></path>
                <path d="M65.986,76.0996 L84.715,76.0996" id="Stroke-6" stroke="#FFFFFF" stroke-width="2.571" stroke-linecap="round"></path>
                <path d="M72.7614,76.1138 C72.7614,77.3328 71.7734,78.3208 70.5544,78.3208 C69.3354,78.3208 68.3474,77.3328 68.3474,76.1138 C68.3474,74.8948 69.3354,73.9068 70.5544,73.9068 C71.7734,73.9068 72.7614,74.8948 72.7614,76.1138" id="Fill-8" fill="#38B0DE"></path>
                <path d="M72.7614,76.1138 C72.7614,77.3328 71.7734,78.3208 70.5544,78.3208 C69.3354,78.3208 68.3474,77.3328 68.3474,76.1138 C68.3474,74.8948 69.3354,73.9068 70.5544,73.9068 C71.7734,73.9068 72.7614,74.8948 72.7614,76.1138 Z" id="Stroke-10" stroke="#FFFFFF" stroke-width="0.857"></path>
                <path d="M65.986,67.6377 L84.715,67.6377" id="Stroke-12" stroke="#FFFFFF" stroke-width="2.571" stroke-linecap="round"></path>
                <path d="M74.9685,67.6523 C74.9685,68.8713 73.9805,69.8593 72.7615,69.8593 C71.5425,69.8593 70.5545,68.8713 70.5545,67.6523 C70.5545,66.4333 71.5425,65.4443 72.7615,65.4443 C73.9805,65.4443 74.9685,66.4333 74.9685,67.6523" id="Fill-14" fill="#38B0DE"></path>
                <path d="M74.9685,67.6523 C74.9685,68.8713 73.9805,69.8593 72.7615,69.8593 C71.5425,69.8593 70.5545,68.8713 70.5545,67.6523 C70.5545,66.4333 71.5425,65.4443 72.7615,65.4443 C73.9805,65.4443 74.9685,66.4333 74.9685,67.6523 Z" id="Stroke-16" stroke="#FFFFFF" stroke-width="0.857"></path>
                <path d="M65.986,84.561 L84.715,84.561" id="Stroke-18" stroke="#FFFFFF" stroke-width="2.571" stroke-linecap="round"></path>
                <path d="M78.5944,84.5757 C78.5944,85.7947 77.6064,86.7827 76.3874,86.7827 C75.1684,86.7827 74.1804,85.7947 74.1804,84.5757 C74.1804,83.3567 75.1684,82.3687 76.3874,82.3687 C77.6064,82.3687 78.5944,83.3567 78.5944,84.5757" id="Fill-20" fill="#38B0DE"></path>
                <path d="M78.5944,84.5757 C78.5944,85.7947 77.6064,86.7827 76.3874,86.7827 C75.1684,86.7827 74.1804,85.7947 74.1804,84.5757 C74.1804,83.3567 75.1684,82.3687 76.3874,82.3687 C77.6064,82.3687 78.5944,83.3567 78.5944,84.5757 Z" id="Stroke-22" stroke="#FFFFFF" stroke-width="0.857"></path>
            </g>
        </g>
    </g>
</svg>