<svg xmlns="http://www.w3.org/2000/svg" viewBox="0 0 102.68 116.08"><defs><style>.a{fill:#fff;stroke:#646364;stroke-miterlimit:10;stroke-width:2px;}.b{fill:#714696;}</style></defs><title>journey archs</title><ellipse class="a" cx="52.68" cy="63.34" rx="50" ry="49.87"/><path class="b" d="M84.06,41.55h0c0-.2-.2-.41-.2-.61L73.64,31.52c-.2,0-.2-.2-.4-.2H52a.94.94,0,0,0-1,1v3a1,1,0,0,0,2,0v-2H71.84v8.42a.94.94,0,0,0,1,1h9.22V68.81H68.23a1,1,0,0,0,0,2H83.06a.94.94,0,0,0,1-1V41.55Zm-10.22-.81V34.53l6.82,6.21Z"/><path class="b" d="M77.05,93.66,59.61,76.22A22.84,22.84,0,0,0,58,44a22.59,22.59,0,0,0-32.08,1.4A22.85,22.85,0,0,0,58.21,77.63L75.65,95.07a1,1,0,0,0,1.4,0,1,1,0,0,0,0-1.41ZM21.92,60.79A20.75,20.75,0,1,1,42.77,81.64,21,21,0,0,1,21.92,60.79Z"/><path class="b" d="M52.39,50.77h0a3.61,3.61,0,0,0-4.21-2.61A2.88,2.88,0,0,0,46,50a4,4,0,0,0-.4,2.61L39,56.38a3.55,3.55,0,1,0-4.81,5.21,3.62,3.62,0,0,0,3.21.8l3.41,5.82-.61.6a3.56,3.56,0,0,0,1.21,4.81,3,3,0,0,0,1.8.4,1.8,1.8,0,0,0,1-.2A3.5,3.5,0,1,0,42.57,67l-3.41-5.61A3.45,3.45,0,0,0,40,58l6.62-3.81a3.46,3.46,0,0,0,5.81-3.4ZM36.56,60.59A1.61,1.61,0,1,1,38.16,59,1.72,1.72,0,0,1,36.56,60.59ZM42,69.81a1.61,1.61,0,0,1,2.2-.6h0a1.61,1.61,0,1,1-2.2.6Zm8.22-17.44a1.62,1.62,0,0,1-2.81-1.6,1.6,1.6,0,0,1,2.21-.6,2,2,0,0,1,.8,1C50.59,51.57,50.59,52.17,50.19,52.37Z"/></svg>