<svg version="1.1" xmlns="http://www.w3.org/2000/svg" xmlns:xlink="http://www.w3.org/1999/xlink" preserveAspectRatio="xMidYMid meet" viewBox="0 0 640 640" width="640" height="640"><defs><path d="M319.64 632.68C146.03 632.68 5.31 492.55 5.31 319.7C5.31 146.84 146.03 6.72 319.64 6.72C493.24 6.72 633.97 146.84 633.97 319.7C633.97 492.55 493.24 632.68 319.64 632.68Z" id="g2UhcC9Ey"/><path d="M319.64 632.68C146.03 632.68 5.31 492.55 5.31 319.7C5.31 146.84 146.03 6.72 319.64 6.72C493.24 6.72 633.97 146.84 633.97 319.7C633.97 492.55 493.24 632.68 319.64 632.68Z" id="cVsBRsVs6"/><path d="M121.93 477.6L121.93 161.7L517.04 161.7L517.04 477.6L121.93 477.6ZM135.41 464.74L503.55 464.74L503.88 392.02L135.41 392.02L135.41 464.74ZM135.41 379.16L503.55 379.16L503.88 313.32L135.41 313.32L135.41 379.16ZM135.41 300.16L503.55 300.16L503.88 227.53L135.41 227.53L135.41 300.16Z" id="a6NsI2RrpV"/><path d="M121.93 477.6L121.93 161.7L517.04 161.7L517.04 477.6L121.93 477.6ZM135.41 464.74L503.55 464.74L503.88 392.02L135.41 392.02L135.41 464.74ZM135.41 379.16L503.55 379.16L503.88 313.32L135.41 313.32L135.41 379.16ZM135.41 300.16L503.55 300.16L503.88 227.53L135.41 227.53L135.41 300.16Z" id="coUw95rL3"/></defs><g><g><g><use xlink:href="#g2UhcC9Ey" opacity="1" fill="#196970" fill-opacity="1"/><g><use xlink:href="#g2UhcC9Ey" opacity="1" fill-opacity="0" stroke="#000000" stroke-width="1" stroke-opacity="0"/></g></g><g><use xlink:href="#cVsBRsVs6" opacity="1" fill="#000000" fill-opacity="0"/><g><use xlink:href="#cVsBRsVs6" opacity="1" fill-opacity="0" stroke="#000000" stroke-width="1" stroke-opacity="0"/></g></g><g><use xlink:href="#a6NsI2RrpV" opacity="1" fill="#ffffff" fill-opacity="1"/><g><use xlink:href="#a6NsI2RrpV" opacity="1" fill-opacity="0" stroke="#000000" stroke-width="1" stroke-opacity="0"/></g></g><g><use xlink:href="#coUw95rL3" opacity="1" fill="#000000" fill-opacity="0"/><g><use xlink:href="#coUw95rL3" opacity="1" fill-opacity="0" stroke="#000000" stroke-width="1" stroke-opacity="0"/></g></g></g></g></svg>