<svg version="1.1" xmlns="http://www.w3.org/2000/svg" xmlns:xlink="http://www.w3.org/1999/xlink" preserveAspectRatio="xMidYMid meet" viewBox="0 0 640 640" width="640" height="640"><defs><path d="M319.73 633.34C145.86 633.34 4.91 492.86 4.91 319.55C4.91 146.25 145.86 5.77 319.73 5.77C493.61 5.77 634.56 146.25 634.56 319.55C634.56 492.86 493.61 633.34 319.73 633.34Z" id="kbLTD6fWd"/><path d="M319.73 633.34C145.86 633.34 4.91 492.86 4.91 319.55C4.91 146.25 145.86 5.77 319.73 5.77C493.61 5.77 634.56 146.25 634.56 319.55C634.56 492.86 493.61 633.34 319.73 633.34Z" id="e1D46kogf6"/><path d="M295.09 148.67L300.56 149.23L305.97 150L311.29 150.99L316.55 152.16L321.72 153.55L326.81 155.13L331.82 156.91L336.73 158.87L341.53 161.02L346.25 163.35L350.85 165.85L355.35 168.53L359.74 171.37L364 174.36L368.13 177.53L372.15 180.84L376.03 184.3L379.78 187.9L383.39 191.65L386.85 195.54L390.16 199.55L393.32 203.7L396.33 207.96L399.17 212.35L401.84 216.85L404.35 221.45L406.68 226.15L408.82 230.97L410.78 235.88L412.55 240.88L414.13 245.98L415.53 251.15L416.71 256.4L417.7 261.73L418.46 267.13L419.01 272.59L419.35 278.12L419.47 283.7L419.35 289.28L419.01 294.81L418.46 300.28L417.7 305.68L416.71 311L415.53 316.26L414.13 321.44L412.55 326.52L410.78 331.53L408.82 336.44L406.68 341.25L404.35 345.97L401.84 350.57L399.17 355.07L396.33 359.45L393.32 363.72L390.16 367.85L386.85 371.87L383.39 375.75L379.78 379.5L376.03 383.11L372.15 386.56L368.13 389.88L364 393.04L359.74 396.05L355.35 398.89L350.85 401.56L346.25 404.06L341.53 406.39L336.73 408.53L331.82 410.5L326.81 412.27L321.72 413.85L316.55 415.24L311.29 416.43L305.97 417.41L300.56 418.17L295.09 418.73L289.57 419.07L283.98 419.19L278.4 419.07L272.88 418.73L267.41 418.17L262.02 417.41L256.68 416.43L251.44 415.24L246.26 413.85L241.16 412.27L236.17 410.5L231.26 408.53L226.43 406.39L221.73 404.06L217.13 401.56L212.63 398.89L208.25 396.05L203.98 393.04L199.84 389.88L195.82 386.56L191.94 383.11L188.18 379.5L184.58 375.75L181.12 371.87L177.81 367.85L174.64 363.72L171.65 359.45L168.81 355.07L166.13 350.57L163.64 345.97L161.31 341.25L159.15 336.44L157.19 331.53L155.42 326.52L153.83 321.44L152.44 316.26L151.27 311L150.29 305.68L149.51 300.28L148.95 294.81L148.62 289.28L148.51 283.7L148.62 278.12L148.95 272.59L149.51 267.13L150.29 261.73L151.27 256.4L152.44 251.15L153.83 245.98L155.42 240.88L157.19 235.88L159.15 230.97L161.31 226.15L163.64 221.45L166.13 216.85L168.81 212.35L171.65 207.96L174.64 203.7L177.81 199.55L181.12 195.54L184.58 191.65L188.18 187.9L191.94 184.3L195.82 180.84L199.84 177.53L203.98 174.36L208.25 171.37L212.63 168.53L217.13 165.85L221.73 163.35L226.43 161.02L231.26 158.87L236.17 156.91L241.16 155.13L246.26 153.55L251.44 152.16L256.68 150.99L262.02 150L267.41 149.23L272.88 148.67L278.4 148.33L283.98 148.23L289.57 148.33L295.09 148.67ZM274.68 173.2L270.21 173.66L265.8 174.29L261.43 175.09L257.14 176.08L252.9 177.2L248.74 178.51L244.65 179.96L240.62 181.57L236.69 183.34L232.84 185.25L229.07 187.3L225.39 189.48L221.8 191.81L218.32 194.28L214.93 196.87L211.65 199.58L208.47 202.42L205.4 205.37L202.46 208.45L199.63 211.63L196.92 214.91L194.34 218.3L191.88 221.8L189.56 225.39L187.38 229.07L185.33 232.83L183.42 236.7L181.68 240.64L180.07 244.66L178.62 248.75L177.33 252.93L176.2 257.16L175.23 261.45L174.44 265.82L173.81 270.25L173.35 274.72L173.09 279.23L173 283.8L173.09 288.38L173.38 292.9L173.84 297.37L174.47 301.8L175.27 306.15L176.24 310.45L177.38 314.68L178.69 318.84L180.14 322.95L181.75 326.96L183.51 330.9L185.43 334.76L187.48 338.53L189.66 342.2L192 345.78L194.46 349.27L197.05 352.67L199.76 355.95L202.59 359.12L205.55 362.18L208.61 365.14L211.79 367.97L215.09 370.68L218.48 373.26L221.98 375.7L225.57 378.04L229.25 380.22L233.01 382.26L236.88 384.16L240.83 385.92L244.84 387.52L248.93 388.97L253.11 390.26L257.34 391.39L261.64 392.35L266 393.16L270.41 393.77L274.9 394.23L279.41 394.49L283.98 394.58L288.56 394.49L293.07 394.2L297.54 393.75L301.95 393.1L306.3 392.29L310.6 391.33L314.83 390.18L318.99 388.88L323.08 387.43L327.1 385.82L331.03 384.06L334.88 382.15L338.65 380.1L342.33 377.9L345.9 375.59L349.39 373.13L352.77 370.53L356.06 367.82L359.24 364.99L362.3 362.05L365.25 358.98L368.07 355.8L370.79 352.52L373.36 349.14L375.83 345.65L378.14 342.06L380.33 338.38L382.38 334.61L384.28 330.76L386.04 326.82L387.64 322.8L389.09 318.71L390.39 314.55L391.52 310.33L392.5 306.02L393.3 301.67L393.94 297.26L394.39 292.79L394.67 288.27L394.76 283.7L394.76 283.6L394.67 279.03L394.39 274.51L393.93 270.03L393.3 265.62L392.49 261.25L391.52 256.96L390.38 252.72L389.07 248.56L387.62 244.47L386.01 240.45L384.25 236.51L382.35 232.66L380.3 228.89L378.1 225.21L375.77 221.62L373.31 218.13L370.73 214.75L368 211.47L365.17 208.29L362.21 205.22L359.15 202.28L355.97 199.45L352.67 196.74L349.29 194.16L345.8 191.7L342.21 189.38L338.52 187.2L334.75 185.15L330.89 183.26L326.95 181.5L322.92 179.89L318.83 178.43L314.66 177.15L310.42 176.02L306.13 175.05L301.76 174.26L297.35 173.63L292.88 173.19L288.35 172.91L283.78 172.82L279.21 172.92L274.68 173.2Z" id="fxOrkIznb"/><path d="M295.09 148.67L300.56 149.23L305.97 150L311.29 150.99L316.55 152.16L321.72 153.55L326.81 155.13L331.82 156.91L336.73 158.87L341.53 161.02L346.25 163.35L350.85 165.85L355.35 168.53L359.74 171.37L364 174.36L368.13 177.53L372.15 180.84L376.03 184.3L379.78 187.9L383.39 191.65L386.85 195.54L390.16 199.55L393.32 203.7L396.33 207.96L399.17 212.35L401.84 216.85L404.35 221.45L406.68 226.15L408.82 230.97L410.78 235.88L412.55 240.88L414.13 245.98L415.53 251.15L416.71 256.4L417.7 261.73L418.46 267.13L419.01 272.59L419.35 278.12L419.47 283.7L419.35 289.28L419.01 294.81L418.46 300.28L417.7 305.68L416.71 311L415.53 316.26L414.13 321.44L412.55 326.52L410.78 331.53L408.82 336.44L406.68 341.25L404.35 345.97L401.84 350.57L399.17 355.07L396.33 359.45L393.32 363.72L390.16 367.85L386.85 371.87L383.39 375.75L379.78 379.5L376.03 383.11L372.15 386.56L368.13 389.88L364 393.04L359.74 396.05L355.35 398.89L350.85 401.56L346.25 404.06L341.53 406.39L336.73 408.53L331.82 410.5L326.81 412.27L321.72 413.85L316.55 415.24L311.29 416.43L305.97 417.41L300.56 418.17L295.09 418.73L289.57 419.07L283.98 419.19L278.4 419.07L272.88 418.73L267.41 418.17L262.02 417.41L256.68 416.43L251.44 415.24L246.26 413.85L241.16 412.27L236.17 410.5L231.26 408.53L226.43 406.39L221.73 404.06L217.13 401.56L212.63 398.89L208.25 396.05L203.98 393.04L199.84 389.88L195.82 386.56L191.94 383.11L188.18 379.5L184.58 375.75L181.12 371.87L177.81 367.85L174.64 363.72L171.65 359.45L168.81 355.07L166.13 350.57L163.64 345.97L161.31 341.25L159.15 336.44L157.19 331.53L155.42 326.52L153.83 321.44L152.44 316.26L151.27 311L150.29 305.68L149.51 300.28L148.95 294.81L148.62 289.28L148.51 283.7L148.62 278.12L148.95 272.59L149.51 267.13L150.29 261.73L151.27 256.4L152.44 251.15L153.83 245.98L155.42 240.88L157.19 235.88L159.15 230.97L161.31 226.15L163.64 221.45L166.13 216.85L168.81 212.35L171.65 207.96L174.64 203.7L177.81 199.55L181.12 195.54L184.58 191.65L188.18 187.9L191.94 184.3L195.82 180.84L199.84 177.53L203.98 174.36L208.25 171.37L212.63 168.53L217.13 165.85L221.73 163.35L226.43 161.02L231.26 158.87L236.17 156.91L241.16 155.13L246.26 153.55L251.44 152.16L256.68 150.99L262.02 150L267.41 149.23L272.88 148.67L278.4 148.33L283.98 148.23L289.57 148.33L295.09 148.67ZM274.68 173.2L270.21 173.66L265.8 174.29L261.43 175.09L257.14 176.08L252.9 177.2L248.74 178.51L244.65 179.96L240.62 181.57L236.69 183.34L232.84 185.25L229.07 187.3L225.39 189.48L221.8 191.81L218.32 194.28L214.93 196.87L211.65 199.58L208.47 202.42L205.4 205.37L202.46 208.45L199.63 211.63L196.92 214.91L194.34 218.3L191.88 221.8L189.56 225.39L187.38 229.07L185.33 232.83L183.42 236.7L181.68 240.64L180.07 244.66L178.62 248.75L177.33 252.93L176.2 257.16L175.23 261.45L174.44 265.82L173.81 270.25L173.35 274.72L173.09 279.23L173 283.8L173.09 288.38L173.38 292.9L173.84 297.37L174.47 301.8L175.27 306.15L176.24 310.45L177.38 314.68L178.69 318.84L180.14 322.95L181.75 326.96L183.51 330.9L185.43 334.76L187.48 338.53L189.66 342.2L192 345.78L194.46 349.27L197.05 352.67L199.76 355.95L202.59 359.12L205.55 362.18L208.61 365.14L211.79 367.97L215.09 370.68L218.48 373.26L221.98 375.7L225.57 378.04L229.25 380.22L233.01 382.26L236.88 384.16L240.83 385.92L244.84 387.52L248.93 388.97L253.11 390.26L257.34 391.39L261.64 392.35L266 393.16L270.41 393.77L274.9 394.23L279.41 394.49L283.98 394.58L288.56 394.49L293.07 394.2L297.54 393.75L301.95 393.1L306.3 392.29L310.6 391.33L314.83 390.18L318.99 388.88L323.08 387.43L327.1 385.82L331.03 384.06L334.88 382.15L338.65 380.1L342.33 377.9L345.9 375.59L349.39 373.13L352.77 370.53L356.06 367.82L359.24 364.99L362.3 362.05L365.25 358.98L368.07 355.8L370.79 352.52L373.36 349.14L375.83 345.65L378.14 342.06L380.33 338.38L382.38 334.61L384.28 330.76L386.04 326.82L387.64 322.8L389.09 318.71L390.39 314.55L391.52 310.33L392.5 306.02L393.3 301.67L393.94 297.26L394.39 292.79L394.67 288.27L394.76 283.7L394.76 283.6L394.67 279.03L394.39 274.51L393.93 270.03L393.3 265.62L392.49 261.25L391.52 256.96L390.38 252.72L389.07 248.56L387.62 244.47L386.01 240.45L384.25 236.51L382.35 232.66L380.3 228.89L378.1 225.21L375.77 221.62L373.31 218.13L370.73 214.75L368 211.47L365.17 208.29L362.21 205.22L359.15 202.28L355.97 199.45L352.67 196.74L349.29 194.16L345.8 191.7L342.21 189.38L338.52 187.2L334.75 185.15L330.89 183.26L326.95 181.5L322.92 179.89L318.83 178.43L314.66 177.15L310.42 176.02L306.13 175.05L301.76 174.26L297.35 173.63L292.88 173.19L288.35 172.91L283.78 172.82L279.21 172.92L274.68 173.2Z" id="bUwmaM60B"/><path d="M517.73 480.77L480.84 517.77L394.76 431.58L394.76 431.58L431.66 394.58L517.73 480.77Z" id="b1KyNtM6BC"/><path d="M517.73 480.77L480.84 517.77L394.76 431.58L394.76 431.58L431.66 394.58L517.73 480.77Z" id="f5z6Y6V1R5"/><path d="M382.47 394.58C382.47 401.38 387.98 406.89 394.76 406.89C401.56 406.89 407.06 401.38 407.06 394.58C407.06 387.8 401.56 382.29 394.76 382.29C387.98 382.29 382.47 387.8 382.47 394.58Z" id="cHwZYR532"/><path d="M382.47 394.58C382.47 401.38 387.98 406.89 394.76 406.89C401.56 406.89 407.06 401.38 407.06 394.58C407.06 387.8 401.56 382.29 394.76 382.29C387.98 382.29 382.47 387.8 382.47 394.58Z" id="ay6P4cPc8"/></defs><g><g><g><use xlink:href="#kbLTD6fWd" opacity="1" fill="#196970" fill-opacity="1"/><g><use xlink:href="#kbLTD6fWd" opacity="1" fill-opacity="0" stroke="#000000" stroke-width="1" stroke-opacity="0"/></g></g><g><use xlink:href="#e1D46kogf6" opacity="1" fill="#000000" fill-opacity="0"/><g><use xlink:href="#e1D46kogf6" opacity="1" fill-opacity="0" stroke="#000000" stroke-width="1" stroke-opacity="0"/></g></g><g><use xlink:href="#fxOrkIznb" opacity="1" fill="#ffffff" fill-opacity="1"/><g><use xlink:href="#fxOrkIznb" opacity="1" fill-opacity="0" stroke="#000000" stroke-width="1" stroke-opacity="0"/></g></g><g><use xlink:href="#bUwmaM60B" opacity="1" fill="#000000" fill-opacity="0"/><g><use xlink:href="#bUwmaM60B" opacity="1" fill-opacity="0" stroke="#000000" stroke-width="1" stroke-opacity="0"/></g></g><g><use xlink:href="#b1KyNtM6BC" opacity="1" fill="#ffffff" fill-opacity="1"/><g><use xlink:href="#b1KyNtM6BC" opacity="1" fill-opacity="0" stroke="#000000" stroke-width="1" stroke-opacity="0"/></g></g><g><use xlink:href="#f5z6Y6V1R5" opacity="1" fill="#000000" fill-opacity="0"/><g><use xlink:href="#f5z6Y6V1R5" opacity="1" fill-opacity="0" stroke="#000000" stroke-width="1" stroke-opacity="0"/></g></g><g><use xlink:href="#cHwZYR532" opacity="1" fill="#ffffff" fill-opacity="1"/><g><use xlink:href="#cHwZYR532" opacity="1" fill-opacity="0" stroke="#000000" stroke-width="1" stroke-opacity="0"/></g></g><g><use xlink:href="#ay6P4cPc8" opacity="1" fill="#000000" fill-opacity="0"/><g><use xlink:href="#ay6P4cPc8" opacity="1" fill-opacity="0" stroke="#000000" stroke-width="1" stroke-opacity="0"/></g></g></g></g></svg>