<?xml version="1.0" encoding="UTF-8"?>
<svg width="109px" height="108px" viewBox="0 0 109 108" version="1.1" xmlns="http://www.w3.org/2000/svg" xmlns:xlink="http://www.w3.org/1999/xlink">
    <!-- Generator: Sketch 53 (72520) - https://sketchapp.com -->
    <title>Group 10</title>
    <desc>Created with Sketch.</desc>
    <defs>
        <polygon id="path-1" points="0.0003 0.3521 108 0.3521 108 108 0.0003 108"></polygon>
    </defs>
    <g id="Page-1" stroke="none" stroke-width="1" fill="none" fill-rule="evenodd">
        <g id="Network-Icons" transform="translate(-1074.000000, -475.000000)">
            <g id="Group-10" transform="translate(1074.421875, 474.000000)">
                <g id="Group-3" transform="translate(0.000000, 0.648000)">
                    <mask id="mask-2" fill="white">
                        <use xlink:href="#path-1"></use>
                    </mask>
                    <g id="Clip-2"></g>
                    <path d="M108.0003,54.1761 C108.0003,83.9021 83.8233,108.0001 54.0003,108.0001 C24.1773,108.0001 0.0003,83.9021 0.0003,54.1761 C0.0003,24.4501 24.1773,0.3521 54.0003,0.3521 C83.8233,0.3521 108.0003,24.4501 108.0003,54.1761" id="Fill-1" fill="#E02533" mask="url(#mask-2)"></path>
                </g>
                <path d="M29.0152,29.2123 L29.0122,29.2123 C28.8512,29.0213 28.7992,28.8463 28.8082,28.6813 C28.8582,28.8763 28.9272,29.0563 29.0152,29.2123 L29.0152,29.2123 Z M55.5392,50.2033 C55.5592,50.2233 55.5762,50.2443 55.5962,50.2653 C55.5712,50.2793 55.5512,50.2873 55.5262,50.3033 C55.5312,50.2693 55.5342,50.2363 55.5392,50.2033 L55.5392,50.2033 Z M23.5922,17.8053 C23.5752,22.2023 23.7222,26.6053 23.5252,30.9933 C23.4232,33.2403 24.2732,34.6873 25.9972,35.8453 C27.0702,36.9673 28.0962,38.1413 29.2312,39.1963 C30.1922,40.0873 30.5452,41.0833 30.5402,42.3913 C30.5012,53.7383 30.5002,65.0853 30.5412,76.4333 C30.5462,77.8533 27.3482,82.0093 27.2092,82.1263 C24.7332,84.2253 23.2532,93.3163 23.8922,93.3863 C23.9952,93.3763 24.1002,93.3683 24.2042,93.3593 C24.5022,93.3553 24.8002,93.3523 25.0982,93.3483 C26.3022,93.3473 27.5062,93.3463 28.7102,93.3463 C29.4132,93.3463 30.1162,93.3463 30.8192,93.3473 C31.6232,93.3473 32.4272,93.3463 33.2312,93.3473 L33.2312,93.3463 C37.2482,93.3473 41.2652,93.3473 45.2822,93.3473 L46.1882,93.3443 L47.3922,93.3473 C47.4962,93.3433 47.6012,93.3393 47.7052,93.3353 C47.7042,93.3353 47.7042,93.3353 47.7042,93.3353 C47.7042,93.3353 47.7052,93.3353 47.7052,93.3353 L48.6102,93.3473 C48.9082,93.3453 49.2052,93.3433 49.5032,93.3403 C49.8042,93.3393 50.1042,93.3383 50.4042,93.3373 C50.9062,93.3373 51.4082,93.3373 51.9102,93.3363 C52.2112,93.3363 52.5122,93.3373 52.8132,93.3373 L53.4192,93.3373 L53.7222,93.3373 L54.0242,93.3373 C54.1232,93.3373 54.2222,93.3383 54.3212,93.3383 C54.4212,93.3383 54.5222,93.3383 54.6212,93.3383 L54.9232,93.3363 L56.7322,93.3363 C57.2332,93.3383 57.7342,93.3393 58.2362,93.3403 C58.5342,93.3393 58.8332,93.3383 59.1312,93.3383 C59.2322,93.3423 59.3312,93.3473 59.4322,93.3523 C59.6352,93.3463 59.8382,93.3403 60.0412,93.3353 C60.1422,93.3363 60.2432,93.3383 60.3452,93.3393 C60.8482,93.3383 61.3512,93.3383 61.8532,93.3373 C62.3552,93.3373 62.8582,93.3373 63.3592,93.3373 L63.3592,93.3373 C69.2842,93.3373 75.2092,93.3373 81.1352,93.3373 C81.6372,93.3373 83.2382,93.3323 83.2382,93.3323 C83.2382,93.3323 83.4242,93.3723 83.5202,93.3663 C84.7202,93.0063 84.3072,87.2993 83.4702,85.6223 C83.1362,84.9523 82.3252,84.1313 80.6872,82.4993 C79.7322,81.5473 77.7702,79.8933 77.7702,79.8933 C77.7702,79.8933 76.8982,78.1183 76.9002,77.2703 C76.9282,65.5293 76.9272,53.7873 76.9032,42.0463 C76.9012,41.1753 77.1412,40.5363 77.7712,39.9273 C79.7212,38.0463 81.5952,36.0873 83.5482,34.2103 C84.2202,33.5643 84.4822,32.8883 84.4742,31.9613 C84.4362,27.1953 84.4612,22.4283 84.4482,17.6613 C84.4462,17.1873 84.6402,16.6413 84.1372,16.2683 L75.8002,16.3063 C74.9332,17.2533 75.3932,18.4133 75.4482,19.4273 C75.5682,21.6113 74.7742,23.2073 72.9842,24.3733 C72.2112,24.6683 71.3992,24.6533 70.5912,24.6853 C68.2112,23.7623 67.3842,22.4703 67.2812,19.9083 C67.2342,18.7173 67.7122,17.4583 66.9542,16.3283 C66.7582,16.3213 66.5622,16.3143 66.3662,16.3083 L62.1542,16.3083 L59.7432,16.3083 C59.5442,16.3083 59.3452,16.3093 59.1462,16.3103 C59.0472,16.3143 58.9492,16.3173 58.8522,16.3213 C58.0992,16.3293 58.3162,16.9083 58.3052,17.3053 C58.2732,18.5563 58.2682,19.8083 58.2712,21.0603 C58.2742,22.3253 57.6872,23.3153 56.6872,23.9743 C55.1752,24.9693 53.4512,25.1513 51.8102,24.4513 C50.1582,23.7483 49.3802,22.2703 49.2562,20.5053 C49.1822,19.4593 49.2582,18.4033 49.2272,17.3523 C49.2162,16.9963 49.4362,16.5243 48.8952,16.3253 C47.4892,16.3193 46.0842,16.3133 44.6792,16.3073 C44.2772,16.3073 43.8762,16.3063 43.4762,16.3063 C42.7742,16.3053 42.0712,16.3053 41.3692,16.3043 C41.2702,16.3023 41.1712,16.3003 41.0712,16.2983 C40.3542,16.3273 40.5152,16.8773 40.5072,17.2933 C40.4862,18.4443 40.5242,19.5973 40.4842,20.7483 C40.4132,22.8513 38.8722,24.5193 36.8852,24.6963 C34.5122,24.9083 32.8682,23.7533 32.2782,21.5663 C31.9432,20.3263 32.1212,19.0793 32.0262,17.8383 C31.9882,17.3363 32.3342,16.7233 31.6992,16.3453 L30.2172,16.3043 C28.4092,16.3063 26.6032,16.3073 24.7962,16.3083 C24.6062,16.3083 24.4142,16.3093 24.2232,16.3093 L23.8982,16.2623 C23.3772,16.6913 23.5942,17.2843 23.5922,17.8053 L23.5922,17.8053 Z" id="Fill-4" fill="#FFFFFF"></path>
                <path d="M48.3216,93.8719 L59.6776,93.8719 L59.6776,77.1039 C59.1836,74.3689 56.7796,72.3609 54.0006,72.3609 C51.2206,72.3609 48.8166,74.3689 48.3216,77.1039 L48.3216,93.8719 Z" id="Fill-6" fill="#E02533"></path>
                <path d="M49.4896,61.8216 L58.5106,61.8216 L58.5106,53.5066 C58.3286,53.2786 56.6466,51.2356 53.8326,51.3176 C51.2186,51.3936 49.6996,53.2416 49.4896,53.5066 L49.4896,61.8216 Z" id="Fill-8" fill="#E02533"></path>
            </g>
        </g>
    </g>
</svg>