<svg xmlns="http://www.w3.org/2000/svg" viewBox="0 0 62.2 59.75"><defs><style>.a,.d{fill:#335e80;}.b,.c{fill:#fff;}.c,.d{stroke:#335e80;stroke-miterlimit:10;stroke-width:0.74px;}</style></defs><title>Cognitive SOURCE FILES</title><circle class="a" cx="31.17" cy="30.67" r="27.5"/><ellipse class="b" cx="31.17" cy="20.47" rx="11.1" ry="4.7"/><path class="b" d="M42.77,22.17c-.6,2.5-5.5,4.4-11.6,4.4s-11-1.9-11.6-4.4h-.1v18.4h0c0,2.7,5.2,4.9,11.6,4.9s11.6-2.2,11.6-4.9l.1-18.4Z"/><path class="c" d="M28.17,39.17l8.4-5.4h0l-1.1-.9,1.7-1.1a2.88,2.88,0,0,1-.1-1.3c.2-3.1,3.9-5.4,8.1-5.3s7.5,2.8,7.3,5.9-3.9,5.4-8.1,5.3a16,16,0,0,1-2.3-.3l-1.5,1-.7-.6-2.1,1.4-1.9-.1-.1,1.4-1.9-.1-.1,1.4-1.9-.1-.1,1.4-.5.2-3.3-.1Z"/><circle class="d" cx="44.57" cy="30.67" r="2"/></svg>