<svg xmlns="http://www.w3.org/2000/svg" viewBox="0 0 108.22 112.03"><defs><style>.a{fill:#fff;stroke:#4177bb;stroke-miterlimit:10;stroke-width:2px;}.b{fill:#714495;}</style></defs><title>journey archs</title><ellipse class="a" cx="55.8" cy="57.81" rx="50" ry="49.87"/><path class="b" d="M21.45,68.69v-15c0-1.2.28-1.48,1.5-1.48H48.44c1.16,0,1.49.32,1.49,1.51V83.81c0,1.22-.21,1.42-1.41,1.42H23c-1.43,0-1.57-.14-1.57-1.54Zm1.85,0c0,4.6,0,9.19,0,13.79,0,.8.17,1.06,1,1.06q11.4-.06,22.79,0c.86,0,1-.28,1-1.07q0-13.68,0-27.38c0-.79-.15-1.07-1-1.07q-11.38.06-22.78,0c-.87,0-1,.29-1,1.08C23.31,59.64,23.3,64.17,23.3,68.7Z"/><path class="b" d="M46.67,29.31a2.27,2.27,0,0,0-.75-.95c-1.72-1.74-3.45-3.46-5.18-5.18-.41-.41-.54-.87-.12-1.31a.84.84,0,0,1,1.32.06q3.7,3.72,7.43,7.43a1.1,1.1,0,0,1,0,1.73c-2.5,2.49-4.93,5.06-7.54,7.44a.69.69,0,0,1-1.13,0,.89.89,0,0,1,.08-1.39c1.77-1.77,3.54-3.53,5.3-5.31.21-.21.5-.37.58-.72-.25-.19-.54-.09-.8-.09q-7.36,0-14.73,0a3.35,3.35,0,0,0-3.66,3.66V44.8a3.79,3.79,0,0,1,0,.83.84.84,0,0,1-1,.72.77.77,0,0,1-.7-.85V43.81c0-3.25,0-6.5,0-9.75a4.82,4.82,0,0,1,4.79-4.75Z"/><path class="b" d="M75.81,75.07H67.48c-1.11,0-1.39-.28-1.39-1.37,0-1.41,0-2.81,0-4.22,0-1,.29-1.31,1.26-1.31q8.52,0,17,0c1,0,1.35.38,1.36,1.37,0,1.37,0,2.74,0,4.12,0,1-.37,1.4-1.41,1.41C81.5,75.08,78.65,75.07,75.81,75.07ZM75.94,70H69.86c-2.08,0-2,0-2.1,2.12,0,.83.18,1.12,1.07,1.11,4.28,0,8.55,0,12.82,0,2.3,0,2.26,0,2.29-2.31,0-.78-.29-.93-1-.91C80.62,70,78.28,70,75.94,70Z"/><path class="b" d="M75.84,36.84h8.34c1.23,0,1.43.2,1.43,1.39v4.13c0,1.2-.19,1.38-1.43,1.38H67.4c-1.09,0-1.31-.23-1.31-1.32,0-1.37,0-2.74,0-4.12,0-1.2.27-1.46,1.5-1.46Zm0,5.06h5.9c2.17,0,2.13,0,2.18-2.13,0-.83-.18-1.11-1.07-1.1-4.27,0-8.55,0-12.82,0-2.29,0-2.25,0-2.28,2.31,0,.79.29.92,1,.91C71.11,41.88,73.48,41.9,75.85,41.9Z"/><path class="b" d="M75.83,47.32h8.53c1.08,0,1.25.17,1.25,1.25,0,1.5,0,3,0,4.5,0,.82-.3,1.19-1.15,1.19H67.33c-.86,0-1.26-.37-1.25-1.24q0-2.3,0-4.59c0-.81.35-1.12,1.13-1.11Zm-.09,5.06h5.71c2.51,0,2.48,0,2.48-2.48,0-.73-.24-.89-.92-.88-4.24,0-8.48,0-12.72,0-2.57,0-2.54,0-2.53,2.53,0,.68.24.84.87.83C71,52.36,73.37,52.38,75.74,52.38Z"/><path class="b" d="M64.87,33.27c-2.13,0-4.25,0-6.37,0-.87,0-1.27-.29-1.25-1.19,0-1.47,0-2.94,0-4.41,0-.82.28-1.19,1.14-1.19q6.47,0,12.93,0c.78,0,1.15.29,1.14,1.1q0,2.3,0,4.59c0,.81-.37,1.1-1.14,1.09C69.17,33.25,67,33.27,64.87,33.27Zm-.08-1.72h3.65c2.36,0,2.33,0,2.34-2.31,0-.7-.21-.91-.91-.9-2.84,0-5.69,0-8.53,0-2.49,0-2.46,0-2.4,2.49,0,.6.24.73.78.72C61.41,31.54,63.1,31.55,64.79,31.55Z"/><path class="b" d="M64.92,57.82c2.09,0,4.19,0,6.28,0,.89,0,1.27.34,1.26,1.21,0,1.46,0,2.93,0,4.4,0,.83-.41,1.17-1.22,1.17q-6.37,0-12.75,0c-.83,0-1.27-.31-1.24-1.22,0-1.44,0-2.88,0-4.31,0-1.07.17-1.23,1.28-1.23Zm-.11,5.06h3.46c2.54,0,2.52,0,2.51-2.54,0-.68-.23-.84-.86-.84q-5.06,0-10.1,0c-.62,0-.93.12-.87.81a10.58,10.58,0,0,1,0,1.78c-.05.63.2.8.81.79C61.44,62.86,63.12,62.88,64.81,62.88Z"/><path class="b" d="M35.7,77.13c-2.43,0-4.87,0-7.3,0a4.13,4.13,0,0,1-.93-.08.83.83,0,0,1-.69-.88.91.91,0,0,1,.84-.87,4.68,4.68,0,0,1,.65,0H43.16c.71,0,1.44.1,1.43.95s-.72.9-1.39.9Z"/><path class="b" d="M35.56,69.64c-2.5,0-5,0-7.5,0-.69,0-1.26-.21-1.27-.92s.6-.94,1.26-.94H43.33c.64,0,1.22.13,1.19,1s-.59.87-1.18.87Z"/><path class="b" d="M35.7,62.13H28c-.64,0-1.13-.13-1.16-.89,0-.42.11-.74.58-.81a12.12,12.12,0,0,1,1.21-.15H42.51c.43,0,.87.11,1.3.14a.67.67,0,0,1,.72.69.79.79,0,0,1-.6.93,4,4,0,0,1-.92.08Z"/></svg>