<?xml version="1.0" encoding="UTF-8"?>
<svg width="109px" height="108px" viewBox="0 0 109 108" version="1.1" xmlns="http://www.w3.org/2000/svg" xmlns:xlink="http://www.w3.org/1999/xlink">
    <!-- Generator: Sketch 53 (72520) - https://sketchapp.com -->
    <title>Group 18</title>
    <desc>Created with Sketch.</desc>
    <defs>
        <polygon id="path-1" points="0.0003 0.352 108 0.352 108 107.9997 0.0003 107.9997"></polygon>
    </defs>
    <g id="Page-1" stroke="none" stroke-width="1" fill="none" fill-rule="evenodd">
        <g id="Network-Icons" transform="translate(-518.000000, -886.000000)">
            <g id="Group-18" transform="translate(518.355469, 885.000000)">
                <g id="Group-3" transform="translate(0.000000, 0.648000)">
                    <mask id="mask-2" fill="white">
                        <use xlink:href="#path-1"></use>
                    </mask>
                    <g id="Clip-2"></g>
                    <path d="M108.0003,54.1757 C108.0003,83.9027 83.8233,107.9997 54.0003,107.9997 C24.1773,107.9997 0.0003,83.9027 0.0003,54.1757 C0.0003,24.4497 24.1773,0.3517 54.0003,0.3517 C83.8233,0.3517 108.0003,24.4497 108.0003,54.1757" id="Fill-1" fill="#38B0DE" mask="url(#mask-2)"></path>
                </g>
                <path d="M38.1478,50.418 C35.5518,50.401 33.7168,52.181 33.7068,54.726 C33.6948,57.303 35.4888,59.142 38.0408,59.168 C40.5658,59.194 42.5028,57.317 42.5078,54.84 C42.5118,52.305 40.6688,50.435 38.1478,50.418 L38.1478,50.418 Z M67.7688,70.913 C65.3508,70.933 63.2878,73.017 63.3298,75.399 C63.3718,77.814 65.4698,79.884 67.8388,79.849 C70.2118,79.813 72.3538,77.647 72.3078,75.332 C72.2598,72.941 70.1568,70.893 67.7688,70.913 L67.7688,70.913 Z M67.7748,38.643 C70.1868,38.655 72.2698,36.649 72.3088,34.275 C72.3488,31.855 70.1558,29.658 67.7428,29.703 C65.3618,29.746 63.3098,31.84 63.3268,34.209 C63.3428,36.634 65.3458,38.63 67.7748,38.643 L67.7748,38.643 Z M61.6648,93.814 C72.2498,91.527 80.6538,86.04 87.1068,76.784 C83.0428,76.784 79.4028,76.752 75.7658,76.831 C75.3898,76.839 74.8728,77.436 74.6848,77.873 C73.4548,80.744 71.3398,82.333 68.2268,82.69 C67.7368,82.747 67.1008,83.168 66.8738,83.6 C65.1208,86.918 63.4518,90.281 61.6648,93.814 L61.6648,93.814 Z M61.6748,15.751 C63.4518,19.275 65.1068,22.645 66.8698,25.958 C67.1138,26.417 67.8578,26.787 68.4188,26.869 C70.7368,27.208 73.0418,28.113 73.7888,30.225 C74.7758,33.015 76.6188,32.896 78.7738,32.792 C79.7178,32.746 80.6668,32.784 81.6138,32.784 L87.1068,32.784 C80.6008,23.516 72.2178,18.012 61.6748,15.751 L61.6748,15.751 Z M47.2148,15.558 C35.9748,17.846 27.4108,23.369 20.8228,32.784 C26.2908,32.784 31.2718,32.684 36.2458,32.831 C38.3478,32.893 39.4008,32.459 40.0008,30.184 C41.3678,25 43.7848,20.232 47.2148,15.558 L47.2148,15.558 Z M20.8328,76.775 C27.4688,86.192 35.9928,91.753 47.2468,93.999 C43.3488,88.811 41.0638,83.333 39.3508,77.582 C39.2498,77.24 38.6748,76.812 38.3168,76.809 C32.6478,76.76 26.9788,76.775 20.8328,76.775 L20.8328,76.775 Z M42.2228,76.771 C44.0878,83.259 46.5878,89.1 51.0518,93.924 C52.0038,94.953 56.4998,94.738 57.4478,93.708 C60.6018,90.286 62.7878,86.293 64.3298,82.121 C63.3688,81.117 62.0788,80.382 61.8138,79.377 C61.0208,76.368 58.8638,76.681 56.6588,76.761 C55.2708,76.812 53.8798,76.771 52.4918,76.771 L42.2228,76.771 Z M42.1988,32.773 C48.2888,32.773 54.0228,32.785 59.7568,32.746 C60.1028,32.744 60.5558,32.424 60.7718,32.119 C61.9078,30.518 62.9838,28.874 64.4908,26.637 C62.4598,23.472 60.2018,19.783 57.7578,16.222 C56.6818,14.653 52.1198,14.475 50.8758,15.835 C46.5258,20.594 44.0928,26.341 42.1988,32.773 L42.1988,32.773 Z M72.0598,56.242 C71.7888,59.4 71.6808,62.435 71.2168,65.414 C70.8928,67.489 70.8578,69.195 73.0128,70.251 C73.2688,70.377 73.5328,70.701 73.5938,70.978 C74.3818,74.493 77.1128,73.963 79.6248,73.917 C80.7598,73.896 81.8968,73.914 83.0338,73.914 C89.3918,73.914 89.4288,73.926 91.5028,67.909 C92.7938,64.168 93.7148,60.342 93.5898,56.242 L72.0598,56.242 Z M72.1268,53.252 L93.6388,53.252 C93.5088,47.198 91.9678,41.67 89.2228,36.477 C88.9888,36.033 88.1488,35.689 87.5838,35.677 C84.0478,35.605 80.5088,35.712 76.9768,35.605 C75.5878,35.563 74.9008,35.908 74.3268,37.268 C73.8448,38.41 72.6708,39.251 71.8438,40.259 C71.4868,40.694 70.9358,41.237 70.9738,41.69 C71.2898,45.517 71.7198,49.334 72.1268,53.252 L72.1268,53.252 Z M14.3318,56.164 C14.4348,62.381 16.0018,67.994 18.8578,73.252 C19.0828,73.665 19.9948,73.877 20.5908,73.885 C24.6878,73.939 28.7858,73.914 32.8818,73.914 L38.2548,73.914 C37.7208,69.996 37.2438,66.322 36.6868,62.661 C36.6328,62.306 36.1478,61.887 35.7678,61.734 C33.5378,60.839 31.9978,59.316 31.1248,57.067 C30.9818,56.698 30.4998,56.206 30.1698,56.203 C24.9558,56.148 19.7398,56.164 14.3318,56.164 L14.3318,56.164 Z M29.9528,53.241 C30.0218,53.218 30.0878,53.19 30.1538,53.155 C30.5508,52.939 30.7828,52.518 31.0388,52.145 C32.2238,50.419 34.2628,49.457 35.5568,47.811 C37.0668,45.891 37.3708,43.319 37.6188,40.89 C37.7968,39.14 37.9758,37.391 38.1548,35.641 C32.8358,35.648 27.5158,35.655 22.1958,35.663 C21.1598,35.664 20.0518,35.687 19.1998,36.276 C18.4768,36.775 18.0608,37.601 17.7038,38.404 C16.6248,40.832 15.8108,43.372 15.2068,45.958 C14.9038,47.253 14.6538,48.561 14.4478,49.876 C14.3148,50.722 13.6718,52.6 14.6648,53.128 C15.0238,53.32 15.4508,53.325 15.8578,53.325 C20.2518,53.33 24.6468,53.335 29.0418,53.339 C29.3478,53.339 29.6658,53.337 29.9528,53.241 L29.9528,53.241 Z M69.2338,56.162 C61.2208,56.162 53.6598,56.154 46.0968,56.19 C45.7678,56.191 45.2418,56.533 45.1428,56.829 C44.2298,59.564 42.2718,61.172 39.3948,62.09 C40.0258,66.039 40.6478,69.924 41.2738,73.838 L60.5498,73.838 C61.6428,70.528 63.7748,68.398 67.4388,68.077 C67.7098,68.053 68.1178,67.519 68.1538,67.188 C68.5398,63.625 68.8628,60.055 69.2338,56.162 L69.2338,56.162 Z M39.3848,47.483 C42.1038,48.337 44.0128,49.713 44.8628,52.159 C45.2238,53.198 45.7768,53.425 46.7928,53.419 C53.7378,53.377 60.6828,53.399 67.6288,53.39 C68.0498,53.389 68.4718,53.294 69.1648,53.21 C68.8378,49.262 68.5198,45.408 68.2028,41.555 C64.4788,41.273 62.0438,39.738 60.8328,36.435 C60.6908,36.046 59.8938,35.688 59.3918,35.676 C56.4898,35.605 53.5838,35.641 50.6788,35.641 L41.2778,35.641 C40.6328,39.67 40.0188,43.512 39.3848,47.483 L39.3848,47.483 Z M56.8308,97.427 L51.1438,97.427 C49.5358,97.181 47.9188,96.975 46.3188,96.682 C22.4958,92.325 7.3768,69.221 12.2888,45.851 C16.5538,25.553 35.8358,10.129 57.8168,12.453 C75.5188,14.325 87.5948,23.896 93.9398,40.423 C95.4648,44.398 95.7708,48.843 96.6368,53.071 L96.6368,57.621 C96.5308,58.106 96.3728,58.586 96.3258,59.077 C94.6898,76.113 82.6248,90.799 66.2098,95.531 C63.1548,96.412 59.9598,96.808 56.8308,97.427 L56.8308,97.427 Z" id="Fill-4" fill="#FFFFFF"></path>
                <path d="M46.1927,54.2476 C46.1927,59.0876 42.2687,63.0116 37.4277,63.0116 C32.5887,63.0116 28.6647,59.0876 28.6647,54.2476 C28.6647,49.4076 32.5887,45.4836 37.4277,45.4836 C42.2687,45.4836 46.1927,49.4076 46.1927,54.2476" id="Fill-6" fill="#38B0DE"></path>
                <path d="M46.1927,54.2476 C46.1927,59.0876 42.2687,63.0116 37.4277,63.0116 C32.5887,63.0116 28.6647,59.0876 28.6647,54.2476 C28.6647,49.4076 32.5887,45.4836 37.4277,45.4836 C42.2687,45.4836 46.1927,49.4076 46.1927,54.2476 Z" id="Stroke-8" stroke="#FFFFFF" stroke-width="3"></path>
                <path d="M76.5824,34.1724 C76.5824,39.0124 72.6584,42.9364 67.8184,42.9364 C62.9784,42.9364 59.0554,39.0124 59.0554,34.1724 C59.0554,29.3324 62.9784,25.4084 67.8184,25.4084 C72.6584,25.4084 76.5824,29.3324 76.5824,34.1724" id="Fill-10" fill="#38B0DE"></path>
                <path d="M76.5824,34.1724 C76.5824,39.0124 72.6584,42.9364 67.8184,42.9364 C62.9784,42.9364 59.0554,39.0124 59.0554,34.1724 C59.0554,29.3324 62.9784,25.4084 67.8184,25.4084 C72.6584,25.4084 76.5824,29.3324 76.5824,34.1724 Z" id="Stroke-12" stroke="#FFFFFF" stroke-width="3"></path>
                <path d="M76.5824,75.3809 C76.5824,80.2209 72.6584,84.1449 67.8184,84.1449 C62.9784,84.1449 59.0554,80.2209 59.0554,75.3809 C59.0554,70.5409 62.9784,66.6169 67.8184,66.6169 C72.6584,66.6169 76.5824,70.5409 76.5824,75.3809" id="Fill-14" fill="#38B0DE"></path>
                <path d="M76.5824,75.3809 C76.5824,80.2209 72.6584,84.1449 67.8184,84.1449 C62.9784,84.1449 59.0554,80.2209 59.0554,75.3809 C59.0554,70.5409 62.9784,66.6169 67.8184,66.6169 C72.6584,66.6169 76.5824,70.5409 76.5824,75.3809 Z" id="Stroke-16" stroke="#FFFFFF" stroke-width="3"></path>
            </g>
        </g>
    </g>
</svg>