<?xml version="1.0" encoding="UTF-8"?>
<svg width="109px" height="109px" viewBox="0 0 109 109" version="1.1" xmlns="http://www.w3.org/2000/svg" xmlns:xlink="http://www.w3.org/1999/xlink">
    <!-- Generator: Sketch 53 (72520) - https://sketchapp.com -->
    <title>Switch Gray</title>
    <desc>Created with Sketch.</desc>
    <g id="Page-1" stroke="none" stroke-width="1" fill="none" fill-rule="evenodd">
        <g id="Network-Icons" transform="translate(-389.000000, -879.000000)">
            <g id="Switch-Gray" transform="translate(389.144531, 879.000000)">
                <rect id="Rectangle" fill="#919191" fill-rule="nonzero" x="0" y="0" width="108" height="108.8"></rect>
                <g id="Group" transform="translate(12.900000, 19.600000)">
                    <g transform="translate(40.000000, 31.000000)" id="Path">
                        <path d="M0.3,10.5 L39.4,10.5" stroke="#FFFFFF" stroke-width="4"></path>
                        <polygon fill="#FFFFFF" fill-rule="nonzero" points="31.2 20.6 29.5 18.8 38.5 10.5 29.5 2.2 31.2 0.3 42.1 10.5"></polygon>
                    </g>
                    <g transform="translate(40.000000, 0.000000)" id="Path">
                        <path d="M37.5,10.9 L0.5,10.9" stroke="#FFFFFF" stroke-width="4"></path>
                        <polygon fill="#FFFFFF" fill-rule="nonzero" points="29.3 0.7 27.6 2.6 36.5 10.9 27.6 19.2 29.3 21 40.2 10.9"></polygon>
                    </g>
                    <g transform="translate(0.000000, 48.000000)" id="Path">
                        <path d="M2.8,10.8 L40.3,10.8" stroke="#FFFFFF" stroke-width="4"></path>
                        <polygon fill="#FFFFFF" fill-rule="nonzero" points="11 20.9 12.7 19.1 3.7 10.8 12.7 2.5 11 0.7 0.1 10.8"></polygon>
                    </g>
                    <g transform="translate(0.000000, 18.000000)" id="Path">
                        <path d="M40.3,10.3 L2.8,10.3" stroke="#FFFFFF" stroke-width="4"></path>
                        <polygon fill="#FFFFFF" fill-rule="nonzero" points="11 0.2 12.7 2 3.7 10.3 12.7 18.6 11 20.4 0.1 10.3"></polygon>
                    </g>
                </g>
            </g>
        </g>
    </g>
</svg>