<svg xmlns="http://www.w3.org/2000/svg" viewBox="0 0 66.46 60.91"><defs><style>.a,.d{fill:#335e80;}.b,.c{fill:#fff;}.b,.e,.f,.g{stroke:#fff;}.b,.c,.d,.e,.f,.g{stroke-miterlimit:10;}.b{stroke-width:0.25px;}.c,.d{stroke:#335e80;stroke-width:0.34px;}.e{fill:#0eaed0;}.f{fill:#08446b;}.g{fill:#89c541;}</style></defs><title>Cognitive SOURCE FILES</title><circle class="a" cx="34.48" cy="29.72" r="27.5"/><path class="b" d="M53.08,43.72H15.88a.75.75,0,0,1-.7-.5,1,1,0,0,1,0-.9l18.6-32.2a1,1,0,0,1,.7-.5.75.75,0,0,1,.7.5l18.6,32.1c.1.2.2.3.2.5A.92.92,0,0,1,53.08,43.72Zm-35.7-1.8h34.2l-17.1-29.6Z"/><rect class="a" x="37.88" y="17.83" width="4.2" height="4.8" transform="translate(-4.76 22.7) rotate(-30)"/><path class="c" d="M34.48,22.32l6.4-4.1h0l-.8-.7,1.3-.8a3.4,3.4,0,0,1-.1-1c.2-2.3,2.9-4.1,6.2-4s5.7,2.1,5.6,4.5-2.9,4.1-6.2,4a4.67,4.67,0,0,1-1.7-.3l-1.1.7-.5-.4-1.6,1-1.4-.1-.1,1L39,22l-.1,1-1.5-.1-.1,1.1-.3.1-2.5-.1Z"/><circle class="d" cx="46.68" cy="15.42" r="1.1"/><polygon class="e" points="45.78 35.42 42.58 41.02 39.28 35.42 45.78 35.42"/><polygon class="e" points="31.18 34.62 34.48 28.92 37.78 34.62 31.18 34.62"/><polygon class="f" points="39.18 34.62 42.48 28.92 45.78 34.62 39.18 34.62"/><polygon class="g" points="41.78 28.62 38.48 34.32 35.18 28.62 41.78 28.62"/><polygon class="g" points="19.08 41.32 22.38 35.62 25.58 41.32 19.08 41.32"/><polygon class="f" points="27.18 41.32 30.48 35.62 33.68 41.32 27.18 41.32"/><polygon class="e" points="29.68 35.42 26.38 41.02 23.08 35.42 29.68 35.42"/><polygon class="f" points="35.18 41.32 38.48 35.62 41.78 41.32 35.18 41.32"/><polygon class="g" points="37.78 35.42 34.38 41.02 31.18 35.42 37.78 35.42"/><polygon class="g" points="43.38 41.32 46.58 35.62 49.88 41.32 43.38 41.32"/></svg>