<svg version="1.1" xmlns="http://www.w3.org/2000/svg" xmlns:xlink="http://www.w3.org/1999/xlink" preserveAspectRatio="xMidYMid meet" viewBox="0 0 640 640" width="640" height="640"><defs><path d="M323.06 635.4C148.02 635.4 6.11 494.11 6.11 319.82C6.11 145.54 148.02 4.25 323.06 4.25C498.09 4.25 640 145.54 640 319.82C640 494.11 498.09 635.4 323.06 635.4Z" id="m8w2BpcNp6"/><path d="M323.06 635.4C148.02 635.4 6.11 494.11 6.11 319.82C6.11 145.54 148.02 4.25 323.06 4.25C498.09 4.25 640 145.54 640 319.82C640 494.11 498.09 635.4 323.06 635.4Z" id="aejdz1V9v"/><path d="M271.48 297.39C299.92 268.9 346.06 268.86 374.55 297.3C403.04 325.74 403.09 371.89 374.65 400.39C374.62 400.41 374.58 400.44 374.55 400.48C376.66 402.58 393.44 419.36 395.53 421.45C435.41 381.62 435.46 317.02 395.64 277.13C355.82 237.25 291.2 237.21 251.32 277.02C211.45 316.85 211.39 381.46 251.21 421.34C251.26 421.38 251.28 421.42 251.32 421.45C255.37 417.26 267.51 404.67 271.56 400.48C243.07 372.03 243.02 325.89 271.48 297.39Z" id="gBrJs2b2G"/><path d="M271.48 297.39C299.92 268.9 346.06 268.86 374.55 297.3C403.04 325.74 403.09 371.89 374.65 400.39C374.62 400.41 374.58 400.44 374.55 400.48C376.66 402.58 393.44 419.36 395.53 421.45C435.41 381.62 435.46 317.02 395.64 277.13C355.82 237.25 291.2 237.21 251.32 277.02C211.45 316.85 211.39 381.46 251.21 421.34C251.26 421.38 251.28 421.42 251.32 421.45C255.37 417.26 267.51 404.67 271.56 400.48C243.07 372.03 243.02 325.89 271.48 297.39Z" id="a27dyWQhMa"/><path d="M323.06 319.82L308.48 450.92L308.48 450.92L337.63 450.92L323.06 319.82Z" id="bgjZZFm6o"/><path d="M323.06 319.82L308.48 450.92L308.48 450.92L337.63 450.92L323.06 319.82Z" id="a4VBkfM7TA"/><path d="M104.49 494.65L104.49 145L541.62 145L541.62 494.65L104.49 494.65ZM119.07 480.6L527.15 480.6L527.04 218.41L119.07 218.41L119.07 480.6Z" id="e2vvi1Gftm"/><path d="M104.49 494.65L104.49 145L541.62 145L541.62 494.65L104.49 494.65ZM119.07 480.6L527.15 480.6L527.04 218.41L119.07 218.41L119.07 480.6Z" id="d3E9qotwQs"/></defs><g><g><g><use xlink:href="#m8w2BpcNp6" opacity="1" fill="#196970" fill-opacity="1"/><g><use xlink:href="#m8w2BpcNp6" opacity="1" fill-opacity="0" stroke="#000000" stroke-width="1" stroke-opacity="0"/></g></g><g><use xlink:href="#aejdz1V9v" opacity="1" fill="#000000" fill-opacity="0"/><g><use xlink:href="#aejdz1V9v" opacity="1" fill-opacity="0" stroke="#000000" stroke-width="1" stroke-opacity="0"/></g></g><g><use xlink:href="#gBrJs2b2G" opacity="1" fill="#ffffff" fill-opacity="1"/><g><use xlink:href="#gBrJs2b2G" opacity="1" fill-opacity="0" stroke="#000000" stroke-width="1" stroke-opacity="0"/></g></g><g><use xlink:href="#a27dyWQhMa" opacity="1" fill="#000000" fill-opacity="0"/><g><use xlink:href="#a27dyWQhMa" opacity="1" fill-opacity="0" stroke="#000000" stroke-width="1" stroke-opacity="0"/></g></g><g><use xlink:href="#bgjZZFm6o" opacity="1" fill="#ffffff" fill-opacity="1"/><g><use xlink:href="#bgjZZFm6o" opacity="1" fill-opacity="0" stroke="#000000" stroke-width="1" stroke-opacity="0"/></g></g><g><use xlink:href="#a4VBkfM7TA" opacity="1" fill="#000000" fill-opacity="0"/><g><use xlink:href="#a4VBkfM7TA" opacity="1" fill-opacity="0" stroke="#000000" stroke-width="1" stroke-opacity="0"/></g></g><g><use xlink:href="#e2vvi1Gftm" opacity="1" fill="#ffffff" fill-opacity="1"/><g><use xlink:href="#e2vvi1Gftm" opacity="1" fill-opacity="0" stroke="#000000" stroke-width="1" stroke-opacity="0"/></g></g><g><use xlink:href="#d3E9qotwQs" opacity="1" fill="#000000" fill-opacity="0"/><g><use xlink:href="#d3E9qotwQs" opacity="1" fill-opacity="0" stroke="#000000" stroke-width="1" stroke-opacity="0"/></g></g></g></g></svg>