<?xml version="1.0" encoding="UTF-8"?>
<svg width="109px" height="108px" viewBox="0 0 109 108" version="1.1" xmlns="http://www.w3.org/2000/svg" xmlns:xlink="http://www.w3.org/1999/xlink">
    <!-- Generator: Sketch 53 (72520) - https://sketchapp.com -->
    <title>Object Storage</title>
    <desc>Created with Sketch.</desc>
    <g id="Page-1" stroke="none" stroke-width="1" fill="none" fill-rule="evenodd">
        <g id="Network-Icons" transform="translate(-521.000000, -275.000000)" fill-rule="nonzero">
            <g id="Object-Storage" transform="translate(521.718750, 275.000000)">
                <ellipse id="Oval" fill="#325C80" cx="54" cy="53.82" rx="54" ry="53.82"></ellipse>
                <path d="M25.15,61.65 L23.42,60.72 L16.78,57.15 C16.6068474,57.0822013 16.5032532,56.9040193 16.53,56.72 L16.53,33.72 C16.5095466,33.5368174 16.6169164,33.363374 16.79,33.3 L33.4,24.79 L44.76,18.91 L53.83,14.25 C53.9301197,14.1840659 54.0598803,14.1840659 54.16,14.25 L64.15,19.73 L64.33,19.84 L60.71,21.68 L40.96,31.68 L25.33,39.65 C25.1761794,39.7135381 25.0883737,39.8766059 25.12,40.04 C25.12,47.1266667 25.12,54.2133333 25.12,61.3 L25.15,61.65 Z" id="Path" fill="#FFFFFF"></path>
                <path d="M77.91,70.62 L77.91,70.91 C77.91,74.24 77.91,77.58 77.91,80.91 C77.9330533,81.0932862 77.8306882,81.2693542 77.66,81.34 C71.52,84.48 65.38,87.6333333 59.24,90.8 L54.42,93.31 C54.1647371,93.4505594 53.8552629,93.4505594 53.6,93.31 L36.22,84.39 L24.33,78.3 L16.8,74.44 C16.59155,74.3560283 16.464733,74.143303 16.49,73.92 C16.49,71.0466667 16.49,68.1766667 16.49,65.31 C16.49,64.98 16.49,64.97 16.79,65.12 L24.49,68.91 L40.39,76.79 L53,83.04 C53.27,83.18 53.54,83.3 53.8,83.44 C53.9287388,83.5194121 54.0912612,83.5194121 54.22,83.44 L68.06,75.91 L77.67,70.7 L77.91,70.62 Z" id="Path" fill="#FFFFFF"></path>
                <path d="M62.99,26.47 L66.86,24.35 C67.92,23.77 68.99,23.2 70.05,22.61 C70.1842456,22.5246358 70.3557544,22.5246358 70.49,22.61 L78.41,26.69 L87.41,31.34 C88.68,32 89.94,32.66 91.22,33.34 C91.4113847,33.4169339 91.5236361,33.616492 91.49,33.82 C91.49,44.9733333 91.49,56.1233333 91.49,67.27 C91.49,69.51 91.49,71.74 91.49,73.98 C91.5123943,74.1920065 91.3951424,74.3941648 91.2,74.48 L85.95,77.3 L84.47,78.11 C84.27,78.23 84.23,78.19 84.23,77.97 C84.23,75.91 84.23,73.85 84.23,71.8 C84.23,69.94 84.23,68.08 84.23,66.22 C84.23,63.5 84.23,60.78 84.29,58.06 C84.29,55.77 84.29,53.49 84.35,51.2 C84.41,48.91 84.35,46.54 84.35,44.2 C84.35,41.86 84.35,39.86 84.41,37.69 C84.4304534,37.5068174 84.3230836,37.333374 84.15,37.27 C81.6033333,35.99 79.06,34.7033333 76.52,33.41 L69.26,29.71 L63.15,26.57 L62.99,26.47 Z" id="Path" fill="#FFFFFF"></path>
                <path d="M51.03,64.63 L51.03,74.63 C51.03,74.95 51.03,74.95 50.75,74.81 L32.06,65.13 C31.8617157,65.0533066 31.7418196,64.8507236 31.77,64.64 L31.77,44.76 C31.7751263,44.7335797 31.7751263,44.7064203 31.77,44.68 C31.77,44.46 31.77,44.4 32.02,44.52 C33.31,45.2 34.61,45.87 35.91,46.52 L47.91,52.74 C48.91,53.24 49.81,53.74 50.77,54.22 C50.9249863,54.2786363 51.0199271,54.4354951 51,54.6 C51.02,57.96 51.03,61.29 51.03,64.63 Z" id="Path" fill="#FFFFFF"></path>
                <path d="M57.66,73.91 L57.66,73.54 C57.66,67.2466667 57.66,60.9633333 57.66,54.69 C57.6349694,54.4613911 57.7660368,54.2443108 57.98,54.16 L77.28,43.91 L77.53,43.78 C77.5590059,43.8608093 77.5590059,43.9491907 77.53,44.03 L77.53,63.08 C77.5558232,63.2266647 77.4770588,63.371757 77.34,63.43 L57.88,73.82 C57.8091628,73.8557723 57.7355986,73.8858668 57.66,73.91 Z" id="Path" fill="#FFFFFF"></path>
                <path d="M37.09,39.75 L38.2,39.16 L52.32,31.75 L56.43,29.58 C56.5717491,29.4957088 56.7482509,29.4957088 56.89,29.58 L71.89,37.69 L73,38.29 C73.06,38.29 73.16,38.29 73.17,38.42 C73.18,38.55 73.06,38.52 73,38.55 L69.77,40.28 L56.77,47.28 C55.92,47.73 55.07,48.18 54.23,48.64 C54.0957544,48.7253642 53.9242456,48.7253642 53.79,48.64 L42.59,42.66 L37.39,39.91 L37.09,39.75 Z" id="Path" fill="#FFFFFF"></path>
            </g>
        </g>
    </g>
</svg>