<svg xmlns="http://www.w3.org/2000/svg" viewBox="0 0 110.7 108.84"><defs><style>.a{fill:#fff;stroke:#4177bb;stroke-miterlimit:10;stroke-width:2px;}.b{fill:#714696;}</style></defs><title>journey archs</title><ellipse class="a" cx="55.7" cy="55.87" rx="50" ry="49.87"/><path class="b" d="M85.82,24.92H49.4a.87.87,0,0,0-.88.88V57.57a8.78,8.78,0,0,0-2.91-.51H29.54A8.9,8.9,0,0,0,20.66,66v7.89a8.9,8.9,0,0,0,8.88,8.91h3.13l4.48,7.75a.88.88,0,1,0,1.52-.88l-5-8.62H29.55a7.16,7.16,0,0,1-7.13-7.16V66a7.15,7.15,0,0,1,7.13-7.16H45.61a7.12,7.12,0,0,1,2.91.67V69.91a.88.88,0,0,0,.88.87h3.41v3.08A7.19,7.19,0,0,1,45.61,81H38.92a.88.88,0,1,0,0,1.75h6.69a9,9,0,0,0,9-8.91V70.78H85.82a.87.87,0,0,0,.88-.87V25.79a.89.89,0,0,0-.88-.88ZM84.94,69H50.27V26.67H85V69h0Z"/><path class="b" d="M56.44,60H78.79a.88.88,0,0,0,0-1.76H56.43a.88.88,0,0,0,0,1.76Z"/><path class="b" d="M56.44,49H78.79a.88.88,0,1,0,0-1.75H56.44a.88.88,0,0,0,0,1.76Z"/><path class="b" d="M56.45,37.38H78.8a.88.88,0,0,0,0-1.76H56.46a.88.88,0,1,0,0,1.76Z"/><path class="b" d="M25.8,46.74a.87.87,0,0,0,.87-.88A11.23,11.23,0,0,1,37.89,34.64h3L38.31,37.2a.87.87,0,0,0,0,1.23.83.83,0,0,0,.62.26.89.89,0,0,0,.62-.26l4.05-4a.67.67,0,0,0,.19-.28.88.88,0,0,0,.06-.27s0,0,0-.07,0,0,0-.07a1.19,1.19,0,0,0-.05-.26,1.12,1.12,0,0,0-.19-.29l-4.06-4.05a.88.88,0,0,0-1.24,1.24l2.56,2.56h-3a13,13,0,0,0-13,13,.87.87,0,0,0,.88.88Z"/><circle class="b" cx="45" cy="69.63" r="1.55"/><circle class="b" cx="37.9" cy="69.63" r="1.55"/><circle class="b" cx="30.82" cy="69.62" r="1.55"/></svg>