<svg id="Layer_1" data-name="Layer 1" xmlns="http://www.w3.org/2000/svg" viewBox="0 0 70.76 70.86"><defs><style>.cls-1{fill:#335d80;}.cls-2{fill:#fff;}</style></defs><title>Digital Business Automation [Recovered]</title><circle class="cls-1" cx="35.27" cy="35.77" r="32.25"/><path class="cls-2" d="M58,51.59c-7.31-4.08-14.46-4.05-21.71.08,0-.48-.07-.86-.07-1.24q0-15.47,0-30.93a1.87,1.87,0,0,1,1.1-1.93C43.93,14,50.51,13.89,57,17.9a2.38,2.38,0,0,1,1,1.67c.06,10.45,0,20.89,0,31.33A6.33,6.33,0,0,1,58,51.59Zm-18.44-9.7c-.22,1.87-.22,1.88,1.41,1.88H54.74V41.89Zm15.18-5C55,35,55,35,53.25,35L41,35c-1.67,0-1.76.14-1.28,1.87ZM39.57,31.73c-.26,1.84-.24,1.87,1.4,1.87H54.75V31.73Zm0-5H54.75V24.84H41C39.34,24.84,39.34,24.85,39.54,26.7ZM54.8,21.63H39.51v1.62H54.8Zm0,17H39.51v1.61H54.8Zm0-10.18H39.52V30H54.83Z"/><path class="cls-2" d="M34.29,51.62c-7.23-4.07-14.38-4.1-21.68,0,0-.57-.1-1-.1-1.42,0-10.21,0-20.43,0-30.64a2.06,2.06,0,0,1,1.3-2.1c6.64-3.45,13.15-3.48,19.59.5a1.83,1.83,0,0,1,1,1.73q0,15.45,0,30.91C34.38,50.88,34.33,51.19,34.29,51.62ZM22.61,30.06V21.62H15.74v8.44Zm.94,11.77h0c-2.28,0-4.56,0-6.83,0-.75,0-1.08.24-1.09,1s.43,1,1.12,1q6.63,0,13.25,0c.74,0,1.21-.1,1.22-1s-.59-1-1.25-1Zm7.46-5c.34-1.78.3-1.85-1.31-1.85L17.14,35c-1.56,0-1.66.15-1.29,1.87ZM15.86,31.68c-.38,1.83-.32,1.91,1.29,1.91h4.5c2.82,0,5.64,0,8.46,0,.72,0,1.1-.21,1.1-1s-.29-.94-1-.93Zm15.27,7H15.74v1.61H31.13ZM27.53,26.8h0c.87,0,1.73,0,2.59,0,.71,0,1.11-.14,1.09-1s-.35-1-1.08-1c-1.64,0-3.27,0-4.91,0-.72,0-1.08.2-1.09,1s.36,1,1.09,1S26.76,26.8,27.53,26.8Zm3.6-5.28c-2.2,0-4.24,0-6.27,0-.25,0-.66.57-.66.88s.4.87.64.88c2.07.07,4.15,0,6.29,0Zm0,8.61c-.06-.83.52-1.75-.74-1.8q-2.73-.09-5.46,0c-.28,0-.68.6-.73.95s.47.77.74.78C27,30.16,29,30.13,31.14,30.13Z"/><path class="cls-2" d="M39.45,51.55a19,19,0,0,1,16.32.31c.3.15.45.67.62,1a1.39,1.39,0,0,1,0,.54v1.48C51.17,51.19,45.49,50.42,39.45,51.55Z"/><path class="cls-2" d="M14.36,54.6c-.39-2.46-.38-2.47,1.92-3.4,4.45-1.81,10.06-1.79,13.78-.07a49.45,49.45,0,0,0-5.14,0,26.51,26.51,0,0,0-5.58,1.1A44.17,44.17,0,0,0,14.36,54.6Z"/><path class="cls-1" d="M39.55,41.89H54.74v1.88H41C39.33,43.77,39.33,43.76,39.55,41.89Z"/><path class="cls-1" d="M54.73,36.89H39.67C39.19,35.16,39.28,35,41,35l12.3,0C55,35,55,35,54.73,36.89Z"/><path class="cls-1" d="M39.57,31.73H54.75v1.86H41C39.33,33.6,39.31,33.57,39.57,31.73Z"/><path class="cls-1" d="M39.54,26.7c-.2-1.85-.2-1.86,1.43-1.86H54.75V26.7Z"/><path class="cls-1" d="M54.8,21.63v1.62H39.51V21.63Z"/><path class="cls-1" d="M54.8,38.62v1.61H39.51V38.62Z"/><path class="cls-1" d="M54.83,28.44V30H39.52V28.44Z"/><path class="cls-1" d="M22.61,30.06H15.74V21.62h6.87Z"/><path class="cls-1" d="M23.55,41.83H30c.66,0,1.27,0,1.25,1s-.48,1-1.22,1q-6.62,0-13.25,0c-.69,0-1.13-.11-1.12-1s.34-1,1.09-1c2.27,0,4.55,0,6.83,0Z"/><path class="cls-1" d="M31,36.87H15.85c-.37-1.72-.27-1.86,1.29-1.87L29.7,35C31.31,35,31.35,35.09,31,36.87Z"/><path class="cls-1" d="M15.86,31.68H30.23c.69,0,1,.21,1,.93s-.38,1-1.1,1c-2.82,0-5.64,0-8.46,0h-4.5C15.54,33.59,15.48,33.51,15.86,31.68Z"/><path class="cls-1" d="M31.13,38.63v1.61H15.74V38.63Z"/><path class="cls-1" d="M27.53,26.8c-.77,0-1.54,0-2.31,0s-1.09-.18-1.09-1,.37-1,1.09-1c1.64,0,3.27,0,4.91,0,.73,0,1.07.22,1.08,1s-.38,1-1.09,1c-.86,0-1.72,0-2.59,0Z"/><path class="cls-1" d="M31.13,21.52v1.84c-2.14,0-4.22,0-6.29,0-.24,0-.64-.58-.64-.88s.41-.87.66-.88C26.89,21.49,28.93,21.52,31.13,21.52Z"/><path class="cls-1" d="M31.14,30.13c-2.19,0-4.19,0-6.19,0-.27,0-.77-.54-.74-.78s.45-.94.73-.95q2.73-.12,5.46,0C31.66,28.38,31.08,29.3,31.14,30.13Z"/></svg>