<svg version="1.1" xmlns="http://www.w3.org/2000/svg" xmlns:xlink="http://www.w3.org/1999/xlink" preserveAspectRatio="xMidYMid meet" viewBox="0 0 640 640" width="640" height="640"><defs><path d="M319.49 633.9C145.36 633.9 4.21 493.36 4.21 319.99C4.21 146.62 145.36 6.08 319.49 6.08C493.61 6.08 634.77 146.62 634.77 319.99C634.77 493.36 493.61 633.9 319.49 633.9Z" id="g7nq9zXQ7C"/><path d="M319.49 633.9C145.36 633.9 4.21 493.36 4.21 319.99C4.21 146.62 145.36 6.08 319.49 6.08C493.61 6.08 634.77 146.62 634.77 319.99C634.77 493.36 493.61 633.9 319.49 633.9Z" id="b6lsEsakG"/><path d="M412.7 208.33L413.68 209.19L415.62 210.94L416.57 211.82L417.51 212.71L418.45 213.61L419.37 214.52L421.2 216.37L422.1 217.3L422.98 218.24L423.87 219.19L424.74 220.14L425.62 221.11L427.31 223.07L428.15 224.06L428.97 225.06L430.61 227.07L432.19 229.11L432.97 230.14L433.75 231.19L434.51 232.24L435.26 233.3L436.74 235.42L437.47 236.5L438.18 237.58L438.87 238.66L439.57 239.76L440.26 240.86L441.6 243.09L443.53 246.47L444.15 247.62L444.77 248.77L501.53 250.45L514.94 324.59L458.9 347.11L458.79 347.69L458.67 348.25L458.56 348.82L458.2 350.51L458.06 351.07L457.94 351.63L457.68 352.76L457.54 353.31L457.27 354.44L457.13 354.99L456.99 355.55L456.84 356.12L456.7 356.67L456.55 357.23L456.39 357.78L456.24 358.34L456.08 358.89L455.93 359.45L455.77 360.01L455.61 360.56L455.43 361.11L455.27 361.66L455.1 362.21L454.94 362.76L454.41 364.41L454.23 364.96L454.05 365.51L453.86 366.06L453.68 366.6L453.3 367.7L453.11 368.24L452.93 368.79L452.72 369.32L452.51 369.86L452.31 370.4L451.88 371.47L451.65 372.01L451.22 373.08L450.99 373.62L450.76 374.14L450.54 374.68L450.31 375.2L450.08 375.74L449.84 376.26L449.61 376.8L448.4 379.41L447.89 380.46L447.65 380.98L447.4 381.49L447.14 382.02L446.87 382.53L446.62 383.05L446.36 383.56L446.09 384.07L445.83 384.59L445.02 386.12L444.74 386.63L444.47 387.14L444.19 387.65L443.91 388.15L443.62 388.66L443.34 389.16L443.06 389.67L442.77 390.16L470.95 444.01L412.5 491.55L368.3 455.84L367.09 456.32L365.87 456.78L364.63 457.24L363.41 457.68L362.18 458.11L360.94 458.53L359.7 458.94L358.46 459.33L357.21 459.72L355.96 460.1L354.72 460.46L353.46 460.81L352.19 461.14L349.67 461.79L348.41 462.08L347.13 462.38L345.86 462.66L344.58 462.93L343.31 463.18L342.03 463.42L340.75 463.65L339.47 463.88L336.89 464.28L335.61 464.47L334.32 464.65L333.02 464.81L331.73 464.95L330.43 465.09L329.12 465.21L327.84 465.33L325.23 465.52L323.93 465.58L322.62 465.65L321.31 465.71L320.01 465.75L318.7 465.77L317.4 465.79L287.55 511.98L218.1 486.21L225.53 431.75L224.55 430.89L223.59 430.02L222.62 429.14L221.68 428.25L220.73 427.36L219.8 426.45L218.86 425.54L217.95 424.63L217.04 423.7L216.14 422.76L215.25 421.82L214.37 420.87L213.5 419.9L212.64 418.94L211.78 417.96L210.93 416.98L210.09 415.98L209.27 414.99L208.45 413.98L207.63 412.96L206.84 411.94L206.05 410.91L205.27 409.88L204.49 408.83L203.73 407.78L202.98 406.72L202.24 405.66L201.5 404.59L200.77 403.52L200.06 402.43L199.37 401.34L198.67 400.24L197.98 399.13L197.31 398.01L196.65 396.9L196 395.77L195.35 394.65L194.09 392.36L193.49 391.21L136.72 389.53L123.31 315.39L179.76 292.87L180 291.73L180.48 289.47L181.02 287.22L181.29 286.1L181.58 284.98L182.17 282.75L182.5 281.65L182.82 280.53L183.49 278.33L183.84 277.23L184.2 276.13L184.95 273.96L185.73 271.78L186.98 268.56L187.41 267.49L187.85 266.43L188.76 264.31L189.23 263.25L189.7 262.2L190.19 261.16L190.68 260.11L191.7 258.04L192.23 257.01L192.75 255.99L193.29 254.97L194.39 252.93L194.95 251.92L195.53 250.92L196.1 249.92L167.92 196.08L225.95 148.43L270.16 184.14L271.36 183.67L273.81 182.76L275.03 182.31L278.73 181.06L279.97 180.68L281.2 180.3L282.45 179.92L284.95 179.23L286.21 178.89L287.46 178.57L289.98 177.95L291.24 177.67L292.51 177.39L293.78 177.13L295.05 176.88L296.33 176.64L298.88 176.18L300.16 175.98L301.44 175.79L302.73 175.6L304.02 175.43L305.3 175.27L306.59 175.12L307.88 174.99L309.17 174.86L310.46 174.76L311.76 174.65L313.06 174.57L314.35 174.49L316.95 174.38L318.25 174.34L320.86 174.29L350.7 128.1L420.15 153.86L412.7 208.33ZM327.88 186.76L321.17 186.76L319.97 186.77L318.79 186.8L317.6 186.84L316.42 186.88L315.23 186.94L314.04 187.01L312.86 187.09L310.5 187.28L308.14 187.52L306.95 187.65L305.79 187.8L304.61 187.95L302.27 188.3L301.1 188.49L299.94 188.69L297.6 189.12L296.45 189.35L295.28 189.59L294.12 189.84L291.82 190.38L290.66 190.66L289.52 190.96L288.38 191.26L287.23 191.59L286.1 191.91L284.96 192.24L283.82 192.59L282.69 192.96L280.44 193.71L279.32 194.1L278.21 194.5L275.98 195.33L274.87 195.76L268.28 198.39L262.83 193.99L226.27 164.65L183.74 199.22L207 243.74L210.25 249.82L206.89 255.99L206.37 256.9L205.35 258.75L204.36 260.61L203.87 261.55L203.4 262.48L202.94 263.44L202.48 264.38L202.02 265.33L201.58 266.28L201.15 267.24L200.72 268.2L199.89 270.13L199.49 271.1L198.71 273.06L198.33 274.04L197.97 275.02L197.61 276.01L197.24 276.99L196.91 277.99L196.57 278.99L196.24 279.98L195.92 280.99L195.61 281.98L195.31 283L194.72 285.02L193.92 288.08L193.66 289.1L193.42 290.12L193.19 291.14L192.96 292.17L192.53 294.24L192.33 295.27L190.98 302.18L184.58 304.7L137.86 323.35L147.6 377.5L194.53 378.85L201.55 378.85L204.91 385.14L205.46 386.19L206.02 387.24L206.6 388.27L207.19 389.3L207.78 390.32L208.4 391.34L209 392.36L210.26 394.38L211.55 396.36L212.21 397.34L212.88 398.32L213.55 399.29L214.23 400.26L214.93 401.21L216.36 403.11L217.07 404.05L218.54 405.91L219.28 406.82L220.81 408.64L221.58 409.54L222.35 410.43L223.15 411.31L223.94 412.19L224.74 413.06L225.56 413.92L226.38 414.76L227.21 415.62L228.04 416.45L228.89 417.29L230.61 418.92L231.48 419.74L232.35 420.53L234.12 422.12L239.16 426.52L238.22 433.32L232.14 477.73L283.25 496.06L307.54 458.35L311.32 452.59L318.03 452.59L319.21 452.58L320.4 452.55L322.76 452.47L325.13 452.34L326.31 452.26L328.67 452.07L331.03 451.83L332.2 451.7L333.38 451.55L335.71 451.23L336.88 451.05L338.05 450.86L339.22 450.66L340.37 450.45L341.54 450.23L345 449.51L346.15 449.24L347.31 448.96L348.45 448.68L349.6 448.38L351.89 447.76L353.01 447.44L354.15 447.09L356.41 446.39L358.66 445.64L359.78 445.25L360.89 444.85L362 444.43L363.1 444.02L364.22 443.59L370.82 440.97L376.26 445.36L412.81 475.42L455.34 440.87L431.99 396.24L428.74 390.16L432.19 383.99L432.71 383.08L433.73 381.23L434.73 379.37L435.21 378.43L436.15 376.56L437.06 374.65L437.51 373.7L437.93 372.74L438.36 371.78L439.2 369.85L439.6 368.88L440.38 366.92L440.75 365.94L441.12 364.96L441.48 363.97L441.84 362.99L442.18 361.99L442.51 360.99L442.85 360L443.17 358.99L443.48 358L443.77 356.99L444.07 355.97L444.36 354.96L444.9 352.92L445.17 351.92L445.42 350.88L445.66 349.86L445.89 348.84L446.12 347.81L446.55 345.74L446.75 344.71L448.12 337.8L454.51 335.29L501.22 316.63L491.48 262.81L444.55 261.44L437.53 261.44L434.18 255.16L433.63 254.11L433.06 253.06L432.49 252.03L431.31 249.96L430.7 248.94L430.08 247.94L429.45 246.92L428.19 244.93L426.88 242.95L426.21 241.98L425.53 241L424.85 240.03L423.45 238.13L422.73 237.19L422.02 236.25L421.28 235.31L420.54 234.38L419.8 233.47L419.05 232.56L418.29 231.66L417.51 230.76L416.73 229.87L415.15 228.1L414.34 227.24L412.7 225.53L411.04 223.83L410.2 223L408.48 221.37L407.62 220.56L406.73 219.76L405.85 218.96L404.96 218.18L399.93 213.78L400.88 206.98L406.95 162.56L355.94 143.29L331.65 181L327.88 186.76Z" id="a3vzXwuWV8"/><path d="M412.7 208.33L413.68 209.19L415.62 210.94L416.57 211.82L417.51 212.71L418.45 213.61L419.37 214.52L421.2 216.37L422.1 217.3L422.98 218.24L423.87 219.19L424.74 220.14L425.62 221.11L427.31 223.07L428.15 224.06L428.97 225.06L430.61 227.07L432.19 229.11L432.97 230.14L433.75 231.19L434.51 232.24L435.26 233.3L436.74 235.42L437.47 236.5L438.18 237.58L438.87 238.66L439.57 239.76L440.26 240.86L441.6 243.09L443.53 246.47L444.15 247.62L444.77 248.77L501.53 250.45L514.94 324.59L458.9 347.11L458.79 347.69L458.67 348.25L458.56 348.82L458.2 350.51L458.06 351.07L457.94 351.63L457.68 352.76L457.54 353.31L457.27 354.44L457.13 354.99L456.99 355.55L456.84 356.12L456.7 356.67L456.55 357.23L456.39 357.78L456.24 358.34L456.08 358.89L455.93 359.45L455.77 360.01L455.61 360.56L455.43 361.11L455.27 361.66L455.1 362.21L454.94 362.76L454.41 364.41L454.23 364.96L454.05 365.51L453.86 366.06L453.68 366.6L453.3 367.7L453.11 368.24L452.93 368.79L452.72 369.32L452.51 369.86L452.31 370.4L451.88 371.47L451.65 372.01L451.22 373.08L450.99 373.62L450.76 374.14L450.54 374.68L450.31 375.2L450.08 375.74L449.84 376.26L449.61 376.8L448.4 379.41L447.89 380.46L447.65 380.98L447.4 381.49L447.14 382.02L446.87 382.53L446.62 383.05L446.36 383.56L446.09 384.07L445.83 384.59L445.02 386.12L444.74 386.63L444.47 387.14L444.19 387.65L443.91 388.15L443.62 388.66L443.34 389.16L443.06 389.67L442.77 390.16L470.95 444.01L412.5 491.55L368.3 455.84L367.09 456.32L365.87 456.78L364.63 457.24L363.41 457.68L362.18 458.11L360.94 458.53L359.7 458.94L358.46 459.33L357.21 459.72L355.96 460.1L354.72 460.46L353.46 460.81L352.19 461.14L349.67 461.79L348.41 462.08L347.13 462.38L345.86 462.66L344.58 462.93L343.31 463.18L342.03 463.42L340.75 463.65L339.47 463.88L336.89 464.28L335.61 464.47L334.32 464.65L333.02 464.81L331.73 464.95L330.43 465.09L329.12 465.21L327.84 465.33L325.23 465.52L323.93 465.58L322.62 465.65L321.31 465.71L320.01 465.75L318.7 465.77L317.4 465.79L287.55 511.98L218.1 486.21L225.53 431.75L224.55 430.89L223.59 430.02L222.62 429.14L221.68 428.25L220.73 427.36L219.8 426.45L218.86 425.54L217.95 424.63L217.04 423.7L216.14 422.76L215.25 421.82L214.37 420.87L213.5 419.9L212.64 418.94L211.78 417.96L210.93 416.98L210.09 415.98L209.27 414.99L208.45 413.98L207.63 412.96L206.84 411.94L206.05 410.91L205.27 409.88L204.49 408.83L203.73 407.78L202.98 406.72L202.24 405.66L201.5 404.59L200.77 403.52L200.06 402.43L199.37 401.34L198.67 400.24L197.98 399.13L197.31 398.01L196.65 396.9L196 395.77L195.35 394.65L194.09 392.36L193.49 391.21L136.72 389.53L123.31 315.39L179.76 292.87L180 291.73L180.48 289.47L181.02 287.22L181.29 286.1L181.58 284.98L182.17 282.75L182.5 281.65L182.82 280.53L183.49 278.33L183.84 277.23L184.2 276.13L184.95 273.96L185.73 271.78L186.98 268.56L187.41 267.49L187.85 266.43L188.76 264.31L189.23 263.25L189.7 262.2L190.19 261.16L190.68 260.11L191.7 258.04L192.23 257.01L192.75 255.99L193.29 254.97L194.39 252.93L194.95 251.92L195.53 250.92L196.1 249.92L167.92 196.08L225.95 148.43L270.16 184.14L271.36 183.67L273.81 182.76L275.03 182.31L278.73 181.06L279.97 180.68L281.2 180.3L282.45 179.92L284.95 179.23L286.21 178.89L287.46 178.57L289.98 177.95L291.24 177.67L292.51 177.39L293.78 177.13L295.05 176.88L296.33 176.64L298.88 176.18L300.16 175.98L301.44 175.79L302.73 175.6L304.02 175.43L305.3 175.27L306.59 175.12L307.88 174.99L309.17 174.86L310.46 174.76L311.76 174.65L313.06 174.57L314.35 174.49L316.95 174.38L318.25 174.34L320.86 174.29L350.7 128.1L420.15 153.86L412.7 208.33ZM327.88 186.76L321.17 186.76L319.97 186.77L318.79 186.8L317.6 186.84L316.42 186.88L315.23 186.94L314.04 187.01L312.86 187.09L310.5 187.28L308.14 187.52L306.95 187.65L305.79 187.8L304.61 187.95L302.27 188.3L301.1 188.49L299.94 188.69L297.6 189.12L296.45 189.35L295.28 189.59L294.12 189.84L291.82 190.38L290.66 190.66L289.52 190.96L288.38 191.26L287.23 191.59L286.1 191.91L284.96 192.24L283.82 192.59L282.69 192.96L280.44 193.71L279.32 194.1L278.21 194.5L275.98 195.33L274.87 195.76L268.28 198.39L262.83 193.99L226.27 164.65L183.74 199.22L207 243.74L210.25 249.82L206.89 255.99L206.37 256.9L205.35 258.75L204.36 260.61L203.87 261.55L203.4 262.48L202.94 263.44L202.48 264.38L202.02 265.33L201.58 266.28L201.15 267.24L200.72 268.2L199.89 270.13L199.49 271.1L198.71 273.06L198.33 274.04L197.97 275.02L197.61 276.01L197.24 276.99L196.91 277.99L196.57 278.99L196.24 279.98L195.92 280.99L195.61 281.98L195.31 283L194.72 285.02L193.92 288.08L193.66 289.1L193.42 290.12L193.19 291.14L192.96 292.17L192.53 294.24L192.33 295.27L190.98 302.18L184.58 304.7L137.86 323.35L147.6 377.5L194.53 378.85L201.55 378.85L204.91 385.14L205.46 386.19L206.02 387.24L206.6 388.27L207.19 389.3L207.78 390.32L208.4 391.34L209 392.36L210.26 394.38L211.55 396.36L212.21 397.34L212.88 398.32L213.55 399.29L214.23 400.26L214.93 401.21L216.36 403.11L217.07 404.05L218.54 405.91L219.28 406.82L220.81 408.64L221.58 409.54L222.35 410.43L223.15 411.31L223.94 412.19L224.74 413.06L225.56 413.92L226.38 414.76L227.21 415.62L228.04 416.45L228.89 417.29L230.61 418.92L231.48 419.74L232.35 420.53L234.12 422.12L239.16 426.52L238.22 433.32L232.14 477.73L283.25 496.06L307.54 458.35L311.32 452.59L318.03 452.59L319.21 452.58L320.4 452.55L322.76 452.47L325.13 452.34L326.31 452.26L328.67 452.07L331.03 451.83L332.2 451.7L333.38 451.55L335.71 451.23L336.88 451.05L338.05 450.86L339.22 450.66L340.37 450.45L341.54 450.23L345 449.51L346.15 449.24L347.31 448.96L348.45 448.68L349.6 448.38L351.89 447.76L353.01 447.44L354.15 447.09L356.41 446.39L358.66 445.64L359.78 445.25L360.89 444.85L362 444.43L363.1 444.02L364.22 443.59L370.82 440.97L376.26 445.36L412.81 475.42L455.34 440.87L431.99 396.24L428.74 390.16L432.19 383.99L432.71 383.08L433.73 381.23L434.73 379.37L435.21 378.43L436.15 376.56L437.06 374.65L437.51 373.7L437.93 372.74L438.36 371.78L439.2 369.85L439.6 368.88L440.38 366.92L440.75 365.94L441.12 364.96L441.48 363.97L441.84 362.99L442.18 361.99L442.51 360.99L442.85 360L443.17 358.99L443.48 358L443.77 356.99L444.07 355.97L444.36 354.96L444.9 352.92L445.17 351.92L445.42 350.88L445.66 349.86L445.89 348.84L446.12 347.81L446.55 345.74L446.75 344.71L448.12 337.8L454.51 335.29L501.22 316.63L491.48 262.81L444.55 261.44L437.53 261.44L434.18 255.16L433.63 254.11L433.06 253.06L432.49 252.03L431.31 249.96L430.7 248.94L430.08 247.94L429.45 246.92L428.19 244.93L426.88 242.95L426.21 241.98L425.53 241L424.85 240.03L423.45 238.13L422.73 237.19L422.02 236.25L421.28 235.31L420.54 234.38L419.8 233.47L419.05 232.56L418.29 231.66L417.51 230.76L416.73 229.87L415.15 228.1L414.34 227.24L412.7 225.53L411.04 223.83L410.2 223L408.48 221.37L407.62 220.56L406.73 219.76L405.85 218.96L404.96 218.18L399.93 213.78L400.88 206.98L406.95 162.56L355.94 143.29L331.65 181L327.88 186.76Z" id="c1lU1DxNo9"/><path d="M325.11 243.2L328.1 243.56L331.11 244.05L334.1 244.65L337.1 245.39L340.08 246.25L343.04 247.23L345.99 248.34L346.1 248.39L346.18 248.42L346.24 248.45L346.29 248.46L349.16 249.64L351.95 250.92L354.68 252.31L357.31 253.79L359.87 255.36L362.35 257.02L364.75 258.78L367.08 260.62L369.3 262.55L371.45 264.55L373.52 266.63L375.49 268.78L377.37 270.99L379.15 273.27L380.86 275.62L382.47 278.04L383.97 280.51L385.4 283.02L386.71 285.59L387.92 288.21L389.03 290.88L390.05 293.58L390.96 296.32L391.77 299.09L392.47 301.91L393.06 304.74L393.54 307.62L393.9 310.5L394.17 313.4L394.32 316.33L394.35 319.27L394.27 322.2L394.06 325.16L393.74 328.11L393.3 331.08L392.74 334.03L392.05 336.98L391.25 339.92L390.31 342.84L389.25 345.76L389.23 345.81L389.21 345.86L389.19 345.9L389.18 345.96L389.15 346.01L389.14 346.07L389.11 346.12L389.1 346.16L389.07 346.21L389.05 346.32L389.02 346.37L389.01 346.41L388.98 346.47L388.96 346.52L388.94 346.58L388.92 346.63L388.91 346.67L388.88 346.72L388.87 346.78L388.84 346.83L388.83 346.87L388.8 346.92L388.79 346.98L388.76 347.03L388.75 347.09L388.72 347.13L388.71 347.18L388.68 347.23L388.67 347.29L388.64 347.33L388.63 347.38L388.6 347.43L388.59 347.49L388.56 347.54L388.55 347.58L388.52 347.64L388.51 347.69L388.48 347.74L388.47 347.78L387.23 350.7L385.89 353.51L384.46 356.26L382.91 358.92L381.29 361.51L379.56 364.01L377.75 366.44L375.85 368.76L373.87 371.01L371.8 373.17L369.67 375.24L367.45 377.21L365.18 379.11L362.84 380.9L360.42 382.59L357.95 384.21L355.43 385.71L352.85 387.12L350.22 388.42L347.55 389.63L344.83 390.73L342.06 391.72L339.26 392.61L336.43 393.4L333.57 394.07L330.67 394.63L327.76 395.09L324.82 395.44L321.86 395.67L318.88 395.77L315.91 395.77L312.91 395.65L309.91 395.41L306.9 395.05L303.91 394.57L300.92 393.96L297.92 393.22L294.94 392.36L291.98 391.39L289.03 390.27L286.13 389.04L283.29 387.69L280.56 386.26L277.89 384.72L275.31 383.08L272.8 381.36L270.38 379.55L268.05 377.64L265.81 375.66L263.65 373.6L261.58 371.47L259.59 369.26L257.7 366.97L255.92 364.63L254.21 362.22L252.62 359.75L251.11 357.23L249.7 354.65L248.4 352.02L247.19 349.34L246.09 346.62L245.1 343.86L244.2 341.06L243.42 338.23L242.74 335.36L242.18 332.47L241.72 329.55L241.38 326.61L241.16 323.65L241.03 320.69L241.05 317.7L241.17 314.7L241.41 311.71L241.77 308.7L242.26 305.7L242.86 302.7L243.58 299.71L244.44 296.73L245.44 293.77L246.55 290.83L247.79 287.92L249.13 285.1L250.56 282.35L252.09 279.69L253.73 277.1L255.46 274.6L257.27 272.17L259.17 269.85L261.15 267.6L263.22 265.44L265.35 263.37L267.55 261.4L269.83 259.51L272.18 257.71L274.6 256.02L277.07 254.41L279.59 252.9L282.17 251.49L284.8 250.19L287.47 248.98L290.19 247.88L292.96 246.89L295.75 246L298.59 245.21L301.45 244.54L304.35 243.98L307.26 243.52L310.2 243.17L313.15 242.95L316.13 242.84L319.11 242.84L322.11 242.96L325.11 243.2ZM314.89 294.63L313.19 294.95L311.56 295.39L309.93 295.93L308.36 296.59L306.85 297.34L305.37 298.18L303.96 299.14L302.61 300.18L301.33 301.31L300.12 302.53L299 303.85L297.96 305.24L297.01 306.72L296.15 308.26L295.4 309.9L294.76 311.59L294.23 313.33L293.84 315.09L293.57 316.84L293.44 318.58L293.41 320.33L293.51 322.04L293.72 323.75L294.04 325.44L294.49 327.08L295.02 328.7L295.68 330.27L296.43 331.79L297.28 333.26L298.23 334.67L299.28 336.03L300.41 337.3L301.63 338.51L302.94 339.64L304.34 340.67L305.81 341.62L307.36 342.48L308.99 343.23L310.7 343.88L312.4 344.41L314.12 344.82L315.85 345.1L317.57 345.26L319.29 345.31L320.99 345.23L322.67 345.05L324.33 344.75L325.96 344.33L327.55 343.82L329.12 343.21L330.63 342.48L332.09 341.66L333.5 340.74L334.84 339.73L336.12 338.63L337.32 337.44L338.45 336.16L339.5 334.81L340.45 333.36L341.32 331.84L342.09 330.24L342.75 328.58L342.76 328.53L342.79 328.47L342.8 328.42L342.81 328.39L342.84 328.32L342.85 328.27L342.88 328.22L342.88 328.19L342.91 328.14L342.92 328.08L342.95 328.03L342.96 327.96L342.97 327.93L343.5 326.2L343.89 324.45L344.16 322.7L344.3 320.94L344.32 319.21L344.22 317.48L344.01 315.78L343.69 314.1L343.24 312.45L342.71 310.84L342.05 309.27L341.3 307.75L340.45 306.27L339.5 304.87L338.45 303.51L337.32 302.24L336.1 301.03L334.79 299.9L333.39 298.87L331.92 297.91L330.37 297.06L328.74 296.3L327.04 295.66L325.3 295.14L323.54 294.75L321.8 294.48L320.05 294.33L318.31 294.32L316.59 294.41L314.89 294.63Z" id="a15stAYlbT"/><path d="M325.11 243.2L328.1 243.56L331.11 244.05L334.1 244.65L337.1 245.39L340.08 246.25L343.04 247.23L345.99 248.34L346.1 248.39L346.18 248.42L346.24 248.45L346.29 248.46L349.16 249.64L351.95 250.92L354.68 252.31L357.31 253.79L359.87 255.36L362.35 257.02L364.75 258.78L367.08 260.62L369.3 262.55L371.45 264.55L373.52 266.63L375.49 268.78L377.37 270.99L379.15 273.27L380.86 275.62L382.47 278.04L383.97 280.51L385.4 283.02L386.71 285.59L387.92 288.21L389.03 290.88L390.05 293.58L390.96 296.32L391.77 299.09L392.47 301.91L393.06 304.74L393.54 307.62L393.9 310.5L394.17 313.4L394.32 316.33L394.35 319.27L394.27 322.2L394.06 325.16L393.74 328.11L393.3 331.08L392.74 334.03L392.05 336.98L391.25 339.92L390.31 342.84L389.25 345.76L389.23 345.81L389.21 345.86L389.19 345.9L389.18 345.96L389.15 346.01L389.14 346.07L389.11 346.12L389.1 346.16L389.07 346.21L389.05 346.32L389.02 346.37L389.01 346.41L388.98 346.47L388.96 346.52L388.94 346.58L388.92 346.63L388.91 346.67L388.88 346.72L388.87 346.78L388.84 346.83L388.83 346.87L388.8 346.92L388.79 346.98L388.76 347.03L388.75 347.09L388.72 347.13L388.71 347.18L388.68 347.23L388.67 347.29L388.64 347.33L388.63 347.38L388.6 347.43L388.59 347.49L388.56 347.54L388.55 347.58L388.52 347.64L388.51 347.69L388.48 347.74L388.47 347.78L387.23 350.7L385.89 353.51L384.46 356.26L382.91 358.92L381.29 361.51L379.56 364.01L377.75 366.44L375.85 368.76L373.87 371.01L371.8 373.17L369.67 375.24L367.45 377.21L365.18 379.11L362.84 380.9L360.42 382.59L357.95 384.21L355.43 385.71L352.85 387.12L350.22 388.42L347.55 389.63L344.83 390.73L342.06 391.72L339.26 392.61L336.43 393.4L333.57 394.07L330.67 394.63L327.76 395.09L324.82 395.44L321.86 395.67L318.88 395.77L315.91 395.77L312.91 395.65L309.91 395.41L306.9 395.05L303.91 394.57L300.92 393.96L297.92 393.22L294.94 392.36L291.98 391.39L289.03 390.27L286.13 389.04L283.29 387.69L280.56 386.26L277.89 384.72L275.31 383.08L272.8 381.36L270.38 379.55L268.05 377.64L265.81 375.66L263.65 373.6L261.58 371.47L259.59 369.26L257.7 366.97L255.92 364.63L254.21 362.22L252.62 359.75L251.11 357.23L249.7 354.65L248.4 352.02L247.19 349.34L246.09 346.62L245.1 343.86L244.2 341.06L243.42 338.23L242.74 335.36L242.18 332.47L241.72 329.55L241.38 326.61L241.16 323.65L241.03 320.69L241.05 317.7L241.17 314.7L241.41 311.71L241.77 308.7L242.26 305.7L242.86 302.7L243.58 299.71L244.44 296.73L245.44 293.77L246.55 290.83L247.79 287.92L249.13 285.1L250.56 282.35L252.09 279.69L253.73 277.1L255.46 274.6L257.27 272.17L259.17 269.85L261.15 267.6L263.22 265.44L265.35 263.37L267.55 261.4L269.83 259.51L272.18 257.71L274.6 256.02L277.07 254.41L279.59 252.9L282.17 251.49L284.8 250.19L287.47 248.98L290.19 247.88L292.96 246.89L295.75 246L298.59 245.21L301.45 244.54L304.35 243.98L307.26 243.52L310.2 243.17L313.15 242.95L316.13 242.84L319.11 242.84L322.11 242.96L325.11 243.2ZM314.89 294.63L313.19 294.95L311.56 295.39L309.93 295.93L308.36 296.59L306.85 297.34L305.37 298.18L303.96 299.14L302.61 300.18L301.33 301.31L300.12 302.53L299 303.85L297.96 305.24L297.01 306.72L296.15 308.26L295.4 309.9L294.76 311.59L294.23 313.33L293.84 315.09L293.57 316.84L293.44 318.58L293.41 320.33L293.51 322.04L293.72 323.75L294.04 325.44L294.49 327.08L295.02 328.7L295.68 330.27L296.43 331.79L297.28 333.26L298.23 334.67L299.28 336.03L300.41 337.3L301.63 338.51L302.94 339.64L304.34 340.67L305.81 341.62L307.36 342.48L308.99 343.23L310.7 343.88L312.4 344.41L314.12 344.82L315.85 345.1L317.57 345.26L319.29 345.31L320.99 345.23L322.67 345.05L324.33 344.75L325.96 344.33L327.55 343.82L329.12 343.21L330.63 342.48L332.09 341.66L333.5 340.74L334.84 339.73L336.12 338.63L337.32 337.44L338.45 336.16L339.5 334.81L340.45 333.36L341.32 331.84L342.09 330.24L342.75 328.58L342.76 328.53L342.79 328.47L342.8 328.42L342.81 328.39L342.84 328.32L342.85 328.27L342.88 328.22L342.88 328.19L342.91 328.14L342.92 328.08L342.95 328.03L342.96 327.96L342.97 327.93L343.5 326.2L343.89 324.45L344.16 322.7L344.3 320.94L344.32 319.21L344.22 317.48L344.01 315.78L343.69 314.1L343.24 312.45L342.71 310.84L342.05 309.27L341.3 307.75L340.45 306.27L339.5 304.87L338.45 303.51L337.32 302.24L336.1 301.03L334.79 299.9L333.39 298.87L331.92 297.91L330.37 297.06L328.74 296.3L327.04 295.66L325.3 295.14L323.54 294.75L321.8 294.48L320.05 294.33L318.31 294.32L316.59 294.41L314.89 294.63Z" id="aQ7xXjG8i"/></defs><g><g><g><use xlink:href="#g7nq9zXQ7C" opacity="1" fill="#196970" fill-opacity="1"/><g><use xlink:href="#g7nq9zXQ7C" opacity="1" fill-opacity="0" stroke="#000000" stroke-width="1" stroke-opacity="0"/></g></g><g><use xlink:href="#b6lsEsakG" opacity="1" fill="#000000" fill-opacity="0"/><g><use xlink:href="#b6lsEsakG" opacity="1" fill-opacity="0" stroke="#000000" stroke-width="1" stroke-opacity="0"/></g></g><g><use xlink:href="#a3vzXwuWV8" opacity="1" fill="#ffffff" fill-opacity="1"/><g><use xlink:href="#a3vzXwuWV8" opacity="1" fill-opacity="0" stroke="#000000" stroke-width="1" stroke-opacity="0"/></g></g><g><use xlink:href="#c1lU1DxNo9" opacity="1" fill="#000000" fill-opacity="0"/><g><use xlink:href="#c1lU1DxNo9" opacity="1" fill-opacity="0" stroke="#ffffff" stroke-width="1" stroke-opacity="1"/></g></g><g><use xlink:href="#a15stAYlbT" opacity="1" fill="#ffffff" fill-opacity="1"/><g><use xlink:href="#a15stAYlbT" opacity="1" fill-opacity="0" stroke="#000000" stroke-width="1" stroke-opacity="0"/></g></g><g><use xlink:href="#aQ7xXjG8i" opacity="1" fill="#000000" fill-opacity="0"/><g><use xlink:href="#aQ7xXjG8i" opacity="1" fill-opacity="0" stroke="#000000" stroke-width="1" stroke-opacity="0"/></g></g></g></g></svg>