<svg version="1.1" xmlns="http://www.w3.org/2000/svg" xmlns:xlink="http://www.w3.org/1999/xlink" preserveAspectRatio="xMidYMid meet" viewBox="0 0 640 640" width="640" height="640"><defs><path d="M320.25 630.04C147.3 630.04 7.12 490.46 7.12 318.27C7.12 146.08 147.3 6.49 320.25 6.49C493.18 6.49 633.38 146.08 633.38 318.27C633.38 490.46 493.18 630.04 320.25 630.04Z" id="cD4T89omY"/><path d="M320.25 630.04C147.3 630.04 7.12 490.46 7.12 318.27C7.12 146.08 147.3 6.49 320.25 6.49C493.18 6.49 633.38 146.08 633.38 318.27C633.38 490.46 493.18 630.04 320.25 630.04Z" id="dyUaqPkrU"/><path d="M123.64 174.08L123.64 449.34L123.64 462.45L136.74 462.45L516.86 462.45L516.86 449.34L136.74 449.34L136.74 449.34L136.74 174.08L123.64 174.08Z" id="bal4v10Bi"/><path d="M123.64 174.08L123.64 449.34L123.64 462.45L136.74 462.45L516.86 462.45L516.86 449.34L136.74 449.34L136.74 449.34L136.74 174.08L123.64 174.08Z" id="a5Et2FxCFn"/><path d="M254.71 318.27C254.71 381.18 254.71 416.14 254.71 423.13C254.71 423.13 254.71 423.13 254.71 423.13C199.65 423.13 169.08 423.13 162.95 423.13C162.95 423.13 162.95 423.13 162.95 423.13C162.95 360.21 162.95 325.25 162.95 318.27C162.95 318.27 162.95 318.27 162.95 318.27C218.01 318.27 248.6 318.27 254.71 318.27C254.71 318.27 254.71 318.27 254.71 318.27Z" id="aEyQFoYw0"/><path d="M254.71 318.27C254.71 381.18 254.71 416.14 254.71 423.13C254.71 423.13 254.71 423.13 254.71 423.13C199.65 423.13 169.08 423.13 162.95 423.13C162.95 423.13 162.95 423.13 162.95 423.13C162.95 360.21 162.95 325.25 162.95 318.27C162.95 318.27 162.95 318.27 162.95 318.27C218.01 318.27 248.6 318.27 254.71 318.27C254.71 318.27 254.71 318.27 254.71 318.27Z" id="bLvDvYwWr"/><path d="M280.92 423.13L280.92 213.93L372.67 213.93L372.67 423.13L280.92 423.13ZM294.04 410.54L359.57 410.54L359.57 226.52L294.04 226.52L294.04 410.54Z" id="d1QaMbjJs3"/><path d="M280.92 423.13L280.92 213.93L372.67 213.93L372.67 423.13L280.92 423.13ZM294.04 410.54L359.57 410.54L359.57 226.52L294.04 226.52L294.04 410.54Z" id="ac74yYD5s"/><path d="M490.65 278.94C490.65 286.81 490.65 291.17 490.65 292.05C490.65 292.05 490.65 292.05 490.65 292.05C435.6 292.05 405.01 292.05 398.9 292.05C398.9 292.05 398.9 292.05 398.9 292.05C398.9 284.19 398.9 279.81 398.9 278.94C398.9 278.94 398.9 278.94 398.9 278.94C453.95 278.94 484.53 278.94 490.65 278.94C490.65 278.94 490.65 278.94 490.65 278.94Z" id="b1CZKquOtB"/><path d="M490.65 278.94C490.65 286.81 490.65 291.17 490.65 292.05C490.65 292.05 490.65 292.05 490.65 292.05C435.6 292.05 405.01 292.05 398.9 292.05C398.9 292.05 398.9 292.05 398.9 292.05C398.9 284.19 398.9 279.81 398.9 278.94C398.9 278.94 398.9 278.94 398.9 278.94C453.95 278.94 484.53 278.94 490.65 278.94C490.65 278.94 490.65 278.94 490.65 278.94Z" id="bmVL7T7vN"/><path d="M490.65 305.15C490.65 313.02 490.65 317.4 490.65 318.27C490.65 318.27 490.65 318.27 490.65 318.27C435.6 318.27 405.01 318.27 398.9 318.27C398.9 318.27 398.9 318.27 398.9 318.27C398.9 310.4 398.9 306.04 398.9 305.15C398.9 305.15 398.9 305.15 398.9 305.15C453.95 305.15 484.53 305.15 490.65 305.15C490.65 305.15 490.65 305.15 490.65 305.15Z" id="e66pxPLx5H"/><path d="M490.65 305.15C490.65 313.02 490.65 317.4 490.65 318.27C490.65 318.27 490.65 318.27 490.65 318.27C435.6 318.27 405.01 318.27 398.9 318.27C398.9 318.27 398.9 318.27 398.9 318.27C398.9 310.4 398.9 306.04 398.9 305.15C398.9 305.15 398.9 305.15 398.9 305.15C453.95 305.15 484.53 305.15 490.65 305.15C490.65 305.15 490.65 305.15 490.65 305.15Z" id="a6ygWmqEx"/><path d="M490.65 331.38C490.65 339.23 490.65 343.61 490.65 344.48C490.65 344.48 490.65 344.48 490.65 344.48C435.6 344.48 405.01 344.48 398.9 344.48C398.9 344.48 398.9 344.48 398.9 344.48C398.9 336.61 398.9 332.25 398.9 331.38C398.9 331.38 398.9 331.38 398.9 331.38C453.95 331.38 484.53 331.38 490.65 331.38C490.65 331.38 490.65 331.38 490.65 331.38Z" id="hTcj6XlyP"/><path d="M490.65 331.38C490.65 339.23 490.65 343.61 490.65 344.48C490.65 344.48 490.65 344.48 490.65 344.48C435.6 344.48 405.01 344.48 398.9 344.48C398.9 344.48 398.9 344.48 398.9 344.48C398.9 336.61 398.9 332.25 398.9 331.38C398.9 331.38 398.9 331.38 398.9 331.38C453.95 331.38 484.53 331.38 490.65 331.38C490.65 331.38 490.65 331.38 490.65 331.38Z" id="g1ba9haJTA"/><path d="M490.65 357.59C490.65 365.46 490.65 369.82 490.65 370.69C490.65 370.69 490.65 370.69 490.65 370.69C435.6 370.69 405.01 370.69 398.9 370.69C398.9 370.69 398.9 370.69 398.9 370.69C398.9 362.84 398.9 358.46 398.9 357.59C398.9 357.59 398.9 357.59 398.9 357.59C453.95 357.59 484.53 357.59 490.65 357.59C490.65 357.59 490.65 357.59 490.65 357.59Z" id="bSZOhycxN"/><path d="M490.65 357.59C490.65 365.46 490.65 369.82 490.65 370.69C490.65 370.69 490.65 370.69 490.65 370.69C435.6 370.69 405.01 370.69 398.9 370.69C398.9 370.69 398.9 370.69 398.9 370.69C398.9 362.84 398.9 358.46 398.9 357.59C398.9 357.59 398.9 357.59 398.9 357.59C453.95 357.59 484.53 357.59 490.65 357.59C490.65 357.59 490.65 357.59 490.65 357.59Z" id="bqhvlzIA4"/><path d="M490.65 383.8C490.65 391.67 490.65 396.03 490.65 396.92C490.65 396.92 490.65 396.92 490.65 396.92C435.6 396.92 405.01 396.92 398.9 396.92C398.9 396.92 398.9 396.92 398.9 396.92C398.9 389.05 398.9 384.67 398.9 383.8C398.9 383.8 398.9 383.8 398.9 383.8C453.95 383.8 484.53 383.8 490.65 383.8C490.65 383.8 490.65 383.8 490.65 383.8Z" id="a4o1f09oA"/><path d="M490.65 383.8C490.65 391.67 490.65 396.03 490.65 396.92C490.65 396.92 490.65 396.92 490.65 396.92C435.6 396.92 405.01 396.92 398.9 396.92C398.9 396.92 398.9 396.92 398.9 396.92C398.9 389.05 398.9 384.67 398.9 383.8C398.9 383.8 398.9 383.8 398.9 383.8C453.95 383.8 484.53 383.8 490.65 383.8C490.65 383.8 490.65 383.8 490.65 383.8Z" id="b2vaNosYge"/><path d="M490.65 410.03C490.65 417.88 490.65 422.26 490.65 423.13C490.65 423.13 490.65 423.13 490.65 423.13C435.6 423.13 405.01 423.13 398.9 423.13C398.9 423.13 398.9 423.13 398.9 423.13C398.9 415.26 398.9 410.9 398.9 410.03C398.9 410.03 398.9 410.03 398.9 410.03C453.95 410.03 484.53 410.03 490.65 410.03C490.65 410.03 490.65 410.03 490.65 410.03Z" id="a26hbIz5nO"/><path d="M490.65 410.03C490.65 417.88 490.65 422.26 490.65 423.13C490.65 423.13 490.65 423.13 490.65 423.13C435.6 423.13 405.01 423.13 398.9 423.13C398.9 423.13 398.9 423.13 398.9 423.13C398.9 415.26 398.9 410.9 398.9 410.03C398.9 410.03 398.9 410.03 398.9 410.03C453.95 410.03 484.53 410.03 490.65 410.03C490.65 410.03 490.65 410.03 490.65 410.03Z" id="c3eHdoGO2N"/></defs><g><g><g><use xlink:href="#cD4T89omY" opacity="1" fill="#196970" fill-opacity="1"/><g><use xlink:href="#cD4T89omY" opacity="1" fill-opacity="0" stroke="#000000" stroke-width="1" stroke-opacity="0"/></g></g><g><use xlink:href="#dyUaqPkrU" opacity="1" fill="#000000" fill-opacity="0"/><g><use xlink:href="#dyUaqPkrU" opacity="1" fill-opacity="0" stroke="#000000" stroke-width="1" stroke-opacity="0"/></g></g><g><use xlink:href="#bal4v10Bi" opacity="1" fill="#ffffff" fill-opacity="1"/><g><use xlink:href="#bal4v10Bi" opacity="1" fill-opacity="0" stroke="#000000" stroke-width="1" stroke-opacity="0"/></g></g><g><use xlink:href="#a5Et2FxCFn" opacity="1" fill="#000000" fill-opacity="0"/><g><use xlink:href="#a5Et2FxCFn" opacity="1" fill-opacity="0" stroke="#000000" stroke-width="1" stroke-opacity="0"/></g></g><g><use xlink:href="#aEyQFoYw0" opacity="1" fill="#ffffff" fill-opacity="1"/><g><use xlink:href="#aEyQFoYw0" opacity="1" fill-opacity="0" stroke="#000000" stroke-width="1" stroke-opacity="0"/></g></g><g><use xlink:href="#bLvDvYwWr" opacity="1" fill="#000000" fill-opacity="0"/><g><use xlink:href="#bLvDvYwWr" opacity="1" fill-opacity="0" stroke="#000000" stroke-width="1" stroke-opacity="0"/></g></g><g><use xlink:href="#d1QaMbjJs3" opacity="1" fill="#ffffff" fill-opacity="1"/><g><use xlink:href="#d1QaMbjJs3" opacity="1" fill-opacity="0" stroke="#000000" stroke-width="1" stroke-opacity="0"/></g></g><g><use xlink:href="#ac74yYD5s" opacity="1" fill="#000000" fill-opacity="0"/><g><use xlink:href="#ac74yYD5s" opacity="1" fill-opacity="0" stroke="#000000" stroke-width="1" stroke-opacity="0"/></g></g><g><use xlink:href="#b1CZKquOtB" opacity="1" fill="#ffffff" fill-opacity="1"/><g><use xlink:href="#b1CZKquOtB" opacity="1" fill-opacity="0" stroke="#000000" stroke-width="1" stroke-opacity="0"/></g></g><g><use xlink:href="#bmVL7T7vN" opacity="1" fill="#000000" fill-opacity="0"/><g><use xlink:href="#bmVL7T7vN" opacity="1" fill-opacity="0" stroke="#000000" stroke-width="1" stroke-opacity="0"/></g></g><g><use xlink:href="#e66pxPLx5H" opacity="1" fill="#ffffff" fill-opacity="1"/><g><use xlink:href="#e66pxPLx5H" opacity="1" fill-opacity="0" stroke="#000000" stroke-width="1" stroke-opacity="0"/></g></g><g><use xlink:href="#a6ygWmqEx" opacity="1" fill="#000000" fill-opacity="0"/><g><use xlink:href="#a6ygWmqEx" opacity="1" fill-opacity="0" stroke="#000000" stroke-width="1" stroke-opacity="0"/></g></g><g><use xlink:href="#hTcj6XlyP" opacity="1" fill="#ffffff" fill-opacity="1"/><g><use xlink:href="#hTcj6XlyP" opacity="1" fill-opacity="0" stroke="#000000" stroke-width="1" stroke-opacity="0"/></g></g><g><use xlink:href="#g1ba9haJTA" opacity="1" fill="#000000" fill-opacity="0"/><g><use xlink:href="#g1ba9haJTA" opacity="1" fill-opacity="0" stroke="#000000" stroke-width="1" stroke-opacity="0"/></g></g><g><use xlink:href="#bSZOhycxN" opacity="1" fill="#ffffff" fill-opacity="1"/><g><use xlink:href="#bSZOhycxN" opacity="1" fill-opacity="0" stroke="#000000" stroke-width="1" stroke-opacity="0"/></g></g><g><use xlink:href="#bqhvlzIA4" opacity="1" fill="#000000" fill-opacity="0"/><g><use xlink:href="#bqhvlzIA4" opacity="1" fill-opacity="0" stroke="#000000" stroke-width="1" stroke-opacity="0"/></g></g><g><use xlink:href="#a4o1f09oA" opacity="1" fill="#ffffff" fill-opacity="1"/><g><use xlink:href="#a4o1f09oA" opacity="1" fill-opacity="0" stroke="#000000" stroke-width="1" stroke-opacity="0"/></g></g><g><use xlink:href="#b2vaNosYge" opacity="1" fill="#000000" fill-opacity="0"/><g><use xlink:href="#b2vaNosYge" opacity="1" fill-opacity="0" stroke="#000000" stroke-width="1" stroke-opacity="0"/></g></g><g><use xlink:href="#a26hbIz5nO" opacity="1" fill="#ffffff" fill-opacity="1"/><g><use xlink:href="#a26hbIz5nO" opacity="1" fill-opacity="0" stroke="#000000" stroke-width="1" stroke-opacity="0"/></g></g><g><use xlink:href="#c3eHdoGO2N" opacity="1" fill="#000000" fill-opacity="0"/><g><use xlink:href="#c3eHdoGO2N" opacity="1" fill-opacity="0" stroke="#000000" stroke-width="1" stroke-opacity="0"/></g></g></g></g></svg>