<?xml version="1.0" encoding="UTF-8"?>
<svg width="109px" height="108px" viewBox="0 0 109 108" version="1.1" xmlns="http://www.w3.org/2000/svg" xmlns:xlink="http://www.w3.org/1999/xlink">
    <!-- Generator: Sketch 53 (72520) - https://sketchapp.com -->
    <title>Group 2</title>
    <desc>Created with Sketch.</desc>
    <g id="Page-1" stroke="none" stroke-width="1" fill="none" fill-rule="evenodd">
        <g id="Network-Icons" transform="translate(-387.000000, -275.000000)" fill-rule="nonzero">
            <g id="Group-2" transform="translate(387.726562, 275.000000)">
                <g id="Group">
                    <ellipse id="Oval" fill="#325C80" cx="54.2" cy="53.9" rx="54" ry="53.8"></ellipse>
                    <path d="M55.3,44.9 C55.3,41.6 55.3,38.3 55.3,35.1 C55.3,34.1 55.6,33.5 56.5,33 C62.3,29.7 68.1,26.4 73.9,23 C75,22.3 75.4,22.4 75.4,23.8 C75.4,30.5 75.4,37.2 75.4,43.9 C75.4,45 75,45.5 74.1,46 C68.4,49.3 62.6,52.6 56.9,55.9 C55.7,56.6 55.3,56.5 55.3,55 C55.4,51.6 55.3,48.2 55.3,44.9 Z" id="Path" fill="#FFFFFF"></path>
                    <path d="M33.7,22.2 C40.3,26 46.5,29.6 52.7,33.1 C53.4,33.5 53.7,33.9 53.7,34.7 C53.7,41.9 53.7,49 53.7,56.2 C53,56.6 52.6,56.1 52.2,55.8 C46.5,52.5 40.9,49.3 35.2,46 C34.6,45.6 33.8,45.5 33.8,44.5 C33.8,37.1 33.7,29.9 33.7,22.2 Z" id="Path" fill="#FFFFFF"></path>
                    <path d="M55.3,59.5 C61.9,63.3 68,66.9 74.3,70.4 C75.1,70.8 75.3,71.4 75.3,72.2 C75.3,79 75.3,85.7 75.3,92.5 C75.3,93.5 75.1,93.9 74.1,93.3 C68.1,89.8 62.2,86.4 56.2,83 C55.6,82.7 55.4,82.2 55.4,81.5 C55.3,74.3 55.3,67.1 55.3,59.5 Z" id="Path" fill="#FFFFFF"></path>
                    <path d="M74.4,20.7 C67.8,24.5 61.5,28.1 55.2,31.8 C54.6,32.1 54.2,32 53.7,31.7 C47.5,28.1 41.2,24.5 34.9,20.8 C35.8,19.8 36.9,19.4 37.8,18.9 C42.9,15.9 48.1,13 53.2,10 C53.9,9.6 54.5,9.2 55.4,9.7 C61.6,13.4 67.8,16.9 74.4,20.7 Z" id="Path" fill="#FFFFFF"></path>
                    <path d="M56.6,57.9 C60.8,55.5 65,53 69.2,50.6 C71.1,49.5 73.1,48.4 75,47.2 C75.7,46.8 76.3,46.7 77,47.1 C83.1,50.6 89,54.1 95,57.5 C95.2,57.6 95.5,57.7 95.5,58.3 C91.2,60.8 86.8,63.3 82.4,65.9 C80.3,67.1 78.1,69.2 76,69.2 C73.9,69.2 71.9,67.1 69.8,65.9 C65.4,63.4 61.1,60.8 56.7,58.3 C56.7,58.3 56.7,58.2 56.6,57.9 Z" id="Path" fill="#FFFFFF"></path>
                    <path d="M96.8,59.9 C96.8,66.1 96.6,72.3 96.9,78.5 C97,81.6 96.2,83.2 93.4,84.7 C88,87.5 82.7,90.7 77.5,93.8 C76.9,93.2 77.1,92.7 77.1,92.2 C77.1,85.7 77.1,79.2 77.1,72.7 C77.1,71.4 77.5,70.7 78.6,70.1 C84.2,66.9 89.8,63.7 95.5,60.4 C95.7,60.1 96.1,59.7 96.8,59.9 Z" id="Path" fill="#FFFFFF"></path>
                    <path d="M13.1,58 C19.7,54.2 25.9,50.6 32,47 C32.6,46.7 33.1,46.7 33.7,47 C39.9,50.6 46.2,54.2 52.7,58 C47.8,60.8 43.1,63.5 38.5,66.2 C36.6,67.3 34.7,69.1 32.8,69.1 C31,69.1 29.1,67.2 27.3,66.2 C22.7,63.6 18.1,60.9 13.1,58 Z" id="Path" fill="#FFFFFF"></path>
                    <path d="M12.2,59.5 C18.7,63.3 25,66.9 31.2,70.5 C31.7,70.8 32,71.1 32,71.7 C32,79 32,86.3 32,93.9 C30.7,93.2 29.8,92.6 28.8,92.1 C23.7,89.1 18.6,86.2 13.4,83.2 C12.5,82.7 12.2,82.2 12.2,81.2 C12.2,74.1 12.2,67 12.2,59.5 Z" id="Path" fill="#FFFFFF"></path>
                    <path d="M53.7,59.7 C53.7,67.1 53.7,74.4 53.7,81.7 C53.7,82.4 53.4,82.7 52.9,82.9 C46.7,86.5 40.5,90 34,93.8 C34,92.3 34,91.1 34,89.9 C34,84 34,78.1 34,72.3 C34,71.5 34,70.8 34.9,70.3 C40.9,66.9 46.9,63.4 53,60 C53.1,59.9 53.3,59.8 53.7,59.7 Z" id="Path" fill="#FFFFFF"></path>
                </g>
            </g>
        </g>
    </g>
</svg>