<?xml version="1.0" encoding="UTF-8"?>
<svg width="109px" height="108px" viewBox="0 0 109 108" version="1.1" xmlns="http://www.w3.org/2000/svg" xmlns:xlink="http://www.w3.org/1999/xlink">
    <!-- Generator: Sketch 53 (72520) - https://sketchapp.com -->
    <title>Load Balancer Pool</title>
    <desc>Created with Sketch.</desc>
    <g id="Page-1" stroke="none" stroke-width="1" fill="none" fill-rule="evenodd">
        <g id="Network-Icons" transform="translate(-527.000000, -660.000000)">
            <g id="Load-Balancer-Pool" transform="translate(527.859375, 660.000000)">
                <ellipse id="Oval" fill="#38B0DE" fill-rule="nonzero" cx="54" cy="53.8" rx="54" ry="53.8"></ellipse>
                <g id="Group" transform="translate(15.700000, 18.800000)" fill-rule="nonzero">
                    <circle id="Oval" stroke="#FFFFFF" stroke-width="2" fill="#38B0DE" cx="37.9" cy="33.8" r="9.9"></circle>
                    <circle id="Oval" fill="#FFFFFF" cx="13.5" cy="12.4" r="7.5"></circle>
                    <circle id="Oval" fill="#FFFFFF" cx="36.8" cy="7.7" r="7.5"></circle>
                    <circle id="Oval" fill="#FFFFFF" cx="68.2" cy="35.3" r="7.5"></circle>
                    <circle id="Oval" fill="#FFFFFF" cx="63.2" cy="57.7" r="7.5"></circle>
                    <circle id="Oval" fill="#FFFFFF" cx="39.2" cy="62.2" r="7.5"></circle>
                    <circle id="Oval" fill="#FFFFFF" cx="8.4" cy="33.8" r="7.5"></circle>
                    <path d="M30.3,26.3 L13.5,12.4" id="Path" stroke="#FFFFFF" stroke-width="2" fill="#FFFFFF"></path>
                    <path d="M8.4,33.8 L28,33.8" id="Path" stroke="#FFFFFF" stroke-width="2" fill="#FFFFFF"></path>
                    <path d="M39.2,62.2 L39.2,43.6" id="Path" stroke="#FFFFFF" stroke-width="2" fill="#FFFFFF"></path>
                    <path d="M63.2,57.7 L45.3,40.4" id="Path" stroke="#FFFFFF" stroke-width="2" fill="#FFFFFF"></path>
                    <path d="M68.2,35.3 L47.6,35.3" id="Path" stroke="#FFFFFF" stroke-width="2" fill="#FFFFFF"></path>
                    <path d="M36.8,7.7 L37.9,24" id="Path" stroke="#FFFFFF" stroke-width="2" fill="#FFFFFF"></path>
                </g>
                <circle id="Oval" stroke="#FFFFFF" stroke-width="3" cx="54" cy="53.8" r="48.9"></circle>
            </g>
        </g>
    </g>
</svg>