<svg version="1.1" xmlns="http://www.w3.org/2000/svg" xmlns:xlink="http://www.w3.org/1999/xlink" preserveAspectRatio="xMidYMid meet" viewBox="0 0 640 640" width="640" height="640"><defs><path d="M320 632.49C146.67 632.49 6.16 492.58 6.16 320.01C6.16 147.42 146.67 7.52 320 7.52C493.33 7.52 633.84 147.42 633.84 320.01C633.84 492.58 493.33 632.49 320 632.49Z" id="b1saaq9y2y"/><path d="M320 632.49C146.67 632.49 6.16 492.58 6.16 320.01C6.16 147.42 146.67 7.52 320 7.52C493.33 7.52 633.84 147.42 633.84 320.01C633.84 492.58 493.33 632.49 320 632.49Z" id="b4QFQsgbzP"/><path d="M313.23 302.49L314.27 303.42L314.78 303.88L315.8 304.84L316.3 305.32L316.79 305.81L317.29 306.29L317.78 306.8L318.26 307.3L318.74 307.81L319.21 308.32L319.69 308.83L320.15 309.34L320.6 309.86L321.06 310.38L321.51 310.92L321.95 311.45L322.4 311.99L322.82 312.54L323.25 313.08L324.51 314.75L324.92 315.32L325.32 315.87L325.73 316.44L326.12 317.01L326.89 318.18L327.64 319.35L328 319.93L329.08 321.73L329.43 322.35L329.76 322.95L330.1 323.56L330.43 324.17L360.87 325.12L368.07 364.94L337.73 377.04L337.67 377.34L337.6 377.64L337.54 377.95L337.48 378.25L337.4 378.55L337.34 378.85L337.27 379.15L337.21 379.45L337.06 380.05L337 380.35L336.77 381.25L336.68 381.55L336.46 382.45L336.37 382.75L336.29 383.05L336.2 383.35L336.11 383.63L336.02 383.93L335.95 384.23L335.86 384.53L335.77 384.82L335.59 385.42L335.48 385.7L335.3 386.3L335.2 386.59L335.11 386.89L335 387.17L334.9 387.47L334.81 387.75L334.7 388.05L334.6 388.34L334.49 388.64L334.39 388.92L334.28 389.22L334.16 389.51L334.06 389.81L333.95 390.09L333.83 390.39L333.71 390.68L333.61 390.96L333.49 391.26L333.37 391.55L333.25 391.85L332.77 392.99L332.64 393.29L332.4 393.86L332.13 394.42L332.01 394.71L331.6 395.56L331.47 395.83L330.93 396.97L330.79 397.24L330.64 397.53L330.51 397.8L330.36 398.08L330.22 398.37L330.07 398.64L329.92 398.92L329.62 399.46L329.47 399.75L329.17 400.29L344.3 429.17L313.02 454.72L289.24 435.54L288.58 435.79L287.94 436.03L286.62 436.51L284.64 437.19L283.98 437.4L283.31 437.61L282.65 437.8L281.97 438L279.95 438.54L278.6 438.87L277.93 439.02L277.24 439.17L276.56 439.31L275.87 439.45L275.2 439.58L273.82 439.82L273.13 439.93L272.46 440.03L271.77 440.14L271.08 440.23L270.37 440.32L268.99 440.47L268.31 440.53L267.6 440.59L266.91 440.65L266.22 440.69L265.52 440.74L264.83 440.77L263.42 440.83L262.73 440.84L262.02 440.84L245.97 465.66L208.64 451.8L212.61 422.5L211.56 421.57L211.05 421.09L210.54 420.62L210.03 420.14L209.52 419.65L208.53 418.66L208.05 418.17L207.56 417.67L207.08 417.16L206.61 416.65L206.13 416.13L205.67 415.6L204.77 414.55L204.32 414.01L203.87 413.49L203.44 412.95L203 412.4L202.57 411.86L202.15 411.3L201.73 410.73L201.31 410.18L200.09 408.47L199.7 407.9L199.31 407.31L198.94 406.73L198.55 406.15L198.19 405.56L197.81 404.96L197.1 403.76L196.75 403.16L196.06 401.93L195.4 400.7L164.96 399.76L157.77 359.94L188.1 347.84L188.22 347.23L188.34 346.63L188.48 346.01L188.75 344.81L188.88 344.2L189.03 343.6L189.2 343L189.35 342.4L189.68 341.2L189.86 340.62L190.04 340.02L190.22 339.43L190.4 338.83L190.79 337.66L191.62 335.33L191.85 334.76L192.07 334.17L192.31 333.6L192.54 333.03L192.78 332.46L193.29 331.32L193.54 330.77L193.8 330.2L194.07 329.65L194.34 329.08L194.88 327.97L195.16 327.43L195.46 326.87L195.75 326.32L196.65 324.7L181.54 295.82L212.82 270.26L236.59 289.45L237.23 289.19L238.55 288.71L239.2 288.47L240.52 288.02L241.19 287.8L242.51 287.38L243.86 286.99L244.52 286.81L245.87 286.45L246.54 286.28L247.23 286.12L248.58 285.82L249.27 285.67L249.94 285.53L250.63 285.4L251.32 285.28L252 285.16L254.07 284.84L255.45 284.66L256.13 284.59L256.84 284.52L258.22 284.4L258.92 284.34L259.61 284.29L260.32 284.25L261.01 284.22L261.71 284.19L262.4 284.16L263.1 284.14L263.79 284.14L279.86 259.42L317.18 273.18L313.23 302.49ZM267.35 290.6L263.06 290.6L262.43 290.62L261.79 290.65L261.16 290.66L260.51 290.69L259.25 290.78L258.61 290.83L257.98 290.87L257.35 290.93L256.72 291.01L256.09 291.06L255.46 291.15L254.83 291.23L253.57 291.41L252.31 291.62L251.7 291.74L251.07 291.84L250.44 291.98L249.82 292.1L249.21 292.23L248.58 292.38L247.97 292.52L247.35 292.68L246.74 292.83L245.51 293.16L244.89 293.34L244.29 293.52L243.68 293.7L243.08 293.9L242.47 294.09L240.67 294.72L239.47 295.17L238.88 295.4L235.33 296.75L232.42 294.35L212.82 278.5L189.98 297.06L202.49 320.94L204.26 324.17L202.39 327.52L202.1 328L201.83 328.49L201.56 328.97L201.29 329.47L200.78 330.45L200.53 330.96L200.27 331.46L200.03 331.97L199.79 332.46L199.31 333.48L198.64 335.01L198.43 335.54L198.22 336.05L198.01 336.57L197.81 337.09L197.6 337.62L197.41 338.14L197.23 338.67L197.04 339.19L196.86 339.72L196.69 340.24L196.51 340.78L196.35 341.31L196.02 342.39L195.57 344L195.16 345.62L195.03 346.18L194.91 346.72L194.79 347.27L194.68 347.81L194.56 348.37L193.84 352.01L190.4 353.37L165.38 363.79L170.58 392.67L195.3 393.62L199.04 393.62L200.83 396.96L201.43 398.07L201.74 398.64L202.06 399.19L202.39 399.73L202.7 400.29L203.03 400.82L203.72 401.9L204.06 402.43L204.41 402.97L205.49 404.54L206.24 405.56L206.61 406.09L207 406.58L207.39 407.09L208.17 408.08L208.98 409.07L209.4 409.55L209.81 410.03L210.23 410.51L210.66 410.97L211.08 411.45L211.51 411.92L211.96 412.37L212.4 412.83L213.75 414.18L214.21 414.61L214.68 415.06L215.14 415.48L215.61 415.92L216.57 416.76L219.28 419.16L219.28 422.81L216.04 446.69L243.47 457.12L256.51 436.89L258.49 433.75L262.77 433.75L263.4 433.74L264.05 433.72L265.31 433.66L265.95 433.63L267.21 433.54L267.86 433.48L269.11 433.36L270.37 433.21L272.26 432.94L273.52 432.74L274.14 432.63L274.77 432.51L275.38 432.39L276.01 432.26L277.24 431.99L277.87 431.84L278.48 431.69L280.33 431.19L280.93 431.03L281.54 430.85L282.15 430.65L283.35 430.26L283.97 430.07L284.57 429.86L285.17 429.63L285.75 429.42L286.35 429.2L286.95 428.96L290.49 427.61L293.41 430.01L313.02 445.85L335.74 427.29L323.96 403.63L322.19 400.29L324.06 396.96L324.35 396.46L324.62 395.98L325.43 394.5L325.94 393.51L326.18 393L326.43 392.51L326.91 391.49L327.13 390.98L327.37 390.47L327.58 389.96L327.81 389.45L328.03 388.92L328.24 388.41L328.44 387.89L328.65 387.38L329.23 385.81L329.41 385.28L329.59 384.74L329.77 384.22L329.95 383.68L330.12 383.15L330.28 382.61L330.43 382.07L330.58 381.55L330.88 380.47L331.03 379.92L331.3 378.84L331.42 378.3L331.54 377.74L331.66 377.2L331.78 376.65L331.89 376.09L332.62 372.45L336.05 371.09L361.08 360.67L355.87 331.79L330.64 331.05L326.88 331.05L325.11 327.73L324.81 327.16L324.5 326.6L324.2 326.05L323.88 325.49L323.22 324.38L322.56 323.3L322.22 322.77L321.87 322.24L321.53 321.7L320.45 320.13L319.33 318.6L318.55 317.58L318.16 317.08L317.75 316.59L317.36 316.1L316.94 315.62L316.54 315.12L315.7 314.16L315.28 313.7L314.84 313.22L314.41 312.75L313.97 312.3L313.54 311.84L312.64 310.94L312.18 310.49L311.73 310.06L310.8 309.19L310.32 308.75L309.85 308.33L309.36 307.91L306.66 305.51L306.66 301.86L309.88 277.98L282.47 267.56L269.32 287.47L267.35 290.6Z" id="b4ucBdAL85"/><path d="M313.23 302.49L314.27 303.42L314.78 303.88L315.8 304.84L316.3 305.32L316.79 305.81L317.29 306.29L317.78 306.8L318.26 307.3L318.74 307.81L319.21 308.32L319.69 308.83L320.15 309.34L320.6 309.86L321.06 310.38L321.51 310.92L321.95 311.45L322.4 311.99L322.82 312.54L323.25 313.08L324.51 314.75L324.92 315.32L325.32 315.87L325.73 316.44L326.12 317.01L326.89 318.18L327.64 319.35L328 319.93L329.08 321.73L329.43 322.35L329.76 322.95L330.1 323.56L330.43 324.17L360.87 325.12L368.07 364.94L337.73 377.04L337.67 377.34L337.6 377.64L337.54 377.95L337.48 378.25L337.4 378.55L337.34 378.85L337.27 379.15L337.21 379.45L337.06 380.05L337 380.35L336.77 381.25L336.68 381.55L336.46 382.45L336.37 382.75L336.29 383.05L336.2 383.35L336.11 383.63L336.02 383.93L335.95 384.23L335.86 384.53L335.77 384.82L335.59 385.42L335.48 385.7L335.3 386.3L335.2 386.59L335.11 386.89L335 387.17L334.9 387.47L334.81 387.75L334.7 388.05L334.6 388.34L334.49 388.64L334.39 388.92L334.28 389.22L334.16 389.51L334.06 389.81L333.95 390.09L333.83 390.39L333.71 390.68L333.61 390.96L333.49 391.26L333.37 391.55L333.25 391.85L332.77 392.99L332.64 393.29L332.4 393.86L332.13 394.42L332.01 394.71L331.6 395.56L331.47 395.83L330.93 396.97L330.79 397.24L330.64 397.53L330.51 397.8L330.36 398.08L330.22 398.37L330.07 398.64L329.92 398.92L329.62 399.46L329.47 399.75L329.17 400.29L344.3 429.17L313.02 454.72L289.24 435.54L288.58 435.79L287.94 436.03L286.62 436.51L284.64 437.19L283.98 437.4L283.31 437.61L282.65 437.8L281.97 438L279.95 438.54L278.6 438.87L277.93 439.02L277.24 439.17L276.56 439.31L275.87 439.45L275.2 439.58L273.82 439.82L273.13 439.93L272.46 440.03L271.77 440.14L271.08 440.23L270.37 440.32L268.99 440.47L268.31 440.53L267.6 440.59L266.91 440.65L266.22 440.69L265.52 440.74L264.83 440.77L263.42 440.83L262.73 440.84L262.02 440.84L245.97 465.66L208.64 451.8L212.61 422.5L211.56 421.57L211.05 421.09L210.54 420.62L210.03 420.14L209.52 419.65L208.53 418.66L208.05 418.17L207.56 417.67L207.08 417.16L206.61 416.65L206.13 416.13L205.67 415.6L204.77 414.55L204.32 414.01L203.87 413.49L203.44 412.95L203 412.4L202.57 411.86L202.15 411.3L201.73 410.73L201.31 410.18L200.09 408.47L199.7 407.9L199.31 407.31L198.94 406.73L198.55 406.15L198.19 405.56L197.81 404.96L197.1 403.76L196.75 403.16L196.06 401.93L195.4 400.7L164.96 399.76L157.77 359.94L188.1 347.84L188.22 347.23L188.34 346.63L188.48 346.01L188.75 344.81L188.88 344.2L189.03 343.6L189.2 343L189.35 342.4L189.68 341.2L189.86 340.62L190.04 340.02L190.22 339.43L190.4 338.83L190.79 337.66L191.62 335.33L191.85 334.76L192.07 334.17L192.31 333.6L192.54 333.03L192.78 332.46L193.29 331.32L193.54 330.77L193.8 330.2L194.07 329.65L194.34 329.08L194.88 327.97L195.16 327.43L195.46 326.87L195.75 326.32L196.65 324.7L181.54 295.82L212.82 270.26L236.59 289.45L237.23 289.19L238.55 288.71L239.2 288.47L240.52 288.02L241.19 287.8L242.51 287.38L243.86 286.99L244.52 286.81L245.87 286.45L246.54 286.28L247.23 286.12L248.58 285.82L249.27 285.67L249.94 285.53L250.63 285.4L251.32 285.28L252 285.16L254.07 284.84L255.45 284.66L256.13 284.59L256.84 284.52L258.22 284.4L258.92 284.34L259.61 284.29L260.32 284.25L261.01 284.22L261.71 284.19L262.4 284.16L263.1 284.14L263.79 284.14L279.86 259.42L317.18 273.18L313.23 302.49ZM267.35 290.6L263.06 290.6L262.43 290.62L261.79 290.65L261.16 290.66L260.51 290.69L259.25 290.78L258.61 290.83L257.98 290.87L257.35 290.93L256.72 291.01L256.09 291.06L255.46 291.15L254.83 291.23L253.57 291.41L252.31 291.62L251.7 291.74L251.07 291.84L250.44 291.98L249.82 292.1L249.21 292.23L248.58 292.38L247.97 292.52L247.35 292.68L246.74 292.83L245.51 293.16L244.89 293.34L244.29 293.52L243.68 293.7L243.08 293.9L242.47 294.09L240.67 294.72L239.47 295.17L238.88 295.4L235.33 296.75L232.42 294.35L212.82 278.5L189.98 297.06L202.49 320.94L204.26 324.17L202.39 327.52L202.1 328L201.83 328.49L201.56 328.97L201.29 329.47L200.78 330.45L200.53 330.96L200.27 331.46L200.03 331.97L199.79 332.46L199.31 333.48L198.64 335.01L198.43 335.54L198.22 336.05L198.01 336.57L197.81 337.09L197.6 337.62L197.41 338.14L197.23 338.67L197.04 339.19L196.86 339.72L196.69 340.24L196.51 340.78L196.35 341.31L196.02 342.39L195.57 344L195.16 345.62L195.03 346.18L194.91 346.72L194.79 347.27L194.68 347.81L194.56 348.37L193.84 352.01L190.4 353.37L165.38 363.79L170.58 392.67L195.3 393.62L199.04 393.62L200.83 396.96L201.43 398.07L201.74 398.64L202.06 399.19L202.39 399.73L202.7 400.29L203.03 400.82L203.72 401.9L204.06 402.43L204.41 402.97L205.49 404.54L206.24 405.56L206.61 406.09L207 406.58L207.39 407.09L208.17 408.08L208.98 409.07L209.4 409.55L209.81 410.03L210.23 410.51L210.66 410.97L211.08 411.45L211.51 411.92L211.96 412.37L212.4 412.83L213.75 414.18L214.21 414.61L214.68 415.06L215.14 415.48L215.61 415.92L216.57 416.76L219.28 419.16L219.28 422.81L216.04 446.69L243.47 457.12L256.51 436.89L258.49 433.75L262.77 433.75L263.4 433.74L264.05 433.72L265.31 433.66L265.95 433.63L267.21 433.54L267.86 433.48L269.11 433.36L270.37 433.21L272.26 432.94L273.52 432.74L274.14 432.63L274.77 432.51L275.38 432.39L276.01 432.26L277.24 431.99L277.87 431.84L278.48 431.69L280.33 431.19L280.93 431.03L281.54 430.85L282.15 430.65L283.35 430.26L283.97 430.07L284.57 429.86L285.17 429.63L285.75 429.42L286.35 429.2L286.95 428.96L290.49 427.61L293.41 430.01L313.02 445.85L335.74 427.29L323.96 403.63L322.19 400.29L324.06 396.96L324.35 396.46L324.62 395.98L325.43 394.5L325.94 393.51L326.18 393L326.43 392.51L326.91 391.49L327.13 390.98L327.37 390.47L327.58 389.96L327.81 389.45L328.03 388.92L328.24 388.41L328.44 387.89L328.65 387.38L329.23 385.81L329.41 385.28L329.59 384.74L329.77 384.22L329.95 383.68L330.12 383.15L330.28 382.61L330.43 382.07L330.58 381.55L330.88 380.47L331.03 379.92L331.3 378.84L331.42 378.3L331.54 377.74L331.66 377.2L331.78 376.65L331.89 376.09L332.62 372.45L336.05 371.09L361.08 360.67L355.87 331.79L330.64 331.05L326.88 331.05L325.11 327.73L324.81 327.16L324.5 326.6L324.2 326.05L323.88 325.49L323.22 324.38L322.56 323.3L322.22 322.77L321.87 322.24L321.53 321.7L320.45 320.13L319.33 318.6L318.55 317.58L318.16 317.08L317.75 316.59L317.36 316.1L316.94 315.62L316.54 315.12L315.7 314.16L315.28 313.7L314.84 313.22L314.41 312.75L313.97 312.3L313.54 311.84L312.64 310.94L312.18 310.49L311.73 310.06L310.8 309.19L310.32 308.75L309.85 308.33L309.36 307.91L306.66 305.51L306.66 301.86L309.88 277.98L282.47 267.56L269.32 287.47L267.35 290.6Z" id="c2bH1Q2lO5"/><path d="M265.85 321.12L267.75 321.37L269.64 321.7L271.53 322.12L273.42 322.65L275.29 323.26L277.15 323.96L278.95 324.71L280.7 325.54L282.39 326.44L284.03 327.41L285.6 328.45L287.12 329.56L288.55 330.72L289.95 331.95L291.28 333.24L292.54 334.58L293.74 335.97L294.86 337.41L295.93 338.91L296.92 340.44L297.83 342.01L298.67 343.61L299.45 345.26L300.14 346.94L300.77 348.67L301.31 350.4L301.77 352.16L302.16 353.94L302.48 355.75L302.7 357.57L302.84 359.41L302.9 361.26L302.87 363.11L302.76 364.97L302.55 366.83L302.27 368.69L301.89 370.56L301.41 372.41L300.84 374.27L300.19 376.09L300.11 376.32L300.1 376.35L300.04 376.53L300.02 376.56L299.99 376.65L299.96 376.69L299.93 376.78L299.92 376.81L299.86 376.99L299.84 377.02L299.81 377.11L299.78 377.16L299.75 377.25L299.74 377.28L299.68 377.46L299.65 377.49L299.63 377.53L298.84 379.36L297.97 381.13L297.02 382.84L295.99 384.49L294.91 386.06L293.76 387.59L292.54 389.04L291.25 390.44L289.92 391.77L288.54 393.03L287.09 394.23L285.6 395.35L284.06 396.4L282.48 397.38L280.87 398.29L279.2 399.12L277.51 399.87L275.78 400.55L274.03 401.15L272.25 401.68L270.43 402.11L268.6 402.47L266.76 402.76L264.9 402.95L263.03 403.06L261.14 403.09L259.25 403.01L257.36 402.86L255.46 402.62L253.57 402.29L251.68 401.86L249.79 401.35L247.92 400.73L246.06 400.02L244.23 399.22L242.48 398.35L240.77 397.41L239.12 396.39L237.53 395.29L236.01 394.14L234.55 392.93L233.16 391.65L231.82 390.3L230.56 388.92L229.38 387.49L228.26 385.99L227.21 384.46L226.22 382.87L225.32 381.25L224.48 379.59L223.73 377.89L223.04 376.17L222.44 374.42L221.92 372.63L221.48 370.82L221.12 369L220.84 367.15L220.64 365.29L220.54 363.41L220.52 361.54L220.58 359.64L220.73 357.75L220.97 355.86L221.32 353.96L221.74 352.07L222.26 350.19L222.88 348.32L223.58 346.45L224.37 344.63L225.24 342.86L226.2 341.16L227.22 339.51L228.3 337.92L229.46 336.4L230.68 334.94L231.96 333.54L233.29 332.22L234.69 330.95L236.13 329.76L237.61 328.64L239.15 327.59L240.73 326.6L242.35 325.7L244.01 324.88L245.7 324.11L247.43 323.44L249.18 322.84L250.96 322.32L252.78 321.87L254.61 321.51L256.45 321.24L258.31 321.04L260.18 320.92L262.07 320.91L263.96 320.97L265.85 321.12ZM259.18 349.08L257.36 349.68L255.65 350.54L254.08 351.6L252.66 352.91L251.43 354.39L250.39 356.08L249.61 357.94L249.11 359.91L248.9 361.87L248.97 363.8L249.31 365.69L249.91 367.51L250.75 369.21L251.83 370.8L253.12 372.21L254.62 373.46L256.3 374.48L258.17 375.27L258.19 375.27L258.25 375.28L260.17 375.81L262.1 376.03L264 375.97L265.86 375.66L267.66 375.09L269.35 374.27L270.91 373.23L272.32 371.97L273.55 370.5L274.59 368.85L275.38 367.03L275.38 367L275.41 366.94L275.41 366.91L275.42 366.88L275.45 366.83L275.45 366.8L275.48 366.74L275.48 366.71L275.99 364.75L276.2 362.78L276.13 360.85L275.78 358.96L275.18 357.15L274.35 355.44L273.27 353.85L271.98 352.44L270.48 351.2L268.8 350.18L266.93 349.38L264.96 348.88L263.01 348.67L261.07 348.74L259.18 349.08Z" id="b2AyCEaHrZ"/><path d="M265.85 321.12L267.75 321.37L269.64 321.7L271.53 322.12L273.42 322.65L275.29 323.26L277.15 323.96L278.95 324.71L280.7 325.54L282.39 326.44L284.03 327.41L285.6 328.45L287.12 329.56L288.55 330.72L289.95 331.95L291.28 333.24L292.54 334.58L293.74 335.97L294.86 337.41L295.93 338.91L296.92 340.44L297.83 342.01L298.67 343.61L299.45 345.26L300.14 346.94L300.77 348.67L301.31 350.4L301.77 352.16L302.16 353.94L302.48 355.75L302.7 357.57L302.84 359.41L302.9 361.26L302.87 363.11L302.76 364.97L302.55 366.83L302.27 368.69L301.89 370.56L301.41 372.41L300.84 374.27L300.19 376.09L300.11 376.32L300.1 376.35L300.04 376.53L300.02 376.56L299.99 376.65L299.96 376.69L299.93 376.78L299.92 376.81L299.86 376.99L299.84 377.02L299.81 377.11L299.78 377.16L299.75 377.25L299.74 377.28L299.68 377.46L299.65 377.49L299.63 377.53L298.84 379.36L297.97 381.13L297.02 382.84L295.99 384.49L294.91 386.06L293.76 387.59L292.54 389.04L291.25 390.44L289.92 391.77L288.54 393.03L287.09 394.23L285.6 395.35L284.06 396.4L282.48 397.38L280.87 398.29L279.2 399.12L277.51 399.87L275.78 400.55L274.03 401.15L272.25 401.68L270.43 402.11L268.6 402.47L266.76 402.76L264.9 402.95L263.03 403.06L261.14 403.09L259.25 403.01L257.36 402.86L255.46 402.62L253.57 402.29L251.68 401.86L249.79 401.35L247.92 400.73L246.06 400.02L244.23 399.22L242.48 398.35L240.77 397.41L239.12 396.39L237.53 395.29L236.01 394.14L234.55 392.93L233.16 391.65L231.82 390.3L230.56 388.92L229.38 387.49L228.26 385.99L227.21 384.46L226.22 382.87L225.32 381.25L224.48 379.59L223.73 377.89L223.04 376.17L222.44 374.42L221.92 372.63L221.48 370.82L221.12 369L220.84 367.15L220.64 365.29L220.54 363.41L220.52 361.54L220.58 359.64L220.73 357.75L220.97 355.86L221.32 353.96L221.74 352.07L222.26 350.19L222.88 348.32L223.58 346.45L224.37 344.63L225.24 342.86L226.2 341.16L227.22 339.51L228.3 337.92L229.46 336.4L230.68 334.94L231.96 333.54L233.29 332.22L234.69 330.95L236.13 329.76L237.61 328.64L239.15 327.59L240.73 326.6L242.35 325.7L244.01 324.88L245.7 324.11L247.43 323.44L249.18 322.84L250.96 322.32L252.78 321.87L254.61 321.51L256.45 321.24L258.31 321.04L260.18 320.92L262.07 320.91L263.96 320.97L265.85 321.12ZM259.18 349.08L257.36 349.68L255.65 350.54L254.08 351.6L252.66 352.91L251.43 354.39L250.39 356.08L249.61 357.94L249.11 359.91L248.9 361.87L248.97 363.8L249.31 365.69L249.91 367.51L250.75 369.21L251.83 370.8L253.12 372.21L254.62 373.46L256.3 374.48L258.17 375.27L258.19 375.27L258.25 375.28L260.17 375.81L262.1 376.03L264 375.97L265.86 375.66L267.66 375.09L269.35 374.27L270.91 373.23L272.32 371.97L273.55 370.5L274.59 368.85L275.38 367.03L275.38 367L275.41 366.94L275.41 366.91L275.42 366.88L275.45 366.83L275.45 366.8L275.48 366.74L275.48 366.71L275.99 364.75L276.2 362.78L276.13 360.85L275.78 358.96L275.18 357.15L274.35 355.44L273.27 353.85L271.98 352.44L270.48 351.2L268.8 350.18L266.93 349.38L264.96 348.88L263.01 348.67L261.07 348.74L259.18 349.08Z" id="b1Ti38j1PI"/><path d="M420.08 195.81L420.59 195.98L421.1 196.13L421.61 196.31L422.12 196.47L422.61 196.65L423.12 196.83L425.1 197.61L426.09 198.03L426.57 198.24L427.06 198.45L428.02 198.9L429.46 199.62L429.92 199.86L430.4 200.12L431.8 200.88L432.26 201.15L432.71 201.42L433.18 201.69L434.53 202.54L434.98 202.84L435.43 203.13L435.86 203.43L436.31 203.74L436.74 204.04L437.18 204.36L437.6 204.67L438.03 205L459.41 195.62L477.33 220.95L460.25 239.09L460.29 239.33L460.41 239.77L460.46 240.01L460.52 240.24L460.56 240.46L460.62 240.7L460.71 241.15L460.76 241.39L460.82 241.62L460.86 241.84L460.91 242.08L460.95 242.31L461 242.55L461.04 242.77L461.07 243.01L461.12 243.24L461.16 243.48L461.21 243.7L461.24 243.94L461.28 244.17L461.31 244.41L461.36 244.63L461.39 244.87L461.42 245.1L461.45 245.34L461.49 245.56L461.52 245.8L461.55 246.02L461.61 246.5L461.63 246.73L461.66 246.97L461.69 247.19L461.72 247.43L461.73 247.67L461.76 247.9L461.77 248.14L461.8 248.38L461.94 250.54L461.94 250.78L461.95 251.02L461.95 251.26L461.97 251.5L461.97 251.74L461.98 251.98L461.98 254.37L461.97 254.61L461.97 254.85L461.95 255.09L461.95 255.33L461.94 255.57L461.94 255.81L461.8 257.97L481.62 273.08L468.16 300.93L445.54 295.29L444.79 296.07L443.67 297.2L443.28 297.57L442.11 298.65L441.71 299.01L441.32 299.35L440.51 300.04L440.09 300.39L439.68 300.72L438.42 301.71L437.99 302.02L437.57 302.34L436.7 302.97L435.83 303.57L435.38 303.87L434.95 304.15L434.05 304.72L433.58 305L432.68 305.54L431.75 306.08L430.82 306.59L430.34 306.85L429.88 307.09L428.44 307.81L425.41 330.12L395.08 332.72L388.41 311.13L387.88 310.98L386.86 310.68L386.35 310.52L385.84 310.34L385.35 310.18L384.84 310L384.35 309.82L383.84 309.62L383.34 309.44L382.85 309.25L382.35 309.04L381.86 308.84L381.36 308.63L380.88 308.41L380.39 308.2L379.43 307.75L378.95 307.51L378.47 307.28L377.99 307.03L377.53 306.79L377.05 306.55L376.58 306.29L376.12 306.02L375.65 305.77L375.19 305.5L374.74 305.23L374.27 304.96L372.47 303.82L372.02 303.52L371.59 303.22L371.16 302.91L370.72 302.61L369.85 301.98L369.42 301.65L348.04 310.94L330.12 285.7L347.22 267.56L347.08 267.1L346.72 265.7L346.62 265.24L346.51 264.76L346.3 263.83L346.21 263.37L346.12 262.89L346.03 262.42L345.94 261.94L345.87 261.48L345.79 261L345.72 260.53L345.65 260.05L345.59 259.57L345.53 259.11L345.48 258.63L345.42 258.15L345.38 257.67L345.33 257.21L345.29 256.73L345.17 254.81L345.12 253.37L345.12 251.45L345.14 250.97L345.14 250.49L345.17 250.01L345.18 249.55L345.24 248.59L325.43 233.46L338.87 205.62L361.4 211.04L361.76 210.65L362.13 210.28L362.51 209.89L362.88 209.51L363.27 209.14L363.65 208.78L364.04 208.4L364.43 208.04L364.83 207.68L365.22 207.34L365.62 206.98L366.84 205.95L368.52 204.63L368.94 204.31L369.37 204L369.79 203.68L370.23 203.38L370.66 203.07L371.11 202.77L371.54 202.48L371.99 202.18L373.34 201.33L373.79 201.06L375.19 200.25L376.58 199.49L378.5 198.53L381.51 176.22L411.86 173.72L419.06 195.51L420.08 195.81ZM383.61 199.58L383.61 202.39L381.11 203.53L380.66 203.74L380.22 203.97L379.79 204.18L379.35 204.4L378.93 204.63L378.5 204.87L378.08 205.09L377.65 205.33L377.23 205.59L376.81 205.83L376.39 206.08L375.98 206.34L375.56 206.59L375.16 206.85L373.94 207.65L373.54 207.94L373.15 208.21L372.37 208.78L371.98 209.08L371.59 209.36L371.2 209.66L370.83 209.96L370.45 210.28L370.08 210.58L369.33 211.21L368.97 211.52L368.61 211.85L368.23 212.18L367.89 212.51L367.17 213.17L366.13 214.2L365.8 214.55L365.46 214.91L363.48 216.99L360.66 216.26L341.9 211.67L332.1 231.89L348.46 244.41L350.76 246.08L350.76 248.99L350.67 250.3L350.65 250.72L350.62 251.15L350.61 251.59L350.61 252.02L350.59 252.44L350.59 254.16L350.64 255.47L350.65 255.89L350.71 256.76L350.74 257.18L350.77 257.61L350.82 258.03L350.85 258.47L350.89 258.9L350.95 259.32L351 259.75L351.06 260.17L351.12 260.61L351.18 261.03L351.25 261.45L351.31 261.88L351.39 262.3L351.48 262.72L351.55 263.16L351.91 264.84L352.22 266.09L352.84 268.91L350.86 271L336.79 286.01L349.83 304.36L367.54 296.75L370.15 295.61L372.44 297.17L372.83 297.46L373.22 297.75L373.63 298.03L374.02 298.32L374.42 298.6L375.64 299.41L376.04 299.67L376.46 299.94L376.87 300.19L377.29 300.43L377.71 300.69L378.54 301.17L378.98 301.41L379.4 301.63L380.7 302.31L382.01 302.94L382.46 303.15L382.89 303.34L383.79 303.73L385.59 304.45L386.05 304.61L386.5 304.78L387.43 305.11L387.88 305.26L388.35 305.41L388.83 305.54L389.29 305.69L389.76 305.83L392.36 306.55L393.2 309.26L399.03 326.99L421.25 325.12L423.75 306.86L423.75 304.04L426.25 302.91L427.12 302.49L428.86 301.59L430.54 300.63L431.38 300.12L431.78 299.86L432.2 299.59L432.61 299.34L433.42 298.8L433.81 298.51L434.21 298.23L434.6 297.96L434.99 297.66L435.38 297.38L435.77 297.08L436.14 296.78L436.53 296.48L436.91 296.18L437.28 295.86L437.66 295.56L438.02 295.23L438.39 294.92L438.75 294.6L439.83 293.61L440.18 293.27L440.52 292.94L441.21 292.25L441.56 291.89L441.89 291.54L443.86 289.45L446.68 290.18L465.45 294.77L475.25 274.55L458.99 261.72L456.69 260.05L456.69 257.13L456.72 256.29L456.74 255.86L456.74 255.44L456.75 255.02L456.75 254.6L456.74 254.18L456.74 253.76L456.72 253.32L456.68 252.07L456.65 251.65L456.63 251.23L456.59 250.81L456.53 249.97L456.39 248.71L456.33 248.29L456.29 247.87L456.23 247.45L456.17 247.04L456.09 246.62L456.03 246.2L455.96 245.79L455.88 245.38L455.81 244.96L455.72 244.54L455.63 244.14L455.55 243.72L455.45 243.31L455.36 242.89L455.26 242.49L455.17 242.08L455.05 241.66L454.84 240.85L454.72 240.45L454.09 237.63L456.06 235.55L470.14 220.53L457.11 202.18L439.38 209.8L436.77 210.94L434.48 209.17L434.09 208.87L433.31 208.3L432.91 208.01L432.52 207.74L432.11 207.46L431.3 206.92L430.88 206.67L430.48 206.41L429.22 205.65L427.96 204.93L427.53 204.7L427.11 204.48L426.24 204.03L425.37 203.61L424.92 203.4L424.48 203.19L424.03 202.99L423.6 202.8L423.15 202.6L421.8 202.06L421.34 201.88L420.89 201.72L420.42 201.55L419.97 201.39L419.51 201.24L419.04 201.07L418.58 200.94L418.11 200.79L417.18 200.52L414.58 199.79L408.31 179.45L386.1 181.34L383.61 199.58Z" id="iqUGduUi5"/><path d="M420.08 195.81L420.59 195.98L421.1 196.13L421.61 196.31L422.12 196.47L422.61 196.65L423.12 196.83L425.1 197.61L426.09 198.03L426.57 198.24L427.06 198.45L428.02 198.9L429.46 199.62L429.92 199.86L430.4 200.12L431.8 200.88L432.26 201.15L432.71 201.42L433.18 201.69L434.53 202.54L434.98 202.84L435.43 203.13L435.86 203.43L436.31 203.74L436.74 204.04L437.18 204.36L437.6 204.67L438.03 205L459.41 195.62L477.33 220.95L460.25 239.09L460.29 239.33L460.41 239.77L460.46 240.01L460.52 240.24L460.56 240.46L460.62 240.7L460.71 241.15L460.76 241.39L460.82 241.62L460.86 241.84L460.91 242.08L460.95 242.31L461 242.55L461.04 242.77L461.07 243.01L461.12 243.24L461.16 243.48L461.21 243.7L461.24 243.94L461.28 244.17L461.31 244.41L461.36 244.63L461.39 244.87L461.42 245.1L461.45 245.34L461.49 245.56L461.52 245.8L461.55 246.02L461.61 246.5L461.63 246.73L461.66 246.97L461.69 247.19L461.72 247.43L461.73 247.67L461.76 247.9L461.77 248.14L461.8 248.38L461.94 250.54L461.94 250.78L461.95 251.02L461.95 251.26L461.97 251.5L461.97 251.74L461.98 251.98L461.98 254.37L461.97 254.61L461.97 254.85L461.95 255.09L461.95 255.33L461.94 255.57L461.94 255.81L461.8 257.97L481.62 273.08L468.16 300.93L445.54 295.29L444.79 296.07L443.67 297.2L443.28 297.57L442.11 298.65L441.71 299.01L441.32 299.35L440.51 300.04L440.09 300.39L439.68 300.72L438.42 301.71L437.99 302.02L437.57 302.34L436.7 302.97L435.83 303.57L435.38 303.87L434.95 304.15L434.05 304.72L433.58 305L432.68 305.54L431.75 306.08L430.82 306.59L430.34 306.85L429.88 307.09L428.44 307.81L425.41 330.12L395.08 332.72L388.41 311.13L387.88 310.98L386.86 310.68L386.35 310.52L385.84 310.34L385.35 310.18L384.84 310L384.35 309.82L383.84 309.62L383.34 309.44L382.85 309.25L382.35 309.04L381.86 308.84L381.36 308.63L380.88 308.41L380.39 308.2L379.43 307.75L378.95 307.51L378.47 307.28L377.99 307.03L377.53 306.79L377.05 306.55L376.58 306.29L376.12 306.02L375.65 305.77L375.19 305.5L374.74 305.23L374.27 304.96L372.47 303.82L372.02 303.52L371.59 303.22L371.16 302.91L370.72 302.61L369.85 301.98L369.42 301.65L348.04 310.94L330.12 285.7L347.22 267.56L347.08 267.1L346.72 265.7L346.62 265.24L346.51 264.76L346.3 263.83L346.21 263.37L346.12 262.89L346.03 262.42L345.94 261.94L345.87 261.48L345.79 261L345.72 260.53L345.65 260.05L345.59 259.57L345.53 259.11L345.48 258.63L345.42 258.15L345.38 257.67L345.33 257.21L345.29 256.73L345.17 254.81L345.12 253.37L345.12 251.45L345.14 250.97L345.14 250.49L345.17 250.01L345.18 249.55L345.24 248.59L325.43 233.46L338.87 205.62L361.4 211.04L361.76 210.65L362.13 210.28L362.51 209.89L362.88 209.51L363.27 209.14L363.65 208.78L364.04 208.4L364.43 208.04L364.83 207.68L365.22 207.34L365.62 206.98L366.84 205.95L368.52 204.63L368.94 204.31L369.37 204L369.79 203.68L370.23 203.38L370.66 203.07L371.11 202.77L371.54 202.48L371.99 202.18L373.34 201.33L373.79 201.06L375.19 200.25L376.58 199.49L378.5 198.53L381.51 176.22L411.86 173.72L419.06 195.51L420.08 195.81ZM383.61 199.58L383.61 202.39L381.11 203.53L380.66 203.74L380.22 203.97L379.79 204.18L379.35 204.4L378.93 204.63L378.5 204.87L378.08 205.09L377.65 205.33L377.23 205.59L376.81 205.83L376.39 206.08L375.98 206.34L375.56 206.59L375.16 206.85L373.94 207.65L373.54 207.94L373.15 208.21L372.37 208.78L371.98 209.08L371.59 209.36L371.2 209.66L370.83 209.96L370.45 210.28L370.08 210.58L369.33 211.21L368.97 211.52L368.61 211.85L368.23 212.18L367.89 212.51L367.17 213.17L366.13 214.2L365.8 214.55L365.46 214.91L363.48 216.99L360.66 216.26L341.9 211.67L332.1 231.89L348.46 244.41L350.76 246.08L350.76 248.99L350.67 250.3L350.65 250.72L350.62 251.15L350.61 251.59L350.61 252.02L350.59 252.44L350.59 254.16L350.64 255.47L350.65 255.89L350.71 256.76L350.74 257.18L350.77 257.61L350.82 258.03L350.85 258.47L350.89 258.9L350.95 259.32L351 259.75L351.06 260.17L351.12 260.61L351.18 261.03L351.25 261.45L351.31 261.88L351.39 262.3L351.48 262.72L351.55 263.16L351.91 264.84L352.22 266.09L352.84 268.91L350.86 271L336.79 286.01L349.83 304.36L367.54 296.75L370.15 295.61L372.44 297.17L372.83 297.46L373.22 297.75L373.63 298.03L374.02 298.32L374.42 298.6L375.64 299.41L376.04 299.67L376.46 299.94L376.87 300.19L377.29 300.43L377.71 300.69L378.54 301.17L378.98 301.41L379.4 301.63L380.7 302.31L382.01 302.94L382.46 303.15L382.89 303.34L383.79 303.73L385.59 304.45L386.05 304.61L386.5 304.78L387.43 305.11L387.88 305.26L388.35 305.41L388.83 305.54L389.29 305.69L389.76 305.83L392.36 306.55L393.2 309.26L399.03 326.99L421.25 325.12L423.75 306.86L423.75 304.04L426.25 302.91L427.12 302.49L428.86 301.59L430.54 300.63L431.38 300.12L431.78 299.86L432.2 299.59L432.61 299.34L433.42 298.8L433.81 298.51L434.21 298.23L434.6 297.96L434.99 297.66L435.38 297.38L435.77 297.08L436.14 296.78L436.53 296.48L436.91 296.18L437.28 295.86L437.66 295.56L438.02 295.23L438.39 294.92L438.75 294.6L439.83 293.61L440.18 293.27L440.52 292.94L441.21 292.25L441.56 291.89L441.89 291.54L443.86 289.45L446.68 290.18L465.45 294.77L475.25 274.55L458.99 261.72L456.69 260.05L456.69 257.13L456.72 256.29L456.74 255.86L456.74 255.44L456.75 255.02L456.75 254.6L456.74 254.18L456.74 253.76L456.72 253.32L456.68 252.07L456.65 251.65L456.63 251.23L456.59 250.81L456.53 249.97L456.39 248.71L456.33 248.29L456.29 247.87L456.23 247.45L456.17 247.04L456.09 246.62L456.03 246.2L455.96 245.79L455.88 245.38L455.81 244.96L455.72 244.54L455.63 244.14L455.55 243.72L455.45 243.31L455.36 242.89L455.26 242.49L455.17 242.08L455.05 241.66L454.84 240.85L454.72 240.45L454.09 237.63L456.06 235.55L470.14 220.53L457.11 202.18L439.38 209.8L436.77 210.94L434.48 209.17L434.09 208.87L433.31 208.3L432.91 208.01L432.52 207.74L432.11 207.46L431.3 206.92L430.88 206.67L430.48 206.41L429.22 205.65L427.96 204.93L427.53 204.7L427.11 204.48L426.24 204.03L425.37 203.61L424.92 203.4L424.48 203.19L424.03 202.99L423.6 202.8L423.15 202.6L421.8 202.06L421.34 201.88L420.89 201.72L420.42 201.55L419.97 201.39L419.51 201.24L419.04 201.07L418.58 200.94L418.11 200.79L417.18 200.52L414.58 199.79L408.31 179.45L386.1 181.34L383.61 199.58Z" id="cOfOjwnlj"/><path d="M407.19 222.19L409.05 222.49L410.87 222.88L412.66 223.39L414.4 224.01L416.09 224.71L417.74 225.52L419.33 226.42L420.86 227.39L422.34 228.47L423.73 229.63L425.08 230.86L426.34 232.18L427.53 233.55L428.64 235.01L429.65 236.52L430.6 238.1L431.44 239.74L432.19 241.44L432.85 243.19L433.39 244.99L433.84 246.85L434.17 248.74L434.38 250.67L434.39 250.7L434.39 250.85L434.41 250.91L434.41 251.09L434.42 251.15L434.42 251.3L434.44 251.36L434.44 251.45L434.48 253.43L434.42 255.38L434.23 257.31L433.91 259.2L433.51 261.04L432.97 262.86L432.34 264.63L431.6 266.33L430.78 268L429.85 269.62L428.83 271.16L427.74 272.64L426.54 274.05L425.28 275.39L423.93 276.66L422.51 277.85L421.01 278.94L419.45 279.96L417.83 280.89L416.15 281.71L414.41 282.43L412.61 283.06L410.77 283.59L408.88 283.99L406.95 284.28L404.98 284.46L403.01 284.5L401.04 284.43L399.12 284.25L397.24 283.93L395.38 283.51L393.58 282.99L391.81 282.36L390.09 281.62L388.42 280.8L386.82 279.87L385.27 278.85L383.79 277.76L382.38 276.56L381.03 275.28L379.77 273.95L378.59 272.52L377.48 271.03L376.48 269.47L375.55 267.85L374.72 266.17L373.99 264.43L373.37 262.63L372.85 260.79L372.44 258.9L372.14 256.97L371.98 254.99L371.92 253.01L371.99 251.06L372.19 249.14L372.49 247.25L372.91 245.4L373.43 243.58L374.06 241.83L374.8 240.1L375.64 238.44L376.57 236.84L377.57 235.29L378.68 233.81L379.86 232.4L381.14 231.05L382.49 229.79L383.91 228.59L385.39 227.5L386.95 226.48L388.59 225.57L390.27 224.74L392 224.01L393.8 223.38L395.65 222.87L397.53 222.46L399.47 222.16L401.43 222L403.38 221.94L405.3 222.01L407.19 222.19ZM400.59 243.4L398.7 244.21L397.06 245.35L395.65 246.79L394.55 248.45L393.79 250.31L393.38 252.34L393.4 254.43L393.83 256.5L394.64 258.39L395.78 260.05L397.22 261.45L398.88 262.54L400.76 263.32L402.77 263.71L404.88 263.7L404.56 263.59L406.63 263.22L408.54 262.47L410.21 261.37L411.65 259.99L412.81 258.36L413.63 256.53L414.1 254.54L414.16 252.44L414.16 252.41L414.14 252.36L414.14 252.25L414.13 252.23L413.69 250.16L412.88 248.27L411.74 246.61L410.3 245.22L408.64 244.12L406.78 243.34L404.77 242.95L402.66 242.97L400.59 243.4Z" id="a5d7YrQhh"/><path d="M407.19 222.19L409.05 222.49L410.87 222.88L412.66 223.39L414.4 224.01L416.09 224.71L417.74 225.52L419.33 226.42L420.86 227.39L422.34 228.47L423.73 229.63L425.08 230.86L426.34 232.18L427.53 233.55L428.64 235.01L429.65 236.52L430.6 238.1L431.44 239.74L432.19 241.44L432.85 243.19L433.39 244.99L433.84 246.85L434.17 248.74L434.38 250.67L434.39 250.7L434.39 250.85L434.41 250.91L434.41 251.09L434.42 251.15L434.42 251.3L434.44 251.36L434.44 251.45L434.48 253.43L434.42 255.38L434.23 257.31L433.91 259.2L433.51 261.04L432.97 262.86L432.34 264.63L431.6 266.33L430.78 268L429.85 269.62L428.83 271.16L427.74 272.64L426.54 274.05L425.28 275.39L423.93 276.66L422.51 277.85L421.01 278.94L419.45 279.96L417.83 280.89L416.15 281.71L414.41 282.43L412.61 283.06L410.77 283.59L408.88 283.99L406.95 284.28L404.98 284.46L403.01 284.5L401.04 284.43L399.12 284.25L397.24 283.93L395.38 283.51L393.58 282.99L391.81 282.36L390.09 281.62L388.42 280.8L386.82 279.87L385.27 278.85L383.79 277.76L382.38 276.56L381.03 275.28L379.77 273.95L378.59 272.52L377.48 271.03L376.48 269.47L375.55 267.85L374.72 266.17L373.99 264.43L373.37 262.63L372.85 260.79L372.44 258.9L372.14 256.97L371.98 254.99L371.92 253.01L371.99 251.06L372.19 249.14L372.49 247.25L372.91 245.4L373.43 243.58L374.06 241.83L374.8 240.1L375.64 238.44L376.57 236.84L377.57 235.29L378.68 233.81L379.86 232.4L381.14 231.05L382.49 229.79L383.91 228.59L385.39 227.5L386.95 226.48L388.59 225.57L390.27 224.74L392 224.01L393.8 223.38L395.65 222.87L397.53 222.46L399.47 222.16L401.43 222L403.38 221.94L405.3 222.01L407.19 222.19ZM400.59 243.4L398.7 244.21L397.06 245.35L395.65 246.79L394.55 248.45L393.79 250.31L393.38 252.34L393.4 254.43L393.83 256.5L394.64 258.39L395.78 260.05L397.22 261.45L398.88 262.54L400.76 263.32L402.77 263.71L404.88 263.7L404.56 263.59L406.63 263.22L408.54 262.47L410.21 261.37L411.65 259.99L412.81 258.36L413.63 256.53L414.1 254.54L414.16 252.44L414.16 252.41L414.14 252.36L414.14 252.25L414.13 252.23L413.69 250.16L412.88 248.27L411.74 246.61L410.3 245.22L408.64 244.12L406.78 243.34L404.77 242.95L402.66 242.97L400.59 243.4Z" id="b35E1gqIzI"/><path d="M101.03 320.01C101.03 440.93 199.07 538.96 320 538.96C440.93 538.96 538.97 440.93 538.97 320.01C538.97 199.08 440.93 101.04 320 101.04C199.07 101.04 101.03 199.08 101.03 320.01Z" id="b1z5ptayIE"/><path d="M101.03 320.01C101.03 440.93 199.07 538.96 320 538.96C440.93 538.96 538.97 440.93 538.97 320.01C538.97 199.08 440.93 101.04 320 101.04C199.07 101.04 101.03 199.08 101.03 320.01Z" id="i6QH3bti9"/></defs><g><g><g><use xlink:href="#b1saaq9y2y" opacity="1" fill="#196970" fill-opacity="1"/><g><use xlink:href="#b1saaq9y2y" opacity="1" fill-opacity="0" stroke="#000000" stroke-width="1" stroke-opacity="0"/></g></g><g><use xlink:href="#b4QFQsgbzP" opacity="1" fill="#000000" fill-opacity="0"/><g><use xlink:href="#b4QFQsgbzP" opacity="1" fill-opacity="0" stroke="#000000" stroke-width="1" stroke-opacity="0"/></g></g><g><use xlink:href="#b4ucBdAL85" opacity="1" fill="#ffffff" fill-opacity="1"/><g><use xlink:href="#b4ucBdAL85" opacity="1" fill-opacity="0" stroke="#000000" stroke-width="1" stroke-opacity="0"/></g></g><g><use xlink:href="#c2bH1Q2lO5" opacity="1" fill="#000000" fill-opacity="0"/><g><use xlink:href="#c2bH1Q2lO5" opacity="1" fill-opacity="0" stroke="#ffffff" stroke-width="1" stroke-opacity="1"/></g></g><g><use xlink:href="#b2AyCEaHrZ" opacity="1" fill="#ffffff" fill-opacity="1"/><g><use xlink:href="#b2AyCEaHrZ" opacity="1" fill-opacity="0" stroke="#000000" stroke-width="1" stroke-opacity="0"/></g></g><g><use xlink:href="#b1Ti38j1PI" opacity="1" fill="#000000" fill-opacity="0"/><g><use xlink:href="#b1Ti38j1PI" opacity="1" fill-opacity="0" stroke="#000000" stroke-width="1" stroke-opacity="0"/></g></g><g><use xlink:href="#iqUGduUi5" opacity="1" fill="#ffffff" fill-opacity="1"/><g><use xlink:href="#iqUGduUi5" opacity="1" fill-opacity="0" stroke="#000000" stroke-width="1" stroke-opacity="0"/></g></g><g><use xlink:href="#cOfOjwnlj" opacity="1" fill="#000000" fill-opacity="0"/><g><use xlink:href="#cOfOjwnlj" opacity="1" fill-opacity="0" stroke="#ffffff" stroke-width="1" stroke-opacity="1"/></g></g><g><use xlink:href="#a5d7YrQhh" opacity="1" fill="#ffffff" fill-opacity="1"/><g><use xlink:href="#a5d7YrQhh" opacity="1" fill-opacity="0" stroke="#000000" stroke-width="1" stroke-opacity="0"/></g></g><g><use xlink:href="#b35E1gqIzI" opacity="1" fill="#000000" fill-opacity="0"/><g><use xlink:href="#b35E1gqIzI" opacity="1" fill-opacity="0" stroke="#000000" stroke-width="1" stroke-opacity="0"/></g></g><g><use xlink:href="#b1z5ptayIE" opacity="1" fill="#000000" fill-opacity="0"/><g><use xlink:href="#b1z5ptayIE" opacity="1" fill-opacity="0" stroke="#000000" stroke-width="1" stroke-opacity="0"/></g></g><g><use xlink:href="#i6QH3bti9" opacity="1" fill="#000000" fill-opacity="0"/><g><use xlink:href="#i6QH3bti9" opacity="1" fill-opacity="0" stroke="#ffffff" stroke-width="3" stroke-opacity="1"/></g></g></g></g></svg>