<?xml version="1.0" encoding="UTF-8"?>
<svg width="109px" height="108px" viewBox="0 0 109 108" version="1.1" xmlns="http://www.w3.org/2000/svg" xmlns:xlink="http://www.w3.org/1999/xlink">
    <!-- Generator: Sketch 53 (72520) - https://sketchapp.com -->
    <title>Group 2</title>
    <desc>Created with Sketch.</desc>
    <g id="Page-1" stroke="none" stroke-width="1" fill="none" fill-rule="evenodd">
        <g id="Network-Icons" transform="translate(-1199.000000, -660.000000)">
            <g id="Group-2" transform="translate(1199.691406, 660.000000)">
                <g id="Group">
                    <ellipse id="Oval" fill="#38B0DE" fill-rule="nonzero" cx="54" cy="53.9" rx="54" ry="53.8"></ellipse>
                    <circle id="Oval" stroke="#FFFFFF" stroke-width="3" cx="54" cy="53.9" r="48.9"></circle>
                    <g transform="translate(18.000000, 18.000000)">
                        <circle id="Oval" stroke="#FFFFFF" stroke-width="3" cx="36" cy="35.6" r="8.5"></circle>
                        <path d="M11,35.4 L27,35.4 C27.7,35.4 27.7,36.4 27,36.4 L11,36.4 C10.3,36.4 10.3,35.4 11,35.4 Z" id="Path" fill="#FFFFFF"></path>
                        <rect id="Rectangle" fill="#FFFFFF" x="11" y="35.4" width="16" height="1"></rect>
                        <path d="M35.5,60.9 L35.5,44.9 C35.5,44.2 36.5,44.2 36.5,44.9 L36.5,60.9 C36.5,61.5 35.5,61.5 35.5,60.9 Z" id="Path" fill="#FFFFFF"></path>
                        <rect id="Rectangle" fill="#FFFFFF" x="35.5" y="44.9" width="1" height="16"></rect>
                        <path d="M61,36.4 L45,36.4 C44.3,36.4 44.3,35.4 45,35.4 L61,35.4 C61.7,35.4 61.7,36.4 61,36.4 Z" id="Path" fill="#FFFFFF"></path>
                        <rect id="Rectangle" fill="#FFFFFF" x="45" y="35.4" width="16" height="1"></rect>
                        <path d="M36.5,10.9 L36.5,26.9 C36.5,27.6 35.5,27.6 35.5,26.9 L35.5,10.9 C35.5,10.2 36.5,10.2 36.5,10.9 Z" id="Path" fill="#FFFFFF"></path>
                        <rect id="Rectangle" fill="#FFFFFF" x="35.5" y="10.9" width="1" height="16"></rect>
                        <circle id="Oval" cx="36" cy="67.9" r="2.5"></circle>
                        <circle id="Oval" cx="36" cy="67.9" r="3.5"></circle>
                        <circle id="Oval" fill="#FFFFFF" cx="36" cy="3.9" r="2.5"></circle>
                        <circle id="Oval" fill="#FFFFFF" cx="36" cy="3.9" r="3.5"></circle>
                        <circle id="Oval" fill="#FFFFFF" cx="4" cy="35.9" r="2.5"></circle>
                        <circle id="Oval" fill="#FFFFFF" cx="4" cy="35.9" r="3.5"></circle>
                        <circle id="Oval" fill="#FFFFFF" cx="36" cy="67.9" r="3.5"></circle>
                        <circle id="Oval" fill="#FFFFFF" cx="68" cy="35.9" r="2.5"></circle>
                        <circle id="Oval" fill="#FFFFFF" cx="68" cy="35.9" r="3.5"></circle>
                    </g>
                </g>
            </g>
        </g>
    </g>
</svg>