<?xml version="1.0" encoding="UTF-8"?>
<svg width="109px" height="108px" viewBox="0 0 109 108" version="1.1" xmlns="http://www.w3.org/2000/svg" xmlns:xlink="http://www.w3.org/1999/xlink">
    <!-- Generator: Sketch 53 (72520) - https://sketchapp.com -->
    <title>NACL</title>
    <desc>Created with Sketch.</desc>
    <g id="Page-1" stroke="none" stroke-width="1" fill="none" fill-rule="evenodd">
        <g id="Network-Icons" transform="translate(-791.000000, -474.000000)" fill-rule="nonzero">
            <g id="NACL" transform="translate(791.546875, 474.000000)">
                <ellipse id="Oval" fill="#38B0DE" cx="54" cy="53.82" rx="54" ry="53.82"></ellipse>
                <path d="M46.17,28.67 C45.0532414,24.27102 41.0935212,21.1909373 36.555,21.1909373 C32.0164788,21.1909373 28.0567586,24.27102 26.94,28.67 L16.62,28.67 L16.62,33.67 L26.94,33.67 C28.0567586,38.06898 32.0164788,41.1490627 36.555,41.1490627 C41.0935212,41.1490627 45.0532414,38.06898 46.17,33.67 L91.4,33.67 L91.4,28.67 L46.17,28.67 Z M36.56,33.67 C35.5479442,33.6740483 34.6332889,33.0675162 34.2431836,32.133658 C33.8530783,31.1997998 34.0644923,30.1228691 34.778694,29.4057992 C35.4928956,28.6887293 36.5689703,28.4730006 37.5043845,28.8593599 C38.4397988,29.2457191 39.0499919,30.1579361 39.05,31.17 C39.0445192,32.5429124 37.9329124,33.6545192 36.56,33.66 L36.56,33.67 Z" id="Shape" fill="#FFFFFF"></path>
                <path d="M71.45,41.13 C66.9227699,41.1604832 62.9807852,44.2287501 61.84,48.61 L16.62,48.61 L16.62,53.61 L61.84,53.61 C62.9567586,58.00898 66.9164788,61.0890627 71.455,61.0890627 C75.9935212,61.0890627 79.9532414,58.00898 81.07,53.61 L91.4,53.61 L91.4,48.61 L81.07,48.61 C79.9282541,44.2251768 75.9809584,41.1559697 71.45,41.13 Z M71.45,53.6 C70.0692881,53.6 68.95,52.4807119 68.95,51.1 C68.95,49.7192881 70.0692881,48.6 71.45,48.6 C72.8307119,48.6 73.95,49.7192881 73.95,51.1 C73.95,52.4807119 72.8307119,53.6 71.45,53.6 L71.45,53.6 Z" id="Shape" fill="#FFFFFF"></path>
                <path d="M36.56,61.08 C32.0246727,61.0837528 28.0669866,64.1569248 26.94,68.55 L16.62,68.55 L16.62,73.55 L26.94,73.55 C28.0567586,77.94898 32.0164788,81.0290627 36.555,81.0290627 C41.0935212,81.0290627 45.0532414,77.94898 46.17,73.55 L91.4,73.55 L91.4,68.55 L46.17,68.55 C45.0439437,64.1605261 41.0916018,61.0883103 36.56,61.08 L36.56,61.08 Z M36.56,73.54 C35.5470358,73.5440438 34.6317502,72.9364256 34.2422353,72.0013368 C33.8527204,71.066248 34.0659734,69.9885325 34.782253,69.272253 C35.4985325,68.5559734 36.576248,68.3427204 37.5113368,68.7322353 C38.4464256,69.1217502 39.0540438,70.0370358 39.05,71.05 C39.0445192,72.4229124 37.9329124,73.5345192 36.56,73.54 L36.56,73.54 Z" id="Shape" fill="#FFFFFF"></path>
                <ellipse id="Oval" fill="#38B0DE" cx="80.71" cy="31.87" rx="10.69" ry="9.26"></ellipse>
                <path d="M98.11,33.65 C98.2570989,27.6924942 95.1628945,22.1234865 90.026664,19.1014589 C84.8904336,16.0794314 78.5195664,16.0794314 73.383336,19.1014589 C68.2471055,22.1234865 65.1529011,27.6924942 65.3,33.65 L65.3,41.09 C57.5379622,49.8851976 58.0929832,63.2368121 66.5582052,71.3574493 C75.0234273,79.4780865 88.3865727,79.4780865 96.8517948,71.3574493 C105.317017,63.2368121 105.872038,49.8851976 98.11,41.09 L98.11,33.65 Z M70.77,33.65 C70.6494607,29.664448 72.706895,25.928959 76.1397945,23.9005716 C79.5726941,21.8721842 83.8373059,21.8721842 87.2702055,23.9005716 C90.703105,25.928959 92.7605393,29.664448 92.64,33.65 L92.64,36.65 C85.880662,32.7162861 77.529338,32.7162861 70.77,36.65 L70.77,33.65 Z M77.62,67.59 L67.47,57.46 L71.33,53.59 L77.62,59.86 L92.08,45.39 L95.94,49.25 L77.62,67.59 Z" id="Shape" fill="#38B0DE"></path>
                <circle id="Oval" fill="#38B0DE" cx="81.71" cy="55.85" r="17.42"></circle>
                <path d="M96.81,34.46 C96.5992306,26.2690946 89.8986167,19.7386837 81.705,19.7386837 C73.5113833,19.7386837 66.8107694,26.2690946 66.6,34.46 L66.6,41.32 C59.4692626,49.4146859 59.9870606,61.6915983 67.7740736,69.1571046 C75.5610865,76.622611 87.8489135,76.622611 95.6359264,69.1571046 C103.422939,61.6915983 103.940737,49.4146859 96.81,41.32 L96.81,34.46 Z M71.62,34.46 C71.5042571,30.7884677 73.3969187,27.3451959 76.5586697,25.4752021 C79.7204206,23.6052083 83.6495794,23.6052083 86.8113303,25.4752021 C89.9730813,27.3451959 91.8657429,30.7884677 91.75,34.46 L91.75,37.18 C85.5290268,33.5570898 77.8409732,33.5570898 71.62,37.18 L71.62,34.46 Z M77.91,65.71 L68.62,56.38 L72.18,52.82 L77.95,58.59 L91.25,45.27 L94.81,48.83 L77.91,65.71 Z" id="Shape" fill="#FFFFFF"></path>
                <ellipse id="Oval" fill="#E02533" cx="54" cy="53.82" rx="54" ry="53.82"></ellipse>
                <path d="M46.17,28.67 C45.0532414,24.27102 41.0935212,21.1909373 36.555,21.1909373 C32.0164788,21.1909373 28.0567586,24.27102 26.94,28.67 L16.62,28.67 L16.62,33.67 L26.94,33.67 C28.0567586,38.06898 32.0164788,41.1490627 36.555,41.1490627 C41.0935212,41.1490627 45.0532414,38.06898 46.17,33.67 L91.4,33.67 L91.4,28.67 L46.17,28.67 Z M36.56,33.67 C35.5479442,33.6740483 34.6332889,33.0675162 34.2431836,32.133658 C33.8530783,31.1997998 34.0644923,30.1228691 34.778694,29.4057992 C35.4928956,28.6887293 36.5689703,28.4730006 37.5043845,28.8593599 C38.4397988,29.2457191 39.0499919,30.1579361 39.05,31.17 C39.0445192,32.5429124 37.9329124,33.6545192 36.56,33.66 L36.56,33.67 Z" id="Shape" fill="#FFFFFF"></path>
                <path d="M71.45,41.13 C66.9227699,41.1604832 62.9807852,44.2287501 61.84,48.61 L16.62,48.61 L16.62,53.61 L61.84,53.61 C62.9567586,58.00898 66.9164788,61.0890627 71.455,61.0890627 C75.9935212,61.0890627 79.9532414,58.00898 81.07,53.61 L91.4,53.61 L91.4,48.61 L81.07,48.61 C79.9282541,44.2251768 75.9809584,41.1559697 71.45,41.13 Z M71.45,53.6 C70.0692881,53.6 68.95,52.4807119 68.95,51.1 C68.95,49.7192881 70.0692881,48.6 71.45,48.6 C72.8307119,48.6 73.95,49.7192881 73.95,51.1 C73.95,52.4807119 72.8307119,53.6 71.45,53.6 L71.45,53.6 Z" id="Shape" fill="#FFFFFF"></path>
                <path d="M36.56,61.08 C32.0246727,61.0837528 28.0669866,64.1569248 26.94,68.55 L16.62,68.55 L16.62,73.55 L26.94,73.55 C28.0567586,77.94898 32.0164788,81.0290627 36.555,81.0290627 C41.0935212,81.0290627 45.0532414,77.94898 46.17,73.55 L91.4,73.55 L91.4,68.55 L46.17,68.55 C45.0439437,64.1605261 41.0916018,61.0883103 36.56,61.08 L36.56,61.08 Z M36.56,73.54 C35.5470358,73.5440438 34.6317502,72.9364256 34.2422353,72.0013368 C33.8527204,71.066248 34.0659734,69.9885325 34.782253,69.272253 C35.4985325,68.5559734 36.576248,68.3427204 37.5113368,68.7322353 C38.4464256,69.1217502 39.0540438,70.0370358 39.05,71.05 C39.0445192,72.4229124 37.9329124,73.5345192 36.56,73.54 L36.56,73.54 Z" id="Shape" fill="#FFFFFF"></path>
            </g>
        </g>
    </g>
</svg>