<svg version="1.1" xmlns="http://www.w3.org/2000/svg" xmlns:xlink="http://www.w3.org/1999/xlink" preserveAspectRatio="xMidYMid meet" viewBox="0 0 640 640" width="640" height="640"><defs><path d="M320.36 633.78C146.05 633.78 4.75 493.1 4.75 319.54C4.75 145.98 146.05 5.29 320.36 5.29C494.66 5.29 635.97 145.98 635.97 319.54C635.97 493.1 494.66 633.78 320.36 633.78Z" id="anAiXuN8w"/><path d="M320.36 633.78C146.05 633.78 4.75 493.1 4.75 319.54C4.75 145.98 146.05 5.29 320.36 5.29C494.66 5.29 635.97 145.98 635.97 319.54C635.97 493.1 494.66 633.78 320.36 633.78Z" id="b4IXHNEaq"/><path d="M175.34 291.55L175.34 311.89L158.99 328.24L105.83 275.08L122.28 258.63L142.63 258.63L142.63 238.39L226.52 154.5L332.84 154.5L195.68 291.55L175.34 291.55ZM152.18 242.37L152.18 268.38L126.17 268.38L119.56 275.08L158.99 314.51L165.69 307.8L165.69 281.8L191.7 281.8L309.34 164.15L230.39 164.15L152.18 242.37Z" id="cHi7IfCcc"/><path d="M175.34 291.55L175.34 311.89L158.99 328.24L105.83 275.08L122.28 258.63L142.63 258.63L142.63 238.39L226.52 154.5L332.84 154.5L195.68 291.55L175.34 291.55ZM152.18 242.37L152.18 268.38L126.17 268.38L119.56 275.08L158.99 314.51L165.69 307.8L165.69 281.8L191.7 281.8L309.34 164.15L230.39 164.15L152.18 242.37Z" id="g2bYBqvUeC"/><path d="M459.18 168.26L462.58 168.66L466 169.19L484.35 172.43L470.82 185.22L438.43 217.63L437.77 218.51L437.16 219.42L436.57 220.34L436.02 221.28L435.52 222.23L435.03 223.19L434.59 224.16L434.18 225.15L433.79 226.14L433.44 227.15L433.14 228.15L432.85 229.17L432.61 230.21L432.39 231.23L432.22 232.27L432.07 233.32L431.97 234.36L431.89 235.41L431.84 236.46L431.83 237.49L431.86 238.55L431.92 239.6L432.01 240.65L432.13 241.68L432.29 242.72L432.48 243.76L432.71 244.79L432.97 245.81L433.26 246.82L433.58 247.82L433.95 248.83L434.34 249.82L434.77 250.8L435.23 251.77L435.71 252.72L436.25 253.66L436.81 254.59L437.41 255.5L438.03 256.4L438.7 257.29L439.54 258.32L440.42 259.33L441.34 260.29L442.28 261.2L443.26 262.07L444.25 262.89L445.28 263.67L446.33 264.4L447.4 265.09L448.5 265.73L449.63 266.34L450.77 266.89L451.93 267.39L453.08 267.85L454.27 268.26L455.48 268.64L456.69 268.96L457.91 269.23L459.15 269.45L460.38 269.63L461.63 269.77L462.88 269.84L464.13 269.89L465.38 269.87L466.64 269.81L467.89 269.7L469.14 269.55L470.38 269.35L471.63 269.09L472.86 268.79L474.08 268.44L475.3 268.04L476.49 267.59L477.68 267.08L478.85 266.53L480.01 265.94L481.15 265.29L482.28 264.58L483.37 263.82L484.46 263.03L529.95 217.52L533.21 235.86L533.38 236.92L533.55 237.95L533.7 239L533.84 240.04L533.96 241.09L534.07 242.14L534.16 243.19L534.23 244.23L534.31 245.28L534.37 246.33L534.42 247.38L534.45 248.43L534.46 249.49L534.46 250.54L534.45 251.57L534.43 252.62L534.34 254.73L534.28 255.78L534.2 256.81L534.13 257.87L534.02 258.9L533.9 259.95L533.78 260.99L533.64 262.02L533.49 263.06L533.32 264.1L532.95 266.17L532.74 267.21L532.53 268.23L532.3 269.25L532.05 270.28L531.8 271.29L531.25 273.33L530.64 275.34L530.32 276.35L529.98 277.35L528.79 280.61L527.5 283.78L526.08 286.88L524.56 289.88L522.91 292.8L521.18 295.65L519.33 298.41L517.38 301.08L515.34 303.65L513.21 306.13L511 308.53L508.68 310.83L506.3 313.02L503.84 315.12L501.29 317.14L498.69 319.04L496 320.82L493.26 322.51L490.46 324.1L487.59 325.58L484.68 326.95L481.71 328.2L478.7 329.34L475.65 330.36L472.54 331.27L469.4 332.07L466.23 332.74L463.03 333.29L459.82 333.7L456.56 334L453.3 334.17L450.01 334.22L446.71 334.12L443.39 333.91L440.09 333.54L436.77 333.06L433.44 332.43L430.14 331.67L426.83 330.76L423.52 329.72L423.11 330.56L383.06 370.6L446.7 434.56L453.31 441.07L409.69 484.69L339.24 414.22L281.14 472.32L280.06 473.34L278.95 474.31L277.8 475.23L276.65 476.1L275.44 476.92L274.22 477.68L272.99 478.38L271.72 479.04L270.44 479.65L269.15 480.2L267.82 480.68L266.5 481.13L265.16 481.52L263.8 481.86L262.43 482.15L261.06 482.37L259.69 482.56L258.3 482.68L256.91 482.76L255.53 482.77L254.14 482.74L252.75 482.65L251.37 482.51L250 482.31L248.63 482.07L247.27 481.78L245.91 481.43L244.57 481.02L243.25 480.56L241.94 480.06L240.64 479.5L239.38 478.87L238.11 478.2L236.88 477.48L235.67 476.71L234.49 475.88L233.33 475L232.2 474.07L231.09 473.1L230.02 472.04L229 470.98L228.03 469.87L227.11 468.72L226.24 467.55L225.42 466.36L224.66 465.14L223.96 463.89L223.3 462.63L222.69 461.35L222.14 460.05L221.66 458.74L221.2 457.4L220.82 456.06L220.48 454.71L220.19 453.35L219.97 451.98L219.78 450.59L219.66 449.21L219.58 447.83L219.57 446.43L219.6 445.05L219.69 443.67L219.83 442.29L220.03 440.9L220.27 439.55L220.56 438.17L220.91 436.83L221.32 435.49L221.78 434.17L222.28 432.86L222.85 431.56L223.47 430.28L224.12 429.03L224.86 427.8L225.63 426.58L226.46 425.39L227.32 424.23L228.27 423.11L229.24 422.01L230.28 420.94L288.38 362.84L215.82 290.29L259.44 246.67L332 319.22L372.15 278.86L371.93 278.21L371.71 277.54L371.49 276.88L371.29 276.21L371.08 275.55L370.88 274.88L370.15 272.2L369.82 270.86L369.66 270.18L369.51 269.51L369.36 268.82L369.22 268.15L369.08 267.46L368.96 266.78L368.84 266.11L368.6 264.74L368.49 264.05L368.4 263.37L368.29 262.68L368.2 261.99L368.13 261.29L367.9 259.24L367.84 258.54L367.79 257.85L367.73 257.15L367.7 256.46L367.65 255.76L367.62 255.08L367.59 254.38L367.58 253.69L367.55 252.29L367.55 250.51L367.56 250.16L367.56 249.79L367.58 249.42L367.58 249.07L367.62 247.98L367.64 247.63L367.67 247.26L367.68 246.9L367.7 246.54L367.76 245.81L367.77 245.46L367.84 244.73L367.87 244.38L367.9 244.02L367.93 243.66L367.97 243.3L368 242.93L368.05 242.58L368.09 242.22L368.13 241.87L368.17 241.5L368.22 241.15L368.26 240.79L368.31 240.43L368.37 240.07L368.41 239.72L368.46 239.35L368.52 239L368.58 238.64L368.63 238.29L368.69 237.92L368.81 237.22L369.48 233.82L370.29 230.49L371.22 227.21L372.25 224.01L373.43 220.86L374.72 217.79L376.12 214.78L377.63 211.85L379.25 208.99L380.98 206.2L382.81 203.5L384.73 200.88L386.76 198.34L388.86 195.88L391.07 193.52L393.36 191.24L395.73 189.06L398.19 186.97L400.72 184.97L403.32 183.07L405.99 181.27L408.73 179.58L411.53 178L414.4 176.52L417.32 175.15L420.29 173.88L423.33 172.74L426.4 171.7L429.53 170.79L432.7 170L435.9 169.33L439.14 168.79L442.42 168.37L445.72 168.08L449.05 167.92L452.41 167.89L455.78 168.02L459.18 168.26ZM447.55 177.37L445.69 177.49L444.76 177.57L443.84 177.66L441.98 177.87L441.05 178.01L440.13 178.15L439.2 178.29L437.37 178.62L436.45 178.8L435.53 179L434.63 179.2L432.8 179.66L431.91 179.88L430.11 180.4L429.21 180.69L428.31 180.97L427.43 181.27L424.55 182.32L421.76 183.47L419.03 184.73L416.38 186.09L413.79 187.53L411.29 189.07L408.85 190.7L406.51 192.42L404.24 194.22L402.04 196.11L399.94 198.08L397.91 200.12L395.98 202.22L394.12 204.4L392.37 206.64L390.69 208.96L389.11 211.32L387.61 213.74L386.23 216.22L384.93 218.75L383.73 221.33L382.63 223.95L381.62 226.6L380.73 229.31L379.93 232.04L379.23 234.81L378.65 237.62L378.17 240.43L377.8 243.28L377.54 246.15L377.4 249.03L377.37 251.94L377.45 254.85L377.65 257.77L377.97 260.7L378.41 263.62L378.96 266.55L379.64 269.48L380.45 272.39L381.38 275.3L383.57 281.59L237.11 428.07L236.44 428.83L235.8 429.61L235.19 430.42L234.62 431.24L234.09 432.08L233.59 432.93L233.11 433.8L232.69 434.67L232.29 435.57L231.93 436.47L231.61 437.38L231.32 438.3L231.06 439.23L230.83 440.15L230.65 441.1L230.48 442.04L230.36 443L230.28 443.95L230.22 444.91L230.2 445.87L230.22 446.83L230.28 447.77L230.36 448.73L230.48 449.68L230.65 450.62L230.83 451.57L231.06 452.51L231.32 453.43L231.61 454.36L231.93 455.27L232.29 456.17L232.69 457.05L233.11 457.94L233.59 458.8L234.09 459.66L234.62 460.5L235.19 461.3L235.8 462.11L236.44 462.9L237.11 463.66L237.85 464.46L238.63 465.2L239.42 465.92L240.25 466.61L241.08 467.25L241.95 467.84L242.82 468.4L243.72 468.94L244.63 469.42L245.56 469.87L246.51 470.28L247.47 470.66L248.43 470.99L249.4 471.28L250.39 471.54L251.38 471.77L252.39 471.94L253.39 472.09L254.4 472.2L255.41 472.26L256.43 472.29L257.43 472.27L258.45 472.23L259.46 472.14L260.48 472.01L261.47 471.85L262.48 471.63L263.47 471.39L264.46 471.12L265.43 470.78L266.39 470.43L267.35 470.02L268.3 469.58L269.23 469.1L270.14 468.59L271.02 468.02L271.91 467.43L272.78 466.79L273.61 466.12L274.44 465.39L420.9 318.92L427.2 321.11L428.13 321.45L429.07 321.75L430 322.06L430.95 322.35L431.89 322.62L433.78 323.14L435.7 323.6L436.66 323.81L437.62 324.01L439.54 324.37L440.5 324.52L441.47 324.68L442.45 324.81L443.41 324.94L444.38 325.04L445.36 325.13L447.31 325.29L448.28 325.35L449.26 325.38L450.25 325.41L452.2 325.44L453.18 325.42L454.17 325.41L456.12 325.32L457.09 325.26L458.08 325.18L460.03 325L461.98 324.75L462.96 324.62L463.93 324.46L464.91 324.3L465.87 324.11L468.82 323.49L471.73 322.74L474.58 321.89L477.39 320.93L480.11 319.86L482.79 318.69L485.4 317.42L487.94 316.05L490.43 314.61L492.84 313.05L495.18 311.42L497.45 309.7L499.65 307.9L501.76 306.01L503.81 304.05L505.76 302.02L507.65 299.92L509.44 297.74L511.15 295.5L512.78 293.2L514.32 290.84L515.75 288.41L517.11 285.95L518.37 283.42L519.53 280.84L520.58 278.22L521.56 275.55L522.41 272.84L523.17 270.1L523.81 267.33L524.36 264.51L524.79 261.66L525.11 258.79L525.32 255.9L525.41 252.99L525.4 250.05L525.24 247.09L524.98 244.14L524.6 241.17L524.09 238.18L491.69 270.57L490.43 271.78L489.13 272.93L487.81 274.02L486.45 275.04L485.05 276L483.63 276.9L482.19 277.72L480.72 278.5L479.23 279.21L477.71 279.87L476.17 280.45L474.61 280.98L473.04 281.44L471.47 281.83L469.87 282.18L468.27 282.46L466.66 282.67L465.04 282.82L463.43 282.93L461.8 282.96L460.18 282.93L458.55 282.82L456.94 282.67L455.34 282.46L453.74 282.18L452.14 281.83L450.55 281.44L448.99 280.98L447.43 280.45L445.91 279.87L444.38 279.21L442.89 278.5L441.41 277.72L439.97 276.9L438.55 276L437.16 275.04L435.79 274.02L434.46 272.93L433.17 271.78L431.92 270.57L430.72 269.32L429.57 268.03L428.49 266.7L427.47 265.33L426.51 263.94L425.61 262.53L424.77 261.08L424 259.6L423.28 258.11L422.64 256.6L422.05 255.06L421.53 253.51L421.06 251.94L420.66 250.35L420.31 248.77L420.04 247.15L419.82 245.55L419.67 243.94L419.58 242.31L419.55 240.69L419.58 239.06L419.67 237.45L419.82 235.83L420.04 234.22L420.31 232.62L420.66 231.03L421.06 229.45L421.53 227.88L422.05 226.33L422.64 224.79L423.28 223.28L424 221.79L424.77 220.31L425.61 218.86L426.51 217.44L427.47 216.04L428.49 214.69L429.57 213.36L430.72 212.06L431.92 210.82L464.31 178.41L463.4 178.25L462.47 178.1L461.54 177.97L460.61 177.84L459.68 177.74L458.75 177.65L457.81 177.55L456.88 177.48L455.95 177.42L455.02 177.37L454.07 177.33L453.14 177.29L452.22 177.28L450.34 177.28L447.55 177.37ZM409.8 471.05L439.78 441.07L376.14 377.43L346.15 407.41L409.8 471.05ZM295.08 356.25L325.07 326.25L259.34 260.52L229.34 290.5L295.08 356.25Z" id="a8726F7GK"/><path d="M459.18 168.26L462.58 168.66L466 169.19L484.35 172.43L470.82 185.22L438.43 217.63L437.77 218.51L437.16 219.42L436.57 220.34L436.02 221.28L435.52 222.23L435.03 223.19L434.59 224.16L434.18 225.15L433.79 226.14L433.44 227.15L433.14 228.15L432.85 229.17L432.61 230.21L432.39 231.23L432.22 232.27L432.07 233.32L431.97 234.36L431.89 235.41L431.84 236.46L431.83 237.49L431.86 238.55L431.92 239.6L432.01 240.65L432.13 241.68L432.29 242.72L432.48 243.76L432.71 244.79L432.97 245.81L433.26 246.82L433.58 247.82L433.95 248.83L434.34 249.82L434.77 250.8L435.23 251.77L435.71 252.72L436.25 253.66L436.81 254.59L437.41 255.5L438.03 256.4L438.7 257.29L439.54 258.32L440.42 259.33L441.34 260.29L442.28 261.2L443.26 262.07L444.25 262.89L445.28 263.67L446.33 264.4L447.4 265.09L448.5 265.73L449.63 266.34L450.77 266.89L451.93 267.39L453.08 267.85L454.27 268.26L455.48 268.64L456.69 268.96L457.91 269.23L459.15 269.45L460.38 269.63L461.63 269.77L462.88 269.84L464.13 269.89L465.38 269.87L466.64 269.81L467.89 269.7L469.14 269.55L470.38 269.35L471.63 269.09L472.86 268.79L474.08 268.44L475.3 268.04L476.49 267.59L477.68 267.08L478.85 266.53L480.01 265.94L481.15 265.29L482.28 264.58L483.37 263.82L484.46 263.03L529.95 217.52L533.21 235.86L533.38 236.92L533.55 237.95L533.7 239L533.84 240.04L533.96 241.09L534.07 242.14L534.16 243.19L534.23 244.23L534.31 245.28L534.37 246.33L534.42 247.38L534.45 248.43L534.46 249.49L534.46 250.54L534.45 251.57L534.43 252.62L534.34 254.73L534.28 255.78L534.2 256.81L534.13 257.87L534.02 258.9L533.9 259.95L533.78 260.99L533.64 262.02L533.49 263.06L533.32 264.1L532.95 266.17L532.74 267.21L532.53 268.23L532.3 269.25L532.05 270.28L531.8 271.29L531.25 273.33L530.64 275.34L530.32 276.35L529.98 277.35L528.79 280.61L527.5 283.78L526.08 286.88L524.56 289.88L522.91 292.8L521.18 295.65L519.33 298.41L517.38 301.08L515.34 303.65L513.21 306.13L511 308.53L508.68 310.83L506.3 313.02L503.84 315.12L501.29 317.14L498.69 319.04L496 320.82L493.26 322.51L490.46 324.1L487.59 325.58L484.68 326.95L481.71 328.2L478.7 329.34L475.65 330.36L472.54 331.27L469.4 332.07L466.23 332.74L463.03 333.29L459.82 333.7L456.56 334L453.3 334.17L450.01 334.22L446.71 334.12L443.39 333.91L440.09 333.54L436.77 333.06L433.44 332.43L430.14 331.67L426.83 330.76L423.52 329.72L423.11 330.56L383.06 370.6L446.7 434.56L453.31 441.07L409.69 484.69L339.24 414.22L281.14 472.32L280.06 473.34L278.95 474.31L277.8 475.23L276.65 476.1L275.44 476.92L274.22 477.68L272.99 478.38L271.72 479.04L270.44 479.65L269.15 480.2L267.82 480.68L266.5 481.13L265.16 481.52L263.8 481.86L262.43 482.15L261.06 482.37L259.69 482.56L258.3 482.68L256.91 482.76L255.53 482.77L254.14 482.74L252.75 482.65L251.37 482.51L250 482.31L248.63 482.07L247.27 481.78L245.91 481.43L244.57 481.02L243.25 480.56L241.94 480.06L240.64 479.5L239.38 478.87L238.11 478.2L236.88 477.48L235.67 476.71L234.49 475.88L233.33 475L232.2 474.07L231.09 473.1L230.02 472.04L229 470.98L228.03 469.87L227.11 468.72L226.24 467.55L225.42 466.36L224.66 465.14L223.96 463.89L223.3 462.63L222.69 461.35L222.14 460.05L221.66 458.74L221.2 457.4L220.82 456.06L220.48 454.71L220.19 453.35L219.97 451.98L219.78 450.59L219.66 449.21L219.58 447.83L219.57 446.43L219.6 445.05L219.69 443.67L219.83 442.29L220.03 440.9L220.27 439.55L220.56 438.17L220.91 436.83L221.32 435.49L221.78 434.17L222.28 432.86L222.85 431.56L223.47 430.28L224.12 429.03L224.86 427.8L225.63 426.58L226.46 425.39L227.32 424.23L228.27 423.11L229.24 422.01L230.28 420.94L288.38 362.84L215.82 290.29L259.44 246.67L332 319.22L372.15 278.86L371.93 278.21L371.71 277.54L371.49 276.88L371.29 276.21L371.08 275.55L370.88 274.88L370.15 272.2L369.82 270.86L369.66 270.18L369.51 269.51L369.36 268.82L369.22 268.15L369.08 267.46L368.96 266.78L368.84 266.11L368.6 264.74L368.49 264.05L368.4 263.37L368.29 262.68L368.2 261.99L368.13 261.29L367.9 259.24L367.84 258.54L367.79 257.85L367.73 257.15L367.7 256.46L367.65 255.76L367.62 255.08L367.59 254.38L367.58 253.69L367.55 252.29L367.55 250.51L367.56 250.16L367.56 249.79L367.58 249.42L367.58 249.07L367.62 247.98L367.64 247.63L367.67 247.26L367.68 246.9L367.7 246.54L367.76 245.81L367.77 245.46L367.84 244.73L367.87 244.38L367.9 244.02L367.93 243.66L367.97 243.3L368 242.93L368.05 242.58L368.09 242.22L368.13 241.87L368.17 241.5L368.22 241.15L368.26 240.79L368.31 240.43L368.37 240.07L368.41 239.72L368.46 239.35L368.52 239L368.58 238.64L368.63 238.29L368.69 237.92L368.81 237.22L369.48 233.82L370.29 230.49L371.22 227.21L372.25 224.01L373.43 220.86L374.72 217.79L376.12 214.78L377.63 211.85L379.25 208.99L380.98 206.2L382.81 203.5L384.73 200.88L386.76 198.34L388.86 195.88L391.07 193.52L393.36 191.24L395.73 189.06L398.19 186.97L400.72 184.97L403.32 183.07L405.99 181.27L408.73 179.58L411.53 178L414.4 176.52L417.32 175.15L420.29 173.88L423.33 172.74L426.4 171.7L429.53 170.79L432.7 170L435.9 169.33L439.14 168.79L442.42 168.37L445.72 168.08L449.05 167.92L452.41 167.89L455.78 168.02L459.18 168.26ZM447.55 177.37L445.69 177.49L444.76 177.57L443.84 177.66L441.98 177.87L441.05 178.01L440.13 178.15L439.2 178.29L437.37 178.62L436.45 178.8L435.53 179L434.63 179.2L432.8 179.66L431.91 179.88L430.11 180.4L429.21 180.69L428.31 180.97L427.43 181.27L424.55 182.32L421.76 183.47L419.03 184.73L416.38 186.09L413.79 187.53L411.29 189.07L408.85 190.7L406.51 192.42L404.24 194.22L402.04 196.11L399.94 198.08L397.91 200.12L395.98 202.22L394.12 204.4L392.37 206.64L390.69 208.96L389.11 211.32L387.61 213.74L386.23 216.22L384.93 218.75L383.73 221.33L382.63 223.95L381.62 226.6L380.73 229.31L379.93 232.04L379.23 234.81L378.65 237.62L378.17 240.43L377.8 243.28L377.54 246.15L377.4 249.03L377.37 251.94L377.45 254.85L377.65 257.77L377.97 260.7L378.41 263.62L378.96 266.55L379.64 269.48L380.45 272.39L381.38 275.3L383.57 281.59L237.11 428.07L236.44 428.83L235.8 429.61L235.19 430.42L234.62 431.24L234.09 432.08L233.59 432.93L233.11 433.8L232.69 434.67L232.29 435.57L231.93 436.47L231.61 437.38L231.32 438.3L231.06 439.23L230.83 440.15L230.65 441.1L230.48 442.04L230.36 443L230.28 443.95L230.22 444.91L230.2 445.87L230.22 446.83L230.28 447.77L230.36 448.73L230.48 449.68L230.65 450.62L230.83 451.57L231.06 452.51L231.32 453.43L231.61 454.36L231.93 455.27L232.29 456.17L232.69 457.05L233.11 457.94L233.59 458.8L234.09 459.66L234.62 460.5L235.19 461.3L235.8 462.11L236.44 462.9L237.11 463.66L237.85 464.46L238.63 465.2L239.42 465.92L240.25 466.61L241.08 467.25L241.95 467.84L242.82 468.4L243.72 468.94L244.63 469.42L245.56 469.87L246.51 470.28L247.47 470.66L248.43 470.99L249.4 471.28L250.39 471.54L251.38 471.77L252.39 471.94L253.39 472.09L254.4 472.2L255.41 472.26L256.43 472.29L257.43 472.27L258.45 472.23L259.46 472.14L260.48 472.01L261.47 471.85L262.48 471.63L263.47 471.39L264.46 471.12L265.43 470.78L266.39 470.43L267.35 470.02L268.3 469.58L269.23 469.1L270.14 468.59L271.02 468.02L271.91 467.43L272.78 466.79L273.61 466.12L274.44 465.39L420.9 318.92L427.2 321.11L428.13 321.45L429.07 321.75L430 322.06L430.95 322.35L431.89 322.62L433.78 323.14L435.7 323.6L436.66 323.81L437.62 324.01L439.54 324.37L440.5 324.52L441.47 324.68L442.45 324.81L443.41 324.94L444.38 325.04L445.36 325.13L447.31 325.29L448.28 325.35L449.26 325.38L450.25 325.41L452.2 325.44L453.18 325.42L454.17 325.41L456.12 325.32L457.09 325.26L458.08 325.18L460.03 325L461.98 324.75L462.96 324.62L463.93 324.46L464.91 324.3L465.87 324.11L468.82 323.49L471.73 322.74L474.58 321.89L477.39 320.93L480.11 319.86L482.79 318.69L485.4 317.42L487.94 316.05L490.43 314.61L492.84 313.05L495.18 311.42L497.45 309.7L499.65 307.9L501.76 306.01L503.81 304.05L505.76 302.02L507.65 299.92L509.44 297.74L511.15 295.5L512.78 293.2L514.32 290.84L515.75 288.41L517.11 285.95L518.37 283.42L519.53 280.84L520.58 278.22L521.56 275.55L522.41 272.84L523.17 270.1L523.81 267.33L524.36 264.51L524.79 261.66L525.11 258.79L525.32 255.9L525.41 252.99L525.4 250.05L525.24 247.09L524.98 244.14L524.6 241.17L524.09 238.18L491.69 270.57L490.43 271.78L489.13 272.93L487.81 274.02L486.45 275.04L485.05 276L483.63 276.9L482.19 277.72L480.72 278.5L479.23 279.21L477.71 279.87L476.17 280.45L474.61 280.98L473.04 281.44L471.47 281.83L469.87 282.18L468.27 282.46L466.66 282.67L465.04 282.82L463.43 282.93L461.8 282.96L460.18 282.93L458.55 282.82L456.94 282.67L455.34 282.46L453.74 282.18L452.14 281.83L450.55 281.44L448.99 280.98L447.43 280.45L445.91 279.87L444.38 279.21L442.89 278.5L441.41 277.72L439.97 276.9L438.55 276L437.16 275.04L435.79 274.02L434.46 272.93L433.17 271.78L431.92 270.57L430.72 269.32L429.57 268.03L428.49 266.7L427.47 265.33L426.51 263.94L425.61 262.53L424.77 261.08L424 259.6L423.28 258.11L422.64 256.6L422.05 255.06L421.53 253.51L421.06 251.94L420.66 250.35L420.31 248.77L420.04 247.15L419.82 245.55L419.67 243.94L419.58 242.31L419.55 240.69L419.58 239.06L419.67 237.45L419.82 235.83L420.04 234.22L420.31 232.62L420.66 231.03L421.06 229.45L421.53 227.88L422.05 226.33L422.64 224.79L423.28 223.28L424 221.79L424.77 220.31L425.61 218.86L426.51 217.44L427.47 216.04L428.49 214.69L429.57 213.36L430.72 212.06L431.92 210.82L464.31 178.41L463.4 178.25L462.47 178.1L461.54 177.97L460.61 177.84L459.68 177.74L458.75 177.65L457.81 177.55L456.88 177.48L455.95 177.42L455.02 177.37L454.07 177.33L453.14 177.29L452.22 177.28L450.34 177.28L447.55 177.37ZM409.8 471.05L439.78 441.07L376.14 377.43L346.15 407.41L409.8 471.05ZM295.08 356.25L325.07 326.25L259.34 260.52L229.34 290.5L295.08 356.25Z" id="a45pxlhPU"/></defs><g><g><g><use xlink:href="#anAiXuN8w" opacity="1" fill="#196970" fill-opacity="1"/><g><use xlink:href="#anAiXuN8w" opacity="1" fill-opacity="0" stroke="#000000" stroke-width="1" stroke-opacity="0"/></g></g><g><use xlink:href="#b4IXHNEaq" opacity="1" fill="#000000" fill-opacity="0"/><g><use xlink:href="#b4IXHNEaq" opacity="1" fill-opacity="0" stroke="#000000" stroke-width="1" stroke-opacity="0"/></g></g><g><use xlink:href="#cHi7IfCcc" opacity="1" fill="#ffffff" fill-opacity="1"/><g><use xlink:href="#cHi7IfCcc" opacity="1" fill-opacity="0" stroke="#000000" stroke-width="1" stroke-opacity="0"/></g></g><g><use xlink:href="#g2bYBqvUeC" opacity="1" fill="#000000" fill-opacity="0"/><g><use xlink:href="#g2bYBqvUeC" opacity="1" fill-opacity="0" stroke="#000000" stroke-width="1" stroke-opacity="0"/></g></g><g><use xlink:href="#a8726F7GK" opacity="1" fill="#ffffff" fill-opacity="1"/><g><use xlink:href="#a8726F7GK" opacity="1" fill-opacity="0" stroke="#000000" stroke-width="1" stroke-opacity="0"/></g></g><g><use xlink:href="#a45pxlhPU" opacity="1" fill="#000000" fill-opacity="0"/><g><use xlink:href="#a45pxlhPU" opacity="1" fill-opacity="0" stroke="#000000" stroke-width="1" stroke-opacity="0"/></g></g></g></g></svg>