<?xml version="1.0" encoding="UTF-8"?>
<svg width="110px" height="109px" viewBox="0 0 110 109" version="1.1" xmlns="http://www.w3.org/2000/svg" xmlns:xlink="http://www.w3.org/1999/xlink">
    <!-- Generator: Sketch 53 (72520) - https://sketchapp.com -->
    <title>Group 14</title>
    <desc>Created with Sketch.</desc>
    <defs>
        <polygon id="path-1" points="0.000205660377 0 109 0 109 109 0.000205660377 109"></polygon>
    </defs>
    <g id="Page-1" stroke="none" stroke-width="1" fill="none" fill-rule="evenodd">
        <g id="Network-Icons" transform="translate(-791.000000, -275.000000)">
            <g id="Group-14" transform="translate(791.046875, 275.000000)">
                <g id="Group-8">
                    <g id="Group-3">
                        <mask id="mask-2" fill="white">
                            <use xlink:href="#path-1"></use>
                        </mask>
                        <g id="Clip-2"></g>
                        <path d="M54.5002057,0 C84.5986019,0 109.000206,24.4016038 109.000206,54.5 C109.000206,84.5983962 84.5986019,109 54.5002057,109 C24.3997528,109 0.000205660377,84.5983962 0.000205660377,54.5 C0.000205660377,24.4016038 24.3997528,0 54.5002057,0" id="Fill-1" fill="#325C80" mask="url(#mask-2)"></path>
                    </g>
                    <path d="M54.5002057,20.4107642 C68.6146774,20.4107642 80.0555642,25.2478962 80.0555642,31.2161604 C80.0555642,37.1844245 68.6146774,42.0215566 54.5002057,42.0215566 C40.385734,42.0215566 28.9427906,37.1844245 28.9427906,31.2161604 C28.9427906,25.2478962 40.385734,20.4107642 54.5002057,20.4107642" id="Fill-4" fill="#FEFEFE"></path>
                    <path d="M80.999134,34.9470453 C79.6705679,40.6500075 68.3078321,45.1087245 54.4997943,45.1087245 C40.6917566,45.1087245 29.3290208,40.6500075 28.0004547,34.9470453 L27.8708887,34.9470453 L27.8708887,77.3110264 C27.8708887,83.5301962 39.7909642,88.5894415 54.4997943,88.5894415 C69.2086245,88.5894415 81.1266434,83.5301962 81.1266434,77.3110264 L81.1266434,34.9470453 L80.999134,34.9470453 Z" id="Fill-6" fill="#FEFEFE"></path>
                </g>
                <text id="10-01" font-family="IBMPlexSans-Bold, IBM Plex Sans" font-size="17.8" font-weight="bold" fill="#325C80">
                    <tspan x="42.9631704" y="60">10</tspan>
                    <tspan x="42.9631704" y="83">01</tspan>
                </text>
            </g>
        </g>
    </g>
</svg>